<svg width="32" height="33" viewBox="0 0 32 33" fill="none" xmlns="http://www.w3.org/2000/svg">
<path d="M16 4.12012C12.74 4.12012 12.333 4.13512 11.053 4.19212C9.775 4.25212 8.905 4.45312 8.14 4.75012C7.351 5.05612 6.681 5.46712 6.014 6.13412C5.347 6.80112 4.935 7.47012 4.63 8.26012C4.333 9.02512 4.131 9.89512 4.072 11.1731C4.012 12.4531 4 12.8601 4 16.1201C4 19.3801 4.015 19.7871 4.072 21.0671C4.132 22.3441 4.333 23.2151 4.63 23.9801C4.936 24.7681 5.347 25.4391 6.014 26.1061C6.681 26.7721 7.35 27.1851 8.14 27.4901C8.906 27.7861 9.776 27.9891 11.053 28.0481C12.333 28.1081 12.74 28.1201 16 28.1201C19.26 28.1201 19.667 28.1051 20.947 28.0481C22.224 27.9881 23.095 27.7861 23.86 27.4901C24.648 27.1841 25.319 26.7721 25.986 26.1061C26.652 25.4391 27.065 24.7711 27.37 23.9801C27.666 23.2151 27.869 22.3441 27.928 21.0671C27.988 19.7871 28 19.3801 28 16.1201C28 12.8601 27.985 12.4531 27.928 11.1731C27.868 9.89612 27.666 9.02412 27.37 8.26012C27.064 7.47112 26.652 6.80112 25.986 6.13412C25.319 5.46712 24.651 5.05512 23.86 4.75012C23.095 4.45312 22.224 4.25112 20.947 4.19212C19.667 4.13212 19.26 4.12012 16 4.12012ZM20.85 6.35112C22.02 6.40612 22.655 6.60012 23.077 6.76612C23.639 6.98312 24.037 7.24312 24.459 7.66212C24.878 8.08212 25.138 8.48112 25.355 9.04312C25.519 9.46512 25.715 10.1001 25.768 11.2701C25.825 12.5361 25.838 12.9161 25.838 16.1201C25.838 19.3241 25.823 19.7051 25.764 20.9701C25.703 22.1401 25.508 22.7751 25.343 23.1971C25.119 23.7591 24.864 24.1571 24.444 24.5791C24.025 24.9981 23.62 25.2581 23.064 25.4751C22.644 25.6391 21.999 25.8351 20.829 25.8881C19.555 25.9451 19.18 25.9581 15.97 25.9581C12.759 25.9581 12.384 25.9431 11.111 25.8841C9.94 25.8231 9.295 25.6281 8.875 25.4631C8.306 25.2391 7.915 24.9841 7.496 24.5641C7.075 24.1451 6.806 23.7401 6.596 23.1841C6.431 22.7641 6.237 22.1191 6.176 20.9491C6.131 19.6891 6.115 19.3001 6.115 16.1051C6.115 12.9091 6.131 12.5191 6.176 11.2441C6.237 10.0741 6.431 9.43012 6.596 9.01012C6.806 8.44012 7.075 8.05012 7.496 7.62912C7.915 7.21012 8.306 6.94012 8.875 6.73112C9.295 6.56512 9.926 6.37012 11.096 6.31012C12.371 6.26512 12.746 6.25012 15.955 6.25012L16 6.28012C19.203 6.28012 19.585 6.29612 20.85 6.35112ZM16 9.95812C12.595 9.95812 9.838 12.7181 9.838 16.1201C9.838 19.5251 12.598 22.2821 16 22.2821C19.405 22.2821 22.162 19.5221 22.162 16.1201C22.162 12.7151 19.402 9.95812 16 9.95812ZM16 20.1201C13.79 20.1201 12 18.3301 12 16.1201C12 13.9101 13.79 12.1201 16 12.1201C18.21 12.1201 20 13.9101 20 16.1201C20 18.3301 18.21 20.1201 16 20.1201ZM23.846 9.71512C23.846 10.5101 23.2 11.1551 22.406 11.1551C21.611 11.1551 20.966 10.5091 20.966 9.71512C20.966 8.92112 21.612 8.27612 22.406 8.27612C23.199 8.27512 23.846 8.92112 23.846 9.71512Z" fill="#8999A3"/>
</svg>
