<svg width="32" height="33" viewBox="0 0 32 33" fill="none" xmlns="http://www.w3.org/2000/svg">
<path fill-rule="evenodd" clip-rule="evenodd" d="M29.6961 7.74C28.6821 8.17871 27.5994 8.47758 26.4593 8.61404C27.6211 7.92496 28.5148 6.83888 28.9376 5.54304C27.848 6.16897 26.6403 6.6246 25.3548 6.87836C24.3281 5.7968 22.865 5.12012 21.2403 5.12012C18.1272 5.12012 15.603 7.60466 15.603 10.6655C15.603 11.1054 15.6545 11.5283 15.7485 11.9332C11.0622 11.7155 6.90876 9.50049 4.12909 6.15205C3.63984 6.96633 3.366 7.91255 3.366 8.94336C3.366 10.8719 4.36283 12.567 5.87297 13.5628C4.94833 13.5335 4.07867 13.2831 3.32016 12.8681V12.9369C3.32016 15.6267 5.25998 17.8699 7.84143 18.3808C7.36822 18.506 6.86866 18.5736 6.3565 18.5736C5.99672 18.5736 5.65184 18.5398 5.30696 18.4767C6.02995 20.6792 8.1084 22.2852 10.5822 22.3303C8.65723 23.8179 6.21786 24.7044 3.59057 24.7044C3.14371 24.7044 2.698 24.6784 2.25 24.6288C4.75812 26.201 7.71311 27.1201 10.9087 27.1201C21.2826 27.1201 26.9486 18.6661 26.9486 11.3467C26.9486 11.111 26.9486 10.873 26.9314 10.6362C28.0325 9.85913 28.9938 8.87682 29.75 7.76255L29.6961 7.74Z" fill="#8999A3"/>
</svg>
