<svg width="36" height="36" viewBox="0 0 36 36" fill="none" xmlns="http://www.w3.org/2000/svg">
<rect width="36" height="36" rx="18" fill="#211D48"/>
<g clip-path="url(#clip0_5360_1939)">
<path d="M13.4241 10.1991C13.4115 11.4378 12.3876 12.4364 11.1488 12.4111C9.93536 12.3859 8.97469 11.362 8.99997 10.1359C9.03789 8.92237 10.0618 7.9617 11.2752 7.99962C12.4761 8.0249 13.4241 9.01086 13.4241 10.1991Z" fill="#6960B8"/>
<path d="M13.0449 14.6235H9.25281V25.9999H13.0449V14.6235Z" fill="#6960B8"/>
<path d="M23.1573 25.9999V20.0084C23.1573 18.2134 22.3989 17.5688 21.4129 17.5688C20.2121 17.6572 19.2893 18.7064 19.3652 19.9199V25.9999H15.573V14.6235H19.2388V16.2668C19.9972 15.1292 21.2865 14.4592 22.6517 14.4971C24.611 14.4971 26.8989 15.5842 26.8989 19.1235L26.9494 25.9999H23.1573Z" fill="#6960B8"/>
</g>
<defs>
<clipPath id="clip0_5360_1939">
<rect width="17.9494" height="18" fill="white" transform="translate(9 8)"/>
</clipPath>
</defs>
</svg>
