<svg width="36" height="36" viewBox="0 0 36 36" fill="none" xmlns="http://www.w3.org/2000/svg">
<rect width="36" height="36" rx="18" fill="#9285FF"/>
<rect x="0.5" y="0.5" width="35" height="35" rx="17.5" stroke="white" stroke-opacity="0.24"/>
<path fill-rule="evenodd" clip-rule="evenodd" d="M29 18.0672C29 11.955 24.0751 7 18 7C11.9249 7 7 11.955 7 18.0672C7 23.5912 11.0225 28.1697 16.2812 29V21.2663H13.4883V18.0672H16.2812V15.629C16.2812 12.8553 17.9235 11.3231 20.4361 11.3231C21.6396 11.3231 22.8984 11.5393 22.8984 11.5393V14.2629H21.5114C20.1449 14.2629 19.7187 15.116 19.7187 15.9912V18.0672H22.7695L22.2818 21.2663H19.7187V29C24.9775 28.1697 29 23.5912 29 18.0672" fill="#F6F5FF"/>
</svg>
