<svg width="36" height="36" viewBox="0 0 36 36" fill="none" xmlns="http://www.w3.org/2000/svg">
<rect width="36" height="36" rx="18" fill="#9285FF"/>
<rect x="0.5" y="0.5" width="35" height="35" rx="17.5" stroke="white" stroke-opacity="0.24"/>
<path d="M18 7C15.0117 7 14.6386 7.01375 13.4653 7.066C12.2938 7.121 11.4962 7.30525 10.795 7.5775C10.0717 7.858 9.45758 8.23475 8.84617 8.84617C8.23475 9.45758 7.85708 10.0708 7.5775 10.795C7.30525 11.4962 7.12008 12.2938 7.066 13.4653C7.011 14.6386 7 15.0117 7 18C7 20.9883 7.01375 21.3614 7.066 22.5347C7.121 23.7053 7.30525 24.5038 7.5775 25.205C7.858 25.9273 8.23475 26.5424 8.84617 27.1538C9.45758 27.7643 10.0708 28.1429 10.795 28.4225C11.4972 28.6938 12.2947 28.8799 13.4653 28.934C14.6386 28.989 15.0117 29 18 29C20.9883 29 21.3614 28.9862 22.5347 28.934C23.7053 28.879 24.5038 28.6938 25.205 28.4225C25.9273 28.142 26.5424 27.7643 27.1538 27.1538C27.7643 26.5424 28.1429 25.9301 28.4225 25.205C28.6938 24.5038 28.8799 23.7053 28.934 22.5347C28.989 21.3614 29 20.9883 29 18C29 15.0117 28.9862 14.6386 28.934 13.4653C28.879 12.2947 28.6938 11.4953 28.4225 10.795C28.142 10.0717 27.7643 9.45758 27.1538 8.84617C26.5424 8.23475 25.9301 7.85708 25.205 7.5775C24.5038 7.30525 23.7053 7.12008 22.5347 7.066C21.3614 7.011 20.9883 7 18 7V7ZM22.4458 9.04508C23.5183 9.0955 24.1004 9.27333 24.4872 9.4255C25.0024 9.62442 25.3672 9.86275 25.7541 10.2468C26.1382 10.6318 26.3765 10.9976 26.5754 11.5127C26.7258 11.8996 26.9054 12.4817 26.954 13.5542C27.0063 14.7147 27.0182 15.063 27.0182 18C27.0182 20.937 27.0044 21.2862 26.9503 22.4458C26.8944 23.5183 26.7157 24.1004 26.5644 24.4872C26.3591 25.0024 26.1253 25.3672 25.7403 25.7541C25.3563 26.1382 24.985 26.3765 24.4753 26.5754C24.0903 26.7258 23.4991 26.9054 22.4266 26.954C21.2587 27.0063 20.915 27.0182 17.9725 27.0182C15.0291 27.0182 14.6853 27.0044 13.5184 26.9503C12.445 26.8944 11.8537 26.7157 11.4687 26.5644C10.9472 26.3591 10.5887 26.1253 10.2047 25.7403C9.81875 25.3563 9.57217 24.985 9.37967 24.4753C9.22842 24.0903 9.05058 23.4991 8.99467 22.4266C8.95342 21.2716 8.93875 20.915 8.93875 17.9863C8.93875 15.0566 8.95342 14.6991 8.99467 13.5303C9.05058 12.4578 9.22842 11.8675 9.37967 11.4825C9.57217 10.96 9.81875 10.6025 10.2047 10.2166C10.5887 9.8325 10.9472 9.585 11.4687 9.39342C11.8537 9.24125 12.4322 9.0625 13.5047 9.0075C14.6734 8.96625 15.0172 8.9525 17.9588 8.9525L18 8.98C20.9361 8.98 21.2862 8.99467 22.4458 9.04508V9.04508ZM18 12.3515C14.8787 12.3515 12.3515 14.8815 12.3515 18C12.3515 21.1212 14.8815 23.6485 18 23.6485C21.1212 23.6485 23.6485 21.1185 23.6485 18C23.6485 14.8787 21.1185 12.3515 18 12.3515ZM18 21.6667C15.9742 21.6667 14.3333 20.0258 14.3333 18C14.3333 15.9742 15.9742 14.3333 18 14.3333C20.0258 14.3333 21.6667 15.9742 21.6667 18C21.6667 20.0258 20.0258 21.6667 18 21.6667ZM25.1922 12.1287C25.1922 12.8575 24.6 13.4487 23.8722 13.4487C23.1434 13.4487 22.5522 12.8566 22.5522 12.1287C22.5522 11.4009 23.1443 10.8097 23.8722 10.8097C24.5991 10.8087 25.1922 11.4009 25.1922 12.1287Z" fill="#F6F5FF"/>
</svg>
