<svg width="55" height="32" viewBox="0 0 55 32" fill="none" xmlns="http://www.w3.org/2000/svg">
<g clip-path="url(#clip0_5237_974)">
<path d="M15.7353 11.6218C15.7353 12.2803 15.8065 12.8142 15.9311 13.2058C16.0735 13.5973 16.2514 14.0245 16.5006 14.4872C16.5896 14.6296 16.6252 14.772 16.6252 14.8966C16.6252 15.0745 16.5184 15.2525 16.287 15.4305L15.1658 16.178C15.0056 16.2848 14.8454 16.3382 14.7031 16.3382C14.5251 16.3382 14.3471 16.2492 14.1691 16.089C13.92 15.822 13.7064 15.5373 13.5284 15.2525C13.3504 14.9499 13.1725 14.6118 12.9767 14.2024C11.5885 15.8398 9.84432 16.6585 7.74421 16.6585C6.24921 16.6585 5.05678 16.2314 4.1847 15.3771C3.31261 14.5228 2.86768 13.3838 2.86768 11.96C2.86768 10.4472 3.4016 9.21913 4.48725 8.29366C5.5729 7.36819 7.01451 6.90545 8.84765 6.90545C9.45277 6.90545 10.0757 6.95884 10.7342 7.04783C11.3927 7.13682 12.069 7.2792 12.7809 7.43938V6.14016C12.7809 4.78754 12.4962 3.84427 11.9444 3.29255C11.3749 2.74082 10.4138 2.47386 9.04343 2.47386C8.42051 2.47386 7.7798 2.54505 7.12129 2.70523C6.46278 2.86541 5.82207 3.06118 5.19916 3.31035C4.9144 3.43493 4.70082 3.50612 4.57624 3.54171C4.45166 3.57731 4.36267 3.59511 4.29148 3.59511C4.04231 3.59511 3.91773 3.41713 3.91773 3.04338V2.1713C3.91773 1.88654 3.95333 1.67297 4.04231 1.54839C4.1313 1.4238 4.29148 1.29922 4.54065 1.17464C5.16356 0.854283 5.91106 0.587319 6.78314 0.373749C7.65522 0.14238 8.58069 0.0355951 9.55956 0.0355951C11.6775 0.0355951 13.2259 0.516129 14.2225 1.4772C15.2014 2.43827 15.6997 3.89766 15.6997 5.8554V11.6218H15.7353ZM8.5095 14.327C9.09682 14.327 9.70194 14.2202 10.3426 14.0067C10.9834 13.7931 11.5529 13.4016 12.0334 12.8676C12.3182 12.5295 12.5317 12.1557 12.6385 11.7286C12.7453 11.3014 12.8165 10.7853 12.8165 10.1802V9.4327C12.3004 9.30812 11.7487 9.20134 11.1791 9.13015C10.6096 9.05896 10.0579 9.02336 9.50616 9.02336C8.31373 9.02336 7.44165 9.25473 6.85433 9.73526C6.26701 10.2158 5.98225 10.8921 5.98225 11.782C5.98225 12.6185 6.19582 13.2414 6.64076 13.6685C7.0679 14.1135 7.69081 14.327 8.5095 14.327ZM22.8009 16.2492C22.4806 16.2492 22.267 16.1958 22.1246 16.0712C21.9823 15.9644 21.8577 15.7152 21.7509 15.3771L17.5685 1.61958C17.4617 1.26363 17.4083 1.03226 17.4083 0.907675C17.4083 0.622914 17.5507 0.462736 17.8354 0.462736H19.5796C19.9177 0.462736 20.1491 0.516129 20.2737 0.640712C20.4161 0.747497 20.5229 0.996663 20.6296 1.33482L23.6196 13.1168L26.396 1.33482C26.485 0.978866 26.5918 0.747497 26.7342 0.640712C26.8766 0.533927 27.1257 0.462736 27.4461 0.462736H28.8699C29.2081 0.462736 29.4394 0.516129 29.5818 0.640712C29.7242 0.747497 29.8488 0.996663 29.92 1.33482L32.732 13.2592L35.811 1.33482C35.9177 0.978866 36.0423 0.747497 36.1669 0.640712C36.3093 0.533927 36.5407 0.462736 36.861 0.462736H38.5162C38.8009 0.462736 38.9611 0.605117 38.9611 0.907675C38.9611 0.996663 38.9433 1.08565 38.9255 1.19244C38.9077 1.29922 38.8721 1.4416 38.8009 1.63737L34.5117 15.3949C34.4049 15.7508 34.2804 15.9822 34.138 16.089C33.9956 16.1958 33.7642 16.267 33.4617 16.267H31.9311C31.5929 16.267 31.3616 16.2136 31.2192 16.089C31.0768 15.9644 30.9522 15.733 30.881 15.3771L28.1224 3.89766L25.3816 15.3593C25.2926 15.7152 25.1858 15.9466 25.0434 16.0712C24.9011 16.1958 24.6519 16.2492 24.3315 16.2492H22.8009ZM45.6708 16.7297C44.7453 16.7297 43.8199 16.6229 42.93 16.4093C42.0401 16.1958 41.346 15.9644 40.8833 15.6974C40.5985 15.5373 40.4027 15.3593 40.3315 15.1991C40.2603 15.0389 40.2248 14.861 40.2248 14.7008V13.7931C40.2248 13.4194 40.3671 13.2414 40.6341 13.2414C40.7409 13.2414 40.8477 13.2592 40.9544 13.2948C41.0612 13.3304 41.2214 13.4016 41.3994 13.4727C42.0045 13.7397 42.663 13.9533 43.3571 14.0957C44.069 14.238 44.7631 14.3092 45.475 14.3092C46.5963 14.3092 47.4684 14.1135 48.0735 13.7219C48.6786 13.3304 48.9989 12.7608 48.9989 12.0311C48.9989 11.5328 48.8388 11.1235 48.5184 10.7853C48.1981 10.4472 47.5929 10.1446 46.7209 9.85985L44.1402 9.05896C42.841 8.64961 41.8799 8.04449 41.2926 7.24361C40.7053 6.46051 40.4027 5.58843 40.4027 4.66296C40.4027 3.91546 40.5629 3.25695 40.8833 2.68743C41.2036 2.11791 41.6308 1.61958 42.1647 1.22803C42.6986 0.818688 43.3037 0.516129 44.0156 0.302558C44.7275 0.0889878 45.475 0 46.2581 0C46.6497 0 47.059 0.0177976 47.4506 0.0711902C47.8599 0.124583 48.2337 0.195773 48.6074 0.266963C48.9634 0.355951 49.3015 0.444939 49.6219 0.551724C49.9422 0.65851 50.1914 0.765295 50.3694 0.87208C50.6185 1.01446 50.7965 1.15684 50.9033 1.31702C51.0101 1.4594 51.0635 1.65517 51.0635 1.90434V2.74082C51.0635 3.11457 50.9211 3.31035 50.6541 3.31035C50.5117 3.31035 50.2804 3.23916 49.9778 3.09677C48.9634 2.63404 47.8243 2.40267 46.5607 2.40267C45.5462 2.40267 44.7453 2.56285 44.1936 2.901C43.6419 3.23915 43.3571 3.75528 43.3571 4.48498C43.3571 4.98332 43.5351 5.41046 43.891 5.74861C44.247 6.08676 44.9055 6.42492 45.8488 6.72748L48.376 7.52837C49.6575 7.93771 50.5829 8.50723 51.1347 9.23693C51.6864 9.96663 51.9533 10.8031 51.9533 11.7286C51.9533 12.4939 51.7932 13.188 51.4906 13.7931C51.1702 14.3982 50.7431 14.9321 50.1914 15.3593C49.6397 15.8042 48.9812 16.1246 48.2159 16.356C47.415 16.6051 46.5785 16.7297 45.6708 16.7297Z" fill="#252F3E"/>
<path fill-rule="evenodd" clip-rule="evenodd" d="M49.0345 25.3793C43.1791 29.7041 34.6719 32 27.3571 32C17.1057 32 7.86874 28.2092 0.892096 21.9088C0.340371 21.4105 0.838703 20.7342 1.49721 21.1257C9.04338 25.5039 18.3515 28.1558 27.98 28.1558C34.4761 28.1558 41.6129 26.8031 48.1802 24.0267C49.1591 23.5818 49.9956 24.6674 49.0345 25.3793Z" fill="#FF9900"/>
<path fill-rule="evenodd" clip-rule="evenodd" d="M51.4728 22.6029C50.7253 21.6419 46.5251 22.1402 44.6207 22.3716C44.0512 22.4427 43.9622 21.9444 44.4784 21.5707C47.8243 19.2214 53.3237 19.8977 53.9645 20.6808C54.6052 21.4817 53.7865 26.9811 50.6541 29.6152C50.1736 30.0245 49.7108 29.8109 49.9244 29.277C50.6363 27.515 52.2203 23.5462 51.4728 22.6029Z" fill="#FF9900"/>
</g>
<defs>
<clipPath id="clip0_5237_974">
<rect width="53.5119" height="32" fill="white" transform="translate(0.655518)"/>
</clipPath>
</defs>
</svg>
