<svg width="50" height="48" viewBox="0 0 50 48" fill="none" xmlns="http://www.w3.org/2000/svg">
<g clip-path="url(#clip0_5239_778)">
<path d="M15.9521 48.0001C12.9101 48.0001 10.1939 47.2569 7.8044 45.7685C5.4142 44.2808 3.5239 42.2465 2.13284 39.665C0.742439 37.0822 0.0472412 34.1514 0.0472412 30.8694C0.0472412 27.588 0.74244 24.6779 2.1335 22.1404C3.5239 19.5589 5.4142 17.546 7.8044 16.1016C10.1939 14.6146 12.9101 13.8707 15.9521 13.8707C18.385 13.8707 20.5146 14.33 22.3402 15.2484C23.8026 15.985 25.0424 16.9608 26.0589 18.1745C26.2888 18.4505 26.772 18.2945 26.772 17.9359V1.98902C26.772 1.81639 26.8934 1.66775 27.0627 1.63243L34.6765 0.0474009C34.9031 7.6764e-05 35.1164 0.17271 35.1164 0.403998V46.8483C35.1164 46.8962 35.107 46.9437 35.0886 46.988C35.0702 47.0323 35.0433 47.0725 35.0094 47.1064C34.9755 47.1402 34.9352 47.1671 34.8909 47.1853C34.8466 47.2036 34.7991 47.213 34.7512 47.2129H27.9851C27.9006 47.2129 27.8186 47.1836 27.7533 47.1298C27.688 47.0761 27.6434 47.0013 27.6272 46.9183L26.934 43.3776C26.8727 43.0644 26.4614 42.9711 26.2581 43.217C25.2863 44.3888 24.0672 45.4366 22.6009 46.3597C20.9059 47.4529 18.6896 48.0001 15.9521 48.0001ZM17.7118 40.6495C20.406 40.6495 22.6009 39.7524 24.2952 37.958C26.0335 36.1204 26.9027 33.7795 26.9027 30.9354C26.9027 28.0913 26.0335 25.7724 24.2952 23.9781C22.6009 22.1404 20.406 21.2213 17.7118 21.2213C15.061 21.2213 12.8661 22.1184 11.1284 23.9121C9.39009 25.7064 8.52093 28.0253 8.52093 30.8694C8.52093 33.7135 9.39009 36.0551 11.1284 37.8927C12.8667 39.7304 15.061 40.6495 17.7118 40.6495Z" fill="#01090F"/>
<path d="M44.3353 47.0804C47.438 47.0804 49.9529 44.5482 49.9529 41.4241C49.9529 38.3007 47.4374 35.7686 44.3353 35.7686C41.2332 35.7686 38.7184 38.3007 38.7184 41.4241C38.7184 44.5482 41.2332 47.0804 44.3353 47.0804Z" fill="#2C71F0"/>
</g>
<defs>
<clipPath id="clip0_5239_778">
<rect width="50" height="48" fill="white"/>
</clipPath>
</defs>
</svg>
