<svg width="47" height="32" viewBox="0 0 47 32" fill="none" xmlns="http://www.w3.org/2000/svg">
<path d="M39.8631 11.5812C39.6287 9.84403 38.6636 8.35502 36.9127 6.99009L35.9062 6.31452L35.2306 7.32098C34.3758 8.61698 33.9346 10.4231 34.0725 12.1465C34.1414 12.7531 34.3345 13.8423 34.9549 14.7936C34.3345 15.1245 33.1074 15.5933 31.4667 15.5657H0.169873L0.114724 15.9242C-0.174806 17.6614 -0.174806 23.0659 3.34092 27.2296C6.01563 30.3869 10.0139 32 15.253 32C26.5861 32 34.9687 26.7885 38.898 17.3029C40.4422 17.3305 43.7649 17.3167 45.4745 14.0491C45.5158 13.9802 45.6261 13.7734 45.9157 13.1667L46.0811 12.8221L45.116 12.1741C44.082 11.4847 41.6968 11.2365 39.8631 11.5812ZM25.2074 0H20.4508V4.32917H25.2074V0ZM25.2074 5.19776H20.4508V9.51314H25.2074V5.19776ZM19.5822 5.19776H14.8256V9.51314H19.5822V5.19776ZM13.957 5.19776H9.20046V9.51314H13.957V5.19776ZM8.33187 10.3817H3.5753V14.7109H8.33187V10.3817ZM13.957 10.3817H9.20046V14.7109H13.957V10.3817ZM19.5822 10.3817H14.8256V14.7109H19.5822V10.3817ZM25.2074 10.3817H20.4508V14.7109H25.2074V10.3817ZM30.8325 10.3817H26.0759V14.7109H30.8325V10.3817Z" fill="white"/>
</svg>
