<svg width="27" height="40" viewBox="0 0 27 40" fill="none" xmlns="http://www.w3.org/2000/svg">
<g clip-path="url(#clip0_5238_740)">
<path d="M6.65472 39.9999C10.3281 39.9999 13.3094 37.0132 13.3094 33.3332V26.6665H6.65472C2.98134 26.6667 0 29.6532 0 33.3332C0 37.0132 2.98134 39.9999 6.65472 39.9999Z" fill="#0ACF83"/>
<path d="M0 20.0002C0 16.3202 2.98134 13.3335 6.65472 13.3335H13.3094V26.6668H6.65472C2.98134 26.6669 0 23.6802 0 20.0002Z" fill="#A259FF"/>
<path d="M0 6.66672C0 2.98672 2.98134 0 6.65472 0H13.3094V13.3333H6.65472C2.98134 13.3333 0 10.3467 0 6.66672Z" fill="#F24E1E"/>
<path d="M13.3093 0H19.964C23.6374 0 26.6188 2.98672 26.6188 6.66672C26.6188 10.3467 23.6374 13.3334 19.964 13.3334H13.3093V0V0Z" fill="#FF7262"/>
<path d="M26.6188 20.0002C26.6188 23.6802 23.6374 26.6669 19.964 26.6669C16.2907 26.6669 13.3093 23.6802 13.3093 20.0002C13.3093 16.3202 16.2907 13.3335 19.964 13.3335C23.6374 13.3335 26.6188 16.3202 26.6188 20.0002Z" fill="#1ABCFE"/>
</g>
<defs>
<clipPath id="clip0_5238_740">
<rect width="26.6187" height="40" fill="white"/>
</clipPath>
</defs>
</svg>
