<svg width="36" height="36" viewBox="0 0 36 36" fill="none" xmlns="http://www.w3.org/2000/svg">
<g clip-path="url(#clip0_5238_746)">
<path d="M35.3945 14.3758L35.3441 14.2469L30.45 1.47697C30.3506 1.22652 30.1745 1.01389 29.9472 0.869412C29.718 0.724791 29.4497 0.654852 29.1791 0.669251C28.9086 0.68365 28.6491 0.781675 28.4366 0.949797C28.2261 1.11858 28.0744 1.34953 28.0029 1.6097L24.6941 11.7362H11.3073L7.99848 1.6097C7.92703 1.34953 7.77525 1.11858 7.56478 0.949797C7.3532 0.780545 7.09393 0.681783 6.82338 0.667366C6.55282 0.652949 6.28453 0.723603 6.05617 0.869412C5.82776 1.0133 5.65101 1.22606 5.55142 1.47697L0.651729 14.2636L0.601254 14.3908C-0.102097 16.2324 -0.188554 18.2525 0.354884 20.1475C0.898322 22.0424 2.04228 23.7098 3.61473 24.8987L3.63342 24.9118L3.67642 24.9454L11.1409 30.533L14.8311 33.3279L17.0745 35.0271C17.3379 35.2262 17.6592 35.334 17.9895 35.334C18.3197 35.334 18.641 35.2262 18.9046 35.0271L21.1479 33.3279L24.8399 30.533L32.3475 24.9118L32.3679 24.8968C33.9457 23.709 35.0943 22.0403 35.6402 20.1423C36.1863 18.2444 36.1 16.2205 35.3945 14.3758Z" fill="#E24329"/>
<path d="M35.3947 14.376L35.3443 14.2471C32.9574 14.7389 30.7082 15.7505 28.7565 17.21L18.0093 25.355C21.6733 28.1255 24.8626 30.5332 24.8626 30.5332L32.37 24.912L32.3906 24.897C33.9645 23.7063 35.1085 22.0361 35.6504 20.1385C36.1923 18.2407 36.1025 16.2183 35.3947 14.376Z" fill="#FC6D26"/>
<path d="M11.1467 30.5332L14.8313 33.3281L17.0746 35.0273C17.3382 35.2264 17.6594 35.3342 17.9897 35.3342C18.32 35.3342 18.6413 35.2264 18.9047 35.0273L21.148 33.3281L24.8401 30.5332C24.8401 30.5332 21.6509 28.1255 17.9868 25.355L11.1467 30.5332Z" fill="#FCA326"/>
<path d="M7.23952 17.2175C5.28836 15.7574 3.03888 14.7464 0.651749 14.2563L0.601275 14.3835C-0.103883 16.226 -0.191291 18.2477 0.352214 20.1443C0.895718 22.0408 2.0407 23.7094 3.61475 24.8988L3.63345 24.9119L3.67644 24.9455L11.141 30.5332L18.0091 25.3549L7.23952 17.2175Z" fill="#FC6D26"/>
</g>
<defs>
<clipPath id="clip0_5238_746">
<rect width="36" height="36" fill="white"/>
</clipPath>
</defs>
</svg>
