<svg width="35" height="48" viewBox="0 0 35 48" fill="none" xmlns="http://www.w3.org/2000/svg">
<path d="M24.0855 33.3121C22.8932 33.6497 20.2077 34.2002 16.3675 34.2002C12.5988 34.2002 9.51941 33.5551 9.50981 32.7953C9.50345 32.29 10.1145 32.0697 10.1145 32.0697L10.0057 32.0066C8.20107 32.3256 6.5246 32.8187 6.53429 33.5569C6.551 34.8965 11.6737 35.9025 16.3601 35.9025C20.3443 35.9025 24.1708 35.234 25.8969 34.3582L24.0855 33.3121ZM11.3494 37.4535C10.5125 37.6201 8.68844 38.0389 8.68844 38.9259C8.68844 40.1546 12.591 41.0957 16.3586 41.0957C21.5429 41.0957 23.6663 39.7617 23.7624 39.6926L21.6067 38.4455C20.69 38.664 19.1453 39.0072 16.3638 39.0072C13.2595 39.0072 11.237 38.4755 11.237 37.8935C11.237 37.7699 11.3142 37.6234 11.4581 37.5163L11.3494 37.4535ZM32.5343 29.1862C32.3892 31.9684 29.8187 33.7009 27.2495 35.1647L27.4824 35.299C30.2239 34.5277 35.1155 32.2818 34.7111 28.8297C34.5097 27.108 32.9361 25.8779 30.8846 25.8779C30.2457 25.8779 29.6774 25.9906 29.2167 26.1309L29.2152 26.1353L29.118 26.3802C30.9529 26.0211 32.6296 27.361 32.5343 29.1862V29.1862ZM16.2878 45.5139C23.4993 45.4512 31.5682 44.0397 31.5474 41.6673C31.5437 41.2374 31.2637 40.9429 31.0204 40.7648L30.902 40.8326C30.2354 42.6705 24.6004 44.0282 16.2755 44.1009C10.9038 44.1477 3.46303 42.8608 3.45002 41.3736C3.43701 39.8826 6.97494 39.0632 6.97494 39.0632L6.72498 38.9204C4.35411 39.2468 -0.0143994 40.3823 3.56846e-05 42.0216C0.0208336 44.3917 10.0607 45.5685 16.2878 45.5139V45.5139ZM15.5376 47.2077C12.6712 47.233 9.17107 46.9956 6.22669 46.5007L5.95403 46.6576C8.88692 47.5175 12.9702 48.0369 17.457 47.998C26.2687 47.9207 33.4127 45.7357 33.554 43.106L33.452 43.0466C32.8614 43.7674 29.0502 47.0898 15.5376 47.2077V47.2077ZM4.49875 28.5518C4.49875 27.2226 9.54058 26.4769 11.8881 26.2963L12.1121 26.4258C11.2103 26.5898 7.59223 27.2279 7.59223 28.0602C7.59223 28.9665 13.1416 29.5604 16.3627 29.5604C21.8337 29.5604 25.5526 28.7324 26.5528 28.4594L27.9521 29.2737C26.9938 29.743 22.8798 30.9727 16.3631 30.9727C9.12026 30.9727 4.49875 29.5556 4.49875 28.5518" fill="white"/>
<path d="M26.3858 9.97362L26.2645 9.90429C24.0617 10.6421 17.2815 13.3183 17.2815 18.3082C17.2815 21.1304 20.0374 22.6933 20.0374 25.3399C20.0374 26.2839 19.5043 27.169 19.0703 27.6981L19.2885 27.8242C20.4355 27.0785 22.4665 25.4641 22.4665 23.3796C22.4665 21.6146 20.0233 19.4937 20.0233 17.2249C20.0233 13.6499 24.7373 10.845 26.3858 9.97362V9.97362ZM23.0575 3.43347C23.0575 10.8186 12.9368 13.6447 12.9368 18.8954C12.9368 22.5813 15.381 24.8929 16.7332 26.354L16.6234 26.4175C14.9162 25.3495 10.4242 22.6656 10.4242 18.2321C10.4242 12.008 22.0488 9.03391 22.0488 1.96404C22.0488 1.09413 21.92 0.42746 21.8299 0.0676274L21.9476 -0.000178522C22.3159 0.462789 23.0575 1.62016 23.0575 3.43347" fill="#F89917"/>
</svg>
