<svg width="44" height="44" viewBox="0 0 44 44" fill="none" xmlns="http://www.w3.org/2000/svg">
<g clip-path="url(#clip0_5237_963)">
<path d="M44 0H0V44H44V0Z" fill="#F7DF1E"/>
<path d="M29.5569 34.3751C30.4432 35.8222 31.5962 36.8858 33.6356 36.8858C35.3488 36.8858 36.4432 36.0296 36.4432 34.8465C36.4432 33.4287 35.3188 32.9265 33.4331 32.1017L32.3994 31.6582C29.4158 30.3871 27.4337 28.7947 27.4337 25.4284C27.4337 22.3274 29.7964 19.9668 33.4889 19.9668C36.1178 19.9668 38.0077 20.8817 39.3696 23.2773L36.1499 25.3446C35.441 24.0735 34.6762 23.5727 33.4889 23.5727C32.3016 23.5727 31.5103 24.341 31.5103 25.3446C31.5103 26.585 32.2786 27.0871 34.0526 27.8554L35.0862 28.2982C38.5992 29.8046 40.5827 31.3404 40.5827 34.7934C40.5827 38.5159 37.6585 40.5553 33.7313 40.5553C29.8041 40.5553 27.4107 38.7255 26.1968 36.3271L29.5569 34.3751V34.3751ZM14.951 34.7333C15.6005 35.8857 16.1914 36.86 17.6119 36.86C19.0325 36.86 19.8273 36.3285 19.8273 34.2619V20.2029H23.9619V34.3178C23.9619 38.5991 21.4518 40.5476 17.7879 40.5476C14.4775 40.5476 12.5603 38.8344 11.5853 36.7706L14.951 34.7333V34.7333Z" fill="black"/>
</g>
<defs>
<clipPath id="clip0_5237_963">
<rect width="44" height="44" fill="white"/>
</clipPath>
</defs>
</svg>
