<svg width="44" height="44" viewBox="0 0 44 44" fill="none" xmlns="http://www.w3.org/2000/svg">
<g clip-path="url(#clip0_5239_752)">
<path d="M43.3094 9.9366C43.3252 9.99516 43.3334 10.0555 43.3334 10.1162V19.5442C43.3334 19.7905 43.2016 20.018 42.988 20.1405L35.0749 24.6964V33.7266C35.0749 33.9724 34.9443 34.1992 34.7312 34.323L18.2132 43.8317C18.1754 43.8532 18.1342 43.867 18.0929 43.8816C18.0775 43.8867 18.0629 43.8962 18.0465 43.9005C17.9311 43.9309 17.8097 43.9309 17.6942 43.9005C17.6753 43.8953 17.6581 43.885 17.6401 43.8781C17.6023 43.8644 17.5628 43.8524 17.5267 43.8317L1.01218 34.323C0.798643 34.2003 0.666748 33.9729 0.666748 33.7266V5.44257C0.666748 5.3807 0.675341 5.32055 0.690808 5.26212C0.695964 5.24235 0.707993 5.22431 0.714868 5.20455C0.727757 5.16846 0.739787 5.13151 0.758691 5.09799C0.77158 5.07565 0.790484 5.05761 0.805951 5.03699C0.825715 5.00949 0.84376 4.98113 0.86696 4.95707C0.886724 4.93731 0.912502 4.9227 0.934843 4.90552C0.959762 4.88489 0.982104 4.86255 1.01046 4.84623H1.01132L9.26899 0.0918323C9.48178 -0.0306108 9.74363 -0.0306108 9.95642 0.0918323L18.2141 4.84623H18.2158C18.2433 4.86341 18.2665 4.88489 18.2914 4.90466C18.3138 4.92184 18.3387 4.93731 18.3585 4.95621C18.3825 4.98113 18.3997 5.00949 18.4203 5.03699C18.4349 5.05761 18.4547 5.07565 18.4667 5.09799C18.4865 5.13237 18.4977 5.16846 18.5114 5.20455C18.5183 5.22431 18.5303 5.24235 18.5355 5.26298C18.5513 5.32153 18.5594 5.38191 18.5595 5.44257V23.1085L25.4406 19.1464V10.1153C25.4406 10.0552 25.4492 9.99417 25.4647 9.9366C25.4707 9.91598 25.4819 9.89793 25.4888 9.87817C25.5025 9.84208 25.5145 9.80513 25.5334 9.77162C25.5463 9.74928 25.5652 9.73123 25.5798 9.71061C25.6005 9.68311 25.6176 9.65475 25.6417 9.63069C25.6615 9.61093 25.6864 9.59632 25.7087 9.57914C25.7345 9.55852 25.7568 9.53617 25.7843 9.51985H25.7852L34.0437 4.76545C34.2565 4.64283 34.5184 4.64283 34.7312 4.76545L42.9888 9.51985C43.0181 9.53703 43.0404 9.55852 43.0662 9.57828C43.0877 9.59546 43.1126 9.61093 43.1323 9.62984C43.1564 9.65475 43.1736 9.68311 43.1942 9.71061C43.2097 9.73123 43.2286 9.74928 43.2406 9.77162C43.2604 9.80513 43.2715 9.84208 43.2853 9.87817C43.293 9.89793 43.3042 9.91598 43.3094 9.9366ZM41.9568 19.1464V11.3063L39.0671 12.9699L35.0749 15.2684V23.1085L41.9577 19.1464H41.9568ZM33.6992 33.3288V25.4835L29.7723 27.7263L18.5587 34.1262V42.0453L33.6992 33.3288ZM2.04331 6.63267V33.3288L17.1821 42.0444V34.127L9.27329 29.6511L9.27071 29.6493L9.26728 29.6476C9.24064 29.6321 9.2183 29.6098 9.19338 29.5909C9.1719 29.5737 9.14698 29.56 9.12807 29.5411L9.12636 29.5385C9.10401 29.517 9.08855 29.4904 9.06964 29.4663C9.05246 29.4431 9.03183 29.4233 9.01809 29.3993L9.01723 29.3967C9.00176 29.3709 8.99231 29.34 8.98114 29.3108C8.96997 29.285 8.95536 29.2609 8.94848 29.2334V29.2326C8.93989 29.1999 8.93817 29.1656 8.93474 29.132C8.9313 29.1063 8.92442 29.0805 8.92442 29.0547V29.053V10.5948L4.93307 8.29537L2.04331 6.63353V6.63267ZM9.61357 1.48215L2.73332 5.44257L9.61185 9.40299L16.4912 5.44171L9.61185 1.48215H9.61357ZM13.1916 26.1985L17.183 23.9008V6.63267L14.2932 8.29623L10.301 10.5948V27.8629L13.1916 26.1985ZM34.3875 6.15577L27.5081 10.1162L34.3875 14.0766L41.266 10.1153L34.3875 6.15577ZM33.6992 15.2684L29.707 12.9699L26.8172 11.3063V19.1464L30.8086 21.4441L33.6992 23.1085V15.2684ZM17.8695 32.9361L27.96 27.1755L33.004 24.2969L26.1298 20.339L18.215 24.8958L11.0013 29.0487L17.8695 32.9361Z" fill="#FF2D20"/>
</g>
<defs>
<clipPath id="clip0_5239_752">
<rect width="44" height="44" fill="white"/>
</clipPath>
</defs>
</svg>
