<svg width="40" height="40" viewBox="0 0 40 40" fill="none" xmlns="http://www.w3.org/2000/svg">
<path d="M34.456 8.4104L22.6863 1.61167C21.8444 1.12555 20.8893 0.869629 19.917 0.869629C18.9447 0.869629 17.9897 1.12555 17.1477 1.61167L5.37798 8.4104C4.53581 8.89659 3.8365 9.59598 3.35037 10.4382C2.86424 11.2804 2.60843 12.2358 2.60864 13.2082V26.7919C2.60843 27.7643 2.86424 28.7197 3.35037 29.5619C3.8365 30.4042 4.53581 31.1036 5.37798 31.5897L17.1477 38.3885C17.9897 38.8746 18.9447 39.1305 19.917 39.1305C20.8893 39.1305 21.8444 38.8746 22.6863 38.3885L34.456 31.5897C35.2982 31.1036 35.9975 30.4042 36.4836 29.5619C36.9698 28.7197 37.2256 27.7643 37.2253 26.7919V13.2082C37.2256 12.2358 36.9698 11.2804 36.4836 10.4382C35.9975 9.59598 35.2982 8.89659 34.456 8.4104ZM34.456 26.7919C34.4561 27.2781 34.3282 27.7558 34.0852 28.1769C33.8421 28.598 33.4925 28.9477 33.0713 29.1908L21.3017 35.9826C20.8819 36.2291 20.4039 36.359 19.917 36.359C19.4301 36.359 18.9521 36.2291 18.5323 35.9826L6.76265 29.1908C6.34156 28.9477 5.99191 28.598 5.74884 28.1769C5.50578 27.7558 5.37787 27.2781 5.37798 26.7919V13.2082C5.37909 12.7214 5.50746 12.2432 5.75034 11.8212C5.99323 11.3992 6.34219 11.048 6.76265 10.8024L18.5323 4.01061C18.9533 3.76755 19.4309 3.63959 19.917 3.63959C20.4031 3.63959 20.8806 3.76755 21.3017 4.01061L33.0713 10.8024C33.4918 11.048 33.8407 11.3992 34.0837 11.8212C34.3266 12.2432 34.4549 12.7214 34.456 13.2082V26.7919Z" fill="#7B3FE4"/>
<path d="M30.6482 18.5357L26.148 15.9394C25.8316 15.7592 25.4737 15.6643 25.1096 15.6643C24.7454 15.6643 24.3875 15.7592 24.071 15.9394L14.7245 21.3431L10.9167 19.1415V14.7417L14.7245 12.54L18.5323 14.7417V17.1095L21.3017 15.4998V14.3401C21.3019 13.9753 21.2061 13.6169 21.0237 13.3009C20.8415 12.9849 20.5791 12.7225 20.2632 12.54L15.763 9.96116C15.4466 9.78082 15.0887 9.68604 14.7245 9.68604C14.3603 9.68604 14.0024 9.78082 13.686 9.96116L9.18582 12.5573C8.87156 12.7416 8.61054 13.0045 8.42847 13.32C8.24641 13.6356 8.14952 13.9931 8.14734 14.3574V19.5499C8.14927 19.9148 8.24601 20.2729 8.42807 20.5891C8.61013 20.9052 8.8713 21.1686 9.18582 21.3535L13.686 23.9498C14.003 24.1284 14.3607 24.2222 14.7245 24.2222C15.0883 24.2222 15.4461 24.1284 15.763 23.9498L25.1096 18.5357L28.9174 20.7407V25.1336L25.1096 27.3352L21.3017 25.1336V22.7381L18.5323 24.3374V25.5386C18.5339 25.9017 18.6307 26.258 18.8129 26.572C18.9951 26.886 19.2564 27.1468 19.5709 27.3283L24.071 29.9315C24.3861 30.1156 24.7446 30.2124 25.1096 30.2118C25.4747 30.2141 25.8336 30.1171 26.148 29.9315L30.6482 27.3352C30.9637 27.1532 31.2257 26.8912 31.4079 26.5759C31.5902 26.2605 31.6864 25.9029 31.6867 25.5386V20.3461C31.6888 19.9796 31.5937 19.619 31.4114 19.301C31.229 18.983 30.9657 18.719 30.6482 18.5357Z" fill="#7B3FE4"/>
</svg>
