<svg width="56" height="56" viewBox="0 0 56 56" fill="none" xmlns="http://www.w3.org/2000/svg">
<path fill-rule="evenodd" clip-rule="evenodd" d="M38.2538 26.7754H39.2312C39.3941 26.4496 39.3941 25.798 39.2312 25.065C39.0683 24.0062 38.7425 23.4361 38.1724 23.4361C37.5208 23.599 37.5208 24.332 37.7651 25.3908C37.8466 25.9609 38.0909 26.4496 38.3353 26.7754H38.2538ZM33.1226 27.5899C33.5298 27.8342 33.7742 27.9157 33.9371 27.8342L33.8556 27.427C33.6113 27.1012 33.2041 26.7754 32.7154 26.6125C32.2273 26.4038 31.6937 26.3242 31.166 26.3812C30.6382 26.4383 30.134 26.6301 29.7018 26.9383C29.4575 27.1012 29.1317 27.427 29.2131 27.5899L29.376 27.6713C29.6204 27.6713 30.4348 27.3455 31.4122 27.2641C32.0638 27.2641 32.6339 27.427 33.0412 27.5899H33.1226ZM32.2267 28.16C31.6565 28.16 31.4122 28.4044 31.1679 28.5673L30.8421 28.9745V29.1374H31.005L31.4122 29.0559C32.2267 28.7302 32.7154 28.8116 33.2041 28.8116H33.6927V28.6487C33.6113 28.4044 32.9597 27.9971 32.2267 28.16ZM36.5434 29.9519C36.9506 30.1148 37.3579 30.1148 37.5208 29.789C37.6022 29.5446 37.4393 29.1374 37.0321 28.9745C36.7063 28.7302 36.2176 28.8116 36.1362 29.1374C35.9733 29.3817 36.1362 29.789 36.5434 29.9519ZM38.9868 27.7528C38.7425 27.7528 38.4982 28.16 38.4167 28.5673C38.4167 28.9745 38.6611 29.3817 38.9868 29.3817C39.3126 29.3817 39.557 28.9745 39.557 28.5673C39.557 28.16 39.3126 27.7528 39.0683 27.7528H38.9868ZM17.729 35.4903C17.5661 35.4903 17.4846 35.5718 17.4032 35.4903C17.302 35.5102 17.1976 35.5058 17.0985 35.4775C16.9994 35.4492 16.9084 35.3977 16.8331 35.3274V34.3501L16.996 34.1872C17.2403 33.617 17.6475 32.7211 17.1588 31.7437C17.0014 31.4348 16.7705 31.1693 16.4865 30.9705C16.2025 30.7717 15.874 30.6457 15.5299 30.6035C14.8783 30.522 14.1453 30.7664 13.738 31.255C13.005 32.0695 12.9236 33.0469 13.0865 33.4541L13.2494 33.617C13.3308 33.617 13.5751 33.5356 13.6566 33.2098C13.6566 32.9654 13.8195 32.7211 13.9824 32.3953C14.1453 32.151 14.3896 31.9881 14.7969 31.9066C15.1227 31.9066 15.4484 31.9066 15.6928 32.0695C16.1815 32.3953 16.3444 33.0469 16.1815 33.617C16.1 33.8614 15.8557 34.4315 15.9371 34.9202C15.9371 35.8161 16.5887 36.2233 17.0774 36.2233C17.5661 36.2233 17.8919 35.979 18.0548 35.8161V35.5718C17.9733 35.4903 17.8104 35.5718 17.729 35.5718V35.4903ZM47.0502 36.9564C46.6429 38.8297 45.8285 40.4586 44.4438 41.8432C43.6294 42.8206 42.5705 43.6351 41.4303 44.2052L39.4755 45.0197C34.2629 46.7301 28.8873 44.8568 27.1769 40.7844C26.5861 39.3393 26.4104 37.7579 26.6694 36.2183C26.9284 34.6786 27.6119 33.2418 28.643 32.0695L28.8873 31.5808L28.7244 31.1736C27.9914 30.1148 25.6294 28.4858 26.1181 25.1465C26.4439 22.8659 28.5615 21.1555 30.4348 21.237H30.9235L33.1226 21.4813C34.2629 21.4813 35.3217 21.3999 36.5434 20.341C36.9506 20.0153 37.2764 19.6895 37.8466 19.608H38.3353C38.5796 19.608 38.9054 19.608 39.1497 19.8524C40.1271 20.5039 40.29 22.0514 40.29 23.1917L40.4529 25.8795C40.4529 26.9383 40.7787 27.1012 41.2674 27.2641L42.3262 27.5899C43.2852 27.7675 44.1825 28.1882 44.9325 28.8116C45.1769 29.1374 45.3398 29.3817 45.3398 29.7075C45.5027 30.8478 44.5253 32.151 41.8375 33.4541C39.0265 34.7038 35.941 35.2087 32.8783 34.9202L32.0638 34.7573C30.0276 34.5129 28.9688 37.1193 30.109 38.8297C30.9235 39.9699 32.9597 40.703 34.9959 40.703C39.8013 40.703 43.385 38.6668 44.7696 36.8749L44.8511 36.712C44.8511 36.5491 44.9325 36.6306 44.8511 36.712C43.7108 37.3636 38.7425 40.4586 33.4484 39.4813C33.4484 39.4813 32.8783 39.4813 32.3081 39.1555C31.8194 38.9926 30.8421 38.5853 30.6792 37.5265C34.9959 38.8297 37.6837 37.608 37.6837 37.608V37.5265L37.6022 37.3636C37.6022 37.3636 34.1 37.9338 30.8421 36.712C31.1679 35.4903 32.1452 35.8976 33.5298 36.0605C36.1362 36.2233 38.4982 35.8161 40.2086 35.3274C41.6746 34.9202 43.6294 34.0243 45.1769 32.884C45.6656 33.9428 45.9099 35.246 45.9099 35.246C45.9099 35.246 46.3171 35.1645 46.6429 35.3274C46.8873 35.5718 47.1316 35.979 46.9687 36.9564H47.0502ZM22.7787 18.3863C24.4077 16.4316 26.4439 14.8026 28.2357 13.9067H28.3172L27.8285 15.2098C27.8285 15.2913 27.8285 15.3727 27.9099 15.2913C29.0502 14.4768 31.005 13.6623 32.7154 13.6623C32.7154 13.6623 32.7968 13.6623 32.7154 13.7438C32.4354 13.981 32.1889 14.255 31.9823 14.5583H32.0638C33.2855 14.5583 34.9959 15.0469 36.1362 15.6985C36.1362 15.6985 36.1362 15.8614 35.9733 15.8614C33.7403 15.3503 31.4243 15.3183 29.178 15.7675C26.9318 16.2168 24.8063 17.1371 22.9416 18.4677C22.7787 18.4677 22.6973 18.4677 22.7787 18.3863ZM14.3082 27.3455C12.8515 27.636 11.5658 28.4835 10.7245 29.7075C10.1567 29.2767 9.63781 28.7851 9.17697 28.2415C7.95525 25.798 10.5616 21.0741 12.4349 18.3863C17.0774 11.8705 24.2448 6.82072 27.6656 7.71665C28.1543 7.87954 29.9461 9.91573 29.9461 9.91573C29.9461 9.91573 26.6882 11.789 23.5932 14.3954C19.3798 17.8051 16.194 22.3159 14.3896 27.427L14.3082 27.3455ZM16.7516 38.5039H16.1C13.9009 38.5039 11.4575 36.4677 11.2132 34.1057C10.9688 31.4994 12.272 29.4632 14.7154 28.9745C15.0367 28.9081 15.3649 28.8807 15.6928 28.8931C16.996 28.8931 18.9507 29.9519 19.4394 32.9654C19.8466 35.4089 19.195 38.0966 16.7516 38.5039ZM46.8873 33.8614L46.6429 32.8025L46.2357 31.8252C46.7319 31.2109 46.9746 30.4302 46.9141 29.6428C46.8535 28.8555 46.4943 28.121 45.9099 27.5899C45.0015 26.7934 43.9103 26.2339 42.7334 25.9609L41.919 25.798V23.0288C41.919 22.4587 41.8375 21.5628 41.5117 20.5854C41.2339 19.4826 40.6723 18.4717 39.8828 17.6533C41.919 15.5356 43.1407 13.1736 43.1407 11.1375C43.1407 7.39085 38.4167 6.25059 32.6339 8.69402L31.4122 9.10126L29.2946 6.90217C22.6973 1.20083 2.09101 24.1691 8.68828 29.7075L10.0729 31.0107C9.71439 32.057 9.60288 33.172 9.7471 34.2686C9.93784 35.8786 10.7219 37.3596 11.9462 38.4224C13.1263 39.514 14.6567 40.1492 16.2629 40.2143C17.5994 43.1476 19.7564 45.6314 22.4735 47.3657C25.1907 49.1001 28.3517 50.0108 31.5751 49.988C38.9054 50.2324 45.1769 46.7301 47.7017 40.4586C47.8646 40.0514 48.5977 38.0152 48.5977 36.3862C48.5977 34.5944 47.6203 33.8614 46.9687 33.8614H46.8873Z" fill="black"/>
</svg>
