<svg width="52" height="52" viewBox="0 0 52 52" fill="none" xmlns="http://www.w3.org/2000/svg">
<path d="M30.1692 7.34993C28.1546 4.95973 26.4199 2.53219 26.0655 2.02801C26.0282 1.99066 25.9722 1.99066 25.9349 2.02801C25.5805 2.53219 23.8457 4.95973 21.8312 7.34993C4.53965 29.4031 24.5546 44.2859 24.5546 44.2859L24.7224 44.398C24.8716 46.6947 25.2447 50 25.2447 50H25.9909H26.737C26.737 50 27.1101 46.7134 27.2593 44.398L27.4272 44.2673C27.4458 44.2859 47.4608 29.4031 30.1692 7.34993ZM25.9909 43.9498C25.9909 43.9498 25.0955 43.1842 24.853 42.7922V42.7546L25.9349 18.7407C25.9349 18.666 26.0468 18.666 26.0468 18.7407L27.1287 42.7546V42.7922C26.8862 43.1842 25.9909 43.9498 25.9909 43.9498Z" fill="#00ED64"/>
</svg>
