<svg width="54" height="55" viewBox="0 0 54 55" fill="none" xmlns="http://www.w3.org/2000/svg">
<g clip-path="url(#clip0_5239_762)">
<path d="M50.4217 22.5521C51.6623 18.8285 51.2351 14.7494 49.2511 11.3625C46.2674 6.16754 40.2693 3.49489 34.4114 4.75261C31.8054 1.81678 28.0612 0.147228 24.136 0.171152C18.1481 0.157481 12.8353 4.01267 10.9931 9.71001C7.14649 10.4978 3.82618 12.9056 1.8832 16.3182C-1.12269 21.4994 -0.437432 28.0307 3.57839 32.4737C2.33776 36.1974 2.76497 40.2764 4.74896 43.6634C7.73263 48.8583 13.7307 51.531 19.5887 50.2732C22.193 53.2091 25.9388 54.8786 29.8641 54.853C35.8554 54.8684 41.1699 51.0098 43.0121 45.3073C46.8587 44.5195 50.179 42.1117 52.122 38.6991C55.1245 33.5179 54.4375 26.9917 50.4234 22.5487L50.4217 22.5521ZM29.8675 51.2798C27.47 51.2832 25.1476 50.4441 23.3072 48.9079C23.3909 48.8634 23.5362 48.7831 23.6302 48.725L34.519 42.4364C35.0761 42.1203 35.4179 41.5273 35.4145 40.8865V25.5358L40.0164 28.1931C40.066 28.217 40.0985 28.2648 40.1053 28.3195V41.0317C40.0985 46.6846 35.5204 51.2678 29.8675 51.2798ZM7.85054 41.8759C6.64921 39.8013 6.21687 37.3696 6.62871 35.0097C6.70902 35.0575 6.85086 35.1447 6.95168 35.2028L17.8405 41.4914C18.3925 41.8144 19.076 41.8144 19.6297 41.4914L32.9229 33.8152V39.1298C32.9264 39.1844 32.9007 39.2374 32.858 39.2716L21.8512 45.6269C16.9485 48.4499 10.6873 46.7718 7.85225 41.8759H7.85054ZM4.98478 18.1074C6.18098 16.0294 8.06928 14.4401 10.3181 13.6148C10.3181 13.7087 10.313 13.8745 10.313 13.9907V26.5696C10.3096 27.2087 10.6514 27.8017 11.2067 28.1179L24.5 35.7924L19.898 38.4496C19.8519 38.4804 19.7938 38.4855 19.7425 38.4633L8.73402 32.1029C3.84156 29.2696 2.16345 23.0101 4.98307 18.1091L4.98478 18.1074ZM42.795 26.9063L29.5018 19.2301L34.1038 16.5745C34.1499 16.5437 34.208 16.5386 34.2593 16.5608L45.2678 22.9161C50.1688 25.7477 51.8486 32.0175 49.017 36.9185C47.8191 38.993 45.9325 40.5823 43.6854 41.4094V28.4545C43.6905 27.8154 43.3504 27.2241 42.7967 26.9063H42.795ZM47.3748 20.0127C47.2945 19.9632 47.1526 19.8777 47.0518 19.8196L36.1629 13.531C35.611 13.2081 34.9274 13.2081 34.3738 13.531L21.0805 21.2072V15.8927C21.0771 15.838 21.1028 15.785 21.1455 15.7508L32.1522 9.40071C37.055 6.57254 43.3231 8.25577 46.1495 13.1602C47.344 15.2313 47.7764 17.6562 47.3714 20.0127H47.3748ZM18.5788 29.4849L13.9751 26.8277C13.9255 26.8037 13.8931 26.7559 13.8862 26.7012V13.989C13.8897 8.32926 18.4814 3.74267 24.1411 3.74609C26.5352 3.74609 28.8524 4.58685 30.6929 6.11799C30.6091 6.16242 30.4656 6.24273 30.3699 6.30084L19.481 12.5894C18.924 12.9056 18.5822 13.4969 18.5856 14.1377L18.5788 29.4815V29.4849ZM21.0788 24.0952L27 20.6758L32.9212 24.0935V30.9306L27 34.3484L21.0788 30.9306V24.0952Z" fill="black"/>
</g>
<defs>
<clipPath id="clip0_5239_762">
<rect width="54" height="54.8544" fill="white"/>
</clipPath>
</defs>
</svg>
