<svg width="50" height="26" viewBox="0 0 50 26" fill="none" xmlns="http://www.w3.org/2000/svg">
<g clip-path="url(#clip0_5238_734)">
<path d="M14.4444 9.31551H12.4979L11.432 14.7689H13.1622C14.3054 14.7689 15.1551 14.5526 15.7267 14.12C16.2828 13.6875 16.6536 12.9768 16.8544 11.9572C17.0398 10.9994 16.9626 10.3042 16.6072 9.90256C16.2519 9.50089 15.5258 9.30006 14.4444 9.30006V9.31551ZM24.7178 0C11.0612 0 0 5.82412 0 13.0077C0 20.1913 11.0612 26.0155 24.7178 26.0155C38.3743 26.0155 49.4355 20.1913 49.4355 13.0077C49.4355 5.82412 38.3743 0 24.7178 0ZM17.9976 15.3559C17.4724 15.8657 16.8081 16.2519 16.1129 16.4837C15.4177 16.6999 14.5371 16.8235 13.4712 16.8235H11.0303L10.366 20.284H7.52347L10.057 7.26084H15.5104C17.1479 7.26084 18.3529 7.69341 19.1099 8.54308C19.8515 9.4082 20.0986 10.6132 19.7897 12.1581C19.6815 12.776 19.4652 13.363 19.1717 13.9037C18.8782 14.429 18.492 14.9079 18.0131 15.3559H17.9976ZM26.2935 16.8235L27.4058 11.0612C27.5294 10.4124 27.4831 9.96435 27.2668 9.71717C27.0505 9.48544 26.5716 9.36185 25.8455 9.36185H23.6055L22.1533 16.8235H19.3262L21.8598 3.78491H24.6714L23.9917 7.2454H26.5098C28.101 7.2454 29.1824 7.52347 29.7695 8.06417C30.372 8.62032 30.5419 9.51634 30.3102 10.7368L29.1206 16.8081H26.2626L26.2935 16.8235ZM41.9275 12.1581C41.8194 12.776 41.6031 13.363 41.2941 13.9037C41.0006 14.429 40.6144 14.9079 40.1355 15.3559C39.5948 15.8657 38.9614 16.2519 38.2507 16.4837C37.5556 16.6999 36.675 16.8235 35.609 16.8235H33.1836L32.5039 20.284H29.6613L32.1949 7.26084H37.6482C39.2858 7.26084 40.4908 7.69341 41.2478 8.55853C42.0048 9.4082 42.2365 10.6132 41.9275 12.1581ZM36.5823 9.31551H34.6358L33.5698 14.7689H35.2846C36.4278 14.7689 37.2929 14.5526 37.8491 14.12C38.4052 13.6875 38.7914 12.9768 38.9923 11.9572C39.1777 10.9994 39.1004 10.3042 38.7296 9.90256C38.3743 9.50089 37.6482 9.30006 36.5668 9.30006L36.5823 9.31551Z" fill="white"/>
</g>
<defs>
<clipPath id="clip0_5238_734">
<rect width="49.4355" height="26" fill="white"/>
</clipPath>
</defs>
</svg>
