<svg width="44" height="44" viewBox="0 0 44 44" fill="none" xmlns="http://www.w3.org/2000/svg">
<g clip-path="url(#clip0_5237_969)">
<path d="M21.5028 -0.000171134C19.7096 0.00765944 17.9947 0.160356 16.4874 0.426595C12.0435 1.21357 11.237 2.85407 11.237 5.88451V9.88593H21.7338V11.221H7.29818C4.24817 11.221 1.57403 13.0534 0.740074 16.5419C-0.223087 20.5394 -0.266155 23.0374 0.740074 27.2111C1.48789 30.3198 3.26935 32.532 6.31936 32.532H9.92925V27.7357C9.92925 24.2707 12.9284 21.2129 16.4874 21.2129H26.9725C29.8933 21.2129 32.2229 18.8089 32.2229 15.8802V5.88451C32.2229 3.03809 29.8228 0.90426 26.9725 0.426595C25.1676 0.129033 23.296 -0.00800171 21.5028 -0.000171134ZM15.8257 3.2182C16.9102 3.2182 17.7951 4.11871 17.7951 5.22674C17.7951 6.33085 16.9102 7.21962 15.8257 7.21962C14.7372 7.21962 13.8563 6.32693 13.8563 5.22674C13.8563 4.12654 14.7372 3.22211 15.8257 3.2182V3.2182Z" fill="url(#paint0_linear_5237_969)"/>
<path d="M33.5305 11.2212V15.8843C33.5305 19.4981 30.4648 22.5403 26.9724 22.5403H16.4872C13.6134 22.5403 11.2368 24.9991 11.2368 27.8729V37.8686C11.2368 40.715 13.7113 42.3869 16.4872 43.2013C19.8113 44.1801 22.9983 44.3563 26.9724 43.2013C29.6152 42.4378 32.2228 40.8952 32.2228 37.8686V33.8672H21.7376V32.5321H37.4732C40.5232 32.5321 41.6625 30.4061 42.7236 27.2112C43.8198 23.9224 43.7729 20.7588 42.7236 16.5421C41.9679 13.5038 40.531 11.2212 37.4732 11.2212H33.5305V11.2212ZM27.634 36.5374C28.7225 36.5374 29.6034 37.4301 29.6034 38.5303C29.6034 39.6305 28.7225 40.5349 27.634 40.5349C26.5456 40.5349 25.6647 39.6344 25.6647 38.5303C25.6647 37.4262 26.5495 36.5374 27.634 36.5374Z" fill="url(#paint1_linear_5237_969)"/>
</g>
<defs>
<linearGradient id="paint0_linear_5237_969" x1="-1.45812" y1="1.38384" x2="22.8107" y2="21.8926" gradientUnits="userSpaceOnUse">
<stop stop-color="#5A9FD4"/>
<stop offset="1" stop-color="#306998"/>
</linearGradient>
<linearGradient id="paint1_linear_5237_969" x1="31.702" y1="34.9869" x2="22.9482" y2="22.8363" gradientUnits="userSpaceOnUse">
<stop stop-color="#FFD43B"/>
<stop offset="1" stop-color="#FFE873"/>
</linearGradient>
<clipPath id="clip0_5237_969">
<rect width="43.5262" height="44" fill="white"/>
</clipPath>
</defs>
</svg>
