<svg width="49" height="44" viewBox="0 0 49 44" fill="none" xmlns="http://www.w3.org/2000/svg">
<g clip-path="url(#clip0_5237_981)">
<path d="M24.2 26.3139C26.5825 26.3139 28.5139 24.3825 28.5139 21.9999C28.5139 19.6174 26.5825 17.686 24.2 17.686C21.8175 17.686 19.8861 19.6174 19.8861 21.9999C19.8861 24.3825 21.8175 26.3139 24.2 26.3139Z" fill="#61DAFB"/>
<path d="M24.2 30.8381C36.9841 30.8381 47.3478 26.8811 47.3478 21.9999C47.3478 17.1186 36.9841 13.1616 24.2 13.1616C11.4158 13.1616 1.05212 17.1186 1.05212 21.9999C1.05212 26.8811 11.4158 30.8381 24.2 30.8381Z" stroke="#61DAFB" stroke-width="0.956522"/>
<path d="M16.5457 26.419C22.9378 37.4905 31.5465 44.4871 35.7738 42.0465C40.0011 39.6059 38.2462 28.6522 31.8541 17.5808C25.462 6.50935 16.8533 -0.487308 12.626 1.95331C8.39872 4.39393 10.1537 15.3476 16.5457 26.419Z" stroke="#61DAFB" stroke-width="0.956522"/>
<path d="M16.5457 17.5809C10.1537 28.6523 8.39872 39.606 12.626 42.0466C16.8533 44.4873 25.462 37.4906 31.8541 26.4192C38.2462 15.3477 40.0011 4.39405 35.7738 1.95343C31.5465 -0.48719 22.9378 6.50947 16.5457 17.5809Z" stroke="#61DAFB" stroke-width="0.956522"/>
</g>
<defs>
<clipPath id="clip0_5237_981">
<rect width="48.4" height="44" fill="white"/>
</clipPath>
</defs>
</svg>
