<svg width="52" height="52" viewBox="0 0 52 52" fill="none" xmlns="http://www.w3.org/2000/svg">
<path d="M26 3.646C13.6761 3.646 3.64575 13.6811 3.64575 26.0003C3.64575 38.3195 13.6808 48.3546 26 48.3546C38.3193 48.3546 48.3543 38.3195 48.3543 26.0003C48.3543 13.6811 38.3193 3.646 26 3.646V3.646ZM25.9669 5.6322C26.3492 5.6421 26.7124 5.80141 26.9792 6.07616C27.246 6.35092 27.3952 6.71937 27.3951 7.10294C27.3951 7.49301 27.2402 7.86709 26.9643 8.14291C26.6885 8.41873 26.3144 8.57368 25.9244 8.57368C25.5343 8.57368 25.1602 8.41873 24.8844 8.14291C24.6086 7.86709 24.4536 7.49301 24.4536 7.10294C24.4536 6.90617 24.493 6.71138 24.5695 6.53011C24.6461 6.34884 24.7582 6.18477 24.8993 6.04763C25.0405 5.91049 25.2076 5.80306 25.391 5.7317C25.5744 5.66034 25.7702 5.62651 25.9669 5.6322V5.6322ZM29.334 8.05348C31.9159 8.53708 34.3616 9.57692 36.5012 11.1008C38.6408 12.6246 40.4231 14.596 41.7242 16.8779L39.9886 20.7936C39.6907 21.4698 39.9981 22.2643 40.6696 22.567L44.0083 24.0472C44.1119 25.0908 44.1245 26.1415 44.0461 27.1873H42.1876C42.0032 27.1873 41.9275 27.3102 41.9275 27.4899V28.3412C41.9275 30.3463 40.7973 30.7861 39.8042 30.8949C38.8584 31.0036 37.8132 30.4976 37.6808 29.9207C37.1228 26.7853 36.1959 26.1185 34.7299 24.9599C36.5506 23.806 38.4422 22.0988 38.4422 19.8194C38.4422 17.3556 36.7539 15.8044 35.6048 15.043C33.9874 13.979 32.1998 13.7662 31.7175 13.7662H12.5175C15.1724 10.8003 18.731 8.79245 22.6424 8.05348L24.9076 10.4275C25.4184 10.9619 26.2649 10.9855 26.7992 10.47L29.334 8.05348ZM8.43157 18.9398C8.81421 18.9509 9.17745 19.1107 9.44413 19.3853C9.71081 19.6599 9.8599 20.0277 9.85974 20.4105C9.85974 20.8006 9.70479 21.1747 9.42897 21.4505C9.15316 21.7263 8.77907 21.8813 8.389 21.8813C7.99894 21.8813 7.62485 21.7263 7.34903 21.4505C7.07322 21.1747 6.91826 20.8006 6.91826 20.4105C6.91818 20.2138 6.95759 20.019 7.03415 19.8377C7.1107 19.6564 7.22286 19.4924 7.36397 19.3552C7.50508 19.2181 7.67228 19.1106 7.85566 19.0393C8.03904 18.9679 8.23487 18.9341 8.43157 18.9398V18.9398ZM43.4976 19.006C43.8802 19.0171 44.2435 19.1769 44.5101 19.4515C44.7768 19.7262 44.9259 20.0939 44.9258 20.4767C44.9258 20.8668 44.7708 21.2409 44.495 21.5167C44.2192 21.7925 43.8451 21.9475 43.455 21.9475C43.0649 21.9475 42.6909 21.7925 42.415 21.5167C42.1392 21.2409 41.9843 20.8668 41.9843 20.4767C41.9842 20.28 42.0236 20.0852 42.1002 19.9039C42.1767 19.7226 42.2889 19.5586 42.43 19.4214C42.5711 19.2843 42.7383 19.1769 42.9217 19.1055C43.105 19.0341 43.3009 19.0003 43.4976 19.006V19.006ZM11.2028 19.2424H13.7659V30.8003H8.59235C7.9534 28.5565 7.75428 26.2104 8.00595 23.8911L11.1744 22.4819C11.8507 22.1792 12.1581 21.3894 11.8554 20.7132L11.2028 19.2424ZM21.8999 19.3654H28.0052C28.322 19.3654 30.2326 19.7295 30.2326 21.1624C30.2326 22.3494 28.7665 22.7751 27.5606 22.7751H21.8952L21.8999 19.3654ZM21.8999 27.6696H26.577C27.0026 27.6696 28.8611 27.7926 29.4523 30.1666C29.6367 30.8949 30.0481 33.2689 30.3271 34.0302C30.6061 34.8815 31.7364 36.5839 32.9423 36.5839H40.575C40.0635 37.269 39.5041 37.9169 38.9009 38.5228L35.7939 37.856C35.0704 37.7 34.3563 38.1634 34.2002 38.887L33.4625 42.3297C31.0902 43.4044 28.5139 43.9544 25.9095 43.9421C23.3052 43.9299 20.7342 43.3557 18.3721 42.2588L17.6343 38.816C17.4783 38.0925 16.7689 37.6291 16.0454 37.7851L13.0046 38.4377C12.4403 37.8557 11.9158 37.2363 11.4345 36.5839H26.2223C26.3878 36.5839 26.5013 36.5556 26.5013 36.3995V31.1691C26.5013 31.0178 26.3878 30.9847 26.2223 30.9847H21.8952L21.8999 27.6696ZM15.0759 39.6484C15.4585 39.6594 15.8218 39.8193 16.0885 40.0939C16.3551 40.3685 16.5042 40.7363 16.5041 41.1191C16.5041 41.5092 16.3491 41.8833 16.0733 42.1591C15.7975 42.4349 15.4234 42.5898 15.0333 42.5898C14.6433 42.5898 14.2692 42.4349 13.9934 42.1591C13.7176 41.8833 13.5626 41.5092 13.5626 41.1191C13.5625 40.9223 13.6019 40.7275 13.6785 40.5463C13.755 40.365 13.8672 40.2009 14.0083 40.0638C14.1494 39.9266 14.3166 39.8192 14.5 39.7479C14.6834 39.6765 14.8792 39.6427 15.0759 39.6484V39.6484ZM36.8532 39.7146C37.2359 39.7256 37.5991 39.8855 37.8658 40.1601C38.1325 40.4347 38.2816 40.8025 38.2814 41.1853C38.2814 41.5754 38.1265 41.9495 37.8506 42.2253C37.5748 42.5011 37.2007 42.656 36.8107 42.656C36.4206 42.656 36.0465 42.5011 35.7707 42.2253C35.4949 41.9495 35.3399 41.5754 35.3399 41.1853C35.3399 40.9885 35.3793 40.7937 35.4558 40.6125C35.5324 40.4312 35.6445 40.2671 35.7856 40.13C35.9268 39.9929 36.094 39.8854 36.2773 39.8141C36.4607 39.7427 36.6565 39.7089 36.8532 39.7146V39.7146Z" fill="black"/>
<path fill-rule="evenodd" clip-rule="evenodd" d="M47.1058 26C47.1058 31.5976 44.8822 36.966 40.9241 40.9241C36.966 44.8822 31.5976 47.1058 26 47.1058C20.4024 47.1058 15.034 44.8822 11.0759 40.9241C7.11783 36.966 4.89419 31.5976 4.89419 26C4.89419 20.4024 7.11783 15.034 11.0759 11.0759C15.034 7.11783 20.4024 4.89419 26 4.89419C31.5976 4.89419 36.966 7.11783 40.9241 11.0759C44.8822 15.034 47.1058 20.4024 47.1058 26V26ZM46.7086 23.9618L50 26L46.7086 28.0382L49.5366 30.6818L45.9141 32.039L48.1746 35.1838L44.3488 35.8081L45.9566 39.336L42.0835 39.1988L42.9726 42.9726L39.1988 42.0835L39.336 45.9566L35.8081 44.3488L35.1838 48.1746L32.039 45.9141L30.6818 49.5366L28.0382 46.7086L26 50L23.9618 46.7086L21.3182 49.5366L19.961 45.9141L16.8162 48.1746L16.1919 44.3488L12.664 45.9566L12.8012 42.0835L9.02739 42.9726L9.91645 39.1988L6.04335 39.336L7.65123 35.8081L3.82542 35.1838L6.08591 32.039L2.46345 30.6818L5.29143 28.0382L2 26L5.29143 23.9618L2.46345 21.3182L6.08591 19.961L3.82542 16.8162L7.65123 16.1919L6.04335 12.664L9.91645 12.8012L9.02739 9.02739L12.8012 9.91645L12.664 6.04335L16.1919 7.65123L16.8162 3.82542L19.961 6.08591L21.3182 2.46345L23.9618 5.29143L26 2L28.0382 5.29143L30.6818 2.46345L32.039 6.08591L35.1838 3.82542L35.8081 7.65123L39.336 6.04335L39.1988 9.91645L42.9726 9.02739L42.0835 12.8012L45.9566 12.664L44.3488 16.1919L48.1746 16.8162L45.9141 19.961L49.5366 21.3182L46.7086 23.9618Z" fill="black" stroke="black" stroke-width="3" stroke-linecap="round" stroke-linejoin="round"/>
</svg>
