<svg width="69" height="48" viewBox="0 0 69 48" fill="none" xmlns="http://www.w3.org/2000/svg">
<g clip-path="url(#clip0_5239_786)">
<mask id="mask0_5239_786" style="mask-type:luminance" maskUnits="userSpaceOnUse" x="0" y="0" width="69" height="48">
<path d="M0.0151367 0.125488H68.3712V47.8742H0.0151367V0.125488Z" fill="white"/>
</mask>
<g mask="url(#mask0_5239_786)">
<path fill-rule="evenodd" clip-rule="evenodd" d="M28.3979 5.35283C30.6044 3.05587 33.6754 1.63346 37.0681 1.63346C41.5916 1.63346 45.5121 4.14655 47.623 7.89105C49.4969 7.05337 51.5265 6.6209 53.5791 6.62194C61.7215 6.62194 68.3309 13.2816 68.3309 21.4994C68.3309 29.7172 61.7215 36.3769 53.5791 36.3769C52.5839 36.3769 51.6138 36.2769 50.6639 36.0879C48.8168 39.3801 45.2859 41.6167 41.2649 41.6167C39.6279 41.6199 38.0118 41.2486 36.5403 40.531C34.6681 44.929 30.3079 48.0201 25.2314 48.0201C19.9288 48.0201 15.4304 44.6776 13.6963 39.9782C12.9246 40.141 12.1379 40.2229 11.3491 40.2224C5.04127 40.2224 -0.0603027 35.0455 -0.0603027 28.6874C-0.0603027 24.4151 2.23666 20.6957 5.64441 18.6853C4.92145 17.0198 4.54932 15.2234 4.55122 13.4078C4.55122 6.06956 10.5072 0.138672 17.8455 0.138672C22.1428 0.138672 25.9879 2.18684 28.4004 5.3659" fill="#00A1E0"/>
</g>
<path fill-rule="evenodd" clip-rule="evenodd" d="M9.90165 24.9548C9.85868 25.0669 9.91698 25.0902 9.9308 25.1101C10.0592 25.2031 10.1897 25.2704 10.3203 25.3461C11.019 25.7155 11.6774 25.8236 12.366 25.8236C13.7683 25.8236 14.6403 25.0772 14.6403 23.8759V23.8523C14.6403 22.7415 13.6552 22.3369 12.7354 22.0479L12.615 22.0089C11.9189 21.7833 11.3183 21.5867 11.3183 21.1294V21.106C11.3183 20.714 11.6701 20.4249 12.2129 20.4249C12.8161 20.4249 13.5348 20.6257 13.9947 20.8798C13.9947 20.8798 14.1309 20.9678 14.1804 20.8363C14.2073 20.7652 14.4418 20.1377 14.4669 20.0673C14.4936 19.9937 14.4468 19.9382 14.3988 19.9095C13.8711 19.5878 13.1423 19.3692 12.3884 19.3692L12.2484 19.3697C10.9642 19.3697 10.067 20.1462 10.067 21.257V21.2809C10.067 22.452 11.0572 22.834 11.982 23.0979L12.1308 23.1441C12.8043 23.3512 13.3873 23.5311 13.3873 24.0036V24.0272C13.3873 24.462 13.0078 24.7862 12.3997 24.7862C12.1632 24.7862 11.4095 24.7821 10.5928 24.266C10.494 24.2084 10.4377 24.1669 10.3615 24.1204C10.3213 24.0961 10.2208 24.0521 10.1771 24.1838L9.90065 24.9528M30.4326 24.9528C30.3896 25.0649 30.4479 25.0882 30.4622 25.1081C30.5902 25.2011 30.7211 25.2684 30.8518 25.3441C31.5504 25.7135 32.2088 25.8216 32.8974 25.8216C34.2997 25.8216 35.1718 25.0752 35.1718 23.8739V23.8503C35.1718 22.7395 34.1891 22.3349 33.2668 22.0459L33.1465 22.0069C32.4503 21.7813 31.8497 21.5847 31.8497 21.1274V21.104C31.8497 20.7119 32.2015 20.4229 32.7444 20.4229C33.3475 20.4229 34.0637 20.6237 34.5261 20.8778C34.5261 20.8778 34.6624 20.9658 34.7121 20.8343C34.7388 20.7632 34.9735 20.1357 34.9961 20.0653C35.023 19.9917 34.976 19.9362 34.9282 19.9075C34.4005 19.5858 33.6717 19.3672 32.9178 19.3672L32.7775 19.3677C31.4934 19.3677 30.5962 20.1442 30.5962 21.255V21.2789C30.5962 22.45 31.5863 22.832 32.5112 23.0959L32.6597 23.1421C33.3357 23.3492 33.9162 23.5291 33.9162 24.0016V24.0252C33.9162 24.46 33.5367 24.7842 32.9286 24.7842C32.6916 24.7842 31.9359 24.7801 31.1217 24.2639C31.0229 24.2064 30.9651 24.1667 30.8902 24.1184C30.8648 24.1023 30.7465 24.0561 30.706 24.1818L30.4296 24.9508M44.4526 22.5985C44.4526 23.2771 44.3259 23.8123 44.0782 24.1918C43.8309 24.5663 43.4574 24.7497 42.9372 24.7497C42.417 24.7497 42.0451 24.5678 41.8013 24.1943C41.5558 23.8174 41.4319 23.2796 41.4319 22.601C41.4319 21.9225 41.5565 21.3897 41.8013 21.0153C42.0446 20.6433 42.4145 20.4649 42.9372 20.4649C43.4599 20.4649 43.8319 20.6451 44.0782 21.0153C44.3274 21.3897 44.4526 21.9225 44.4526 22.601M45.6237 21.342C45.5084 20.9524 45.3297 20.6107 45.0909 20.3242C44.8519 20.0377 44.5506 19.8065 44.1912 19.6406C43.8344 19.4735 43.4122 19.3893 42.9347 19.3893C42.4572 19.3893 42.0375 19.474 41.6782 19.6406C41.3213 19.8075 41.0172 20.0377 40.7785 20.3242C40.5402 20.6107 40.3613 20.9524 40.2457 21.342C40.1313 21.729 40.0733 22.1512 40.0733 22.601C40.0733 23.0509 40.1313 23.4731 40.2457 23.8601C40.3605 24.2496 40.5397 24.5914 40.7785 24.8779C41.0175 25.1644 41.3213 25.3931 41.6782 25.5564C42.0375 25.7193 42.4597 25.8022 42.9347 25.8022C43.4097 25.8022 43.8319 25.7193 44.1887 25.5564C44.5456 25.3936 44.8497 25.1644 45.0884 24.8779C45.3269 24.5914 45.5056 24.2496 45.6212 23.8601C45.7353 23.4731 45.7933 23.0509 45.7933 22.601C45.7933 22.1537 45.7353 21.729 45.6212 21.342M55.2463 24.5587C55.2079 24.4449 55.0968 24.4879 55.0968 24.4879C54.9267 24.5529 54.745 24.6133 54.5515 24.6434C54.3564 24.6741 54.1393 24.6894 53.9106 24.6894C53.3452 24.6894 52.8928 24.5208 52.5711 24.1868C52.2469 23.8525 52.066 23.3147 52.0685 22.586C52.0703 21.9225 52.2306 21.4249 52.5184 21.0429C52.8023 20.666 53.2396 20.4699 53.8176 20.4699C54.3001 20.4699 54.6696 20.526 55.0566 20.6471C55.0566 20.6471 55.1483 20.6871 55.1923 20.5662C55.2951 20.2822 55.371 20.0786 55.4813 19.767C55.5125 19.6778 55.4361 19.6401 55.4082 19.6293C55.2564 19.57 54.898 19.4727 54.6266 19.4318C54.3728 19.3931 54.0787 19.373 53.747 19.373C53.2544 19.373 52.8172 19.4572 52.4427 19.624C52.0683 19.7906 51.7516 20.0211 51.5003 20.3076C51.249 20.5941 51.058 20.9359 50.9298 21.3254C50.8029 21.7124 50.7388 22.1371 50.7388 22.587C50.7388 23.557 51.0002 24.3436 51.5179 24.9191C52.0356 25.4971 52.8147 25.7886 53.8299 25.7886C54.4306 25.7886 55.0463 25.6673 55.4886 25.4921C55.4886 25.4921 55.573 25.4514 55.5363 25.3529L55.2473 24.5587M57.2955 21.9451C57.3515 21.5681 57.4548 21.254 57.6172 21.0102C57.8602 20.6383 58.2304 20.4347 58.7506 20.4347C59.2708 20.4347 59.6151 20.6393 59.8614 21.0102C60.0247 21.2553 60.0961 21.5807 60.1227 21.9451L57.2829 21.9446L57.2955 21.9451ZM61.241 21.1158C61.1413 20.7413 60.8942 20.3619 60.7334 20.1885C60.4771 19.9145 60.2283 19.721 59.9795 19.6155C59.6203 19.4627 59.2339 19.3844 58.8436 19.385C58.3485 19.385 57.8986 19.4687 57.5342 19.6389C57.1698 19.8102 56.8632 20.0435 56.622 20.335C56.381 20.6265 56.1998 20.9708 56.0842 21.3653C55.9686 21.7549 55.9103 22.1821 55.9103 22.6294C55.9103 23.0868 55.9708 23.5115 56.09 23.896C56.2103 24.283 56.4041 24.6223 56.6655 24.9038C56.9268 25.1878 57.2611 25.4089 57.6632 25.5647C58.0627 25.7193 58.5478 25.7994 59.1032 25.7977C60.2491 25.7939 60.8523 25.5388 61.0985 25.4006C61.1425 25.376 61.184 25.3335 61.1322 25.2111L60.8734 24.4848C60.8337 24.3765 60.7241 24.4157 60.7241 24.4157C60.4401 24.5218 60.038 24.7123 59.0956 24.7098C58.4799 24.7088 58.025 24.5271 57.7386 24.2423C57.447 23.9508 57.3013 23.5261 57.2787 22.923L61.2493 22.926C61.2493 22.926 61.3539 22.925 61.3647 22.8229C61.369 22.7807 61.5006 22.0087 61.2463 21.1165L61.241 21.1158ZM25.5552 21.9451C25.6112 21.5681 25.7148 21.254 25.8769 21.0102C26.1201 20.6383 26.49 20.4347 27.0103 20.4347C27.5305 20.4347 27.8748 20.6393 28.121 21.0102C28.2841 21.2553 28.3555 21.5807 28.3824 21.9451L25.5426 21.9446L25.5552 21.9451ZM29.5007 21.1158C29.4012 20.7413 29.1539 20.3619 28.9931 20.1885C28.7367 19.9145 28.488 19.721 28.2392 19.6155C27.88 19.4627 27.4936 19.3844 27.1032 19.385C26.6082 19.385 26.1583 19.4687 25.7939 19.6389C25.4295 19.8102 25.1229 20.0435 24.8817 20.335C24.6412 20.6265 24.4595 20.9708 24.3439 21.3653C24.2285 21.7549 24.1705 22.1821 24.1705 22.6294C24.1705 23.0868 24.2305 23.5115 24.3504 23.896C24.4705 24.283 24.6645 24.6223 24.9234 24.9038C25.1848 25.1878 25.519 25.4089 25.9211 25.5647C26.3207 25.7193 26.8032 25.7994 27.3611 25.7977C28.5071 25.7939 29.1102 25.5388 29.3565 25.4006C29.4002 25.376 29.4419 25.3335 29.3899 25.2111L29.1311 24.4848C29.0911 24.3765 28.9815 24.4157 28.9815 24.4157C28.6975 24.5218 28.2955 24.7123 27.353 24.7098C26.7398 24.7088 26.2825 24.5271 25.996 24.2423C25.7045 23.9508 25.5587 23.5261 25.5361 22.923L29.5068 22.926C29.5068 22.926 29.6113 22.925 29.6221 22.8229C29.6264 22.7807 29.7581 22.0087 29.5035 21.1165L29.5007 21.1158ZM16.9855 24.5336C16.83 24.4094 16.8084 24.379 16.7569 24.2984C16.6782 24.177 16.638 24.0043 16.638 23.7832C16.638 23.4364 16.7536 23.1851 16.9923 23.0167C16.9898 23.0172 17.3341 22.7202 18.1433 22.7302C18.5035 22.7367 18.8629 22.7673 19.2189 22.8219V24.6238H19.2194C19.2194 24.6238 18.7168 24.7321 18.1489 24.7663C17.3422 24.8148 16.9853 24.5341 16.9878 24.5349L16.9855 24.5336ZM18.5638 21.7441C18.4029 21.7323 18.1943 21.7265 17.9455 21.7265C17.6063 21.7265 17.2771 21.7687 16.9705 21.8516C16.6614 21.9351 16.3824 22.0642 16.1437 22.2361C15.9043 22.4069 15.7074 22.6305 15.5682 22.8895C15.4277 23.1509 15.3561 23.4575 15.3561 23.8043C15.3561 24.1561 15.4171 24.4602 15.5378 24.709C15.656 24.9558 15.8339 25.1692 16.0555 25.3297C16.2758 25.4901 16.548 25.6087 16.8622 25.6791C17.1738 25.7502 17.5256 25.7861 17.9126 25.7861C18.3197 25.7861 18.7244 25.7519 19.1164 25.6858C19.4503 25.6283 19.7829 25.5636 20.1141 25.4918C20.2463 25.4614 20.393 25.4215 20.393 25.4215C20.4911 25.3966 20.4835 25.2918 20.4835 25.2918L20.4813 21.6729C20.4813 20.8788 20.2691 20.2882 19.8505 19.9238C19.4333 19.5594 18.8226 19.376 18.031 19.376C17.7344 19.376 17.2544 19.4162 16.968 19.4737C16.968 19.4737 16.1035 19.6416 15.7466 19.9211C15.7466 19.9211 15.6682 19.9693 15.7109 20.0786L15.9924 20.8326C16.0273 20.9303 16.1226 20.8969 16.1226 20.8969C16.1226 20.8969 16.1525 20.8851 16.1876 20.8642C16.9491 20.4496 17.9141 20.4621 17.9141 20.4621C18.3414 20.4621 18.6731 20.5488 18.8942 20.7185C19.1106 20.8846 19.2209 21.1356 19.2209 21.6634V21.831C18.8817 21.7818 18.5675 21.7534 18.5675 21.7534L18.5638 21.7441ZM50.48 19.7009C50.4857 19.6877 50.4887 19.6734 50.4888 19.659C50.4889 19.6445 50.486 19.6302 50.4805 19.6169C50.4749 19.6036 50.4668 19.5915 50.4564 19.5814C50.4461 19.5714 50.4339 19.5634 50.4204 19.5582C50.3528 19.5325 50.0158 19.4614 49.757 19.4453C49.2594 19.4142 48.9829 19.4981 48.7342 19.6097C48.4884 19.7205 48.2165 19.8987 48.0657 20.1048L48.0652 19.6223C48.0652 19.5559 48.0182 19.5024 47.9513 19.5024H46.936C46.8702 19.5024 46.8224 19.5559 46.8224 19.6223V25.528C46.8225 25.5599 46.8352 25.5905 46.8578 25.6131C46.8803 25.6356 46.9109 25.6483 46.9428 25.6484H47.9832C48.0151 25.6483 48.0457 25.6356 48.0682 25.6131C48.0907 25.5905 48.1034 25.5599 48.1034 25.528V22.5626C48.1034 22.1655 48.1471 21.771 48.2343 21.5222C48.3202 21.2761 48.4371 21.0799 48.5811 20.9391C48.7185 20.8032 48.8866 20.7023 49.0712 20.6451C49.2444 20.5954 49.4237 20.5702 49.6039 20.5702C49.8113 20.5702 50.0387 20.6235 50.0387 20.6235C50.1151 20.632 50.1576 20.5853 50.1835 20.5164C50.2516 20.3352 50.4448 19.7927 50.4825 19.6846" fill="#FFFFFE"/>
<path fill-rule="evenodd" clip-rule="evenodd" d="M40.7626 16.9752C40.634 16.9363 40.5032 16.9053 40.3708 16.8822C40.1928 16.8525 40.0125 16.8386 39.832 16.8405C39.115 16.8405 38.5498 17.0431 38.153 17.4432C37.759 17.8402 37.4908 18.4451 37.3564 19.241L37.3079 19.5097H36.4079C36.4079 19.5097 36.2981 19.5051 36.275 19.625L36.1272 20.4493C36.1169 20.5282 36.1508 20.5775 36.2564 20.577H37.1324L36.2436 25.5386C36.1739 25.9381 36.0943 26.2669 36.0061 26.5159C35.9191 26.7617 35.8342 26.9459 35.7296 27.0796C35.6284 27.209 35.5324 27.3043 35.3667 27.3598C35.23 27.4058 35.0727 27.4269 34.9003 27.4269C34.8043 27.4269 34.6766 27.4108 34.5824 27.392C34.4882 27.3734 34.4392 27.3523 34.3685 27.3226C34.3685 27.3226 34.2658 27.2834 34.2253 27.3864C34.1924 27.4706 33.9589 28.1127 33.9313 28.1921C33.9031 28.2705 33.9426 28.3324 33.9923 28.3502C34.1089 28.3919 34.1956 28.4186 34.3545 28.456C34.5751 28.508 34.7611 28.5113 34.9352 28.5113C35.3001 28.5113 35.6326 28.46 35.9083 28.3605C36.1858 28.2602 36.4273 28.0856 36.6409 27.8491C36.8718 27.594 37.0171 27.3269 37.1561 26.9625C37.2935 26.6014 37.4106 26.153 37.5044 25.6305L38.3975 20.577H39.7033C39.7033 20.577 39.8134 20.581 39.8363 20.4616L39.984 19.6373C39.9943 19.5584 39.9607 19.5092 39.8546 19.5097H38.5873C38.5935 19.481 38.6511 19.0352 38.7966 18.6155C38.8587 18.4363 38.9755 18.2918 39.0746 18.1926C39.167 18.098 39.2809 18.0272 39.4065 17.986C39.5443 17.9434 39.6878 17.9227 39.832 17.9247C39.9514 17.9247 40.0685 17.939 40.1577 17.9576C40.2806 17.9837 40.3283 17.9975 40.3605 18.0071C40.4897 18.0465 40.507 18.0083 40.5324 17.9458L40.8355 17.1134C40.8666 17.024 40.7907 16.9863 40.7626 16.9752ZM23.0519 25.5491C23.0519 25.6155 23.0046 25.6695 22.9383 25.6695H21.887C21.8204 25.6695 21.7732 25.6155 21.7732 25.5491V17.0881C21.7732 17.022 21.8204 16.9684 21.887 16.9684H22.9383C23.0046 16.9684 23.0519 17.022 23.0519 17.0881V25.5491Z" fill="#FFFFFE"/>
</g>
<defs>
<clipPath id="clip0_5239_786">
<rect width="68.6073" height="48" fill="white"/>
</clipPath>
</defs>
</svg>
