<svg width="53" height="53" viewBox="0 0 53 53" fill="none" xmlns="http://www.w3.org/2000/svg">
<g clip-path="url(#clip0_5239_794)">
<path d="M11.637 33.2558C11.637 36.2448 9.22122 38.6605 6.23224 38.6605C3.24326 38.6605 0.827515 36.2448 0.827515 33.2558C0.827515 30.2668 3.24326 27.8511 6.23224 27.8511H11.637V33.2558ZM14.3393 33.2558C14.3393 30.2668 16.7551 27.8511 19.7441 27.8511C22.733 27.8511 25.1488 30.2668 25.1488 33.2558V46.7676C25.1488 49.7566 22.733 52.1723 19.7441 52.1723C16.7551 52.1723 14.3393 49.7566 14.3393 46.7676V33.2558Z" fill="#E01E5A"/>
<path d="M19.7441 11.5551C16.7551 11.5551 14.3394 9.13931 14.3394 6.15033C14.3394 3.16135 16.7551 0.745605 19.7441 0.745605C22.7331 0.745605 25.1488 3.16135 25.1488 6.15033V11.5551H19.7441ZM19.7441 14.2984C22.7331 14.2984 25.1488 16.7141 25.1488 19.7031C25.1488 22.6921 22.7331 25.1078 19.7441 25.1078H6.19135C3.20237 25.1078 0.786621 22.6921 0.786621 19.7031C0.786621 16.7141 3.20237 14.2984 6.19135 14.2984H19.7441Z" fill="#36C5F0"/>
<path d="M41.4039 19.7031C41.4039 16.7141 43.8196 14.2984 46.8086 14.2984C49.7976 14.2984 52.2134 16.7141 52.2134 19.7031C52.2134 22.6921 49.7976 25.1078 46.8086 25.1078H41.4039V19.7031ZM38.7015 19.7031C38.7015 22.6921 36.2858 25.1078 33.2968 25.1078C30.3078 25.1078 27.8921 22.6921 27.8921 19.7031V6.15033C27.8921 3.16135 30.3078 0.745605 33.2968 0.745605C36.2858 0.745605 38.7015 3.16135 38.7015 6.15033V19.7031Z" fill="#2EB67D"/>
<path d="M33.2968 41.3629C36.2858 41.3629 38.7015 43.7786 38.7015 46.7676C38.7015 49.7566 36.2858 52.1723 33.2968 52.1723C30.3078 52.1723 27.8921 49.7566 27.8921 46.7676V41.3629H33.2968ZM33.2968 38.6605C30.3078 38.6605 27.8921 36.2448 27.8921 33.2558C27.8921 30.2668 30.3078 27.8511 33.2968 27.8511H46.8496C49.8385 27.8511 52.2543 30.2668 52.2543 33.2558C52.2543 36.2448 49.8385 38.6605 46.8496 38.6605H33.2968Z" fill="#ECB22E"/>
</g>
<defs>
<clipPath id="clip0_5239_794">
<rect width="52" height="52" fill="white" transform="translate(0.5 0.5)"/>
</clipPath>
</defs>
</svg>
