<svg width="48" height="38" viewBox="0 0 48 38" fill="none" xmlns="http://www.w3.org/2000/svg">
<g clip-path="url(#clip0_5239_770)">
<path d="M7.79901 28.71C8.09315 28.4149 8.49245 28.2488 8.9091 28.248H47.2141C47.3694 28.2478 47.5212 28.2937 47.6504 28.3799C47.7796 28.4661 47.8803 28.5888 47.9397 28.7323C47.9991 28.8758 48.0146 29.0337 47.9841 29.186C47.9537 29.3383 47.8787 29.4781 47.7686 29.5877L40.2021 37.1542C40.0563 37.2999 39.8832 37.4154 39.6927 37.4942C39.5023 37.573 39.2981 37.6135 39.092 37.6134H0.787066C0.63284 37.6124 0.482311 37.5661 0.354269 37.4801C0.226228 37.3941 0.126346 37.2723 0.0670912 37.1299C0.00783672 36.9875 -0.00816525 36.8308 0.0210828 36.6794C0.0503308 36.528 0.123533 36.3885 0.231552 36.2784L7.79901 28.71Z" fill="url(#paint0_linear_5239_770)"/>
<path d="M7.79901 0.458205C8.09631 0.168336 8.4939 0.00422402 8.9091 8.27717e-07H47.2141C47.3694 -0.000224784 47.5212 0.0456759 47.6504 0.131882C47.7796 0.218089 47.8803 0.340718 47.9397 0.48422C47.9991 0.627722 48.0146 0.785632 47.9841 0.937927C47.9537 1.09022 47.8787 1.23004 47.7686 1.33966L40.2021 8.90617C40.0563 9.05186 39.8832 9.1674 39.6927 9.24618C39.5023 9.32496 39.2981 9.36545 39.092 9.36532H0.787066C0.63284 9.36437 0.482311 9.31801 0.354269 9.23203C0.226228 9.14606 0.126346 9.02427 0.0670912 8.88188C0.00783672 8.73949 -0.00816525 8.5828 0.0210828 8.43137C0.0503308 8.27993 0.123533 8.14047 0.231552 8.03039L7.79901 0.458205Z" fill="url(#paint1_linear_5239_770)"/>
<path d="M40.2019 14.4943C40.0561 14.3486 39.883 14.2331 39.6925 14.1543C39.502 14.0755 39.2979 14.035 39.0918 14.0352H0.786843C0.631653 14.0352 0.479956 14.0812 0.350914 14.1674C0.221873 14.2536 0.121276 14.3762 0.0618315 14.5195C0.00238718 14.6629 -0.0132378 14.8206 0.0169303 14.9729C0.0470984 15.1251 0.121706 15.265 0.231329 15.3748L7.79879 22.9413C7.94457 23.0871 8.11765 23.2026 8.30813 23.2814C8.4986 23.3602 8.70274 23.4007 8.90887 23.4005H47.2138C47.3691 23.4007 47.521 23.3548 47.6502 23.2686C47.7794 23.1824 47.8801 23.0598 47.9395 22.9163C47.9989 22.7728 48.0143 22.6148 47.9839 22.4626C47.9534 22.3103 47.8784 22.1704 47.7684 22.0608L40.2019 14.4943Z" fill="url(#paint2_linear_5239_770)"/>
</g>
<defs>
<linearGradient id="paint0_linear_5239_770" x1="43.555" y1="-4.51972" x2="17.0444" y2="46.2569" gradientUnits="userSpaceOnUse">
<stop stop-color="#00FFA3"/>
<stop offset="1" stop-color="#DC1FFF"/>
</linearGradient>
<linearGradient id="paint1_linear_5239_770" x1="31.9639" y1="-10.5718" x2="5.45414" y2="40.2058" gradientUnits="userSpaceOnUse">
<stop stop-color="#00FFA3"/>
<stop offset="1" stop-color="#DC1FFF"/>
</linearGradient>
<linearGradient id="paint2_linear_5239_770" x1="37.7219" y1="-7.56565" x2="11.2122" y2="43.2119" gradientUnits="userSpaceOnUse">
<stop stop-color="#00FFA3"/>
<stop offset="1" stop-color="#DC1FFF"/>
</linearGradient>
<clipPath id="clip0_5239_770">
<rect width="48" height="37.6172" fill="white"/>
</clipPath>
</defs>
</svg>
