<svg width="45" height="41" viewBox="0 0 45 41" fill="none" xmlns="http://www.w3.org/2000/svg">
<g clip-path="url(#clip0_5237_979)">
<path d="M41.1 28.2298C41.17 28.0098 41.23 27.7798 41.29 27.5598C43.76 17.7398 37.74 6.12977 27.56 0.00976562C32.02 6.05977 33.99 13.3798 32.24 19.7898C32.08 20.3598 31.9 20.9098 31.69 21.4398C31.46 21.2898 31.18 21.1198 30.8 20.9098C30.8 20.9098 20.67 14.6598 9.7 3.59977C9.41 3.30977 15.55 12.3798 22.52 19.7398C19.24 17.8998 10.09 11.2398 4.29 5.93977C5 7.12977 5.85 8.26976 6.78 9.36977C11.62 15.4998 17.93 23.0698 25.48 28.8898C20.17 32.1398 12.67 32.3898 5.19 28.8898C3.34 28.0198 1.6 26.9798 0 25.7898C3.16 30.8498 8.03 35.2098 13.96 37.7598C21.03 40.7998 28.06 40.5898 33.3 37.8098C33.3 37.8098 33.35 37.7798 33.38 37.7698C33.6 37.6498 33.81 37.5398 34.02 37.4098C36.54 36.0998 41.5 34.7798 44.17 39.9698C44.82 41.2398 46.21 34.5098 41.11 28.2298H41.1Z" fill="white"/>
</g>
<defs>
<clipPath id="clip0_5237_979">
<rect width="44.84" height="40.12" fill="white"/>
</clipPath>
</defs>
</svg>
