<svg width="54" height="40" viewBox="0 0 54 40" fill="none" xmlns="http://www.w3.org/2000/svg">
<g clip-path="url(#clip0_5239_781)">
<path d="M41.772 22.4111C39.2912 22.4111 36.9668 21.3607 34.8547 19.6509L35.3688 17.2371L35.3911 17.1477C35.8493 14.5775 37.3021 10.2639 41.772 10.2639C45.1245 10.2639 47.8512 12.9906 47.8512 16.3431C47.8401 19.6844 45.1134 22.4111 41.772 22.4111ZM41.772 4.1065C36.0616 4.1065 31.6363 7.81659 29.8372 13.9181C27.0881 9.79456 25.0096 4.84405 23.7915 0.675781H17.6453V16.6672C17.6453 19.8185 15.075 22.3888 11.9237 22.3888C8.77234 22.3888 6.20209 19.8185 6.20209 16.6672V0.675781H0.0558562V16.6672C0.0335062 23.2157 5.36397 28.5909 11.9125 28.5909C18.461 28.5909 23.7915 23.2157 23.7915 16.6672V13.9852C24.9872 16.4772 26.4512 18.9916 28.228 21.2266L24.462 38.9277H30.7535L33.4802 26.0877C35.8717 27.6187 38.6207 28.5797 41.772 28.5797C48.5106 28.5797 53.9975 23.0593 53.9975 16.3208C53.9975 9.59341 48.5106 4.1065 41.772 4.1065Z" fill="white"/>
</g>
<defs>
<clipPath id="clip0_5239_781">
<rect width="54" height="38.5442" fill="white" transform="translate(0 0.572266)"/>
</clipPath>
</defs>
</svg>
