<svg width="141" height="30" viewBox="0 0 141 30" fill="none" xmlns="http://www.w3.org/2000/svg">
<g clip-path="url(#clip0_5358_2334)">
<path d="M0 0.0736084V20.8146C1.61953 29.4091 9.34909 29.4828 9.34909 29.4828H29.2435V0.0736084H0ZM24.4769 14.7782H20.0601V9.4227H14.6126V5.24505H24.4769V14.7782Z" fill="#FED600"/>
<path d="M97.1349 17.3363V25.5812L92.5524 18.0172C92.2579 17.4651 91.7058 17.3363 91.7058 17.3363H88.9452V29.3171H91.577V21.1091L96.2147 28.7098C96.6012 29.3539 97.0245 29.2987 97.0245 29.2987H99.4906V17.3363H97.1349ZM72.0874 0.4969V8.74177L67.4865 1.17784C67.192 0.625726 66.6399 0.4969 66.6399 0.4969H63.8794V12.4777H66.5111V4.28807L71.1488 11.8888C71.5353 12.5329 71.9586 12.4777 71.9586 12.4777H74.4247V0.4969H72.0874ZM124.52 17.1155C124.52 17.1155 123.747 17.1523 123.747 17.962V21.79H118.262V17.1155H115.943V29.3355H118.373V24.2561H123.765V29.3355H126.102V17.1155H124.52ZM78.2895 17.1155C78.2895 17.1155 77.5165 17.1523 77.5165 17.962V21.79H72.0322V17.1155H69.6949V29.3355H72.1242V24.2561H77.5165V29.3355H79.8538V17.1155H78.2895ZM48.6595 21.2011C48.8251 17.594 45.218 17.1155 45.218 17.1155H39.0896V29.3355H41.4636V25.2315H45.2916C48.954 24.3297 48.6595 21.2011 48.6595 21.2011ZM46.2486 21.2563C46.2486 22.7654 44.5002 23.0967 44.5002 23.0967H41.482V19.3975H44.7211C46.3774 19.4895 46.2486 21.2563 46.2486 21.2563ZM50.9968 17.1155V29.3355H53.334V17.1155H50.9968ZM83.2953 17.1155V29.3355H85.6326V17.1155H83.2953ZM96.0123 0C92.4972 0 89.6262 2.85258 89.6262 6.38609C89.6262 9.9012 92.4787 12.7538 96.0123 12.7538C99.5458 12.7538 102.398 9.9012 102.398 6.38609C102.38 2.85258 99.5274 0 96.0123 0ZM96.0123 10.3613C93.8038 10.3613 92.0187 8.57613 92.0187 6.36769C92.0187 4.15924 93.8038 2.37408 96.0123 2.37408C98.2207 2.37408 100.006 4.15924 100.006 6.36769C100.006 8.57613 98.2207 10.3613 96.0123 10.3613ZM111.895 25.5628C110.772 27.3479 108.416 27.1823 108.416 27.1823C104.46 26.8878 104.625 23.1151 104.625 23.1151C104.883 19.1399 108.324 19.1951 108.324 19.1951C110.533 19.1951 111.435 20.5201 111.435 20.5201L113.128 18.9374C111.6 16.7842 108.545 16.8946 108.545 16.8946C101.515 17.1707 101.92 23.3175 101.92 23.3175C102.435 30.1269 108.545 29.3171 108.545 29.3171C112.06 29.3171 113.422 27.1087 113.422 27.1087L111.895 25.5628ZM65.7934 25.5628C64.6707 27.3479 62.3151 27.1823 62.3151 27.1823C58.3583 26.8878 58.5239 23.1151 58.5239 23.1151C58.7815 19.1399 62.223 19.1951 62.223 19.1951C64.4315 19.1951 65.3333 20.5201 65.3333 20.5201L67.0264 18.9374C65.4989 16.7842 62.4439 16.8946 62.4439 16.8946C55.4137 17.1707 55.8185 23.3175 55.8185 23.3175C56.3338 30.1269 62.4439 29.3171 62.4439 29.3171C65.959 29.3171 67.3209 27.1087 67.3209 27.1087L65.7934 25.5628ZM86.8104 8.74177C85.6878 10.5269 83.3321 10.3613 83.3321 10.3613C79.3753 10.0668 79.5409 6.29407 79.5409 6.29407C79.7986 2.31887 83.2401 2.37408 83.2401 2.37408C85.4485 2.37408 86.3503 3.69915 86.3503 3.69915L88.0434 2.11643C86.5159 -0.0368074 83.4609 0.0736149 83.4609 0.0736149C76.4307 0.349671 76.8356 6.49651 76.8356 6.49651C77.3509 13.3059 83.4609 12.4961 83.4609 12.4961C86.976 12.4961 88.3379 10.2877 88.3379 10.2877L86.8104 8.74177ZM135.415 17.2259H132.875L128.219 29.2067H130.777L131.918 26.7406H136.556L137.513 29.2067H140.126L135.415 17.2259ZM132.47 24.6794L134.163 20.6674L135.856 24.6794H132.47ZM57.2356 0.4969H54.6775L50.0214 12.4777H52.5795L53.7205 10.0116H58.3767L59.3336 12.4777H61.947L57.2356 0.4969ZM54.291 7.95041L55.9842 3.9384L57.6773 7.95041H54.291ZM48.9539 8.99942C48.9539 8.99942 48.954 6.69895 47.3344 6.27567C47.3344 6.27567 48.954 4.84018 48.6043 3.4783C48.6043 3.4783 48.6043 0.920186 46.1382 0.4969H38.9055V12.4777H45.6965C45.7333 12.4777 49.138 11.9624 48.9539 8.99942ZM41.482 2.61333H44.9419C46.1382 2.61333 46.2486 3.9384 46.2486 3.9384C46.3038 4.969 45.0524 5.26346 45.0524 5.26346H41.482V2.61333ZM44.9419 10.2693H41.482V7.21426H45.1628C46.5799 7.21426 46.6351 8.61294 46.6351 8.61294C46.5247 10.0668 44.9419 10.2693 44.9419 10.2693Z" fill="white"/>
</g>
<defs>
<clipPath id="clip0_5358_2334">
<rect width="140.126" height="29.4828" fill="white"/>
</clipPath>
</defs>
</svg>
