<svg width="132" height="26" viewBox="0 0 132 26" fill="none" xmlns="http://www.w3.org/2000/svg">
<g clip-path="url(#clip0_5358_2177)">
<path d="M10.4932 23.5302C4.0277 23.5302 0 18.0187 0 12.0831C0 5.82956 3.60373 0.741943 10.4932 0.741943C15.5808 0.741943 19.5025 3.70972 19.8205 8.0554H15.3689C15.1569 6.04155 13.037 4.45167 10.5992 4.45167C6.99548 4.45167 4.66365 7.20746 4.66365 12.2951C4.66365 15.7928 6.46552 19.7145 10.5992 19.7145C14.4149 19.7145 15.7928 17.8067 15.7928 14.8389H11.0232V11.3412H19.9265V14.9449C19.8205 19.9265 17.5947 23.5302 10.4932 23.5302Z" fill="white" fill-opacity="0.6"/>
<path d="M22.3643 22.7882V1.27185H26.4979V22.7882H22.3643Z" fill="white" fill-opacity="0.6"/>
<path d="M28.5118 13.673C28.8298 10.1752 32.0095 6.99546 35.5073 6.67748C41.0189 6.14752 44.6226 9.53927 44.6226 14.9449C44.6226 19.9265 41.5488 23.2122 36.5672 23.2122C31.0556 23.2122 27.9818 19.1846 28.5118 13.673ZM40.3829 14.9449C40.3829 11.7651 39.111 10.1752 36.5672 10.1752C34.0234 10.1752 32.7515 11.7651 32.7515 14.9449C32.7515 18.1246 34.0234 19.7145 36.5672 19.7145C39.111 19.7145 40.3829 18.1246 40.3829 14.9449Z" fill="white" fill-opacity="0.6"/>
<path d="M46.5305 22.7882V1.27185H50.6642V9.11527C51.8301 7.41939 53.42 6.67745 55.3279 6.67745C59.3556 6.67745 61.7934 10.0692 61.7934 14.8388C61.7934 20.1384 58.9316 23.3182 55.0099 23.3182C53.102 23.3182 51.6181 22.5763 50.6642 20.9864V22.8942L46.5305 22.7882ZM57.5537 15.0508C57.5537 11.8711 56.3878 10.1752 53.95 10.1752C51.6181 10.1752 50.4522 11.8711 50.4522 15.2628C50.4522 17.9126 52.0421 19.8205 53.95 19.8205C56.0698 19.8205 57.5537 17.8066 57.5537 15.0508Z" fill="white" fill-opacity="0.6"/>
<path d="M74.0884 22.7883C73.9824 22.3643 73.8764 21.8344 73.8764 21.4104C72.9224 22.4703 71.2266 23.2123 69.1067 23.2123C65.503 23.2123 63.8071 21.4104 63.8071 18.8666C63.8071 14.3089 66.8809 13.779 71.0146 13.249C73.1344 12.931 73.6644 12.5071 73.6644 11.4471C73.6644 10.3872 72.6045 9.85725 71.0146 9.85725C69.1067 9.85725 68.3648 10.8112 68.1528 12.1891H64.2311C64.3371 8.90332 66.139 6.67749 71.1206 6.67749C76.1022 6.67749 77.7981 8.90332 77.7981 12.931V22.8943H74.0884V22.7883ZM73.8764 15.0509C73.4524 15.4748 72.7105 15.6868 71.2266 16.0048C68.8947 16.4288 68.0468 17.1707 68.0468 18.4426C68.0468 19.6085 68.7888 20.2445 70.0607 20.2445C72.1805 20.2445 73.7704 18.6546 73.8764 16.8527V15.0509Z" fill="white" fill-opacity="0.6"/>
<path d="M90.9413 22.7883V13.249C90.9413 10.8112 90.1993 10.1753 88.2915 10.1753C86.0656 10.1753 85.1117 11.3412 85.1117 13.779V22.7883H80.978V6.9955H84.7937V9.32733C85.7477 7.52546 87.3376 6.57153 89.8814 6.57153C92.8491 6.57153 95.075 8.3734 95.075 11.8711V22.7883H90.9413Z" fill="white" fill-opacity="0.6"/>
<path d="M107.158 16.8527C107.052 18.5486 106.31 19.6085 104.72 19.6085C103.024 19.6085 102.282 18.4426 102.282 16.4287V9.9632H108.748V6.67744H102.282V2.75574H98.1487V16.8527C98.1487 20.2444 99.9505 23.2122 104.614 23.2122C109.066 23.2122 110.974 20.2444 110.974 16.8527H107.158Z" fill="white" fill-opacity="0.6"/>
<path d="M116.061 0.105981C115.637 -0.211996 115.001 -1.15529e-05 114.683 0.423957C114.577 0.635941 114.471 0.953917 114.577 1.1659L116.485 3.9217C120.089 9.32729 120.089 16.4288 116.485 21.8344L114.577 24.5902C114.471 25.1201 114.683 25.6501 115.213 25.7561C115.425 25.8621 115.743 25.7561 115.955 25.6501L131.536 13.779C132.066 13.355 132.172 12.613 131.748 12.0831C131.642 11.9771 131.642 11.8711 131.536 11.8711L116.061 0.105981Z" fill="white" fill-opacity="0.6"/>
</g>
<defs>
<clipPath id="clip0_5358_2177">
<rect width="131.96" height="25.8621" fill="white"/>
</clipPath>
</defs>
</svg>
