<svg width="144" height="35" viewBox="0 0 144 35" fill="none" xmlns="http://www.w3.org/2000/svg">
<g clip-path="url(#clip0_5358_2421)">
<path d="M10.2897 5.14483C10.2897 2.30345 7.98621 0 5.14483 0C2.30345 0 0 2.30345 0 5.14483C0 7.98621 2.30345 10.2897 5.14483 10.2897C7.98621 10.2897 10.2897 7.98621 10.2897 5.14483Z" fill="#004DF7"/>
<path d="M22.3863 5.14483C22.3863 2.30345 20.0829 0 17.2415 0C14.4001 0 12.0967 2.30345 12.0967 5.14483C12.0967 7.98621 14.4001 10.2897 17.2415 10.2897C20.0829 10.2897 22.3863 7.98621 22.3863 5.14483Z" fill="#004DF7"/>
<path d="M34.4828 5.14483C34.4828 2.30345 32.1793 0 29.3379 0C26.4966 0 24.1931 2.30345 24.1931 5.14483C24.1931 7.98621 26.4966 10.2897 29.3379 10.2897C32.1793 10.2897 34.4828 7.98621 34.4828 5.14483Z" fill="#004DF7"/>
<path d="M22.3863 17.2414C22.3863 14.4 20.0829 12.0966 17.2415 12.0966C14.4001 12.0966 12.0967 14.4 12.0967 17.2414C12.0967 20.0828 14.4001 22.3862 17.2415 22.3862C20.0829 22.3862 22.3863 20.0828 22.3863 17.2414Z" fill="#004DF7"/>
<path d="M22.3863 29.3379C22.3863 26.4966 20.0829 24.1931 17.2415 24.1931C14.4001 24.1931 12.0967 26.4966 12.0967 29.3379C12.0967 32.1793 14.4001 34.4828 17.2415 34.4828C20.0829 34.4828 22.3863 32.1793 22.3863 29.3379Z" fill="#004DF7"/>
<path d="M45.4483 13.2275H40.6621V10.3723H53.2138V13.2275H48.4138V26.3585H45.4483V13.2275Z" fill="#004DF7"/>
<path d="M60.731 19.5171C60.4828 18.0275 59.5034 16.8965 57.8759 16.8965C56.1379 16.8965 55.131 18.0413 54.7862 19.5171H60.731ZM63.2414 22.9378C62.9931 23.8482 61.5448 26.593 57.8759 26.593C54.4552 26.593 51.9448 24.0827 51.9448 20.5378C51.9448 16.993 54.4552 14.4827 57.8759 14.4827C61.0759 14.4827 63.5862 16.993 63.5862 20.3034C63.5862 20.6482 63.5448 20.924 63.5172 21.1309L63.4759 21.4482H54.8C55.0483 23.0758 56.2621 24.193 57.8897 24.193C59.2414 24.193 60.0552 23.4206 60.2897 22.9378H63.2414Z" fill="#004DF7"/>
<path d="M68.1518 10.3723H65.2966V26.3585H68.1518V10.3723Z" fill="#004DF7"/>
<path d="M78.6484 19.5171C78.4001 18.0275 77.4208 16.8965 75.7932 16.8965C74.0553 16.8965 73.0484 18.0413 72.7036 19.5171H78.6484ZM81.1725 22.9378C80.9243 23.8482 79.476 26.593 75.807 26.593C72.3863 26.593 69.876 24.0827 69.876 20.5378C69.876 16.993 72.3863 14.4827 75.807 14.4827C79.007 14.4827 81.5174 16.993 81.5174 20.3034C81.5174 20.6482 81.476 20.924 81.4484 21.1309L81.407 21.4482H72.7311C72.9794 23.0758 74.1932 24.193 75.8208 24.193C77.1725 24.193 77.9863 23.4206 78.2208 22.9378H81.1725Z" fill="#004DF7"/>
<path d="M84.1379 17.462H82.1931V14.7171H84.1379V13.0068C84.1379 11.2689 85.2552 10.1516 86.9931 10.1516H89.5035V12.662H87.7931C87.3379 12.662 86.9931 13.0068 86.9931 13.462V14.7171H89.5035V17.462H86.9931V26.3723H84.1379V17.462Z" fill="#004DF7"/>
<path d="M103.517 14.7171H106.138L106.373 15.862H106.483C106.69 15.6137 106.966 15.3792 107.255 15.1723C107.779 14.8275 108.579 14.4827 109.683 14.4827C112.304 14.4827 114.248 16.4275 114.248 19.393V26.3585H111.393V19.6275C111.393 18.1378 110.359 17.1171 108.883 17.1171C107.393 17.1171 106.373 18.1516 106.373 19.6275V26.3585H103.517V14.7171Z" fill="#004DF7"/>
<path d="M132.428 22.0275C132.055 23.8482 130.621 26.593 126.952 26.593C123.531 26.593 121.021 24.0827 121.021 20.5378C121.021 16.993 123.531 14.4827 126.952 14.4827C130.635 14.4827 132.069 17.2275 132.428 18.9378H129.572C129.324 18.2758 128.662 17.1171 126.952 17.1171C125.241 17.1171 123.862 18.4827 123.862 20.5378C123.862 22.593 125.228 23.9585 126.952 23.9585C128.676 23.9585 129.324 22.8137 129.572 22.0137H132.428V22.0275Z" fill="#004DF7"/>
<path d="M140.828 21.3378H138.428C136.938 21.3378 136.262 21.9034 136.262 22.8275C136.262 23.7378 136.924 24.3172 138.083 24.3172C139.821 24.3172 140.828 23.3103 140.828 21.6965V21.3378ZM141.048 25.2275H140.938C140.731 25.4758 140.455 25.7103 140.138 25.9171C139.586 26.262 138.786 26.6068 137.628 26.6068C134.979 26.6068 133.407 24.9792 133.407 23.062C133.407 20.7723 135.007 19.1723 138.207 19.1723H140.828V18.9378C140.828 17.6551 140.055 16.7723 138.772 16.7723C137.49 16.7723 136.828 17.5999 136.717 18.262H133.862C134.11 16.3447 135.669 14.4965 138.772 14.4965C141.738 14.4965 143.683 16.4551 143.683 18.9516V26.3723H141.283L141.048 25.2275Z" fill="#004DF7"/>
<path d="M116.441 14.7172H119.297V26.3586H116.441V14.7172ZM119.559 11.3517C119.559 10.4138 118.8 9.65515 117.862 9.65515C116.924 9.65515 116.166 10.4138 116.166 11.3517C116.166 12.2896 116.924 13.0483 117.862 13.0483C118.8 13.0345 119.559 12.2896 119.559 11.3517Z" fill="#004DF7"/>
<path d="M98.9518 20.5379C98.9518 18.4827 97.5863 17.1172 95.8622 17.1172C94.1518 17.1172 92.7725 18.4827 92.7725 20.5379C92.7725 22.5931 94.138 23.9586 95.8622 23.9586C97.5863 23.9586 98.9518 22.5931 98.9518 20.5379ZM101.807 20.5379C101.807 24.0827 99.2967 26.5931 95.8622 26.5931C92.4415 26.5931 89.9312 24.0827 89.9312 20.5379C89.9312 16.9931 92.4415 14.4827 95.8622 14.4827C99.2967 14.4827 101.807 16.9931 101.807 20.5379ZM96.8967 9.80688H99.8622L97.1174 13.1172H94.7174L96.8967 9.80688Z" fill="#004DF7"/>
</g>
<defs>
<clipPath id="clip0_5358_2421">
<rect width="143.683" height="34.4828" fill="white"/>
</clipPath>
</defs>
</svg>
