<svg width="79" height="35" viewBox="0 0 79 35" fill="none" xmlns="http://www.w3.org/2000/svg">
<g clip-path="url(#clip0_5358_2138)">
<path d="M8.90173 21.1642C8.7394 21.7323 8.57707 22.3005 8.49591 22.7875C8.33358 23.4368 8.17125 24.0861 8.00892 24.5732C7.84659 25.1413 7.76542 25.5472 7.76542 25.8718C7.68426 26.4399 7.27843 26.7646 6.71028 26.9269C6.22329 27.0081 5.65513 27.0081 5.08697 26.7646C4.51882 26.6022 4.03183 26.2776 3.626 25.8718C3.13901 25.3848 2.97668 24.8166 2.97668 24.1673C2.97668 23.5992 3.13901 22.7875 3.38251 21.57C3.626 20.3526 4.03183 18.8916 4.51882 17.3495C5.00581 15.7262 5.65513 14.0217 6.30445 12.1549C6.87261 10.5316 7.60309 8.90826 8.33358 7.36612C8.57707 6.87913 9.06406 6.47331 9.63222 6.39214C10.9308 6.22981 12.0672 6.31098 12.96 6.47331C13.5281 6.63564 13.8528 7.20379 13.6093 7.77195C12.96 9.15175 12.3918 10.5316 11.9048 11.8302C11.4991 12.8854 11.0932 13.9405 10.7685 14.9956C10.7685 15.0768 10.8497 15.158 10.9308 15.158C11.4179 14.9144 11.9048 14.671 12.3918 14.3463C13.2034 13.8594 13.8528 13.2101 14.5021 12.5607C15.1514 11.9114 15.6385 11.0997 16.0443 10.2881C16.4501 9.47641 16.6124 8.5836 16.6124 7.60962C16.6124 6.39214 16.2878 5.49933 15.6385 4.93117C14.9891 4.36302 14.0151 4.11952 12.8788 4.11952C11.5801 4.11952 10.4439 4.44418 9.46989 5.01234C8.41474 5.58049 7.52193 6.39214 6.79144 7.20379C6.06096 8.09661 5.4928 8.98942 5.08697 9.96341C4.68115 10.9374 4.43765 11.749 4.43765 12.4795C4.43765 12.9665 4.19416 13.3723 3.70717 13.5347C3.30134 13.697 2.81435 13.6158 2.32736 13.4535C1.84037 13.2911 1.43454 12.9665 1.02872 12.4795C0.541725 11.9925 0.379395 11.3432 0.379395 10.4504C0.379395 9.71991 0.62289 8.90826 1.19104 7.85311C1.75921 6.87913 2.57086 5.90515 3.626 4.93117C4.68115 4.03836 5.97979 3.2267 7.52193 2.57737C9.06406 1.92805 10.9308 1.60339 12.96 1.60339C14.0963 1.60339 15.2326 1.76572 16.369 2.00922C17.5052 2.25271 18.5604 2.65854 19.372 3.2267C20.2649 3.79486 20.9953 4.44418 21.5635 5.25583C22.1317 6.06748 22.4563 7.04146 22.4563 8.09661C22.4563 9.23292 22.2128 10.2881 21.7258 11.2621C21.2389 12.2361 20.5895 13.1289 19.6967 13.8594C18.8851 14.5898 17.8299 15.3203 16.7747 15.8884C15.8819 16.3755 14.9079 16.7813 13.8528 17.106C13.7717 17.106 13.7717 17.1871 13.7717 17.1871C13.7717 17.6741 13.8528 18.1611 13.8528 18.6481C13.934 19.2162 14.0152 19.7844 14.0963 20.2714C14.1774 20.7583 14.2586 21.2454 14.421 21.7323C14.5021 22.057 14.6645 22.4628 14.7457 22.7875C14.8267 23.031 14.9079 23.1933 14.9891 23.4368C15.1514 23.8427 15.3138 24.1673 15.4761 24.5732C15.6385 24.8978 15.8819 25.2225 16.0443 25.5472C16.2878 25.8718 16.4501 26.1153 16.6936 26.3588C16.9371 26.6022 17.1806 26.8458 17.424 27.0081C17.6676 27.1705 17.9111 27.4139 18.1545 27.4951C18.398 27.6574 18.6416 27.7386 18.8851 27.9009C19.1285 27.9821 19.4532 28.0632 19.6967 28.1444C19.9402 28.2255 20.2649 28.2255 20.5084 28.2255C20.7518 28.2255 21.0765 28.2255 21.4011 28.2255C21.7258 28.2255 21.9693 28.1444 22.2939 28.0632C22.6186 27.9821 22.9433 27.9009 23.2679 27.7386C23.5926 27.6574 23.9172 27.4951 24.2419 27.3327C24.4043 27.2515 24.4855 27.1705 24.6478 27.0893C25.0536 26.8458 25.5405 27.0081 25.8652 27.3327C26.1088 27.7386 26.1088 28.2255 25.7029 28.5502C25.5405 28.7126 25.3783 28.8748 25.2159 28.956C24.8101 29.2807 24.4043 29.6054 23.9984 29.8488C23.5926 30.0924 23.1868 30.3359 22.8622 30.5793C22.6998 30.6605 22.4563 30.8228 22.2939 30.904C21.8882 31.0664 21.4823 31.3098 21.0765 31.391C20.6706 31.5533 20.2649 31.6345 19.9402 31.7157C19.5344 31.7968 19.1285 31.878 18.8039 31.878C18.5604 31.878 18.2357 31.9592 17.9923 31.9592C17.9111 31.9592 17.7487 31.9592 17.6676 31.9592C17.2618 31.9592 16.9371 31.878 16.6124 31.7968C16.4501 31.7968 16.2878 31.7157 16.1254 31.6345C15.9631 31.5533 15.8007 31.5533 15.6385 31.4721C15.3138 31.391 14.9891 31.2287 14.6645 31.0664C14.3398 30.904 14.0963 30.7417 13.7717 30.4981C13.5281 30.3359 13.2846 30.1735 13.1224 29.93C12.8788 29.6865 12.6353 29.4431 12.3918 29.1184C12.1484 28.8748 11.9048 28.5502 11.7425 28.2255C11.4991 27.9009 11.3367 27.5762 11.1744 27.1705C11.012 26.8458 10.8497 26.4399 10.6874 26.0341C10.5251 25.6282 10.3627 25.2225 10.2815 24.8166C10.1192 24.4108 10.038 24.0049 9.95688 23.518C9.87571 23.031 9.79455 22.6252 9.71338 22.1382C9.63222 21.7323 9.55105 21.3266 9.55105 20.8395C9.14523 21.0019 8.90173 21.0019 8.90173 21.1642Z" fill="white" fill-opacity="0.6"/>
<path d="M77.5669 4.36293C77.5669 6.22972 76.0248 7.77186 74.158 7.77186C72.2912 7.77186 70.749 6.22972 70.749 4.36293C70.749 2.49613 72.2912 0.953991 74.158 0.953991C76.0248 0.872826 77.5669 2.41497 77.5669 4.36293Z" fill="white" fill-opacity="0.6"/>
<path d="M76.8366 18.161C76.6744 17.9175 76.3497 17.7551 76.0251 17.7551C75.7004 17.7551 75.4569 17.9175 75.2133 18.161C75.0511 18.4856 74.7264 18.8103 74.4829 19.2161C74.1583 19.6219 73.8336 20.0277 73.4278 20.4336C73.1031 20.8395 72.6973 21.1641 72.3726 21.4076C72.0479 21.651 71.8045 21.7322 71.7233 21.7322C71.6421 21.7322 71.4798 21.7322 71.3986 21.3264C71.3986 20.8395 71.3986 20.2712 71.561 19.6219C71.7233 18.8915 71.9667 18.0798 72.2914 17.2682C72.6161 16.3753 72.9407 15.5637 73.2654 14.752C73.59 13.9404 73.9147 13.2911 74.1583 12.7229C74.4017 12.1547 74.564 11.749 74.6452 11.5866C74.8887 11.0996 74.8076 10.6938 74.4017 10.2879C74.0771 9.88211 73.6712 9.63862 73.1031 9.47629C72.6161 9.31396 72.0479 9.31396 71.4798 9.47629C70.8305 9.63862 70.3434 9.96328 70.0188 10.5314C69.6941 11.0184 69.2884 11.83 68.8013 12.8852C68.3144 13.9404 67.8273 15.0766 67.4215 16.3753C67.178 17.1058 66.9346 17.9175 66.6911 18.7291C66.2852 20.0277 65.5547 21.1641 64.4996 22.0569C64.0938 22.3816 63.7691 22.625 63.2821 22.9497C63.1198 23.0309 62.9574 23.1932 62.714 23.2744C62.6328 23.2744 62.6328 23.2744 62.6328 23.1932C62.9574 22.7874 63.2821 22.3004 63.5256 21.8134C64.1749 20.8394 64.7431 19.6219 65.2301 18.3233C65.7171 16.8623 66.1229 15.5637 66.204 14.4273C66.3664 13.2911 66.2852 12.2359 66.0418 11.4243C65.7982 10.5314 65.4735 9.88211 64.9054 9.39512C64.3373 8.90813 63.688 8.66464 62.8763 8.66464C61.9023 8.66464 61.0907 8.90813 60.279 9.39512C59.792 9.71978 59.305 10.1256 58.818 10.5314H58.7369C58.6557 10.3691 58.4934 10.2068 58.331 10.1256C57.9253 9.80095 57.5194 9.63862 57.0324 9.47629C56.5454 9.39512 55.9773 9.39512 55.4903 9.55745C54.9221 9.71978 54.5163 10.1256 54.2728 10.6938C53.7858 11.749 53.2988 12.9664 52.7306 14.3462C52.1625 15.726 51.6755 17.187 51.1885 18.6479C51.1073 18.8103 51.1073 18.9726 51.0262 19.135C50.8638 20.2712 50.1333 21.3264 49.0782 22.1381C48.8347 22.3816 48.51 22.5438 48.1853 22.7062C48.0231 22.7874 47.8607 22.9497 47.6172 23.0309C47.536 23.0309 47.536 23.0309 47.536 22.9497C47.8607 22.5438 48.1853 22.0569 48.4289 21.5699C49.0782 20.5959 49.6464 19.3784 50.1333 18.0798C50.6203 16.6189 51.0262 15.3202 51.1073 14.1839C51.2697 13.0476 51.1885 11.9924 50.945 11.1807C50.7015 10.2879 50.3769 9.63862 49.8086 9.15163C49.2405 8.66464 48.5912 8.42114 47.7796 8.42114C46.8056 8.42114 45.9939 8.66464 45.1823 9.15163C44.6953 9.47629 44.2083 9.88211 43.7213 10.2879H43.6401C43.559 10.1256 43.3966 9.96328 43.2343 9.88211C42.8285 9.55745 42.4226 9.39512 41.9357 9.23279C41.4487 9.15163 40.8805 9.15163 40.3935 9.31396C39.8254 9.47629 39.4195 9.88211 39.176 10.4503C38.6891 11.5054 38.2021 12.7229 37.6339 14.1027C37.1469 15.4013 36.6599 16.7811 36.1729 18.0798C35.8482 19.135 35.2801 19.9466 34.5496 20.6771C34.3873 20.8395 34.1439 21.0829 33.9815 21.2452C33.6568 21.4888 33.4133 21.5699 33.3322 21.5699C33.251 21.5699 33.0887 21.5699 33.0075 21.1641C33.0075 20.6771 33.0075 20.1089 33.1699 19.4596C33.3322 18.7291 33.5756 17.9175 33.9003 17.1058C34.2249 16.213 34.5496 15.4013 34.8743 14.5897C35.1989 13.778 35.5236 13.1287 35.7672 12.5606C36.0106 11.9924 36.1729 11.5866 36.2541 11.4243C36.4976 10.9373 36.4165 10.5314 36.0106 10.1256C35.686 9.71978 35.2801 9.47629 34.712 9.31396C34.2249 9.15163 33.6568 9.15163 33.0887 9.31396C32.5206 9.47629 32.0335 9.80095 31.6277 10.3691C31.5466 10.4503 31.4654 10.6126 31.3842 10.775C31.3842 10.8561 31.303 10.775 31.303 10.775C31.2219 10.4503 31.1407 10.2068 30.9783 9.88211C30.7349 9.47629 30.4102 9.15163 30.0044 8.90813C29.5986 8.66464 29.0304 8.50231 28.3811 8.50231C26.8389 8.50231 25.2968 9.23279 23.8358 10.6126C22.3749 11.9924 21.1573 14.1027 20.1834 17.0246C19.7776 18.4044 19.4529 19.7031 19.3718 20.8394C19.2906 21.9757 19.3718 23.0309 19.6152 23.8425C19.8587 24.6542 20.2645 25.3847 20.8327 25.7904C21.4009 26.2775 22.1313 26.521 22.943 26.521C23.5112 26.521 24.0793 26.4398 24.6475 26.1963C25.1345 26.034 25.6215 25.7904 26.0272 25.4658C26.3519 25.2223 26.6767 24.9788 26.9201 24.6542C27.0824 24.4107 27.4883 24.573 27.5695 24.8165C27.6506 25.1411 27.8129 25.3847 27.9753 25.6282C28.3811 26.1963 29.0304 26.521 29.8421 26.521C30.7349 26.521 31.7089 26.1963 32.6016 25.4658C33.0075 25.1411 33.4133 24.8165 33.8192 24.4107C33.9003 24.3295 34.0627 24.4107 33.9815 24.573C33.738 25.3847 33.4945 26.1151 33.3322 26.7644C33.0075 27.9008 32.764 28.8748 32.5206 29.6864C32.277 30.7415 32.1959 31.0662 32.1959 31.2286C32.1959 31.8779 32.4394 32.446 32.8452 32.933C33.251 33.3388 33.6568 33.6635 34.2249 33.8259C34.5496 33.9071 34.8743 33.9881 35.1989 33.9881C35.3613 33.9881 35.5236 33.9881 35.686 33.907C36.0106 33.8259 36.4976 33.5823 36.6599 32.933C36.7411 32.6083 36.8222 32.1214 36.9846 31.4721C37.1469 30.8227 37.3093 30.0922 37.5527 29.3617C37.7962 28.5501 38.0398 27.7384 38.2833 26.6833C38.4455 26.1963 38.5267 25.7094 38.6891 25.2223C38.6891 25.1411 38.8514 25.1411 38.9326 25.2223C39.0138 25.3035 39.0948 25.4658 39.176 25.547C39.6631 26.1963 40.3935 26.521 41.3675 26.521C41.5299 26.521 41.7733 26.521 41.9357 26.521C43.3966 26.521 44.7765 26.2775 45.9939 25.7904C47.2114 25.3035 48.2665 24.7354 49.2405 24.0861C49.3217 24.0049 49.484 24.0861 49.4029 24.2483C49.1593 25.1411 48.8347 26.034 48.6724 26.8456C48.3477 27.982 48.1043 29.037 47.8607 29.7676C47.6172 30.8227 47.536 31.1474 47.536 31.3097C47.536 31.959 47.7796 32.5272 48.1853 33.0142C48.5912 33.42 48.997 33.7447 49.5652 33.907C49.8898 33.9881 50.2145 34.0693 50.5392 34.0693C50.7015 34.0693 50.8638 34.0693 51.0262 33.9881C51.3509 33.907 51.8378 33.6635 52.0002 33.0142C52.0813 32.6895 52.1625 32.2026 52.3248 31.5532C52.4871 30.9039 52.6495 30.1734 52.893 29.4429C53.1364 28.6313 53.3799 27.8196 53.6235 26.7644C53.7858 26.2775 53.867 25.7904 54.0292 25.3035C54.0292 25.2223 54.1916 25.2223 54.2728 25.3035C54.3539 25.3847 54.4351 25.547 54.5163 25.6282C55.0032 26.2775 55.7337 26.6021 56.7077 26.6021C56.8701 26.6021 57.1136 26.6021 57.2758 26.6021C58.7369 26.6021 60.1167 26.3587 61.3341 25.8716C62.714 25.3035 64.0126 24.6542 65.0678 23.8425C65.2301 23.6802 65.4735 23.599 65.6359 23.4367C65.7171 23.3555 65.7982 23.4367 65.7982 23.5178C65.7982 23.599 65.7982 23.599 65.7982 23.6802C65.7982 24.573 65.9606 25.2223 66.3664 25.7904C66.7722 26.3587 67.4215 26.6833 68.2332 26.6833C69.126 26.6833 70.1 26.3587 71.074 25.6282C71.9667 24.9788 72.7784 24.1671 73.59 23.3555C74.3206 22.4628 75.0511 21.651 75.538 20.8394C76.1062 20.0277 76.512 19.4596 76.6744 19.0538C76.999 18.6479 76.999 18.4044 76.8366 18.161ZM29.5174 13.6969C29.4362 14.3462 29.355 14.9956 29.1116 15.8072C28.9493 16.5377 28.6246 17.3493 28.3811 18.161C28.0564 18.9726 27.7317 19.7843 27.4071 20.4336C27.0824 21.0829 26.6766 21.7322 26.3519 22.1381C26.0272 22.625 25.7026 22.9497 25.3779 23.1121C25.1345 23.2744 25.0533 23.2744 24.9722 23.2744C24.9722 23.2744 24.9722 23.2744 24.891 23.2744C24.891 23.2744 24.7286 23.1932 24.6475 22.7874C24.5663 22.3816 24.5663 21.8945 24.6475 21.3264C24.7286 20.7583 24.8098 20.0277 24.9722 19.2972C25.1345 18.5668 25.3779 17.7551 25.7026 16.9435C26.0273 16.1318 26.3519 15.3202 26.7578 14.6709C27.0824 14.0216 27.4883 13.3723 27.8129 12.8852C28.1376 12.3983 28.4622 12.0736 28.7869 11.83C29.0304 11.6678 29.1116 11.6678 29.1928 11.6678C29.1928 11.6678 29.1928 11.6678 29.274 11.6678C29.274 11.6678 29.4362 11.749 29.5174 12.2359C29.5986 12.5606 29.5986 13.0476 29.5174 13.6969ZM46.0751 13.6969C45.9939 14.2651 45.8316 14.9956 45.5881 15.726C45.3446 16.4565 45.1011 17.2682 44.6953 18.0798C44.2894 18.8915 43.9648 19.7031 43.559 20.3524C43.1532 21.0017 42.7473 21.651 42.4226 22.1381C42.098 22.625 41.6921 22.9497 41.4487 23.1932C41.2052 23.3555 41.124 23.3555 41.0428 23.3555C41.0428 23.3555 41.0428 23.3555 40.9617 23.3555C40.9617 23.3555 40.7993 23.2744 40.7182 22.8685C40.6371 22.4628 40.7182 21.9757 40.7993 21.4076C40.8805 20.7583 41.0428 20.1089 41.2864 19.2972C41.5299 18.5668 41.7733 17.7551 42.1792 16.8623C42.5038 16.0506 42.9097 15.239 43.3154 14.5897C43.7213 13.8592 44.1271 13.2911 44.4518 12.8852C44.7765 12.3983 45.1823 12.0736 45.4258 11.9112C45.6692 11.749 45.7504 11.749 45.8316 11.749C45.8316 11.749 45.8316 11.749 45.9127 11.749C45.9127 11.749 46.0751 11.83 46.1563 12.2359C46.2374 12.6417 46.1563 13.1287 46.0751 13.6969ZM61.4153 13.6969C61.3341 14.2651 61.1719 14.9956 60.9283 15.726C60.6848 16.4565 60.4414 17.2682 60.0355 18.0798C59.6296 18.8915 59.305 19.7031 58.8991 20.3524C58.4934 21.0017 58.0875 21.651 57.7629 22.1381C57.4382 22.625 57.0324 22.9497 56.7889 23.1932C56.5454 23.3555 56.4642 23.3555 56.383 23.3555C56.383 23.3555 56.383 23.3555 56.302 23.3555C56.302 23.3555 56.1396 23.2744 56.0584 22.8685C55.9773 22.4628 56.0584 21.9757 56.1396 21.4076C56.2208 20.7583 56.383 20.1089 56.6266 19.2972C56.8701 18.5668 57.1136 17.7551 57.5194 16.8623C57.8441 16.0506 58.2499 15.239 58.6557 14.5897C59.0615 13.8592 59.4674 13.2911 59.792 12.8852C60.1167 12.3983 60.5225 12.0736 60.766 11.9112C61.0095 11.749 61.0907 11.749 61.1719 11.749C61.1719 11.749 61.1719 11.749 61.253 11.749C61.253 11.749 61.4153 11.83 61.4965 12.2359C61.4965 12.6417 61.4965 13.1287 61.4153 13.6969Z" fill="white" fill-opacity="0.6"/>
</g>
<defs>
<clipPath id="clip0_5358_2138">
<rect width="78.3699" height="34.4828" fill="white"/>
</clipPath>
</defs>
</svg>
