<svg width="148" height="30" viewBox="0 0 148 30" fill="none" xmlns="http://www.w3.org/2000/svg">
<g clip-path="url(#clip0_5358_2009)">
<path fill-rule="evenodd" clip-rule="evenodd" d="M115.236 12.1444C115.811 11.4191 116.746 11.0565 118.039 11.0565C118.62 11.0565 119.157 11.1312 119.65 11.2811C120.142 11.4312 120.578 11.6077 120.958 11.8114L121.758 9.56372C121.663 9.50387 121.507 9.41962 121.287 9.31174C121.067 9.2036 120.788 9.09874 120.45 8.99714C120.112 8.89504 119.709 8.80526 119.24 8.72705C118.771 8.64935 118.246 8.60986 117.665 8.60986C116.811 8.60986 116.007 8.75421 115.254 9.04215C114.5 9.32984 113.845 9.75233 113.287 10.3099C112.729 10.8671 112.291 11.5481 111.971 12.3511C111.65 13.1546 111.49 14.0777 111.49 15.1211C111.49 16.1522 111.635 17.0696 111.926 17.8723C112.217 18.6755 112.629 19.3532 113.162 19.9045C113.696 20.4562 114.34 20.8754 115.094 21.1636C115.847 21.4511 116.686 21.5952 117.612 21.5952C118.691 21.5952 119.599 21.5197 120.335 21.3701C121.07 21.2205 121.604 21.0799 121.936 20.9479V14.7794H119.16V19.1133C118.994 19.1495 118.801 19.1734 118.582 19.1852C118.362 19.1971 118.098 19.2031 117.79 19.2031C117.22 19.2031 116.722 19.1043 116.295 18.9066C115.868 18.7087 115.512 18.4298 115.227 18.0699C114.942 17.7101 114.729 17.2816 114.586 16.7844C114.444 16.287 114.373 15.732 114.373 15.1211C114.373 13.8617 114.661 12.8699 115.236 12.1444ZM71.134 19.1222C70.8789 19.1886 70.5557 19.2213 70.1642 19.2213C69.3814 19.2213 68.7197 19.1403 68.1802 18.9781C67.6399 18.8166 67.186 18.6341 66.8187 18.4299L66.0354 20.6597C66.2016 20.756 66.4061 20.8576 66.6493 20.9658C66.8926 21.0737 67.1835 21.1755 67.5215 21.2713C67.8597 21.3671 68.2481 21.4479 68.6871 21.5142C69.1261 21.5801 69.6185 21.6133 70.1642 21.6133C71.7895 21.6133 73.0056 21.2924 73.8124 20.6507C74.6191 20.0094 75.0228 19.1071 75.0228 17.944C75.0228 17.345 74.9454 16.8358 74.7916 16.4158C74.6371 15.9961 74.4026 15.6302 74.0886 15.3186C73.774 15.007 73.3794 14.7342 72.9051 14.5003C72.4303 14.2664 71.8726 14.0298 71.2323 13.7896C70.9235 13.6817 70.6415 13.5771 70.387 13.475C70.1316 13.3734 69.9062 13.2592 69.7104 13.1335C69.5148 13.0075 69.3632 12.8667 69.2567 12.7108C69.1499 12.5554 69.0962 12.3632 69.0962 12.1351C69.0962 11.7519 69.2418 11.467 69.5324 11.2811C69.8231 11.0955 70.3006 11.002 70.9653 11.002C71.5583 11.002 72.0655 11.0714 72.4868 11.2089C72.9076 11.347 73.2903 11.5059 73.6347 11.6857L74.4352 9.47375C74.0438 9.25798 73.5454 9.05982 72.9407 8.88001C72.3355 8.70046 71.6175 8.60992 70.7871 8.60992C70.0869 8.60992 69.4583 8.69744 68.9006 8.87096C68.3429 9.04523 67.8686 9.29344 67.4772 9.61734C67.0855 9.9415 66.7831 10.3338 66.5694 10.7955C66.3559 11.257 66.2491 11.7755 66.2491 12.3512C66.2491 12.9268 66.3499 13.4152 66.5517 13.8165C66.7533 14.2186 67.0146 14.5604 67.3346 14.842C67.6549 15.1239 68.0167 15.3578 68.4201 15.5434C68.8235 15.729 69.2268 15.8942 69.6305 16.0376C70.5557 16.3499 71.2082 16.6404 71.5879 16.9104C71.9674 17.1798 72.1575 17.519 72.1575 17.9264C72.1575 18.1183 72.1279 18.2923 72.0684 18.448C72.009 18.6039 71.902 18.7387 71.7479 18.8521C71.5939 18.9668 71.3891 19.0566 71.134 19.1222ZM53.7682 15.121C53.7682 15.7321 53.8421 16.2836 53.9905 16.7752C54.1388 17.2671 54.3525 17.6896 54.6315 18.0432C54.9097 18.3972 55.2511 18.6696 55.6548 18.8612C56.0579 19.0536 56.5205 19.1497 57.0428 19.1497C57.5527 19.1497 58.0126 19.0536 58.4222 18.8612C58.8311 18.6696 59.1755 18.3972 59.4539 18.0432C59.7326 17.6896 59.9467 17.2671 60.095 16.7752C60.2433 16.2836 60.3174 15.7321 60.3174 15.121C60.3174 14.5092 60.2433 13.9546 60.095 13.457C59.9467 12.9595 59.7326 12.5343 59.4539 12.1802C59.1755 11.8266 58.8311 11.5535 58.4222 11.3622C58.0126 11.1703 57.5527 11.0745 57.0428 11.0745C56.5205 11.0745 56.0579 11.1733 55.6548 11.371C55.2511 11.5689 54.9097 11.8447 54.6315 12.1986C54.3525 12.5522 54.1388 12.9777 53.9905 13.4751C53.8421 13.973 53.7682 14.5215 53.7682 15.121ZM63.1831 15.121C63.1831 16.1878 63.0256 17.1263 62.7118 17.935C62.397 18.7445 61.9667 19.422 61.4213 19.9672C60.8755 20.5132 60.2258 20.9236 59.4725 21.1992C58.7192 21.4753 57.9092 21.6131 57.0435 21.6131C56.2009 21.6131 55.4063 21.4753 54.6588 21.1992C53.9112 20.9236 53.2585 20.5132 52.7011 19.9672C52.1432 19.422 51.7047 18.7445 51.3842 17.935C51.0639 17.1263 50.9034 16.1878 50.9034 15.121C50.9034 14.0537 51.0696 13.1155 51.4018 12.3065C51.7338 11.4969 52.182 10.8164 52.7456 10.265C53.3088 9.71347 53.9615 9.30004 54.7033 9.02417C55.4444 8.74805 56.2248 8.60999 57.0435 8.60999C57.8856 8.60999 58.6804 8.74805 59.4282 9.02417C60.1755 9.30004 60.828 9.71347 61.3857 10.265C61.9431 10.8164 62.3823 11.4969 62.7026 12.3065C63.0231 13.1155 63.1831 14.0537 63.1831 15.121ZM44.5099 8.89826H47.2863V21.3612H44.5099V16.0739H39.8472V21.3612H37.0708V8.89826H39.8472V13.6638H44.5099V8.89826ZM87.2535 8.89838V11.2904H83.534V21.3614H80.7578V11.2904H77.038V8.89838H87.2535ZM93.1132 21.3616H90.3368V8.89838H93.1132V21.3616ZM105.541 21.3614C104.746 19.9347 103.886 18.5262 102.961 17.135C102.035 15.7441 101.05 14.4314 100.006 13.1964V21.3614H97.2657V8.89838H99.5257C99.9169 9.2937 100.35 9.7793 100.825 10.3549C101.299 10.9306 101.783 11.5452 102.275 12.1985C102.767 12.8519 103.257 13.5293 103.743 14.2305C104.23 14.9318 104.687 15.606 105.114 16.2536V8.89838H107.872V21.3614H105.541ZM125.821 21.3614V8.89838H134.15V11.2542H128.597V13.6998H133.527V16.0021H128.597V19.0055H134.56V21.3614H125.821ZM141.139 11.1641C141.299 11.1523 141.48 11.1463 141.681 11.1463C142.571 11.1463 143.244 11.2753 143.701 11.5325C144.158 11.7911 144.386 12.2251 144.386 12.8367C144.386 13.4724 144.161 13.9223 143.71 14.1856C143.259 14.4497 142.512 14.5809 141.468 14.5809H140.685V11.2001C140.828 11.1885 140.979 11.1764 141.139 11.1641ZM145.775 9.75233C144.791 9.08666 143.373 8.75421 141.522 8.75421C141.012 8.75421 140.434 8.7781 139.787 8.82639C139.141 8.87391 138.515 8.95841 137.91 9.07761V21.3613H140.686V16.8108H142.056C142.294 17.099 142.532 17.4196 142.771 17.7737C143.009 18.1273 143.251 18.5015 143.494 18.8973C143.739 19.2931 143.976 19.701 144.209 20.1205C144.441 20.5402 144.67 20.9536 144.896 21.3613H148C147.787 20.9059 147.555 20.4414 147.306 19.9673C147.057 19.4941 146.799 19.0386 146.532 18.6011C146.265 18.1635 145.995 17.7438 145.722 17.3419C145.449 16.9403 145.189 16.5837 144.939 16.2716C145.687 15.9603 146.259 15.5313 146.657 14.9861C147.054 14.4406 147.253 13.7297 147.253 12.8548C147.253 11.4518 146.76 10.4177 145.775 9.75233Z" fill="white" fill-opacity="0.6"/>
<path fill-rule="evenodd" clip-rule="evenodd" d="M0.000249566 14.046V0.000497794L6.99464 3.78046V10.1086L16.2538 10.1132L23.3617 14.046H0.000249566ZM18.1472 8.95059V0L25.3302 3.68591V13.1797L18.1472 8.95059ZM18.1472 26.1177V19.8441L8.81663 19.8376C8.82534 19.8793 1.59081 15.8418 1.59081 15.8418L25.3302 15.9547V30L18.1472 26.1177ZM0 26.1177L0.000248849 16.9393L6.99464 21.0683V29.8033L0 26.1177Z" fill="white" fill-opacity="0.6"/>
</g>
<defs>
<clipPath id="clip0_5358_2009">
<rect width="148" height="30" fill="white"/>
</clipPath>
</defs>
</svg>
