<svg width="129" height="40" viewBox="0 0 129 40" fill="none" xmlns="http://www.w3.org/2000/svg">
<path d="M0 36.8039C0 19.4543 0 10.7796 5.38982 5.38982C10.7796 0 19.4543 0 36.8039 0H107.494C118.525 0 127.467 8.94217 127.467 19.9729C127.467 31.0036 118.525 39.9458 107.494 39.9458H0V36.8039Z" fill="#3F09E8"/>
<path d="M11.0713 12.2631H17.1678C20.7884 12.2631 22.9637 13.9641 22.9637 17.3902C22.9637 20.532 21.1968 22.3887 17.491 22.3887H14.6051V26.4386H11.0713V12.2631ZM17.3414 20.0189C18.827 20.0189 19.6454 19.2214 19.6454 17.5622C19.6454 15.9465 18.7478 15.0414 17.0601 15.0414H14.6051V20.0189H17.3414Z" fill="white"/>
<path d="M23.3513 21.1391C23.3513 17.6697 25.6359 15.623 29.1473 15.623C32.6586 15.623 34.9416 17.6697 34.9416 21.1391C34.9416 24.5801 32.6586 26.6104 29.1473 26.6104C25.6359 26.6104 23.3513 24.5847 23.3513 21.1391ZM31.6681 21.1391C31.6681 19.2421 30.7405 18.123 29.1473 18.123C27.5539 18.123 26.6263 19.2421 26.6263 21.1391C26.6263 23.0123 27.5524 24.1119 29.1473 24.1119C30.742 24.1119 31.6681 23.0123 31.6681 21.1391Z" fill="white"/>
<path d="M35.7388 22.8635H38.6696C38.6696 23.8539 39.1648 24.5002 41.038 24.5002C42.7405 24.5002 43.3434 24.0049 43.3434 23.2285C43.3434 22.841 43.1504 22.5403 42.5954 22.4101C41.7767 22.2583 40.9491 22.1584 40.1178 22.1109C38.5888 21.9807 37.4039 21.7444 36.7576 21.291C36.4355 21.0466 36.1759 20.7294 35.9998 20.3654C35.8238 20.0013 35.7363 19.6008 35.7447 19.1965C35.7447 16.891 38.1146 15.6194 41.0664 15.6194C44.5567 15.6194 46.1531 16.9554 46.1531 19.4329H43.2582C43.2357 18.3123 42.7195 17.7304 41.1037 17.7304C39.6375 17.7304 38.9912 18.227 38.9912 18.9586C38.9912 19.4075 39.1648 19.7561 39.7677 19.9072C40.3064 20.0359 41.2533 20.1226 42.3964 20.2303C43.71 20.359 44.6405 20.4891 45.4335 20.9409C45.799 21.1576 46.1011 21.4668 46.3091 21.8375C46.5171 22.2081 46.6239 22.627 46.6184 23.052C46.6184 25.2961 44.7004 26.6067 41.0604 26.6067C37.3112 26.6112 35.7388 25.0223 35.7388 22.8635Z" fill="white"/>
<path d="M48.532 22.7779V18.339H46.9551V15.7956H48.2328C48.728 15.7956 48.9015 15.5158 48.9659 14.8695L49.1155 13.3839H51.8084V15.7956H55.2121V18.339H51.8025V22.6043C51.8025 23.7025 52.3186 24.048 53.6112 24.048C54.1105 24.0449 54.6084 23.9948 55.0983 23.8985V26.3685C54.4183 26.516 53.7251 26.5953 53.0293 26.6049C49.7124 26.6109 48.532 25.1462 48.532 22.7779Z" fill="white"/>
<path d="M56.053 22.8635H58.9823C58.9823 23.8539 59.4775 24.5002 61.3522 24.5002C63.0532 24.5002 63.6577 24.0049 63.6577 23.2285C63.6577 22.841 63.4631 22.5403 62.9096 22.4101C62.0908 22.2585 61.2634 22.1586 60.432 22.1109C58.9015 21.9807 57.7166 21.7444 57.0703 21.291C56.7484 21.0465 56.489 20.7292 56.3132 20.3652C56.1374 20.0011 56.0503 19.6007 56.0589 19.1965C56.0589 16.891 58.4273 15.6194 61.3791 15.6194C64.8695 15.6194 66.4658 16.9554 66.4658 19.4329H63.5783C63.5574 18.3123 63.0398 17.7304 61.424 17.7304C59.9593 17.7304 59.313 18.227 59.313 18.9586C59.313 19.4075 59.485 19.7561 60.088 19.9072C60.6265 20.0359 61.5751 20.1226 62.7166 20.2303C64.0301 20.359 64.9607 20.4891 65.7537 20.9409C66.1191 21.1586 66.4207 21.4687 66.628 21.8402C66.8352 22.2116 66.9408 22.6312 66.9341 23.0565C66.9341 25.3006 65.0176 26.6112 61.3761 26.6112C57.6254 26.6112 56.053 25.0223 56.053 22.8635Z" fill="white"/>
<path d="M67.4697 21.1391C67.4697 17.6697 69.7316 15.623 73.0055 15.623C76.1288 15.623 78.1756 17.3689 78.1756 20.3192H75.2882C75.2672 18.9414 74.4488 18.123 73.1133 18.123C71.5838 18.123 70.7431 19.1778 70.7431 21.1152C70.7431 22.9898 71.6048 24.1074 73.0488 24.1074C74.4488 24.1074 75.2929 23.31 75.3105 21.953H78.1966C78.1966 25.011 76.0217 26.6059 72.8766 26.6059C69.6902 26.6104 67.4697 24.5847 67.4697 21.1391Z" fill="white"/>
<path d="M79.4802 15.795H82.7548L82.6267 18.8336H82.6701C83.1189 16.8079 84.2633 15.623 86.3534 15.623C88.5284 15.623 89.7941 17.0234 89.7941 19.7807C89.7941 20.3791 89.7297 21.3321 89.6863 21.8917H86.7195C86.7616 21.3755 86.784 20.8369 86.784 20.5138C86.784 18.9623 86.1589 18.3384 85.125 18.3384C83.7243 18.3384 82.7548 19.48 82.7548 21.8498V26.4383H79.4802V15.795Z" fill="white"/>
<path d="M94.2868 15.7971H91.0122V26.4388H94.2868V15.7971Z" fill="white"/>
<path d="M95.9583 15.795H99.2335L99.1691 17.9719H99.1901C99.5996 16.5073 100.957 15.623 102.788 15.623C105.761 15.623 107.699 17.734 107.699 20.8803C107.699 24.3214 105.755 26.6104 102.762 26.6104C100.817 26.6104 99.6206 25.8129 99.142 24.5158H99.121C99.1644 25.228 99.2288 26.2827 99.2288 26.6702V30.7066H95.9583V15.795ZM104.447 21.0089C104.447 19.2855 103.455 18.123 101.97 18.123C100.324 18.123 99.2335 19.3079 99.2335 21.0957V21.57C99.2335 23.099 100.331 24.1134 101.991 24.1134C103.454 24.1119 104.446 22.8626 104.446 21.0089H104.447Z" fill="white"/>
<path d="M109.704 22.7779V18.339H108.132V15.7956H109.402C109.897 15.7956 110.071 15.5158 110.135 14.8695L110.285 13.3839H112.978V15.7956H116.381V18.339H112.978V22.6043C112.978 23.7025 113.494 24.048 114.787 24.048C115.285 24.0449 115.784 23.9948 116.273 23.8985V26.3685C115.593 26.516 114.9 26.5953 114.204 26.6049C110.889 26.6109 109.704 25.1462 109.704 22.7779Z" fill="white"/>
<path d="M94.6124 13.3402C94.6124 13.6319 94.5385 14.6986 92.8165 14.6986H91.0212V13.3357C91.0212 12.5188 91.6816 11.9637 92.8165 11.9637C93.809 11.9682 94.6124 12.3736 94.6124 13.3402Z" fill="white"/>
</svg>
