<svg width="132" height="20" viewBox="0 0 132 20" fill="none" xmlns="http://www.w3.org/2000/svg">
<g clip-path="url(#clip0_5358_2469)">
<path d="M10.3746 0.3302H0V15.1619H10.8571V13.0159H2.28571V8.45718H9.85397V6.45083H2.28571V2.38734H10.6159V0.3302" fill="#009CDC"/>
<path d="M14.7174 13.0159V0.3302H12.4316V15.1619H22.2475V13.0159H22.0062" fill="#009CDC"/>
<path d="M37.2825 9.42223H37.0666V9.6254C36.8508 11.9619 35.3778 13.3714 33.1047 13.3714C30.2476 13.3714 28.4063 11.1492 28.4063 7.73334C28.4063 4.31746 30.2476 2.04445 33.092 2.04445C35.1365 2.04445 36.5587 3.09842 36.8889 4.8635L36.927 5.05397H39.1619L39.1238 4.77461C38.7047 1.82857 36.4063 -0.0126953 33.1301 -0.0126953C31.0095 -0.0126953 29.219 0.761908 27.9365 2.23492C26.7428 3.61905 26.0825 5.56191 26.0825 7.72064C26.0825 9.87937 26.7428 11.8476 27.9746 13.2444C29.2444 14.6794 30.9968 15.4286 33.0412 15.4286C34.9079 15.4286 36.4571 14.8825 37.4984 13.854C38.5651 12.8 39.2762 11.1492 39.3016 9.6381V9.40953H39.0603" fill="#009CDC"/>
<path d="M47.5301 0C45.3714 0 43.5301 0.761905 42.2095 2.20952C40.9523 3.60635 40.2539 5.54921 40.2539 7.73333C40.2539 9.91746 40.9523 11.873 42.2095 13.2444C43.5301 14.6921 45.3587 15.454 47.5301 15.454C49.7015 15.454 51.5301 14.6921 52.8507 13.2444C54.1079 11.8603 54.8063 9.90476 54.8063 7.73333C54.8063 5.5619 54.1079 3.59365 52.8507 2.20952C51.5301 0.761905 49.7015 0 47.5301 0ZM47.5301 13.3968C44.4825 13.3968 42.5904 11.2381 42.5904 7.74603C42.5904 4.25397 44.4825 2.05714 47.5301 2.05714C50.5777 2.05714 52.4698 4.24127 52.4698 7.74603C52.4698 11.2508 50.5777 13.3968 47.5301 13.3968Z" fill="#009CDC"/>
<path d="M68.2666 0.3302H68.1015L68.038 0.482581L63.6189 11.8858L59.1745 0.482581L59.111 0.3302H56.4062V15.1619H58.5142V4.40639C58.5904 4.60957 58.6666 4.82544 58.7428 5.00322L62.6793 14.9969L62.7428 15.1492H64.457L64.5205 14.9969L68.457 5.00322C68.5205 4.82544 68.6094 4.60957 68.6856 4.40639V15.1619H70.8951V0.3302H70.6539" fill="#009CDC"/>
<path d="M75.3016 13.0159V8.45718H82.8698V6.45083H75.3016V2.38734H83.6317V0.3302H73.0159V15.1619H83.873V13.0159H83.6317" fill="#009CDC"/>
<path d="M96.4443 11.7588C96.33 9.9683 95.9872 8.77465 94.692 8.10163C96.1269 7.45401 96.8634 6.26036 96.8634 4.49528C96.8634 1.9937 95.0602 0.317505 92.3935 0.317505H85.4475V15.1493H87.7332V9.07941H91.492C93.3332 9.07941 94.0316 9.76512 94.1713 11.7207C94.3364 14.1588 94.3872 14.7683 94.7808 15.0858L94.8443 15.1493H97.1174V14.7048L97.0158 14.6286C96.7618 14.4635 96.5713 13.4858 96.457 11.7461M87.7332 2.36195H91.8475C93.7523 2.36195 94.5269 3.04766 94.5269 4.74925C94.5269 6.32385 93.5618 7.13655 91.7586 7.13655H87.7459V2.36195H87.7332Z" fill="#009CDC"/>
<path d="M109.181 9.42223H108.965L108.939 9.6254C108.736 11.9619 107.263 13.3714 105.003 13.3714C102.146 13.3714 100.305 11.1492 100.305 7.73334C100.305 4.31746 102.146 2.04445 104.99 2.04445C107.035 2.04445 108.457 3.09842 108.787 4.8635L108.825 5.05397H111.06L111.022 4.77461C110.603 1.82857 108.292 -0.0126953 105.028 -0.0126953C102.908 -0.0126953 101.117 0.761908 99.8347 2.23492C98.641 3.61905 97.9807 5.56191 97.9807 7.72064C97.9807 9.87937 98.641 11.8476 99.8728 13.2444C101.143 14.6794 102.895 15.4286 104.939 15.4286C106.806 15.4286 108.355 14.8825 109.397 13.854C110.463 12.8 111.174 11.1492 111.2 9.6381V9.40953H110.958" fill="#009CDC"/>
<path d="M112.978 0.3302H112.737V15.1619H115.022V0.3302H114.781" fill="#009CDC"/>
<path d="M129.257 2.20952C127.936 0.761905 126.108 0 123.936 0C121.765 0 119.936 0.761905 118.616 2.20952C117.359 3.60635 116.673 5.54921 116.673 7.73333C116.673 9.91746 117.359 11.873 118.616 13.2444C119.936 14.6921 121.765 15.454 123.936 15.454C126.108 15.454 127.936 14.6921 129.257 13.2444C130.514 11.8603 131.213 9.90476 131.213 7.73333C131.213 5.5619 130.514 3.59365 129.257 2.20952ZM123.936 13.3968C120.889 13.3968 118.997 11.2381 118.997 7.74603C118.997 4.25397 120.889 2.05714 123.936 2.05714C126.984 2.05714 128.876 4.24127 128.876 7.74603C128.876 11.2508 126.984 13.3968 123.936 13.3968Z" fill="#009CDC"/>
<path d="M131.187 17.7142H0V19.9999H131.187V17.7142Z" fill="#E30613"/>
</g>
<defs>
<clipPath id="clip0_5358_2469">
<rect width="131.2" height="20" fill="white"/>
</clipPath>
</defs>
</svg>
