<svg width="129" height="40" viewBox="0 0 129 40" fill="none" xmlns="http://www.w3.org/2000/svg">
<g clip-path="url(#clip0_5358_2304)">
<path d="M0.406738 36.8039C0.406738 19.4543 0.406738 10.7796 5.79656 5.38982C11.1863 0 19.861 0 37.2107 0H107.901C118.932 0 127.874 8.94217 127.874 19.9729C127.874 31.0036 118.932 39.9458 107.901 39.9458H0.406738V36.8039Z" fill="white" fill-opacity="0.1"/>
<path d="M11.478 12.2631H17.5746C21.1951 12.2631 23.3704 13.9641 23.3704 17.3902C23.3704 20.532 21.6036 22.3887 17.8978 22.3887H15.0118V26.4386H11.478V12.2631ZM17.7481 20.0189C19.2338 20.0189 20.0521 19.2214 20.0521 17.5622C20.0521 15.9465 19.1545 15.0414 17.4668 15.0414H15.0118V20.0189H17.7481Z" fill="white" fill-opacity="0.6"/>
<path d="M23.7581 21.1391C23.7581 17.6697 26.0426 15.623 29.554 15.623C33.0653 15.623 35.3484 17.6697 35.3484 21.1391C35.3484 24.5801 33.0653 26.6104 29.554 26.6104C26.0426 26.6104 23.7581 24.5847 23.7581 21.1391ZM32.0749 21.1391C32.0749 19.2421 31.1473 18.123 29.554 18.123C27.9606 18.123 27.033 19.2421 27.033 21.1391C27.033 23.0123 27.9591 24.1119 29.554 24.1119C31.1488 24.1119 32.0749 23.0123 32.0749 21.1391Z" fill="white" fill-opacity="0.6"/>
<path d="M36.1455 22.8635H39.0764C39.0764 23.8539 39.5715 24.5002 41.4447 24.5002C43.1472 24.5002 43.7501 24.0049 43.7501 23.2285C43.7501 22.841 43.5572 22.5403 43.0021 22.4101C42.1834 22.2583 41.3559 22.1584 40.5246 22.1109C38.9955 21.9807 37.8107 21.7444 37.1644 21.291C36.8423 21.0466 36.5826 20.7294 36.4065 20.3654C36.2305 20.0013 36.1431 19.6008 36.1515 19.1965C36.1515 16.891 38.5213 15.6194 41.4731 15.6194C44.9635 15.6194 46.5598 16.9554 46.5598 19.4329H43.6649C43.6425 18.3123 43.1263 17.7304 41.5105 17.7304C40.0443 17.7304 39.398 18.227 39.398 18.9586C39.398 19.4075 39.5715 19.7561 40.1745 19.9072C40.7131 20.0359 41.6601 20.1226 42.8031 20.2303C44.1167 20.359 45.0473 20.4891 45.8402 20.9409C46.2058 21.1576 46.5079 21.4668 46.7159 21.8375C46.9239 22.2081 47.0306 22.627 47.0251 23.052C47.0251 25.2961 45.1071 26.6067 41.4671 26.6067C37.7179 26.6112 36.1455 25.0223 36.1455 22.8635Z" fill="white" fill-opacity="0.6"/>
<path d="M48.9387 22.7779V18.339H47.3618V15.7956H48.6395C49.1347 15.7956 49.3083 15.5158 49.3726 14.8695L49.5222 13.3839H52.2152V15.7956H55.6188V18.339H52.2092V22.6043C52.2092 23.7025 52.7253 24.048 54.018 24.048C54.5173 24.0449 55.0152 23.9948 55.5051 23.8985V26.3685C54.825 26.516 54.1319 26.5953 53.436 26.6049C50.1192 26.6109 48.9387 25.1462 48.9387 22.7779Z" fill="white" fill-opacity="0.6"/>
<path d="M56.4597 22.8635H59.3891C59.3891 23.8539 59.8843 24.5002 61.7589 24.5002C63.4599 24.5002 64.0644 24.0049 64.0644 23.2285C64.0644 22.841 63.8699 22.5403 63.3163 22.4101C62.4975 22.2585 61.6701 22.1586 60.8388 22.1109C59.3083 21.9807 58.1234 21.7444 57.4771 21.291C57.1552 21.0465 56.8957 20.7292 56.7199 20.3652C56.5441 20.0011 56.457 19.6007 56.4657 19.1965C56.4657 16.891 58.834 15.6194 61.7858 15.6194C65.2762 15.6194 66.8725 16.9554 66.8725 19.4329H63.9851C63.9641 18.3123 63.4465 17.7304 61.8307 17.7304C60.366 17.7304 59.7197 18.227 59.7197 18.9586C59.7197 19.4075 59.8918 19.7561 60.4947 19.9072C61.0333 20.0359 61.9818 20.1226 63.1233 20.2303C64.4369 20.359 65.3674 20.4891 66.1604 20.9409C66.5259 21.1586 66.8274 21.4687 67.0347 21.8402C67.242 22.2116 67.3475 22.6312 67.3408 23.0565C67.3408 25.3006 65.4243 26.6112 61.7828 26.6112C58.0321 26.6112 56.4597 25.0223 56.4597 22.8635Z" fill="white" fill-opacity="0.6"/>
<path d="M67.8765 21.1391C67.8765 17.6697 70.1383 15.623 73.4122 15.623C76.5356 15.623 78.5824 17.3689 78.5824 20.3192H75.6949C75.6739 18.9414 74.8556 18.123 73.52 18.123C71.9905 18.123 71.1498 19.1778 71.1498 21.1152C71.1498 22.9898 72.0115 24.1074 73.4556 24.1074C74.8556 24.1074 75.6997 23.31 75.7173 21.953H78.6034C78.6034 25.011 76.4285 26.6059 73.2834 26.6059C70.0969 26.6104 67.8765 24.5847 67.8765 21.1391Z" fill="white" fill-opacity="0.6"/>
<path d="M79.887 15.795H83.1615L83.0334 18.8336H83.0768C83.5256 16.8079 84.67 15.623 86.7602 15.623C88.9351 15.623 90.2009 17.0234 90.2009 19.7807C90.2009 20.3791 90.1365 21.3321 90.0931 21.8917H87.1263C87.1683 21.3755 87.1907 20.8369 87.1907 20.5138C87.1907 18.9623 86.5656 18.3384 85.5317 18.3384C84.131 18.3384 83.1615 19.48 83.1615 21.8498V26.4383H79.887V15.795Z" fill="white" fill-opacity="0.6"/>
<path d="M94.6935 15.7971H91.4189V26.4388H94.6935V15.7971Z" fill="white" fill-opacity="0.6"/>
<path d="M96.365 15.795H99.6403L99.5758 17.9719H99.5969C100.006 16.5073 101.364 15.623 103.195 15.623C106.168 15.623 108.106 17.734 108.106 20.8803C108.106 24.3214 106.162 26.6104 103.169 26.6104C101.224 26.6104 100.027 25.8129 99.5487 24.5158H99.5277C99.5711 25.228 99.6355 26.2827 99.6355 26.6702V30.7066H96.365V15.795ZM104.854 21.0089C104.854 19.2855 103.862 18.123 102.377 18.123C100.73 18.123 99.6403 19.3079 99.6403 21.0957V21.57C99.6403 23.099 100.738 24.1134 102.398 24.1134C103.861 24.1119 104.852 22.8626 104.852 21.0089H104.854Z" fill="white" fill-opacity="0.6"/>
<path d="M110.111 22.7779V18.339H108.538V15.7956H109.809C110.304 15.7956 110.477 15.5158 110.542 14.8695L110.692 13.3839H113.384V15.7956H116.788V18.339H113.384V22.6043C113.384 23.7025 113.9 24.048 115.193 24.048C115.692 24.0449 116.191 23.9948 116.68 23.8985V26.3685C116 26.516 115.307 26.5953 114.611 26.6049C111.296 26.6109 110.111 25.1462 110.111 22.7779Z" fill="white" fill-opacity="0.6"/>
<path d="M95.0192 13.3402C95.0192 13.6319 94.9453 14.6986 93.2232 14.6986H91.428V13.3357C91.428 12.5188 92.0883 11.9637 93.2232 11.9637C94.2158 11.9682 95.0192 12.3736 95.0192 13.3402Z" fill="white" fill-opacity="0.6"/>
</g>
<defs>
<clipPath id="clip0_5358_2304">
<rect width="128.136" height="40" fill="white" transform="translate(0.406738)"/>
</clipPath>
</defs>
</svg>
