<svg width="107" height="33" viewBox="0 0 107 33" fill="none" xmlns="http://www.w3.org/2000/svg">
<g clip-path="url(#clip0_5358_2239)">
<path d="M28.5335 11.8012V8.43295H23.6533V26.0386H28.5335V17.219C28.5335 13.8507 30.6166 12.6748 34.2201 12.7084V8.16418C31.3558 8.19778 29.6423 9.44091 28.5335 11.8012Z" fill="white" fill-opacity="0.6"/>
<path d="M47.92 18.7648C47.92 21.3603 46.3073 22.637 44.2494 22.637C42.1663 22.637 41.1835 21.4947 41.1835 19.1008V8.43323H36.3369V19.7728C36.3369 24.3842 38.8904 26.4001 42.3259 26.4001C45.2237 26.4001 47.0045 25.0561 47.9116 23.267V26.0389H52.7582V8.43323H47.9116V18.7648H47.92Z" fill="white" fill-opacity="0.6"/>
<path d="M68.3817 11.062C67.3737 9.28123 65.6518 8.02966 62.7959 8.02966C58.4197 8.02966 55.0598 11.5659 55.0598 16.6141V16.8493C55.0598 22.0655 58.4617 25.2658 62.7287 25.2658C65.3242 25.2658 67.4073 23.7202 68.3817 21.9983V24.661C68.3817 27.4161 66.9033 28.97 63.9382 28.97C61.4435 28.97 60.3348 27.962 60.0324 26.4165H55.1858C55.6562 30.0536 58.2517 32.5399 63.9382 32.5399C69.7256 32.5399 73.1946 29.8772 73.2282 24.661V8.43287H68.3817V11.062ZM68.516 16.7821C68.516 19.7808 66.7353 21.5951 64.1734 21.5951C61.7543 21.5951 60.0324 19.7808 60.0324 16.8493V16.5805C60.0324 13.6826 61.5443 11.7339 64.2742 11.7339C66.9369 11.7339 68.516 13.5483 68.516 16.5469V16.7821Z" fill="white" fill-opacity="0.6"/>
<path d="M84.5678 8.02966C79.4524 8.02966 75.5129 11.6331 75.5129 17.1853V17.4541C75.5129 23.0735 79.3852 26.4081 84.7021 26.4081C89.5151 26.4081 92.539 24.2914 93.1186 20.4864H88.5072C88.2048 21.9647 87.0961 22.9475 84.8365 22.9475C82.1739 22.9475 80.5947 21.2675 80.4603 18.3361H93.1522V16.9921C93.1522 10.6924 89.112 8.02966 84.5678 8.02966ZM80.5275 15.329C80.8971 12.8427 82.3754 11.3895 84.5678 11.3895C86.8945 11.3895 88.2384 12.6663 88.4064 15.329H80.5275Z" fill="white" fill-opacity="0.6"/>
<path d="M100.284 11.8012V8.43295H95.4033V26.0386H100.284V17.219C100.284 13.8507 102.367 12.6748 105.97 12.7084V8.16418C103.114 8.19778 101.392 9.44091 100.284 11.8012Z" fill="white" fill-opacity="0.6"/>
<path d="M9.29001 4.645C9.29001 2.08311 7.2153 0 4.645 0C2.08311 0 0 2.08311 0 4.645C0 7.2069 2.08311 9.29001 4.645 9.29001C7.2153 9.29001 9.29001 7.2153 9.29001 4.645ZM4.00663 4.645C4.00663 4.29222 4.29222 4.00663 4.645 4.00663C4.99779 4.00663 5.28338 4.29222 5.28338 4.645C5.28338 4.99779 4.99779 5.28338 4.645 5.28338C4.29222 5.28338 4.00663 4.99779 4.00663 4.645Z" fill="white" fill-opacity="0.6"/>
<path d="M5.55225 14.6321L15.0187 25.98H22.0996L12.6332 14.6321H5.55225Z" fill="white" fill-opacity="0.6"/>
<path d="M12.6332 13.3051L22.0996 1.95715H15.0187L5.55225 13.3051H12.6332Z" fill="white" fill-opacity="0.6"/>
<path d="M1.64624 17.69V25.9972H6.81202V17.8664L4.27533 14.8257L1.64624 17.69Z" fill="white" fill-opacity="0.6"/>
</g>
<defs>
<clipPath id="clip0_5358_2239">
<rect width="106.676" height="32.7586" fill="white"/>
</clipPath>
</defs>
</svg>
