<svg width="100" height="31" viewBox="0 0 100 31" fill="none" xmlns="http://www.w3.org/2000/svg">
<g clip-path="url(#clip0_5358_2249)">
<path d="M0.0495605 21.3219V0.490234H3.70889V21.3219H0.0495605Z" fill="white" fill-opacity="0.6"/>
<path d="M13.0762 6.20923C8.38445 6.20923 5.1377 9.81658 5.1377 13.9455C5.1377 18.5537 8.66979 21.7282 13.1126 21.7282C17.3292 21.7282 20.9882 18.6121 20.9882 13.9356C20.9882 10.0031 17.9562 6.20923 13.0762 6.20923ZM13.0331 9.73929C15.4884 9.73929 17.2957 11.6505 17.2957 13.9588C17.2957 16.4062 15.3031 18.1915 13.0994 18.1915C10.4954 18.1915 8.85669 16.1277 8.85669 13.9654C8.85669 11.5953 10.7069 9.73929 13.0331 9.73929Z" fill="white" fill-opacity="0.6"/>
<path d="M30.1819 6.20923C25.4902 6.20923 22.2434 9.81658 22.2434 13.9455C22.2434 18.5537 25.7755 21.7282 30.2184 21.7282C34.4349 21.7282 38.0939 18.6121 38.0939 13.9356C38.0939 11.1817 36.9013 9.95978 36.9013 9.95978L37.9155 9.61197V6.64208H32.7182C32.7182 6.64208 31.5915 6.20923 30.1819 6.20923ZM30.1388 9.73929C32.5941 9.73929 34.4014 11.6505 34.4014 13.9588C34.4014 16.4062 32.4088 18.1915 30.2051 18.1915C27.6011 18.1915 25.9624 16.1277 25.9624 13.9654C25.9624 11.5953 27.8126 9.73929 30.1388 9.73929Z" fill="white" fill-opacity="0.6"/>
<path d="M34.3758 22.3401C34.3758 24.7875 32.3832 26.5861 30.1795 26.5861C27.5755 26.5861 25.9301 24.5023 25.9301 22.3401H22.2178C22.2178 26.9483 25.7499 30.1228 30.1927 30.1228C34.4093 30.1228 38.0682 27.0166 38.0682 22.3401H34.3758Z" fill="white" fill-opacity="0.6"/>
<path d="M39.5598 21.3218V6.64209H43.2191V21.3218H39.5598Z" fill="white" fill-opacity="0.6"/>
<path d="M46.7723 21.3219V9.93024H44.8101V6.64214H46.7723V2.13428H50.4316V6.64214H52.4469V9.93024H50.4316V21.3219H46.7723Z" fill="white" fill-opacity="0.6"/>
<path d="M43.8049 2.47276C43.8049 3.81105 42.72 4.89596 41.3817 4.89596C40.0434 4.89596 38.9585 3.81105 38.9585 2.47276C38.9585 1.13446 40.0434 0.0495605 41.3817 0.0495605C42.72 0.0495605 43.8049 1.13446 43.8049 2.47276Z" fill="white" fill-opacity="0.6"/>
<path d="M60.6738 6.19922C55.9598 6.19922 52.9209 9.80845 52.9209 14.0781C52.9209 18.4902 55.9699 21.7381 60.75 21.7381C65.209 21.7381 67.4024 18.9539 67.4024 18.9539L64.9563 16.5044C64.9563 16.5044 63.1093 18.4964 60.7964 18.4964C58.8684 18.4964 57.3269 17.4203 56.789 15.447H68.1913V14.4393C68.1913 10.4187 65.8642 6.19922 60.6738 6.19922ZM60.5578 9.42102C62.2435 9.42102 63.9674 10.3229 64.353 12.4771H56.6896C56.9931 10.9628 58.3179 9.42102 60.5578 9.42102Z" fill="white" fill-opacity="0.6"/>
<path d="M77.3444 21.7401C72.6171 21.7401 69.396 18.1396 69.396 13.8944C69.396 9.51337 73.0364 6.19653 77.3292 6.19653C81.4792 6.19653 83.6033 9.12611 83.6033 9.12611L81.0506 11.6672C81.0506 11.6672 79.5719 9.75671 77.3118 9.75671C74.807 9.75671 73.0942 11.6729 73.0942 13.9506C73.0942 16.3556 74.9161 18.2008 77.2837 18.2008C79.5801 18.2008 81.0471 16.2933 81.0471 16.2933L83.6253 18.8331C83.6253 18.8331 81.5218 21.7401 77.3444 21.7401Z" fill="white" fill-opacity="0.6"/>
<path d="M84.9568 21.3324V0.437134H88.6161V8.11417C88.6161 8.11417 90.0173 6.19653 93.0652 6.19653C96.8969 6.19653 99.1168 9.04491 99.1168 12.6879V21.3324H95.4575V13.241C95.4575 10.7936 93.9337 9.77817 92.2457 9.77817C90.3224 9.77817 88.6161 10.8727 88.6161 13.4304V21.3324H84.9568Z" fill="white" fill-opacity="0.6"/>
</g>
<defs>
<clipPath id="clip0_5358_2249">
<rect width="99.1663" height="30.1724" fill="white"/>
</clipPath>
</defs>
</svg>
