<svg width="181" height="30" viewBox="0 0 181 30" fill="none" xmlns="http://www.w3.org/2000/svg">
<g clip-path="url(#clip0_5358_2271)">
<path d="M45.8891 5.5V27.5733H41.4453V5.5H45.8891Z" fill="white" fill-opacity="0.6"/>
<path d="M55.943 27.8932C54.2552 27.8932 52.7951 27.5455 51.5751 26.8565C50.3551 26.1675 49.4069 25.1814 48.7559 23.9109C48.1048 22.6404 47.7698 21.1233 47.7698 19.3787C47.7698 17.634 48.0985 16.1739 48.7495 14.8907C49.4006 13.6075 50.3235 12.6024 51.5182 11.8818C52.7129 11.1612 54.1162 10.8009 55.7281 10.8009C56.8153 10.8009 57.8267 10.9716 58.7622 11.3192C59.6977 11.6669 60.5258 12.1852 61.2337 12.8805C61.9417 13.5759 62.498 14.4482 62.9025 15.4975C63.3071 16.5468 63.503 17.7794 63.503 19.2017V20.4469H49.5903V17.6593H61.3222L59.2489 18.3989C59.2489 17.5392 59.1162 16.7933 58.857 16.1549C58.5978 15.5165 58.2059 15.0234 57.6876 14.6757C57.1693 14.3281 56.5308 14.1511 55.766 14.1511C55.0011 14.1511 54.3437 14.3281 53.8001 14.6821C53.2565 15.0361 52.8519 15.5165 52.5801 16.1296C52.3083 16.7428 52.163 17.4318 52.163 18.2093V20.1814C52.163 21.1422 52.321 21.945 52.6434 22.5961C52.9657 23.2472 53.4145 23.7339 53.9898 24.0626C54.565 24.3913 55.2413 24.5493 56.0125 24.5493C56.5372 24.5493 57.0112 24.4735 57.4348 24.3281C57.8583 24.1827 58.2249 23.9615 58.522 23.6707C58.8191 23.3799 59.053 23.0196 59.211 22.5961L63.2439 23.3546C62.9784 24.2649 62.5106 25.0613 61.8532 25.7503C61.1958 26.4393 60.3614 26.9703 59.369 27.3433C58.3766 27.7162 57.2325 27.9058 55.9367 27.9058L55.943 27.8932Z" fill="white" fill-opacity="0.6"/>
<path d="M65.313 27.5881V11.0267H69.4343L69.6556 15.1481H69.3269C69.586 14.1304 69.959 13.3023 70.4583 12.6576C70.9577 12.0128 71.5393 11.5388 72.2156 11.2353C72.892 10.9319 73.5936 10.7739 74.3332 10.7739C75.5279 10.7739 76.4887 11.1532 77.2219 11.9054C77.9552 12.6576 78.4925 13.827 78.8338 15.4073H78.3155C78.562 14.3517 78.9666 13.4793 79.5228 12.7903C80.0791 12.1013 80.7428 11.5956 81.5077 11.2669C82.2725 10.9382 83.0753 10.7676 83.916 10.7676C84.9337 10.7676 85.8376 10.9888 86.6341 11.4313C87.4305 11.8738 88.0563 12.5122 88.5178 13.3529C88.9792 14.1936 89.2068 15.205 89.2068 16.4123V27.5818H84.763V17.253C84.763 16.3175 84.5102 15.6159 83.9982 15.1671C83.4862 14.7183 82.8667 14.4844 82.1271 14.4844C81.5709 14.4844 81.0905 14.6045 80.6796 14.8447C80.2687 15.0849 79.9527 15.4262 79.7314 15.8624C79.5102 16.2986 79.3964 16.8042 79.3964 17.3858V27.5754H75.098V17.1329C75.098 16.3238 74.8578 15.6791 74.3774 15.1987C73.897 14.7183 73.2776 14.4781 72.519 14.4781C71.9944 14.4781 71.5266 14.5982 71.1031 14.8321C70.6796 15.0659 70.3509 15.4199 70.1107 15.875C69.8705 16.3302 69.7504 16.8927 69.7504 17.5565V27.5691H65.3066L65.313 27.5881Z" fill="white" fill-opacity="0.6"/>
<path d="M99.1994 27.8931C97.5432 27.8931 96.102 27.5328 94.8884 26.8185C93.6747 26.1042 92.7392 25.1055 92.0818 23.8286C91.4244 22.5517 91.0957 21.06 91.0957 19.3596C91.0957 17.6592 91.4244 16.1421 92.0818 14.8653C92.7392 13.5884 93.6747 12.5897 94.8884 11.8754C96.102 11.1611 97.5432 10.8008 99.1994 10.8008C100.856 10.8008 102.309 11.1611 103.517 11.8754C104.724 12.5897 105.66 13.5884 106.317 14.8653C106.974 16.1421 107.303 17.6402 107.303 19.3596C107.303 21.0789 106.974 22.5454 106.317 23.8286C105.66 25.1118 104.724 26.1042 103.517 26.8185C102.309 27.5328 100.868 27.8931 99.1994 27.8931ZM99.1994 24.3975C99.9895 24.3975 100.653 24.1763 101.184 23.7401C101.715 23.3039 102.12 22.6971 102.385 21.9323C102.651 21.1674 102.783 20.3077 102.783 19.3469C102.783 18.3861 102.651 17.5012 102.385 16.7426C102.12 15.9841 101.721 15.3836 101.184 14.9474C100.647 14.5113 99.9895 14.2964 99.1994 14.2964C98.4092 14.2964 97.7518 14.5113 97.2209 14.9474C96.6899 15.3836 96.298 15.9778 96.0262 16.7426C95.7544 17.5075 95.628 18.3735 95.628 19.3469C95.628 20.3204 95.7607 21.1674 96.0262 21.9323C96.2917 22.6971 96.6899 23.2976 97.2209 23.7401C97.7518 24.1826 98.4092 24.3975 99.1994 24.3975Z" fill="white" fill-opacity="0.6"/>
<path d="M113.631 17.9816V27.5644H109.188V11.0031H113.378L113.454 15.1371H113.189C113.625 13.7527 114.282 12.6845 115.167 11.9323C116.052 11.18 117.196 10.8008 118.6 10.8008C119.744 10.8008 120.742 11.0473 121.602 11.5467C122.462 12.046 123.119 12.7603 123.587 13.6959C124.055 14.6314 124.289 15.7439 124.289 17.0397V27.5707H119.845V17.8046C119.845 16.7806 119.579 15.9715 119.055 15.3899C118.53 14.8084 117.791 14.5176 116.855 14.5176C116.236 14.5176 115.679 14.6503 115.186 14.9221C114.693 15.194 114.314 15.5859 114.048 16.0979C113.783 16.6099 113.644 17.2357 113.644 17.9816H113.631Z" fill="white" fill-opacity="0.6"/>
<path d="M131.483 27.8955C130.433 27.8955 129.498 27.7122 128.663 27.3392C127.829 26.9663 127.172 26.4163 126.691 25.6831C126.211 24.9499 125.971 24.0333 125.971 22.9334C125.971 22.0169 126.141 21.2457 126.483 20.6199C126.824 19.9941 127.285 19.501 127.873 19.1218C128.461 18.7425 129.125 18.4581 129.871 18.2621C130.617 18.0662 131.401 17.9271 132.216 17.8449C133.177 17.7438 133.948 17.6553 134.536 17.5731C135.124 17.4909 135.554 17.3582 135.825 17.1749C136.097 16.9916 136.23 16.7261 136.23 16.3658V16.2899C136.23 15.8158 136.129 15.4176 135.933 15.0889C135.737 14.7602 135.44 14.5137 135.054 14.343C134.669 14.1724 134.194 14.0839 133.638 14.0839C133.082 14.0839 132.564 14.1724 132.14 14.343C131.717 14.5137 131.369 14.7476 131.103 15.032C130.838 15.3165 130.642 15.6388 130.509 15.9928L126.432 15.3291C126.717 14.362 127.191 13.5402 127.854 12.8702C128.518 12.2002 129.34 11.6818 130.32 11.3278C131.299 10.9739 132.412 10.7969 133.645 10.7969C134.536 10.7969 135.395 10.9043 136.236 11.1129C137.077 11.3215 137.829 11.6565 138.493 12.099C139.157 12.5415 139.688 13.123 140.079 13.8373C140.471 14.5516 140.667 15.4113 140.667 16.41V27.5668H136.457V25.2722H136.312C136.047 25.7842 135.693 26.2394 135.244 26.6249C134.795 27.0105 134.264 27.3266 133.638 27.5478C133.012 27.7691 132.285 27.8892 131.47 27.8892L131.483 27.8955ZM132.741 24.7729C133.442 24.7729 134.055 24.6338 134.586 24.3557C135.117 24.0775 135.528 23.7046 135.825 23.2305C136.122 22.7564 136.268 22.2255 136.268 21.6439V19.8487C136.141 19.9498 135.939 20.0383 135.674 20.1142C135.408 20.1901 135.111 20.2596 134.782 20.3228C134.454 20.386 134.138 20.4366 133.822 20.4871C133.505 20.5377 133.221 20.5756 132.974 20.6072C132.431 20.6831 131.95 20.8158 131.54 20.9928C131.129 21.1698 130.806 21.4037 130.579 21.6945C130.351 21.9852 130.237 22.3582 130.237 22.8133C130.237 23.2368 130.345 23.5971 130.566 23.8879C130.787 24.1787 131.078 24.3999 131.457 24.5453C131.837 24.6907 132.26 24.7665 132.747 24.7665L132.741 24.7729Z" fill="white" fill-opacity="0.6"/>
<path d="M149.307 27.8578C148.043 27.8578 146.899 27.5291 145.875 26.8717C144.851 26.2143 144.048 25.2535 143.454 23.9829C142.86 22.7124 142.562 21.1637 142.562 19.3243C142.562 17.4848 142.866 15.8603 143.479 14.5961C144.092 13.3319 144.908 12.3837 145.925 11.7516C146.943 11.1195 148.062 10.8034 149.288 10.8034C150.224 10.8034 151.008 10.9614 151.627 11.2775C152.246 11.5936 152.752 11.9855 153.138 12.4469C153.523 12.9083 153.808 13.3635 153.997 13.7933H154.143V5.5H158.587V27.5733H154.219V24.9185H153.997C153.801 25.3609 153.504 25.8097 153.119 26.2585C152.733 26.7073 152.221 27.0866 151.602 27.39C150.982 27.6934 150.211 27.8515 149.307 27.8515V27.8578ZM150.685 24.2864C151.437 24.2864 152.076 24.0778 152.613 23.6669C153.15 23.256 153.549 22.6745 153.827 21.9286C154.105 21.1827 154.244 20.3104 154.244 19.3116C154.244 18.3129 154.111 17.4343 153.839 16.6947C153.568 15.9551 153.163 15.3862 152.632 14.9753C152.101 14.5645 151.45 14.3622 150.691 14.3622C149.933 14.3622 149.257 14.5771 148.726 15.0006C148.195 15.4241 147.803 16.0057 147.531 16.7516C147.259 17.4975 147.133 18.3445 147.133 19.3116C147.133 20.2788 147.265 21.1384 147.537 21.8906C147.809 22.6429 148.207 23.2307 148.738 23.6542C149.269 24.0778 149.914 24.2927 150.685 24.2927V24.2864Z" fill="white" fill-opacity="0.6"/>
<path d="M167.751 27.8931C166.417 27.8931 165.235 27.7034 164.211 27.3242C163.187 26.9449 162.346 26.3887 161.695 25.668C161.044 24.9474 160.621 24.0625 160.438 23.0385L164.572 22.3305C164.786 23.1017 165.172 23.6769 165.709 24.0625C166.247 24.4481 166.98 24.6377 167.89 24.6377C168.737 24.6377 169.407 24.4797 169.9 24.1573C170.393 23.8349 170.633 23.4304 170.633 22.9373C170.633 22.5012 170.456 22.1472 170.109 21.8691C169.761 21.5909 169.224 21.3823 168.503 21.2306L165.646 20.6364C164.047 20.3077 162.852 19.7578 162.062 18.9677C161.272 18.1775 160.874 17.1725 160.874 15.9398C160.874 14.8716 161.164 13.955 161.746 13.1902C162.328 12.4253 163.137 11.8374 164.173 11.4203C165.21 11.0031 166.43 10.8008 167.833 10.8008C169.135 10.8008 170.267 10.9841 171.228 11.3444C172.188 11.7047 172.96 12.2167 173.554 12.8804C174.148 13.5441 174.54 14.3216 174.742 15.2192L170.804 15.9146C170.633 15.352 170.311 14.8905 169.831 14.5302C169.35 14.1699 168.706 13.9866 167.896 13.9866C167.163 13.9866 166.556 14.1383 166.057 14.4481C165.558 14.7578 165.317 15.1624 165.317 15.6807C165.317 16.0979 165.475 16.4455 165.798 16.73C166.12 17.0144 166.67 17.2357 167.448 17.3937L170.425 17.9879C172.024 18.3166 173.212 18.8476 173.996 19.5808C174.78 20.3141 175.166 21.2749 175.166 22.4632C175.166 23.5505 174.85 24.4986 174.218 25.3141C173.585 26.1295 172.713 26.7616 171.601 27.2167C170.488 27.6718 169.205 27.8994 167.757 27.8994L167.751 27.8931Z" fill="white" fill-opacity="0.6"/>
<path d="M19.466 28.2336C20.117 26.685 20.1992 16.0781 20.1992 16.0781C20.1992 16.0781 12.6834 23.5686 12.0387 25.111C11.3876 26.6597 12.0829 28.4233 14.5797 29.4662C17.0766 30.5155 18.8212 29.7697 19.4723 28.2273L19.466 28.2336Z" fill="white" fill-opacity="0.6"/>
<path d="M19.5831 1.74542C20.2153 3.2941 20.2026 13.9073 20.2026 13.9073C20.2026 13.9073 12.7627 6.3472 12.1242 4.79852C11.4921 3.24353 12.2001 1.48626 14.7032 0.462237C17.2064 -0.561784 18.9447 0.19675 19.5831 1.74542Z" fill="white" fill-opacity="0.6"/>
<path d="M29.1663 25.1869C28.5342 23.6319 21.088 16.0781 21.088 16.0781C21.088 16.0781 21.069 26.685 21.7074 28.24C22.3395 29.7886 24.0842 30.5472 26.5873 29.5231C29.0905 28.4991 29.8048 26.7418 29.1663 25.1869Z" fill="white" fill-opacity="0.6"/>
<path d="M10.5273 6.37896C12.0759 7.03004 19.5601 14.5395 19.5601 14.5395C19.5601 14.5395 8.9533 14.4573 7.40463 13.8063C5.85595 13.1552 5.11638 11.4106 6.16569 8.91373C7.21499 6.41689 8.97858 5.72156 10.5209 6.37264L10.5273 6.37896Z" fill="white" fill-opacity="0.6"/>
<path d="M33.8821 16.1805C32.3334 15.5294 21.7266 15.4473 21.7266 15.4473C21.7266 15.4473 29.2171 22.9631 30.7594 23.6078C32.3081 24.2589 34.0717 23.5636 35.1147 21.0667C36.164 18.5699 35.4181 16.8253 33.8757 16.1742L33.8821 16.1805Z" fill="white" fill-opacity="0.6"/>
<path d="M7.39777 16.0589C8.95276 15.4268 19.5596 15.4395 19.5596 15.4395C19.5596 15.4395 11.9995 22.8794 10.4509 23.5179C8.90219 24.15 7.1386 23.442 6.11458 20.9388C5.09056 18.4357 5.84909 16.6974 7.39777 16.0589Z" fill="white" fill-opacity="0.6"/>
</g>
<defs>
<clipPath id="clip0_5358_2271">
<rect width="169.513" height="30" fill="white" transform="translate(5.65039)"/>
</clipPath>
</defs>
</svg>
