<svg width="125" height="26" viewBox="0 0 125 26" fill="none" xmlns="http://www.w3.org/2000/svg">
<g clip-path="url(#clip0_5358_2339)">
<path d="M66.4225 23.0172C65.1006 23.0172 63.9081 23.0172 62.5719 23.0172C61.2501 17.9023 59.9139 12.7873 58.5777 7.60053C58.5777 12.8879 58.5777 18.1034 58.5777 23.3908C57.2414 23.3908 55.9627 23.3908 54.6409 23.3908C54.6409 16.2787 54.6409 9.22409 54.6409 2.11202C56.7817 2.11202 58.8937 2.11202 61.1495 2.11202C62.3995 6.79593 63.6351 11.5086 64.8708 16.1494C66.2213 11.5086 67.6006 6.79593 68.9656 2.09766C71.1495 2.09766 73.161 2.09766 75.2443 2.09766C75.2443 9.19536 75.2443 16.25 75.2443 23.3764C73.9225 23.3764 72.6294 23.3764 71.2501 23.3764C71.2501 17.9885 71.2501 12.6436 71.2501 7.28444C71.2213 7.28444 71.1926 7.28444 71.1639 7.28444C69.5834 12.5143 68.0029 17.7442 66.4225 23.0172Z" fill="#D90D1F"/>
<path d="M124.109 15.6035C124.081 18.1753 123.405 20.4741 121.322 22.1839C118.06 24.8851 111.609 24.3247 109.871 18.9081C108.994 16.1925 109.167 13.5201 110.546 11.0345C111.739 8.87932 113.707 7.773 116.121 7.57185C121.236 7.14082 124.109 10.9627 124.109 15.2443C124.109 15.3592 124.109 15.4885 124.109 15.6035ZM119.526 15.819C119.555 14.4397 119.382 13.5058 118.851 12.4569C118.448 11.6667 117.831 11.1207 116.897 11.0632C115.934 11.0058 115.187 11.4512 114.77 12.2845C113.65 14.5402 113.635 16.8391 114.799 19.0661C115.532 20.4741 117.414 20.6178 118.448 19.3966C119.325 18.3764 119.497 17.1121 119.526 15.819Z" fill="#D90D1F"/>
<path d="M89.7702 17.227C86.7673 17.227 83.8219 17.227 80.8047 17.227C80.819 18.2471 81.3075 18.8793 82.0115 19.3678C83.2328 20.2011 84.6121 20.1293 85.9771 19.9999C86.8104 19.9137 87.615 19.6982 88.5489 19.5258C88.75 20.589 88.9368 21.6379 89.1523 22.7873C88.4627 23.0028 87.8449 23.2471 87.1983 23.3908C85.3449 23.7931 83.4627 23.9224 81.6236 23.4482C78.7788 22.7011 76.911 20.4885 76.5949 17.5287C76.3937 15.6034 76.4943 13.7212 77.2414 11.8678C78.6926 8.20397 82.9598 6.47984 86.4799 8.21834C87.6437 8.79305 88.4483 9.74133 88.9943 10.9051C89.9138 12.8735 90.0863 14.9568 89.7702 17.227ZM85.6753 13.7643C85.819 12.1551 84.7989 10.8908 83.4052 10.8764C81.911 10.862 80.7184 12.1839 80.8334 13.7643C82.4569 13.7643 84.0661 13.7643 85.6753 13.7643Z" fill="#D90D1F"/>
<path d="M96.207 3.49133C96.207 4.99995 96.207 6.3649 96.207 7.85915C97.2703 7.85915 98.2904 7.85915 99.3536 7.85915C99.3536 9.13788 99.3536 10.2729 99.3536 11.5229C98.3335 11.5229 97.3421 11.5229 96.4369 11.5229C96.322 11.6666 96.2645 11.7097 96.2645 11.7385C96.2933 13.8218 96.2358 15.9195 96.3651 18.0028C96.4657 19.4683 96.9685 19.7701 98.4772 19.6839C98.6927 19.6695 98.9082 19.6839 99.2099 19.6839C99.2099 20.8477 99.2099 22.0114 99.2099 23.362C98.6639 23.4626 98.0318 23.635 97.3852 23.6781C95.503 23.8218 93.7501 23.5919 92.6869 21.7528C92.0547 20.6609 91.9111 19.4252 91.8967 18.204C91.868 16.2643 91.8823 14.3103 91.8823 12.3706C91.8823 12.1408 91.8536 11.8965 91.8249 11.5948C91.2214 11.5517 90.6611 11.5086 90.0576 11.4655C90.0576 10.2729 90.0576 9.13788 90.0576 7.93099C90.6611 7.90225 91.1927 7.87352 91.8392 7.83041C91.8392 6.75283 91.8392 5.70398 91.8392 4.56892C93.2904 4.22409 94.6841 3.87926 96.207 3.49133Z" fill="#D90D1F"/>
<path d="M100.675 7.95975C101.897 7.95975 103.103 7.95975 104.368 7.95975C104.425 8.76435 104.483 9.49711 104.54 10.2299C105.661 8.46262 107.026 7.25573 109.31 7.62929C109.31 9.18101 109.31 10.6609 109.31 12.1695C108.736 12.1695 108.204 12.1264 107.701 12.1839C106.307 12.3419 105.374 13.1753 105.23 14.5689C105.086 15.977 105.129 17.3994 105.115 18.8218C105.101 20.1724 105.115 21.5086 105.115 22.8592C105.115 23.0172 105.072 23.1753 105.043 23.4052C103.621 23.4052 102.213 23.4052 100.704 23.4052C100.675 18.2471 100.675 13.1322 100.675 7.95975Z" fill="#D90D1F"/>
<path d="M24.7126 0L11.5517 13.1753H0L5.64655 18.8218H17.227L30.3879 5.66092L24.7126 0Z" fill="#D90D1F"/>
<path d="M23.6494 25.862L36.8104 12.6867H48.3621L42.7155 7.04016H31.1494L17.9885 20.2011L23.6494 25.862Z" fill="#D90D1F"/>
</g>
<defs>
<clipPath id="clip0_5358_2339">
<rect width="124.109" height="25.8621" fill="white"/>
</clipPath>
</defs>
</svg>
