<svg width="65" height="26" viewBox="0 0 65 26" fill="none" xmlns="http://www.w3.org/2000/svg">
<g clip-path="url(#clip0_5358_2360)">
<path d="M0 24.0613H12.5351V25.8557H0V24.0613Z" fill="#195CB8"/>
<path d="M0 20.6194H12.5351V22.4201H0V20.6194Z" fill="#195CB8"/>
<path d="M3.57593 17.1838H8.95266V18.9846H3.57593V17.1838Z" fill="#195CB8"/>
<path d="M3.57593 13.7484H8.95266V15.5492H3.57593V13.7484Z" fill="#195CB8"/>
<path d="M3.57593 10.3129H8.95266V12.1136H3.57593V10.3129Z" fill="#195CB8"/>
<path d="M3.57593 6.87097H8.95266V8.67175H3.57593V6.87097Z" fill="#195CB8"/>
<path d="M12.5351 3.43542H0V5.2362H12.5351V3.43542Z" fill="#195CB8"/>
<path d="M12.5351 0H0V1.80078H12.5351V0Z" fill="#195CB8"/>
<path d="M14.323 22.4202H33.6014C33.927 21.8646 34.1697 21.258 34.3166 20.6194H14.323V22.4202Z" fill="#195CB8"/>
<path d="M32.1009 13.7484H17.9055V15.5492H33.6016C33.1928 14.8595 32.6884 14.2529 32.1009 13.7484Z" fill="#195CB8"/>
<path d="M17.9055 10.3129V12.1136H32.1009C32.7012 11.6092 33.2056 11.0025 33.6016 10.3129H17.9055Z" fill="#195CB8"/>
<path d="M33.6015 3.43542H14.323V5.2362H34.3166C34.1506 4.59763 33.9079 3.99103 33.6015 3.43542Z" fill="#195CB8"/>
<path d="M27.6755 0H14.323V1.80078H32.2796C31.0791 0.689635 29.4507 0 27.6755 0Z" fill="#195CB8"/>
<path d="M23.2759 6.87097H17.9055V8.67175H23.2759V6.87097Z" fill="#195CB8"/>
<path d="M28.6526 8.67175H34.272C34.4316 8.09706 34.5146 7.4904 34.5146 6.87097H28.6526V8.67175Z" fill="#195CB8"/>
<path d="M17.9055 17.1838H23.2759V18.9846H17.9055V17.1838Z" fill="#195CB8"/>
<path d="M28.6526 17.1838V18.9846H34.5146C34.5146 18.3652 34.4316 17.7586 34.272 17.1838H28.6526Z" fill="#195CB8"/>
<path d="M14.323 25.8429L27.6755 25.8621C29.4635 25.8621 31.0791 25.1724 32.2859 24.0613H14.323V25.8429Z" fill="#195CB8"/>
<path d="M35.8174 24.0613H44.7701V25.8557H35.8174V24.0613Z" fill="#195CB8"/>
<path d="M35.8174 20.6194H44.7701V22.4201H35.8174V20.6194Z" fill="#195CB8"/>
<path d="M39.3933 17.1838H44.77V18.9846H39.3933V17.1838Z" fill="#195CB8"/>
<path d="M39.3933 13.7484H44.77V15.5492H39.3933V13.7484Z" fill="#195CB8"/>
<path d="M47.2605 3.43542H35.8174V5.2362H47.8799L47.2605 3.43542Z" fill="#195CB8"/>
<path d="M46.0727 0H35.8174V1.80078H46.6922L46.0727 0Z" fill="#195CB8"/>
<path d="M55.5107 24.0613H64.4699V25.8557H55.5107V24.0613Z" fill="#195CB8"/>
<path d="M55.5107 20.6194H64.4699V22.4201H55.5107V20.6194Z" fill="#195CB8"/>
<path d="M55.5107 17.1838H60.8875V18.9846H55.5107V17.1838Z" fill="#195CB8"/>
<path d="M55.5107 13.7484H60.8875V15.5492H55.5107V13.7484Z" fill="#195CB8"/>
<path d="M55.5108 12.1136H60.8875V10.3129H55.5108H50.6449L50.1405 11.7689L49.636 10.3129H44.77H39.3933V12.1136H44.77V10.4597L45.3384 12.1136H54.9425L55.5108 10.4597V12.1136Z" fill="#195CB8"/>
<path d="M60.8877 6.87097H51.8328L51.2134 8.67175H60.8877V6.87097Z" fill="#195CB8"/>
<path d="M54.2146 0L53.5952 1.80078H64.4701V0H54.2146Z" fill="#195CB8"/>
<path d="M50.1404 25.8429L50.7598 24.0613H49.521L50.1404 25.8429Z" fill="#195CB8"/>
<path d="M48.9527 22.4201H51.3282L51.9668 20.6194H48.3206L48.9527 22.4201Z" fill="#195CB8"/>
<path d="M47.7457 18.9846H52.535L53.1672 17.1838H47.1135L47.7457 18.9846Z" fill="#195CB8"/>
<path d="M46.5452 15.5492H53.7419L54.3549 13.7484H45.9258L46.5452 15.5492Z" fill="#195CB8"/>
<path d="M39.3933 8.67175H49.0676L48.4482 6.87097H39.3933V8.67175Z" fill="#195CB8"/>
<path d="M52.4075 5.2362H64.4701V3.43542H53.0205L52.4075 5.2362Z" fill="#195CB8"/>
</g>
<defs>
<clipPath id="clip0_5358_2360">
<rect width="64.47" height="25.8621" fill="white"/>
</clipPath>
</defs>
</svg>
