<svg width="72" height="72" viewBox="0 0 72 72" fill="none" xmlns="http://www.w3.org/2000/svg">
<path d="M63.25 17.25C65.5 19.5 70 26.45 70 36.25C70 46.05 66 52.6667 64 54.75" stroke="#C1BDFF" stroke-width="3" stroke-linecap="round"/>
<path d="M8.75 17.25C6.5 19.5 2 26.45 2 36.25C2 46.05 6 52.6667 8 54.75" stroke="#C1BDFF" stroke-width="3" stroke-linecap="round"/>
<path d="M55.75 23.25C57.3333 24.8333 60.5 29.75 60.5 36.75C60.5 43.75 57.3333 47.5 55.75 48.5" stroke="#C1BDFF" stroke-width="3" stroke-linecap="round"/>
<path d="M16.25 23.25C14.6667 24.8333 11.5 29.75 11.5 36.75C11.5 43.75 14.6667 47.5 16.25 48.5" stroke="#C1BDFF" stroke-width="3" stroke-linecap="round"/>
<path d="M48.5 28.5C49.5833 29.5 51.75 32.5 51.75 36.5C51.75 40.5 49.5833 43 48.5 43.75" stroke="#C1BDFF" stroke-width="3" stroke-linecap="round"/>
<path d="M23.5 28.5C22.4167 29.5 20.25 32.5 20.25 36.5C20.25 40.5 22.4167 43 23.5 43.75" stroke="#C1BDFF" stroke-width="3" stroke-linecap="round"/>
<circle cx="35.75" cy="36.25" r="7.75" fill="#9285FF"/>
</svg>
