<svg width="72" height="72" viewBox="0 0 72 72" fill="none" xmlns="http://www.w3.org/2000/svg">
<path d="M59.9997 12.8335L67.9997 15.5002L56.6663 25.8335L46.9997 25.1668L46.333 15.8335L58.333 3.8335L59.9997 12.8335Z" stroke="#9285FF" stroke-width="2.9" stroke-linejoin="round"/>
<path d="M33.3077 37.1417C32.7414 37.7079 32.7414 38.626 33.3077 39.1923C33.874 39.7586 34.7921 39.7586 35.3583 39.1923L33.3077 37.1417ZM47.333 25.167L46.3077 24.1417L33.3077 37.1417L34.333 38.167L35.3583 39.1923L48.3583 26.1923L47.333 25.167Z" fill="#9285FF"/>
<path d="M61.358 27.8335C62.6339 31.1437 63.3333 34.7402 63.3333 38.5002C63.3333 54.8846 50.0511 68.1668 33.6667 68.1668C17.2822 68.1668 4 54.8846 4 38.5002C4 22.1157 17.2822 8.8335 33.6667 8.8335C36.9274 8.8335 40.0652 9.35956 43 10.3314" stroke="#C1BDFF" stroke-width="2.9" stroke-linecap="round"/>
<path d="M53.667 32.0784C54.3164 34.1024 54.667 36.2603 54.667 38.5C54.667 50.098 45.265 59.5 33.667 59.5C22.069 59.5 12.667 50.098 12.667 38.5C12.667 26.902 22.069 17.5 33.667 17.5C35.9974 17.5 38.2391 17.8796 40.3337 18.5803" stroke="#C1BDFF" stroke-width="2.9" stroke-linecap="round"/>
<path d="M45.8383 36.5003C45.9445 37.1513 45.9997 37.8194 45.9997 38.5003C45.9997 45.3118 40.4779 50.8337 33.6663 50.8337C26.8548 50.8337 21.333 45.3118 21.333 38.5003C21.333 31.6888 26.8548 26.167 33.6663 26.167C34.701 26.167 35.706 26.2944 36.6663 26.5344" stroke="#C1BDFF" stroke-width="2.9" stroke-linecap="round"/>
</svg>
