<svg width="72" height="72" viewBox="0 0 72 72" fill="none" xmlns="http://www.w3.org/2000/svg">
<path d="M24.0781 23.8716C25.1148 28.782 27.3845 39.0285 28.1702 40.7308" stroke="#7B70D6" stroke-width="2.9" stroke-linecap="round" stroke-linejoin="round"/>
<path d="M50.9217 34.838C49.8851 32.3282 47.5499 25.3445 46.5023 17.4877C45.1929 7.66681 43.3923 7.01208 42.0829 7.17577C40.7734 7.33945 39.464 9.79468 38.4819 11.7589C35.0446 17.3241 28.9883 23.0529 17.858 25.1808C1.65345 28.4544 3.39204 34.347 4.92709 40.0759C6.46214 45.8047 14.4206 45.8048 20.9679 43.1858C25.0002 41.5729 30.0672 41.15 33.4805 41.1403" stroke="#7B70D6" stroke-width="2.9" stroke-linecap="round" stroke-linejoin="round"/>
<path d="M50.2672 32.0552C51.9586 31.1891 55.1122 28.1104 54.1956 24.6895C53.8682 23.271 52.0022 20.532 47.1572 20.9249" stroke="#7B70D6" stroke-width="2.9" stroke-linejoin="round"/>
<path d="M28.4972 42.0405V47.9331L23.9141 48.7515" stroke="#7B70D6" stroke-width="2.9" stroke-linecap="round" stroke-linejoin="round"/>
<path d="M22.2774 43.186C22.9321 46.296 24.7981 53.3343 27.0242 56.608C28.8574 59.3578 27.2424 60.3726 26.2058 60.5363C24.7872 61.5184 21.59 62.5332 20.1496 58.7358C18.3491 53.989 16.0575 48.7512 16.2212 44.4955" stroke="#7B70D6" stroke-width="2.9" stroke-linejoin="round"/>
<path d="M68.0194 37.5652L59.999 32M66.9803 20.7434L58.9599 22.7076M58.1415 5.521L53.8857 15.0146" stroke="#7B70D6" stroke-width="2.9" stroke-linecap="round" stroke-linejoin="round"/>
<path d="M40.9613 43.1577C42.6387 41.919 45.04 41.6364 47.3963 43.1227L47.6238 43.2722C47.6045 43.259 47.6312 43.2778 47.75 43.3854C47.8323 43.46 47.9868 43.6037 48.1109 43.7133C48.2386 43.8261 48.4179 43.9781 48.6083 44.1042C48.7032 44.167 48.844 44.2521 49.0156 44.3202C49.164 44.3791 49.4942 44.4902 49.9044 44.4206C50.2708 44.3582 50.5176 44.1715 50.5662 44.1356C50.6599 44.0663 50.7339 43.9963 50.7803 43.9506C50.8763 43.8561 50.9671 43.751 51.0396 43.6638C51.1897 43.4833 51.3599 43.2583 51.5139 43.0511C51.6651 42.8476 51.8351 42.6143 51.9548 42.4521C52.0191 42.365 52.0733 42.2923 52.1162 42.2364C52.1334 42.214 52.1462 42.1975 52.1552 42.1862C52.1603 42.1807 52.1664 42.1761 52.1714 42.1705C53.9888 40.1384 56.3518 39.6723 58.3164 40.3097C60.2828 40.9478 61.9877 42.7382 62.3448 45.553C62.6553 48.0015 61.84 50.8193 60.3916 53.5942C58.9567 56.343 56.985 58.887 55.2262 60.7237C54.9708 60.9899 54.4016 61.577 53.8325 62.0981C53.5525 62.3544 53.2968 62.5713 53.0937 62.7221L53.0927 62.7222C52.8541 62.6405 52.5488 62.5168 52.2146 62.3704C51.5509 62.0796 50.8677 61.7414 50.5598 61.5871C48.4495 60.5286 46.1454 59.0592 44.3185 57.5147L43.9598 57.2053C43.7763 57.0425 43.2278 56.5359 42.7167 56.03C42.6854 55.999 42.6524 55.9697 42.6185 55.9417L42.514 55.8634L42.4028 55.7803C42.1487 55.5757 41.9265 55.2888 41.7509 54.9937C41.6922 54.8952 41.6222 54.804 41.5422 54.7221L41.4594 54.6431L41.2834 54.4759C40.86 54.0444 40.3571 53.3327 39.89 52.4812C39.43 51.6427 39.0748 50.7972 38.8901 50.162L38.8213 49.9032C38.1111 46.882 39.2171 44.4457 40.9613 43.1577Z" stroke="#9285FF" stroke-width="2.9" stroke-linejoin="round"/>
</svg>
