<svg width="460" height="434" viewBox="0 0 460 434" fill="none" xmlns="http://www.w3.org/2000/svg">
<g clip-path="url(#clip0_5328_1787)">
<path d="M258.381 2.47823C258.381 2.47823 185.831 -13.298 122.726 34.7117C59.6321 82.7214 35.2141 165.097 13.6767 231.328C-7.86066 297.57 17.2384 358.922 72.9408 381.219C128.643 403.527 158.543 356.287 231.228 344.854C303.912 333.421 324.858 341.337 380.136 292.379C435.403 243.42 433.918 144.721 376.976 78.836C320.035 12.9734 258.381 2.47823 258.381 2.47823Z" fill="#C1BDFF"/>
<path opacity="0.7" d="M258.381 2.47823C258.381 2.47823 185.831 -13.298 122.726 34.7117C59.6321 82.7214 35.2141 165.097 13.6767 231.328C-7.86066 297.57 17.2384 358.922 72.9408 381.219C128.643 403.527 158.543 356.287 231.228 344.854C303.912 333.421 324.858 341.337 380.136 292.379C435.403 243.42 433.918 144.721 376.976 78.836C320.035 12.9734 258.381 2.47823 258.381 2.47823Z" fill="white"/>
<path d="M394.271 102.529C393.902 101.926 393.523 101.323 393.143 100.72L167.419 10.5063C159.838 13.2195 152.123 16.5913 144.408 20.7447L394.271 102.518V102.529Z" fill="white"/>
<path d="M397.397 107.832C397.196 107.475 396.984 107.106 396.772 106.749L87.0867 69.9043C81.9172 76.3912 77.1163 83.146 72.6279 90.113L397.408 107.832H397.397Z" fill="white"/>
<path d="M402.321 117.155L69.0439 379.578C70.3279 380.148 71.6231 380.706 72.9405 381.231C83.5808 385.496 93.2833 387.204 102.517 387.126L402.723 117.97C402.589 117.702 402.455 117.423 402.321 117.155Z" fill="white"/>
<path d="M387.136 91.7546C385.785 89.8677 384.39 88.0031 382.949 86.1609L279.315 8.67543C266.397 3.84097 258.381 2.47883 258.381 2.47883C258.381 2.47883 254.574 1.65262 247.964 0.949219L387.136 91.7434V91.7546Z" fill="white"/>
<path d="M399.452 111.55C399.307 111.271 399.15 110.992 398.994 110.713L36.9673 162.999C33.5397 171.976 30.3465 180.941 27.3096 189.828L399.452 111.561V111.55Z" fill="white"/>
<path d="M406.965 127.36C406.731 126.813 406.508 126.255 406.273 125.708L325.215 328.554C331.411 326.198 337.619 323.24 344.106 319.443L406.965 127.36Z" fill="white"/>
<path d="M411.42 139.161C410.951 137.765 410.46 136.381 409.958 134.985L392.819 279.093C397.364 273.465 401.349 267.414 404.777 261.028L411.42 139.161Z" fill="white"/>
<path d="M401.126 114.744C400.992 114.487 400.858 114.241 400.736 113.984L6.11816 283.247C6.53127 293.463 8.12787 303.288 10.8298 312.555L401.126 114.744Z" fill="white"/>
<path d="M404.532 121.788C404.375 121.442 404.208 121.107 404.052 120.761L237.179 343.962C246.111 342.633 254.239 341.584 261.731 340.657L404.52 121.788H404.532Z" fill="white"/>
<path d="M66.4325 312.878H26.2383V433.192H66.4325V312.878Z" fill="#39317A"/>
<path opacity="0.17" d="M66.4325 312.878H26.2383V433.192H66.4325V312.878Z" fill="white"/>
<path opacity="0.2" d="M66.4325 398.012C49.964 402.489 36.5548 408.351 26.2383 413.933V433.193H66.4325V398.012Z" fill="#211D48"/>
<path d="M126.723 302.472H86.5293V433.193H126.723V302.472Z" fill="#C1BDFF"/>
<path opacity="0.2" d="M124.77 390.475C110.858 390.475 98.1298 391.67 86.5293 393.624V433.193H126.723V390.475C126.076 390.475 125.428 390.475 124.77 390.475Z" fill="#211D48"/>
<path d="M187.015 272.048H146.821V433.193H187.015V272.048Z" fill="#39317A"/>
<path opacity="0.17" d="M187.015 272.048H146.821V433.193H187.015V272.048Z" fill="white"/>
<path opacity="0.2" d="M187.015 394.104C174.79 392.853 161.637 391.625 146.821 390.966V433.192H187.015V394.104Z" fill="#211D48"/>
<path d="M247.306 288.058H207.112V433.193H247.306V288.058Z" fill="#C1BDFF"/>
<path opacity="0.2" d="M247.306 397.855C233.853 398.368 220.868 397.475 207.112 396.158V433.192H247.306V397.855Z" fill="#211D48"/>
<path d="M307.597 203.182H267.403V433.193H307.597V203.182Z" fill="#39317A"/>
<path opacity="0.17" d="M307.597 203.182H267.403V433.193H307.597V203.182Z" fill="white"/>
<path opacity="0.2" d="M307.597 385.652C292.837 390.933 279.718 394.171 267.403 395.991V433.193H307.597V385.652Z" fill="#211D48"/>
<path d="M432.646 160.754H392.452V433.193H432.646V160.754Z" fill="#39317A"/>
<path opacity="0.17" d="M432.646 160.754H392.452V433.193H432.646V160.754Z" fill="white"/>
<path opacity="0.2" d="M432.646 342.521C417.886 347.802 404.767 351.04 392.452 352.86V433.192H432.646V342.521Z" fill="#211D48"/>
<path d="M367.889 170.747H327.694V433.193H367.889V170.747Z" fill="#C1BDFF"/>
<path opacity="0.2" d="M327.694 378.027V433.204H367.889V361.659C355.038 367.085 341.472 372.656 327.694 378.038V378.027Z" fill="#211D48"/>
<path d="M0.558594 433.192H459.442" stroke="#39317A" stroke-width="1.1165" stroke-linecap="round" stroke-linejoin="round"/>
<path d="M122.536 130.352L139.741 156.032L173.627 152.85V159.727C173.627 159.727 141.595 170.58 137.62 171.64C133.645 172.701 114.062 159.203 114.062 159.203C114.062 159.203 111.683 139.876 122.536 130.352Z" fill="white"/>
<mask id="mask0_5328_1787" style="mask-type:luminance" maskUnits="userSpaceOnUse" x="113" y="130" width="61" height="42">
<path d="M122.536 130.352L139.741 156.032L173.627 152.85V159.727C173.627 159.727 141.595 170.58 137.62 171.64C133.645 172.701 114.062 159.203 114.062 159.203C114.062 159.203 111.683 139.876 122.536 130.352Z" fill="white"/>
</mask>
<g mask="url(#mask0_5328_1787)">
<path d="M153.363 157.171C154.814 154.837 136.18 163.87 135.309 163.58C134.438 163.289 136.761 159.504 135.309 157.751C133.858 155.998 131.524 161.827 130.062 157.751C128.61 153.676 125.406 148.719 125.406 148.719L117.758 136.482C112.488 146.385 114.062 159.203 114.062 159.203C114.062 159.203 133.657 172.701 137.62 171.641C140.4 170.904 156.925 165.355 166.594 162.106C159.325 162.854 147.122 164.071 145.503 163.87C143.169 163.58 151.912 159.504 153.363 157.171Z" fill="#C1BDFF"/>
<path opacity="0.5" d="M153.363 157.171C154.814 154.837 136.18 163.87 135.309 163.58C134.438 163.289 136.761 159.504 135.309 157.751C133.858 155.998 131.524 161.827 130.062 157.751C128.61 153.676 125.406 148.719 125.406 148.719L117.758 136.482C112.488 146.385 114.062 159.203 114.062 159.203C114.062 159.203 133.657 172.701 137.62 171.641C140.4 170.904 156.925 165.355 166.594 162.106C159.325 162.854 147.122 164.071 145.503 163.87C143.169 163.58 151.912 159.504 153.363 157.171Z" fill="white"/>
</g>
<path d="M122.536 130.352L139.741 156.032L173.627 152.85V159.727C173.627 159.727 141.595 170.58 137.62 171.64C133.645 172.701 114.062 159.203 114.062 159.203C114.062 159.203 111.683 139.876 122.536 130.352Z" stroke="#39317A" stroke-width="1.1165" stroke-linecap="round" stroke-linejoin="round"/>
<path d="M168.86 153.385L169.653 160.263" stroke="#39317A" stroke-width="1.1165" stroke-linecap="round" stroke-linejoin="round"/>
<path d="M173.628 152.85L176.542 148.875L186.077 148.35C186.077 148.35 186.602 156.288 185.284 157.617C183.956 158.946 173.639 159.738 173.639 159.738V152.861L173.628 152.85Z" fill="white" stroke="#39317A" stroke-width="1.1165" stroke-linecap="round" stroke-linejoin="round"/>
<path d="M181.835 147.557C181.835 147.557 180.506 157.884 181.835 157.884C183.163 157.884 187.663 158.152 187.663 155.763C187.663 153.374 188.456 146.764 186.87 146.496C185.285 146.228 181.835 147.557 181.835 147.557Z" fill="white" stroke="#39317A" stroke-width="1.1165" stroke-linecap="round" stroke-linejoin="round"/>
<path d="M174.688 150.996C174.688 150.996 176.81 146.764 178.395 146.497C179.981 146.229 181.834 146.764 181.834 147.557C181.834 148.35 183.42 153.642 181.834 154.178C180.249 154.703 179.456 152.849 179.456 152.849L178.931 151.789C178.931 151.789 178.663 153.642 176.553 154.167" fill="white"/>
<path d="M174.688 150.996C174.688 150.996 176.81 146.764 178.395 146.497C179.981 146.229 181.834 146.764 181.834 147.557C181.834 148.35 183.42 153.642 181.834 154.178C180.249 154.703 179.456 152.849 179.456 152.849L178.931 151.789C178.931 151.789 178.663 153.642 176.553 154.167" stroke="#39317A" stroke-width="1.1165" stroke-linecap="round" stroke-linejoin="round"/>
<path d="M74.7385 190.208L75.5759 237.38L47.9424 288.461L52.9667 291.81C52.9667 291.81 92.3235 249.104 93.7191 245.196C95.1147 241.288 103.209 206.118 103.209 206.118C103.209 206.118 106.001 194.674 101.255 188.533C96.5104 182.393 80.6002 177.647 74.7385 190.208Z" fill="#39317A"/>
<mask id="mask1_5328_1787" style="mask-type:luminance" maskUnits="userSpaceOnUse" x="47" y="182" width="58" height="110">
<path d="M74.7385 190.208L75.5759 237.38L47.9424 288.461L52.9667 291.81C52.9667 291.81 92.3235 249.104 93.7191 245.196C95.1147 241.288 103.209 206.118 103.209 206.118C103.209 206.118 106.001 194.674 101.255 188.533C96.5104 182.393 80.6002 177.647 74.7385 190.208Z" fill="white"/>
</mask>
<g mask="url(#mask1_5328_1787)">
<path opacity="0.2" d="M92.2562 240.417C90.5815 241.679 69.647 270.618 59.6543 284.497C70.9533 272.115 92.6805 248.076 93.7077 245.196C95.1033 241.288 103.198 206.118 103.198 206.118C103.198 206.118 103.354 205.459 103.533 204.376C101.523 196.136 91.9548 187.417 90.0344 190.163L87.2766 210.874C87.2766 210.874 87.2766 227.722 87.8237 229.375C88.3708 231.027 93.6184 227.443 92.2451 229.375C90.8606 231.306 82.029 239.323 84.2397 239.323C86.4504 239.323 94.4558 238.776 92.2451 240.428L92.2562 240.417Z" fill="white"/>
</g>
<path d="M74.7385 190.208L75.5759 237.38L47.9424 288.461L52.9667 291.81C52.9667 291.81 92.3235 249.104 93.7191 245.196C95.1147 241.288 103.209 206.118 103.209 206.118C103.209 206.118 106.001 194.674 101.255 188.533C96.5104 182.393 80.6002 177.647 74.7385 190.208Z" stroke="#39317A" stroke-width="1.1165" stroke-linecap="round" stroke-linejoin="round"/>
<path d="M52.9667 291.81C52.9667 291.81 53.2458 300.184 53.804 301.579C54.3623 302.975 56.5953 309.395 57.4327 310.791C58.2701 312.186 57.1536 313.024 55.7579 313.024C54.3623 313.024 51.0128 313.024 49.6171 311.628C48.2215 310.232 45.9885 305.487 44.0346 303.254C42.0807 301.021 36.7773 298.23 38.4521 295.439C40.1269 292.647 47.9424 288.46 47.9424 288.46L52.9667 291.81Z" fill="white" stroke="#39317A" stroke-width="1.1165" stroke-linecap="round" stroke-linejoin="round"/>
<path d="M44.9167 300.876C42.7171 298.241 40.8191 295.472 39.8031 293.909C39.2225 294.445 38.7424 294.969 38.4521 295.449C36.7773 298.241 42.0807 301.032 44.0346 303.265C45.9885 305.498 48.2215 310.243 49.6171 311.639C51.0128 313.034 54.3623 313.034 55.7579 313.034C57.1536 313.034 58.2701 312.197 57.4327 310.801C49.5167 310.511 48.2104 304.839 44.9167 300.887V300.876Z" fill="#39317A"/>
<path d="M77.2504 169.831C77.2504 169.831 77.0829 170.345 76.8038 171.227C75.5086 175.369 71.9135 187.561 73.0635 192.161C74.4591 197.744 86.3946 209.891 92.8814 216.389C98.9664 222.474 118.282 231.518 118.282 231.518C118.282 231.518 109.908 253.848 107.954 259.151C106 264.455 99.0222 283.156 99.0222 283.156L104.605 286.506C104.605 286.506 127.772 254.406 132.517 247.986C137.263 241.566 142.867 232.188 141.17 229.285C125.975 203.416 107.954 189.37 107.954 189.37L109.908 181.833L77.2504 169.831Z" fill="#39317A"/>
<mask id="mask2_5328_1787" style="mask-type:luminance" maskUnits="userSpaceOnUse" x="72" y="169" width="70" height="118">
<path d="M77.2504 169.831C77.2504 169.831 77.0829 170.345 76.8038 171.227C75.5086 175.369 71.9135 187.561 73.0635 192.161C74.4591 197.744 86.3946 209.891 92.8814 216.389C98.9664 222.474 118.282 231.518 118.282 231.518C118.282 231.518 109.908 253.848 107.954 259.151C106 264.455 99.0222 283.156 99.0222 283.156L104.605 286.506C104.605 286.506 127.772 254.406 132.517 247.986C137.263 241.566 142.867 232.188 141.17 229.285C125.975 203.416 107.954 189.37 107.954 189.37L109.908 181.833L77.2504 169.831Z" fill="white"/>
</mask>
<g mask="url(#mask2_5328_1787)">
<path opacity="0.2" d="M107.954 189.37L108.289 188.086L101.936 185.183C101.936 185.183 96.4096 183.251 94.1989 183.531C91.9882 183.81 90.8829 190.163 94.478 193.747C98.0732 197.342 124.858 209.489 123.206 209.768C121.553 210.048 103.321 208.663 106.358 210.315C109.395 211.968 130.664 213.911 129.559 215.563C128.453 217.215 126.243 218.053 129.279 219.426C132.182 220.744 139.596 228.347 141.461 230.948C141.494 230.279 141.427 229.698 141.17 229.274C125.975 203.404 107.954 189.359 107.954 189.359V189.37Z" fill="white"/>
</g>
<path d="M77.2504 169.831C77.2504 169.831 77.0829 170.345 76.8038 171.227C75.5086 175.369 71.9135 187.561 73.0635 192.161C74.4591 197.744 86.3946 209.891 92.8814 216.389C98.9664 222.474 118.282 231.518 118.282 231.518C118.282 231.518 109.908 253.848 107.954 259.151C106 264.455 99.0222 283.156 99.0222 283.156L104.605 286.506C104.605 286.506 127.772 254.406 132.517 247.986C137.263 241.566 142.867 232.188 141.17 229.285C125.975 203.416 107.954 189.37 107.954 189.37L109.908 181.833L77.2504 169.831Z" stroke="#39317A" stroke-width="1.1165" stroke-linecap="round" stroke-linejoin="round"/>
<path d="M104.46 186.489C100.24 184.234 94.3334 181.42 94.3334 181.42C94.3334 181.42 90.3921 182.269 88.9854 182.827" stroke="white" stroke-width="1.1165" stroke-linecap="round" stroke-linejoin="round"/>
<path d="M84.4746 181.142C84.4746 181.142 88.695 179.735 94.8916 180.014" stroke="white" stroke-width="1.1165" stroke-linecap="round" stroke-linejoin="round"/>
<path d="M104.604 286.506L108.512 295.159C108.512 295.159 116.328 299.067 116.328 300.183C116.328 301.3 114.653 301.579 114.653 301.579H103.488C102.092 301.579 98.4635 297.95 95.114 295.997C91.7645 294.043 90.3689 293.205 90.648 290.693C90.9271 288.181 99.0218 283.157 99.0218 283.157L104.604 286.506Z" fill="white" stroke="#39317A" stroke-width="1.1165" stroke-linecap="round" stroke-linejoin="round"/>
<path d="M98.6091 293.294C95.8737 290.816 92.7698 289.643 91.4077 289.208C90.9834 289.755 90.6931 290.258 90.6373 290.693C90.3581 293.205 91.7538 294.042 95.1033 295.996C98.4528 297.95 102.081 301.579 103.477 301.579H114.642C114.642 301.579 116.317 301.3 116.317 300.183C116.317 300.15 116.295 300.116 116.283 300.083C113.682 299.926 110.053 299.603 106.514 298.899C99.9266 297.582 102.227 296.588 98.6091 293.294Z" fill="#39317A"/>
<path d="M112.488 107.508C112.488 107.508 104.248 108.759 98.3415 114.486C92.4352 120.214 88.4939 128.275 88.1366 132.027C87.7793 135.789 82.7104 153.899 80.8012 157.628C78.9478 161.246 74.5153 167.755 77.3958 171.417C78.8361 173.248 107.832 182.872 110.69 182.872C113.548 182.872 114.453 180.182 114.81 178.574C115.167 176.966 118.751 162.284 121.609 156.914C124.479 151.543 130.921 147.959 131.636 135.432C132.35 122.905 126.444 114.308 126.444 114.308C126.444 114.308 118.025 107.33 112.476 107.508H112.488Z" fill="white"/>
<mask id="mask3_5328_1787" style="mask-type:luminance" maskUnits="userSpaceOnUse" x="76" y="107" width="56" height="76">
<path d="M112.488 107.508C112.488 107.508 104.248 108.759 98.3415 114.486C92.4352 120.214 88.4939 128.275 88.1366 132.027C87.7793 135.789 82.7104 153.899 80.8012 157.628C78.9478 161.246 74.5153 167.755 77.3958 171.417C78.8361 173.248 107.832 182.872 110.69 182.872C113.548 182.872 114.453 180.182 114.81 178.574C115.167 176.966 118.751 162.284 121.609 156.914C124.479 151.543 130.921 147.959 131.636 135.432C132.35 122.905 126.444 114.308 126.444 114.308C126.444 114.308 118.025 107.33 112.476 107.508H112.488Z" fill="white"/>
</mask>
<g mask="url(#mask3_5328_1787)">
<path d="M103.567 146.686C111.717 143.192 116.674 143.192 121.911 142.03C127.158 140.869 112.007 141.16 108.803 139.697C105.599 138.245 118.416 136.493 121.621 135.622C124.825 134.751 114.341 136.202 108.223 136.202C102.104 136.202 94.8245 123.095 101.233 117.266C107.642 111.438 118.126 110.858 118.126 110.858L117.88 108.87C116.027 108.033 114.129 107.452 112.488 107.508C112.488 107.508 104.248 108.759 98.3415 114.486C92.4352 120.214 88.4939 128.275 88.1366 132.027C87.7793 135.789 82.7104 153.899 80.8012 157.628C78.9478 161.245 74.5153 167.755 77.3958 171.417C78.8361 173.248 107.832 182.872 110.69 182.872C111.192 182.872 111.617 182.772 112.007 182.615C107.151 180.394 98.174 176.944 95.1036 175.503C90.7381 173.46 106.168 170.256 109.373 166.18C112.577 162.105 98.0177 168.224 93.9313 168.514C89.856 168.804 88.1031 166.761 92.4798 165.6C96.8454 164.439 108.502 155.987 113.738 152.782C118.986 149.578 93.641 159.191 89.5658 158.611C85.4905 158.03 95.3939 150.17 103.544 146.664L103.567 146.686Z" fill="#C1BDFF"/>
<path opacity="0.5" d="M103.567 146.686C111.717 143.192 116.674 143.192 121.911 142.03C127.158 140.869 112.007 141.16 108.803 139.697C105.599 138.245 118.416 136.493 121.621 135.622C124.825 134.751 114.341 136.202 108.223 136.202C102.104 136.202 94.8245 123.095 101.233 117.266C107.642 111.438 118.126 110.858 118.126 110.858L117.88 108.87C116.027 108.033 114.129 107.452 112.488 107.508C112.488 107.508 104.248 108.759 98.3415 114.486C92.4352 120.214 88.4939 128.275 88.1366 132.027C87.7793 135.789 82.7104 153.899 80.8012 157.628C78.9478 161.245 74.5153 167.755 77.3958 171.417C78.8361 173.248 107.832 182.872 110.69 182.872C111.192 182.872 111.617 182.772 112.007 182.615C107.151 180.394 98.174 176.944 95.1036 175.503C90.7381 173.46 106.168 170.256 109.373 166.18C112.577 162.105 98.0177 168.224 93.9313 168.514C89.856 168.804 88.1031 166.761 92.4798 165.6C96.8454 164.439 108.502 155.987 113.738 152.782C118.986 149.578 93.641 159.191 89.5658 158.611C85.4905 158.03 95.3939 150.17 103.544 146.664L103.567 146.686Z" fill="white"/>
</g>
<path d="M112.488 107.508C112.488 107.508 104.248 108.759 98.3415 114.486C92.4352 120.214 88.4939 128.275 88.1366 132.027C87.7793 135.789 82.7104 153.899 80.8012 157.628C78.9478 161.246 74.5153 167.755 77.3958 171.417C78.8361 173.248 107.832 182.872 110.69 182.872C113.548 182.872 114.453 180.182 114.81 178.574C115.167 176.966 118.751 162.284 121.609 156.914C124.479 151.543 130.921 147.959 131.636 135.432C132.35 122.905 126.444 114.308 126.444 114.308C126.444 114.308 118.025 107.33 112.476 107.508H112.488Z" stroke="#39317A" stroke-width="1.1165" stroke-linecap="round" stroke-linejoin="round"/>
<path d="M106.303 137.721C106.303 137.721 114.665 139.876 123.508 137.955" stroke="#39317A" stroke-width="1.1165" stroke-linecap="round" stroke-linejoin="round"/>
<path d="M102.004 138.436C102.004 138.436 109.886 142.98 118.26 143.694" stroke="#39317A" stroke-width="1.1165" stroke-linecap="round" stroke-linejoin="round"/>
<path d="M114.799 155.317C116.384 154.345 117.869 153.341 119.209 152.302" stroke="#39317A" stroke-width="1.1165" stroke-linecap="round" stroke-linejoin="round"/>
<path d="M86.417 167.465C92.3121 165.589 102.204 162.128 110.645 157.673" stroke="#39317A" stroke-width="1.1165" stroke-linecap="round" stroke-linejoin="round"/>
<path d="M81.2031 169.039C81.2031 169.039 81.8284 168.872 82.9449 168.537" stroke="#39317A" stroke-width="1.1165" stroke-linecap="round" stroke-linejoin="round"/>
<path d="M86.2275 171.663C86.2275 171.663 95.7848 168.079 102.964 164.25" stroke="#39317A" stroke-width="1.1165" stroke-linecap="round" stroke-linejoin="round"/>
<path d="M124.847 118.149C124.847 118.149 128.051 126.947 130.452 127.75C132.852 128.554 143.649 124.948 144.855 119.745C146.049 114.542 129.257 106.146 124.858 104.148C120.459 102.149 106.458 101.345 98.4527 100.15C90.4473 98.9558 83.2459 94.5456 78.4561 93.3509C73.6551 92.1563 60.458 94.1548 60.458 94.1548L69.658 100.15C69.658 100.15 84.4629 103.746 90.0566 103.746C95.6502 103.746 100.462 101.345 108.055 103.746C115.658 106.146 125.26 108.547 131.256 111.349C137.251 114.151 142.052 115.748 142.052 119.354C142.052 122.961 135.655 126.154 134.449 126.154C133.243 126.154 130.452 116.552 127.247 115.748C127.247 115.748 123.25 113.749 124.847 118.149Z" fill="#39317A" stroke="#39317A" stroke-width="1.1165" stroke-linecap="round" stroke-linejoin="round"/>
<path d="M134.694 74.3928C134.694 74.3928 139.171 79.5845 139.171 80.4777C139.171 81.3709 139.35 82.6214 139.35 83.1685C139.35 83.7156 145.613 86.5738 145.613 87.6457C145.613 88.7175 141.494 91.2297 141.494 91.2297V101.256C141.494 103.221 140.422 103.757 138.445 104.483C136.48 105.197 131.825 104.304 131.825 104.304L126.454 114.33L114.463 105.376L117.868 98.0403L116.796 95.8967C116.796 95.8967 110.89 92.4913 112.141 86.9423C113.391 81.3933 118.047 80.6787 119.476 78.5238C120.905 76.3802 123.239 71.5457 125.382 70.8311C127.526 70.1166 134.694 74.4151 134.694 74.4151V74.3928Z" fill="white"/>
<mask id="mask4_5328_1787" style="mask-type:luminance" maskUnits="userSpaceOnUse" x="111" y="70" width="35" height="45">
<path d="M134.694 74.3928C134.694 74.3928 139.171 79.5845 139.171 80.4777C139.171 81.3709 139.35 82.6214 139.35 83.1685C139.35 83.7156 145.613 86.5738 145.613 87.6457C145.613 88.7175 141.494 91.2297 141.494 91.2297V101.256C141.494 103.221 140.422 103.757 138.445 104.483C136.48 105.197 131.825 104.304 131.825 104.304L126.454 114.33L114.463 105.376L117.868 98.0403L116.796 95.8967C116.796 95.8967 110.89 92.4913 112.141 86.9423C113.391 81.3933 118.047 80.6787 119.476 78.5238C120.905 76.3802 123.239 71.5457 125.382 70.8311C127.526 70.1166 134.694 74.4151 134.694 74.4151V74.3928Z" fill="white"/>
</mask>
<g mask="url(#mask4_5328_1787)">
<path d="M134.147 101.836C128.028 99.7932 128.609 96.0082 128.319 90.4815C128.028 84.9436 123.373 76.5029 123.373 76.5029L120.816 76.3242C120.325 77.1616 119.867 77.932 119.476 78.5126C118.047 80.6563 113.391 81.382 112.141 86.931C110.89 92.48 116.796 95.8854 116.796 95.8854L117.868 98.0291L114.463 105.365L126.454 114.319L131.825 104.293C131.825 104.293 136.48 105.186 138.445 104.471C139.283 104.17 139.942 103.891 140.444 103.533C138.959 103.254 136.871 102.752 134.147 101.836Z" fill="#C1BDFF"/>
<path opacity="0.5" d="M134.147 101.836C128.028 99.7932 128.609 96.0082 128.319 90.4815C128.028 84.9436 123.373 76.5029 123.373 76.5029L120.816 76.3242C120.325 77.1616 119.867 77.932 119.476 78.5126C118.047 80.6563 113.391 81.382 112.141 86.931C110.89 92.48 116.796 95.8854 116.796 95.8854L117.868 98.0291L114.463 105.365L126.454 114.319L131.825 104.293C131.825 104.293 136.48 105.186 138.445 104.471C139.283 104.17 139.942 103.891 140.444 103.533C138.959 103.254 136.871 102.752 134.147 101.836Z" fill="white"/>
<path d="M137.552 80.8347C137.552 80.8347 135.408 79.5842 134.147 80.4774C132.896 81.3706 132.539 82.0852 132.539 82.0852" stroke="#39317A" stroke-width="1.1165" stroke-linecap="round" stroke-linejoin="round"/>
<path d="M137.374 83.6929L134.516 84.9545H137.553" stroke="#39317A" stroke-width="1.1165" stroke-linecap="round" stroke-linejoin="round"/>
</g>
<path d="M134.694 74.3928C134.694 74.3928 139.171 79.5845 139.171 80.4777C139.171 81.3709 139.35 82.6214 139.35 83.1685C139.35 83.7156 145.613 86.5738 145.613 87.6457C145.613 88.7175 141.494 91.2297 141.494 91.2297V101.256C141.494 103.221 140.422 103.757 138.445 104.483C136.48 105.197 131.825 104.304 131.825 104.304L126.454 114.33L114.463 105.376L117.868 98.0403L116.796 95.8967C116.796 95.8967 110.89 92.4913 112.141 86.9423C113.391 81.3933 118.047 80.6787 119.476 78.5238C120.905 76.3802 123.239 71.5457 125.382 70.8311C127.526 70.1166 134.694 74.4151 134.694 74.4151V74.3928Z" stroke="#39317A" stroke-width="1.1165" stroke-linecap="round" stroke-linejoin="round"/>
<path d="M121.799 87.6343C121.799 87.6343 121.978 88.7061 123.228 88.8848C124.478 89.0634 125.729 87.9915 125.729 86.9197C125.729 85.8479 124.3 83.5144 125.372 82.7998C126.444 82.0852 128.42 81.9066 128.062 79.9304C127.705 77.9653 125.74 78.5013 126.097 76.3464C126.455 74.2027 133.076 74.2027 134.695 74.3814C136.302 74.56 136.302 71.1547 134.516 67.2246C132.729 63.2833 125.74 61.8542 124.311 63.4619C122.882 65.0697 124.132 66.51 124.132 66.51C124.132 66.51 116.25 65.0809 115.357 66.51C114.463 67.9391 115.357 68.6537 115.357 68.6537C115.357 68.6537 109.093 67.4032 104.795 75.2746C100.496 83.1571 106.045 91.5644 109.093 93.7192C112.141 95.8629 116.786 98.0178 120.37 96.7673C123.954 95.5168 118.583 91.2182 118.226 89.0746C117.869 86.9309 121.81 87.6454 121.81 87.6454L121.799 87.6343Z" fill="#39317A" stroke="#39317A" stroke-width="1.1165" stroke-linecap="round" stroke-linejoin="round"/>
<path d="M123.586 89.7896C123.586 89.7896 122.514 85.8483 119.645 85.4911C116.775 85.1338 115.167 88.3605 116.775 91.3974C118.383 94.4454 121.788 96.5891 122.86 96.2318C123.932 95.8746 124.468 93.9095 124.468 93.9095" fill="white"/>
<path d="M123.586 89.7896C123.586 89.7896 122.514 85.8483 119.645 85.4911C116.775 85.1338 115.167 88.3605 116.775 91.3974C118.383 94.4454 121.788 96.5891 122.86 96.2318C123.932 95.8746 124.468 93.9095 124.468 93.9095" stroke="#39317A" stroke-width="1.1165" stroke-linecap="round" stroke-linejoin="round"/>
<path d="M113.559 102.495L129.86 113.236L128.955 121.118L111.236 106.794L113.559 102.495Z" fill="white" stroke="#39317A" stroke-width="1.1165" stroke-linecap="round" stroke-linejoin="round"/>
<path d="M107.709 113.939C107.709 113.939 101.881 116.854 100.295 117.646C98.7099 118.439 66.1415 127.706 64.824 129.559C63.4954 131.413 52.1182 172.176 52.1182 172.176L59.5318 174.298L75.4196 144.911C75.4196 144.911 115.134 136.437 117.512 135.644C119.89 134.852 122.804 131.413 123.34 128.231" fill="white"/>
<mask id="mask5_5328_1787" style="mask-type:luminance" maskUnits="userSpaceOnUse" x="52" y="113" width="72" height="62">
<path d="M107.709 113.939C107.709 113.939 101.881 116.854 100.295 117.646C98.7099 118.439 66.1415 127.706 64.824 129.559C63.4954 131.413 52.1182 172.176 52.1182 172.176L59.5318 174.298L75.4196 144.911C75.4196 144.911 115.134 136.437 117.512 135.644C119.89 134.852 122.804 131.413 123.34 128.231" fill="white"/>
</mask>
<g mask="url(#mask5_5328_1787)">
<path d="M84.3854 122.604C75.2858 125.417 65.5388 128.555 64.8242 129.549C63.8863 130.866 57.8907 151.734 54.4854 163.781C59.5208 161.19 67.5931 156.802 64.8354 156.59C61.0504 156.3 60.4698 154.257 65.4159 150.762C70.3621 147.267 79.9752 140.278 77.3625 139.698C74.7388 139.117 65.7174 137.945 71.2441 135.042C76.782 132.128 107.363 135.042 112.89 132.418C118.416 129.794 105.9 128.633 98.6208 127.762C91.3412 126.891 105.32 126.891 105.32 126.891C105.32 126.891 110.266 126.601 109.105 121.353C107.944 116.106 102.864 118.026 100.307 117.647C99.6256 117.993 93.1834 119.902 85.982 122.124C85.4572 122.291 84.9324 122.448 84.3965 122.615L84.3854 122.604Z" fill="#C1BDFF"/>
<path opacity="0.5" d="M84.3854 122.604C75.2858 125.417 65.5388 128.555 64.8242 129.549C63.8863 130.866 57.8907 151.734 54.4854 163.781C59.5208 161.19 67.5931 156.802 64.8354 156.59C61.0504 156.3 60.4698 154.257 65.4159 150.762C70.3621 147.267 79.9752 140.278 77.3625 139.698C74.7388 139.117 65.7174 137.945 71.2441 135.042C76.782 132.128 107.363 135.042 112.89 132.418C118.416 129.794 105.9 128.633 98.6208 127.762C91.3412 126.891 105.32 126.891 105.32 126.891C105.32 126.891 110.266 126.601 109.105 121.353C107.944 116.106 102.864 118.026 100.307 117.647C99.6256 117.993 93.1834 119.902 85.982 122.124C85.4572 122.291 84.9324 122.448 84.3965 122.615L84.3854 122.604Z" fill="white"/>
</g>
<path d="M107.709 113.939C107.709 113.939 101.881 116.854 100.295 117.646C98.7099 118.439 66.1415 127.706 64.824 129.559C63.4954 131.413 52.1182 172.176 52.1182 172.176L59.5318 174.298L75.4196 144.911C75.4196 144.911 115.134 136.437 117.512 135.644C119.89 134.852 122.804 131.413 123.34 128.231" stroke="#39317A" stroke-width="1.1165" stroke-linecap="round" stroke-linejoin="round"/>
<path d="M59.5315 174.298C59.5315 174.298 61.3849 183.297 61.3849 184.089C61.3849 184.882 58.7388 187.003 58.7388 187.003L57.1534 189.382C57.1534 189.382 54.2393 190.442 53.4466 189.382C52.6538 188.321 52.1179 186.467 52.1179 186.467C52.1179 186.467 48.6791 186.735 48.1432 184.346C47.6184 181.968 52.1179 172.165 52.1179 172.165L59.5315 174.286V174.298Z" fill="white" stroke="#39317A" stroke-width="1.1165" stroke-linecap="round" stroke-linejoin="round"/>
<path d="M53.4355 166.884L61.6419 169.262" stroke="#39317A" stroke-width="1.1165" stroke-linecap="round" stroke-linejoin="round"/>
<path d="M266.811 189.694C260.481 186.244 257.611 189.125 255.311 186.244C253.011 183.364 261.631 175.894 244.381 168.414C244.381 168.414 243.231 152.314 219.65 151.733C196.069 151.152 202.4 167.833 196.069 171.864C189.739 175.894 188.019 169.564 181.689 173.583C175.358 177.614 178.239 185.664 173.058 186.814C167.889 187.964 160.978 181.644 154.658 185.664C148.339 189.683 148.339 193.133 145.458 193.133C142.578 193.133 136.828 190.833 133.378 193.133C129.928 195.433 125.908 198.314 125.908 198.314H271.389C271.389 198.314 273.108 193.133 266.789 189.683L266.811 189.694Z" fill="white"/>
<path d="M341.193 79.696C337.419 77.6416 335.7 79.3498 334.326 77.6416C332.953 75.9222 338.1 71.4673 327.806 67.0013C327.806 67.0013 327.125 57.3882 313.046 57.0532C298.978 56.7071 302.752 66.6663 298.978 69.0668C295.204 71.4673 294.177 67.6935 290.403 70.094C286.629 72.4945 288.349 77.3066 285.256 77.9877C282.163 78.6688 278.043 74.895 274.269 77.3066C270.496 79.7071 270.496 81.7727 268.776 81.7727C267.057 81.7727 263.629 80.3994 261.564 81.7727C259.509 83.146 257.098 84.8654 257.098 84.8654H343.928C343.928 84.8654 344.955 81.7727 341.182 79.7183L341.193 79.696Z" fill="white"/>
<path d="M415.965 217.841C411.522 215.418 409.501 217.439 407.882 215.418C406.263 213.397 412.326 208.15 400.212 202.891C400.212 202.891 399.408 191.581 382.839 191.179C366.281 190.777 370.725 202.489 366.281 205.314C361.837 208.139 360.62 203.695 356.188 206.531C351.744 209.356 353.765 215.016 350.125 215.82C346.485 216.624 341.64 212.181 337.196 215.016C332.752 217.841 332.752 220.264 330.732 220.264C328.711 220.264 324.669 218.645 322.246 220.264C319.823 221.883 316.239 229.453 316.239 229.453H418.433C418.433 229.453 420.398 220.264 415.954 217.841H415.965Z" fill="white"/>
<g opacity="0.11">
<path d="M415.262 223.435C410.818 221.013 408.797 223.033 407.178 221.013C405.559 218.992 411.622 213.744 399.508 208.485C399.508 208.485 398.704 197.175 382.135 196.773C365.577 196.371 370.021 208.083 365.577 210.908C361.134 213.733 359.917 209.289 355.484 212.125C351.041 214.95 353.061 220.611 349.422 221.415C345.782 222.218 340.936 217.775 336.492 220.611C332.049 223.435 332.049 225.858 330.028 225.858C328.007 225.858 323.965 224.239 321.542 225.858C319.12 227.477 316.295 229.498 316.295 229.498H418.489C418.489 229.498 419.706 225.858 415.262 223.435Z" fill="#211D48"/>
</g>
<path d="M451.258 168.347C444.459 164.64 441.366 167.733 438.898 164.64C436.431 161.547 445.698 153.508 427.153 145.481C427.153 145.481 425.914 128.175 400.569 127.55C375.224 126.936 382.024 144.855 375.224 149.187C368.425 153.519 366.571 146.72 359.772 151.041C352.972 155.373 356.065 164.026 350.505 165.254C344.945 166.493 337.52 159.694 330.72 164.015C323.921 168.347 323.921 172.053 320.828 172.053C317.735 172.053 311.55 169.586 307.843 172.053C304.136 174.521 298.654 186.121 298.654 186.121H455.054C455.054 186.121 458.058 172.053 451.258 168.347Z" fill="white"/>
<g opacity="0.11">
<path d="M450.197 176.911C443.398 173.204 440.305 176.297 437.837 173.204C435.37 170.111 444.637 162.072 426.092 154.045C426.092 154.045 424.852 136.739 399.508 136.114C374.163 135.499 380.963 153.419 374.163 157.751C367.364 162.083 365.51 155.284 358.711 159.605C351.911 163.937 355.004 172.59 349.444 173.818C343.883 175.057 336.459 168.258 329.659 172.579C322.86 176.911 322.86 180.617 319.767 180.617C316.674 180.617 310.489 178.15 306.782 180.617C303.075 183.085 298.743 186.178 298.743 186.178H455.132C455.132 186.178 456.985 180.617 450.186 176.899L450.197 176.911Z" fill="#211D48"/>
</g>
<path d="M334.047 265.873C328.375 262.78 325.807 265.36 323.742 262.78C321.676 260.201 329.414 253.502 313.95 246.803C313.95 246.803 312.923 232.378 291.787 231.853C270.663 231.34 276.324 246.279 270.663 249.896C264.991 253.502 263.451 247.83 257.779 251.437C252.107 255.043 254.686 262.256 250.053 263.294C245.419 264.321 239.234 258.661 233.562 262.267C227.89 265.873 227.89 268.966 225.322 268.966C222.754 268.966 217.596 266.9 214.503 268.966C211.41 271.031 206.844 280.689 206.844 280.689H337.229C337.229 280.689 339.73 268.966 334.069 265.873H334.047Z" fill="white"/>
<g opacity="0.11">
<path d="M333.154 273.019C327.482 269.926 324.915 272.505 322.849 269.926C320.783 267.347 328.521 260.648 313.057 253.949C313.057 253.949 312.03 239.524 290.895 238.999C269.77 238.485 275.431 253.424 269.77 257.03C264.098 260.637 262.558 254.965 256.886 258.571C251.214 262.177 253.793 269.39 249.16 270.428C244.526 271.456 238.341 265.795 232.669 269.401C226.997 273.007 226.997 276.1 224.429 276.1C221.861 276.1 216.703 274.035 213.61 276.1C210.517 278.166 206.911 280.734 206.911 280.734H337.297C337.297 280.734 338.837 276.1 333.177 273.008L333.154 273.019Z" fill="#211D48"/>
</g>
</g>
<defs>
<clipPath id="clip0_5328_1787">
<rect width="460" height="433.751" fill="white"/>
</clipPath>
</defs>
</svg>
