<svg width="181" height="48" viewBox="0 0 181 48" fill="none" xmlns="http://www.w3.org/2000/svg">
<g clip-path="url(#clip0_15342_185956)">
<path d="M45.8891 5.5V27.5733H41.4453V5.5H45.8891Z" fill="white"/>
<path d="M55.9466 27.897C54.2589 27.897 52.7987 27.5493 51.5787 26.8603C50.3588 26.1713 49.4106 25.1852 48.7595 23.9147C48.1085 22.6441 47.7734 21.1271 47.7734 19.3824C47.7734 17.6378 48.1021 16.1776 48.7532 14.8944C49.4043 13.6113 50.3272 12.6062 51.5219 11.8856C52.7165 11.165 54.1198 10.8047 55.7317 10.8047C56.819 10.8047 57.8303 10.9754 58.7658 11.323C59.7014 11.6707 60.5294 12.189 61.2374 12.8843C61.9454 13.5797 62.5016 14.452 62.9062 15.5013C63.3107 16.5506 63.5067 17.7832 63.5067 19.2055V20.4507H49.5939V17.6631H61.3259L59.2526 18.4027C59.2526 17.543 59.1198 16.7971 58.8607 16.1587C58.6015 15.5202 58.2096 15.0272 57.6913 14.6795C57.1729 14.3319 56.5345 14.1549 55.7696 14.1549C55.0048 14.1549 54.3474 14.3319 53.8038 14.6859C53.2602 15.0398 52.8556 15.5202 52.5838 16.1334C52.312 16.7465 52.1666 17.4355 52.1666 18.213V20.1852C52.1666 21.146 52.3246 21.9488 52.647 22.5999C52.9694 23.251 53.4182 23.7377 53.9934 24.0664C54.5686 24.3951 55.245 24.5531 56.0162 24.5531C56.5408 24.5531 57.0149 24.4773 57.4384 24.3319C57.8619 24.1865 58.2286 23.9653 58.5256 23.6745C58.8227 23.3837 59.0566 23.0234 59.2147 22.5999L63.2475 23.3584C62.982 24.2687 62.5143 25.0651 61.8569 25.7541C61.1995 26.4431 60.3651 26.9741 59.3727 27.347C58.3803 27.72 57.2361 27.9096 55.9403 27.9096L55.9466 27.897Z" fill="white"/>
<path d="M65.311 27.5861V11.0248H69.4324L69.6536 15.1462H69.3249C69.5841 14.1285 69.957 13.3004 70.4564 12.6556C70.9558 12.0109 71.5373 11.5368 72.2137 11.2334C72.89 10.93 73.5917 10.7719 74.3312 10.7719C75.5259 10.7719 76.4867 11.1512 77.22 11.9034C77.9532 12.6556 78.4905 13.825 78.8319 15.4053H78.3135C78.5601 14.3497 78.9646 13.4774 79.5209 12.7884C80.0771 12.0994 80.7408 11.5937 81.5057 11.265C82.2706 10.9363 83.0733 10.7656 83.914 10.7656C84.9317 10.7656 85.8357 10.9869 86.6321 11.4293C87.4286 11.8718 88.0544 12.5103 88.5158 13.351C88.9773 14.1917 89.2048 15.203 89.2048 16.4104V27.5798H84.7611V17.2511C84.7611 16.3156 84.5082 15.6139 83.9962 15.1651C83.4842 14.7163 82.8647 14.4824 82.1252 14.4824C81.5689 14.4824 81.0885 14.6025 80.6776 14.8427C80.2668 15.0829 79.9507 15.4243 79.7295 15.8604C79.5082 16.2966 79.3944 16.8023 79.3944 17.3838V27.5735H75.0961V17.131C75.0961 16.3219 74.8559 15.6771 74.3755 15.1967C73.8951 14.7163 73.2756 14.4761 72.5171 14.4761C71.9924 14.4761 71.5247 14.5962 71.1012 14.8301C70.6776 15.064 70.3489 15.418 70.1087 15.8731C69.8685 16.3282 69.7484 16.8908 69.7484 17.5545V27.5672H65.3047L65.311 27.5861Z" fill="white"/>
<path d="M99.1974 27.8892C97.5413 27.8892 96.1001 27.5289 94.8864 26.8146C93.6728 26.1003 92.7372 25.1016 92.0799 23.8247C91.4225 22.5478 91.0938 21.056 91.0938 19.3557C91.0938 17.6553 91.4225 16.1382 92.0799 14.8614C92.7372 13.5845 93.6728 12.5858 94.8864 11.8715C96.1001 11.1572 97.5413 10.7969 99.1974 10.7969C100.854 10.7969 102.307 11.1572 103.515 11.8715C104.722 12.5858 105.658 13.5845 106.315 14.8614C106.972 16.1382 107.301 17.6363 107.301 19.3557C107.301 21.075 106.972 22.5415 106.315 23.8247C105.658 25.1079 104.722 26.1003 103.515 26.8146C102.307 27.5289 100.866 27.8892 99.1974 27.8892ZM99.1974 24.3936C99.9876 24.3936 100.651 24.1724 101.182 23.7362C101.713 23.3 102.118 22.6932 102.383 21.9284C102.649 21.1635 102.781 20.3038 102.781 19.343C102.781 18.3822 102.649 17.4973 102.383 16.7387C102.118 15.9802 101.72 15.3797 101.182 14.9435C100.645 14.5074 99.9876 14.2925 99.1974 14.2925C98.4073 14.2925 97.7499 14.5074 97.2189 14.9435C96.6879 15.3797 96.296 15.9739 96.0242 16.7387C95.7524 17.5036 95.626 18.3696 95.626 19.343C95.626 20.3165 95.7587 21.1635 96.0242 21.9284C96.2897 22.6932 96.6879 23.2937 97.2189 23.7362C97.7499 24.1787 98.4073 24.3936 99.1974 24.3936Z" fill="white"/>
<path d="M113.631 17.9777V27.5605H109.188V10.9992H113.378L113.454 15.1332H113.189C113.625 13.7488 114.282 12.6806 115.167 11.9284C116.052 11.1761 117.196 10.7969 118.6 10.7969C119.744 10.7969 120.742 11.0434 121.602 11.5428C122.462 12.0421 123.119 12.7564 123.587 13.6919C124.055 14.6275 124.289 15.74 124.289 17.0358V27.5668H119.845V17.8007C119.845 16.7766 119.579 15.9675 119.055 15.386C118.53 14.8045 117.791 14.5137 116.855 14.5137C116.236 14.5137 115.679 14.6464 115.186 14.9182C114.693 15.1901 114.314 15.582 114.048 16.094C113.783 16.606 113.644 17.2318 113.644 17.9777H113.631Z" fill="white"/>
<path d="M131.481 27.8955C130.431 27.8955 129.496 27.7122 128.662 27.3392C127.827 26.9663 127.17 26.4163 126.689 25.6831C126.209 24.9499 125.969 24.0333 125.969 22.9334C125.969 22.0169 126.139 21.2457 126.481 20.6199C126.822 19.9941 127.284 19.501 127.871 19.1218C128.459 18.7425 129.123 18.4581 129.869 18.2621C130.615 18.0662 131.399 17.9271 132.214 17.8449C133.175 17.7438 133.946 17.6553 134.534 17.5731C135.122 17.4909 135.552 17.3582 135.823 17.1749C136.095 16.9916 136.228 16.7261 136.228 16.3658V16.2899C136.228 15.8158 136.127 15.4176 135.931 15.0889C135.735 14.7602 135.438 14.5137 135.052 14.343C134.667 14.1724 134.193 14.0839 133.636 14.0839C133.08 14.0839 132.562 14.1724 132.138 14.343C131.715 14.5137 131.367 14.7476 131.101 15.032C130.836 15.3165 130.64 15.6388 130.507 15.9928L126.43 15.3291C126.715 14.362 127.189 13.5402 127.852 12.8702C128.516 12.2002 129.338 11.6818 130.318 11.3278C131.297 10.9739 132.41 10.7969 133.643 10.7969C134.534 10.7969 135.394 10.9043 136.234 11.1129C137.075 11.3215 137.827 11.6565 138.491 12.099C139.155 12.5415 139.686 13.123 140.077 13.8373C140.469 14.5516 140.665 15.4113 140.665 16.41V27.5668H136.455V25.2722H136.31C136.045 25.7842 135.691 26.2394 135.242 26.6249C134.793 27.0105 134.262 27.3266 133.636 27.5478C133.01 27.7691 132.284 27.8892 131.468 27.8892L131.481 27.8955ZM132.739 24.7729C133.44 24.7729 134.053 24.6338 134.584 24.3557C135.115 24.0775 135.526 23.7046 135.823 23.2305C136.12 22.7564 136.266 22.2255 136.266 21.6439V19.8487C136.139 19.9498 135.937 20.0383 135.672 20.1142C135.406 20.1901 135.109 20.2596 134.78 20.3228C134.452 20.386 134.136 20.4366 133.82 20.4871C133.504 20.5377 133.219 20.5756 132.973 20.6072C132.429 20.6831 131.949 20.8158 131.538 20.9928C131.127 21.1698 130.804 21.4037 130.577 21.6945C130.349 21.9852 130.236 22.3582 130.236 22.8133C130.236 23.2368 130.343 23.5971 130.564 23.8879C130.785 24.1787 131.076 24.3999 131.455 24.5453C131.835 24.6907 132.258 24.7665 132.745 24.7665L132.739 24.7729Z" fill="white"/>
<path d="M149.307 27.8578C148.043 27.8578 146.899 27.5291 145.875 26.8717C144.851 26.2143 144.048 25.2535 143.454 23.9829C142.86 22.7124 142.562 21.1637 142.562 19.3243C142.562 17.4848 142.866 15.8603 143.479 14.5961C144.092 13.3319 144.908 12.3837 145.925 11.7516C146.943 11.1195 148.062 10.8034 149.288 10.8034C150.224 10.8034 151.008 10.9614 151.627 11.2775C152.246 11.5936 152.752 11.9855 153.138 12.4469C153.523 12.9083 153.808 13.3635 153.997 13.7933H154.143V5.5H158.587V27.5733H154.219V24.9185H153.997C153.801 25.3609 153.504 25.8097 153.119 26.2585C152.733 26.7073 152.221 27.0866 151.602 27.39C150.982 27.6934 150.211 27.8515 149.307 27.8515V27.8578ZM150.685 24.2864C151.437 24.2864 152.076 24.0778 152.613 23.6669C153.15 23.256 153.549 22.6745 153.827 21.9286C154.105 21.1827 154.244 20.3104 154.244 19.3116C154.244 18.3129 154.111 17.4343 153.839 16.6947C153.568 15.9551 153.163 15.3862 152.632 14.9753C152.101 14.5645 151.45 14.3622 150.691 14.3622C149.933 14.3622 149.257 14.5771 148.726 15.0006C148.195 15.4241 147.803 16.0057 147.531 16.7516C147.259 17.4975 147.133 18.3445 147.133 19.3116C147.133 20.2788 147.265 21.1384 147.537 21.8906C147.809 22.6429 148.207 23.2307 148.738 23.6542C149.269 24.0778 149.914 24.2927 150.685 24.2927V24.2864Z" fill="white"/>
<path d="M167.751 27.8892C166.417 27.8892 165.235 27.6995 164.211 27.3203C163.187 26.941 162.346 26.3847 161.695 25.6641C161.044 24.9435 160.621 24.0586 160.438 23.0346L164.572 22.3266C164.786 23.0978 165.172 23.673 165.709 24.0586C166.247 24.4442 166.98 24.6338 167.89 24.6338C168.737 24.6338 169.407 24.4758 169.9 24.1534C170.393 23.831 170.633 23.4265 170.633 22.9334C170.633 22.4973 170.456 22.1433 170.109 21.8651C169.761 21.587 169.224 21.3784 168.503 21.2267L165.646 20.6325C164.047 20.3038 162.852 19.7539 162.062 18.9638C161.272 18.1736 160.874 17.1686 160.874 15.9359C160.874 14.8677 161.164 13.9511 161.746 13.1863C162.328 12.4214 163.137 11.8335 164.173 11.4163C165.21 10.9992 166.43 10.7969 167.833 10.7969C169.135 10.7969 170.267 10.9802 171.228 11.3405C172.188 11.7008 172.96 12.2128 173.554 12.8765C174.148 13.5402 174.54 14.3177 174.742 15.2153L170.804 15.9107C170.633 15.3481 170.311 14.8866 169.831 14.5263C169.35 14.166 168.706 13.9827 167.896 13.9827C167.163 13.9827 166.556 14.1344 166.057 14.4442C165.558 14.7539 165.317 15.1584 165.317 15.6768C165.317 16.094 165.475 16.4416 165.798 16.7261C166.12 17.0105 166.67 17.2318 167.448 17.3898L170.425 17.984C172.024 18.3127 173.212 18.8437 173.996 19.5769C174.78 20.3102 175.166 21.271 175.166 22.4593C175.166 23.5466 174.85 24.4947 174.218 25.3102C173.585 26.1256 172.713 26.7577 171.601 27.2128C170.488 27.6679 169.205 27.8955 167.757 27.8955L167.751 27.8892Z" fill="white"/>
<path d="M19.4699 28.2336C20.1209 26.685 20.2031 16.0781 20.2031 16.0781C20.2031 16.0781 12.6873 23.5686 12.0426 25.111C11.3915 26.6597 12.0868 28.4233 14.5836 29.4662C17.0805 30.5155 18.8251 29.7697 19.4762 28.2273L19.4699 28.2336Z" fill="#B2D61A"/>
<path d="M19.5831 1.74347C20.2153 3.29214 20.2026 13.9053 20.2026 13.9053C20.2026 13.9053 12.7627 6.34524 12.1242 4.79657C11.4921 3.24158 12.2001 1.48431 14.7032 0.460284C17.2064 -0.563737 18.9447 0.194797 19.5831 1.74347Z" fill="#B2D61A"/>
<path d="M29.1644 25.1869C28.5323 23.6319 21.086 16.0781 21.086 16.0781C21.086 16.0781 21.067 26.685 21.7055 28.24C22.3376 29.7886 24.0822 30.5472 26.5854 29.5231C29.0885 28.4991 29.8028 26.7418 29.1644 25.1869Z" fill="#B2D61A"/>
<path d="M10.5312 6.37701C12.0798 7.02808 19.564 14.5376 19.564 14.5376C19.564 14.5376 8.95721 14.4554 7.40853 13.8043C5.85986 13.1532 5.12029 11.4086 6.16959 8.91177C7.2189 6.41493 8.98249 5.71961 10.5248 6.37069L10.5312 6.37701Z" fill="#B2D61A"/>
<path d="M33.8821 16.1786C32.3334 15.5275 21.7266 15.4453 21.7266 15.4453C21.7266 15.4453 29.2171 22.9611 30.7594 23.6059C32.3081 24.2569 34.0717 23.5616 35.1147 21.0648C36.164 18.5679 35.4181 16.8233 33.8757 16.1722L33.8821 16.1786Z" fill="#B2D61A"/>
<path d="M7.39972 16.057C8.95471 15.4249 19.5615 15.4375 19.5615 15.4375C19.5615 15.4375 12.0015 22.8775 10.4528 23.5159C8.90414 24.148 7.14055 23.4401 6.11653 20.9369C5.09251 18.4337 5.85105 16.6954 7.39972 16.057Z" fill="#B2D61A"/>
</g>
<path d="M41.0464 45V37H46.0073V38.0391H42.2534V40.4766H45.6519V41.5117H42.2534V45H41.0464ZM49.4849 45.1211C48.9224 45.1211 48.4315 44.9922 48.0122 44.7344C47.5929 44.4766 47.2674 44.1159 47.0356 43.6523C46.8039 43.1888 46.688 42.6471 46.688 42.0273C46.688 41.4049 46.8039 40.8607 47.0356 40.3945C47.2674 39.9284 47.5929 39.5664 48.0122 39.3086C48.4315 39.0508 48.9224 38.9219 49.4849 38.9219C50.0474 38.9219 50.5382 39.0508 50.9575 39.3086C51.3768 39.5664 51.7023 39.9284 51.9341 40.3945C52.1659 40.8607 52.2817 41.4049 52.2817 42.0273C52.2817 42.6471 52.1659 43.1888 51.9341 43.6523C51.7023 44.1159 51.3768 44.4766 50.9575 44.7344C50.5382 44.9922 50.0474 45.1211 49.4849 45.1211ZM49.4888 44.1406C49.8534 44.1406 50.1554 44.0443 50.395 43.8516C50.6346 43.6589 50.8117 43.4023 50.9263 43.082C51.0435 42.7617 51.1021 42.4089 51.1021 42.0234C51.1021 41.6406 51.0435 41.2891 50.9263 40.9687C50.8117 40.6458 50.6346 40.3867 50.395 40.1914C50.1554 39.9961 49.8534 39.8984 49.4888 39.8984C49.1216 39.8984 48.8169 39.9961 48.5747 40.1914C48.3351 40.3867 48.1567 40.6458 48.0396 40.9687C47.925 41.2891 47.8677 41.6406 47.8677 42.0234C47.8677 42.4089 47.925 42.7617 48.0396 43.082C48.1567 43.4023 48.3351 43.6589 48.5747 43.8516C48.8169 44.0443 49.1216 44.1406 49.4888 44.1406ZM53.5854 45V39H54.7144V39.9531H54.7769C54.8862 39.6302 55.0789 39.3763 55.355 39.1914C55.6336 39.0039 55.9487 38.9102 56.3003 38.9102C56.3732 38.9102 56.4591 38.9128 56.5581 38.918C56.6597 38.9232 56.7391 38.9297 56.7964 38.9375V40.0547C56.7495 40.0417 56.6662 40.0273 56.5464 40.0117C56.4266 39.9935 56.3068 39.9844 56.187 39.9844C55.911 39.9844 55.6649 40.043 55.4487 40.1602C55.2352 40.2747 55.0659 40.4349 54.9409 40.6406C54.8159 40.8437 54.7534 41.0755 54.7534 41.3359V45H53.5854ZM57.8071 45V39H58.9282V39.9766H59.0024C59.1274 39.6458 59.3319 39.388 59.6157 39.2031C59.8996 39.0156 60.2394 38.9219 60.6353 38.9219C61.0363 38.9219 61.3722 39.0156 61.6431 39.2031C61.9165 39.3906 62.1183 39.6484 62.2485 39.9766H62.311C62.4543 39.6562 62.6821 39.401 62.9946 39.2109C63.3071 39.0182 63.6795 38.9219 64.1118 38.9219C64.6561 38.9219 65.1001 39.0924 65.4438 39.4336C65.7902 39.7747 65.9634 40.2891 65.9634 40.9766V45H64.7954V41.0859C64.7954 40.6797 64.6847 40.3854 64.4634 40.2031C64.242 40.0208 63.9777 39.9297 63.6704 39.9297C63.2902 39.9297 62.9946 40.0469 62.7837 40.2812C62.5728 40.513 62.4673 40.8112 62.4673 41.1758V45H61.3032V41.0117C61.3032 40.6862 61.2017 40.4245 60.9985 40.2266C60.7954 40.0286 60.5311 39.9297 60.2056 39.9297C59.9842 39.9297 59.7798 39.9883 59.5923 40.1055C59.4074 40.2201 59.2576 40.3802 59.1431 40.5859C59.0311 40.7917 58.9751 41.0299 58.9751 41.3008V45H57.8071ZM70.1147 45.1211C69.5236 45.1211 69.0145 44.9948 68.5874 44.7422C68.1629 44.487 67.8348 44.1289 67.603 43.668C67.3739 43.2044 67.2593 42.6615 67.2593 42.0391C67.2593 41.4245 67.3739 40.8828 67.603 40.4141C67.8348 39.9453 68.1577 39.5794 68.5718 39.3164C68.9884 39.0534 69.4754 38.9219 70.0327 38.9219C70.3713 38.9219 70.6994 38.9779 71.0171 39.0898C71.3348 39.2018 71.62 39.3776 71.8726 39.6172C72.1252 39.8568 72.3244 40.168 72.4702 40.5508C72.616 40.931 72.689 41.3932 72.689 41.9375V42.3516H67.9194V41.4766H71.5444C71.5444 41.1693 71.4819 40.8971 71.3569 40.6602C71.2319 40.4206 71.0562 40.2318 70.8296 40.0937C70.6056 39.9557 70.3426 39.8867 70.0405 39.8867C69.7124 39.8867 69.4259 39.9674 69.1812 40.1289C68.939 40.2878 68.7515 40.4961 68.6187 40.7539C68.4884 41.0091 68.4233 41.2865 68.4233 41.5859V42.2695C68.4233 42.6706 68.4937 43.0117 68.6343 43.293C68.7775 43.5742 68.9767 43.7891 69.2319 43.9375C69.4871 44.0833 69.7853 44.1562 70.1265 44.1562C70.3478 44.1562 70.5496 44.125 70.7319 44.0625C70.9142 43.9974 71.0718 43.901 71.2046 43.7734C71.3374 43.6458 71.439 43.4883 71.5093 43.3008L72.6147 43.5C72.5262 43.8255 72.3674 44.1107 72.1382 44.3555C71.9116 44.5977 71.6265 44.7865 71.2827 44.9219C70.9416 45.0547 70.5522 45.1211 70.1147 45.1211ZM73.9849 45V39H75.1138V39.9531H75.1763C75.2856 39.6302 75.4784 39.3763 75.7544 39.1914C76.033 39.0039 76.3481 38.9102 76.6997 38.9102C76.7726 38.9102 76.8586 38.9128 76.9575 38.918C77.0591 38.9232 77.1385 38.9297 77.1958 38.9375V40.0547C77.1489 40.0417 77.0656 40.0273 76.9458 40.0117C76.826 39.9935 76.7062 39.9844 76.5864 39.9844C76.3104 39.9844 76.0643 40.043 75.8481 40.1602C75.6346 40.2747 75.4653 40.4349 75.3403 40.6406C75.2153 40.8437 75.1528 41.0755 75.1528 41.3359V45H73.9849ZM79.3745 37V45H78.2065V37H79.3745ZM81.6841 47.25C81.5096 47.25 81.3507 47.2357 81.2075 47.207C81.0643 47.181 80.9575 47.1523 80.8872 47.1211L81.1685 46.1641C81.382 46.2214 81.5721 46.2461 81.7388 46.2383C81.9054 46.2305 82.0526 46.168 82.1802 46.0508C82.3104 45.9336 82.425 45.7422 82.5239 45.4766L82.6685 45.0781L80.4731 39H81.7231L83.2427 43.6562H83.3052L84.8247 39H86.0786L83.606 45.8008C83.4914 46.1133 83.3455 46.3776 83.1685 46.5938C82.9914 46.8125 82.7804 46.9766 82.5356 47.0859C82.2909 47.1953 82.007 47.25 81.6841 47.25ZM90.1812 45V37H93.0327C93.6551 37 94.1707 37.1133 94.5796 37.3398C94.9884 37.5664 95.2944 37.8763 95.4976 38.2695C95.7007 38.6602 95.8022 39.1003 95.8022 39.5898C95.8022 40.082 95.6994 40.5247 95.4937 40.918C95.2905 41.3086 94.9832 41.6185 94.5718 41.8477C94.1629 42.0742 93.6486 42.1875 93.0288 42.1875H91.0679V41.1641H92.9194C93.3127 41.1641 93.6317 41.0964 93.8765 40.9609C94.1213 40.8229 94.3009 40.6354 94.4155 40.3984C94.5301 40.1615 94.5874 39.8919 94.5874 39.5898C94.5874 39.2878 94.5301 39.0195 94.4155 38.7852C94.3009 38.5508 94.12 38.3672 93.8726 38.2344C93.6278 38.1016 93.3049 38.0352 92.9038 38.0352H91.3882V45H90.1812ZM97.2173 45V37H100.069C100.691 37 101.207 37.1133 101.616 37.3398C102.025 37.5664 102.331 37.8763 102.534 38.2695C102.737 38.6602 102.838 39.1003 102.838 39.5898C102.838 40.082 102.736 40.5247 102.53 40.918C102.327 41.3086 102.019 41.6185 101.608 41.8477C101.199 42.0742 100.685 42.1875 100.065 42.1875H98.104V41.1641H99.9556C100.349 41.1641 100.668 41.0964 100.913 40.9609C101.157 40.8229 101.337 40.6354 101.452 40.3984C101.566 40.1615 101.624 39.8919 101.624 39.5898C101.624 39.2878 101.566 39.0195 101.452 38.7852C101.337 38.5508 101.156 38.3672 100.909 38.2344C100.664 38.1016 100.341 38.0352 99.9399 38.0352H98.4243V45H97.2173ZM110.898 39.6016H109.679C109.632 39.3411 109.545 39.112 109.417 38.9141C109.29 38.7161 109.134 38.5482 108.949 38.4102C108.764 38.2721 108.557 38.168 108.328 38.0977C108.101 38.0273 107.86 37.9922 107.605 37.9922C107.144 37.9922 106.731 38.1081 106.367 38.3398C106.005 38.5716 105.718 38.9115 105.507 39.3594C105.299 39.8073 105.195 40.3542 105.195 41C105.195 41.651 105.299 42.2005 105.507 42.6484C105.718 43.0964 106.006 43.4349 106.371 43.6641C106.735 43.8932 107.145 44.0078 107.601 44.0078C107.854 44.0078 108.093 43.974 108.32 43.9062C108.549 43.8359 108.756 43.7331 108.941 43.5977C109.126 43.4622 109.282 43.2969 109.41 43.1016C109.54 42.9036 109.63 42.6771 109.679 42.4219L110.898 42.4258C110.833 42.819 110.707 43.181 110.519 43.5117C110.334 43.8398 110.096 44.1237 109.804 44.3633C109.515 44.6003 109.184 44.7839 108.812 44.9141C108.44 45.0443 108.033 45.1094 107.593 45.1094C106.901 45.1094 106.283 44.9453 105.742 44.6172C105.2 44.2865 104.773 43.8138 104.46 43.1992C104.151 42.5846 103.996 41.8516 103.996 41C103.996 40.1458 104.152 39.4128 104.464 38.8008C104.777 38.1862 105.204 37.7148 105.746 37.3867C106.287 37.056 106.903 36.8906 107.593 36.8906C108.018 36.8906 108.414 36.9518 108.781 37.0742C109.151 37.194 109.483 37.3711 109.777 37.6055C110.071 37.8372 110.315 38.1211 110.507 38.457C110.7 38.7904 110.83 39.1719 110.898 39.6016ZM115.253 45V37H118.105C118.727 37 119.243 37.1133 119.652 37.3398C120.061 37.5664 120.367 37.8763 120.57 38.2695C120.773 38.6602 120.875 39.1003 120.875 39.5898C120.875 40.082 120.772 40.5247 120.566 40.918C120.363 41.3086 120.056 41.6185 119.644 41.8477C119.235 42.0742 118.721 42.1875 118.101 42.1875H116.14V41.1641H117.992C118.385 41.1641 118.704 41.0964 118.949 40.9609C119.194 40.8229 119.373 40.6354 119.488 40.3984C119.602 40.1615 119.66 39.8919 119.66 39.5898C119.66 39.2878 119.602 39.0195 119.488 38.7852C119.373 38.5508 119.192 38.3672 118.945 38.2344C118.7 38.1016 118.377 38.0352 117.976 38.0352H116.46V45H115.253ZM122.196 45V39H123.325V39.9531H123.387C123.497 39.6302 123.689 39.3763 123.965 39.1914C124.244 39.0039 124.559 38.9102 124.911 38.9102C124.984 38.9102 125.069 38.9128 125.168 38.918C125.27 38.9232 125.349 38.9297 125.407 38.9375V40.0547C125.36 40.0417 125.277 40.0273 125.157 40.0117C125.037 39.9935 124.917 39.9844 124.797 39.9844C124.521 39.9844 124.275 40.043 124.059 40.1602C123.846 40.2747 123.676 40.4349 123.551 40.6406C123.426 40.8437 123.364 41.0755 123.364 41.3359V45H122.196ZM128.789 45.1211C128.197 45.1211 127.688 44.9948 127.261 44.7422C126.837 44.487 126.509 44.1289 126.277 43.668C126.048 43.2044 125.933 42.6615 125.933 42.0391C125.933 41.4245 126.048 40.8828 126.277 40.4141C126.509 39.9453 126.832 39.5794 127.246 39.3164C127.662 39.0534 128.149 38.9219 128.707 38.9219C129.045 38.9219 129.373 38.9779 129.691 39.0898C130.009 39.2018 130.294 39.3776 130.546 39.6172C130.799 39.8568 130.998 40.168 131.144 40.5508C131.29 40.931 131.363 41.3932 131.363 41.9375V42.3516H126.593V41.4766H130.218C130.218 41.1693 130.156 40.8971 130.031 40.6602C129.906 40.4206 129.73 40.2318 129.503 40.0937C129.279 39.9557 129.016 39.8867 128.714 39.8867C128.386 39.8867 128.1 39.9674 127.855 40.1289C127.613 40.2878 127.425 40.4961 127.292 40.7539C127.162 41.0091 127.097 41.2865 127.097 41.5859V42.2695C127.097 42.6706 127.167 43.0117 127.308 43.293C127.451 43.5742 127.651 43.7891 127.906 43.9375C128.161 44.0833 128.459 44.1562 128.8 44.1562C129.022 44.1562 129.223 44.125 129.406 44.0625C129.588 43.9974 129.746 43.901 129.878 43.7734C130.011 43.6458 130.113 43.4883 130.183 43.3008L131.289 43.5C131.2 43.8255 131.041 44.1107 130.812 44.3555C130.585 44.5977 130.3 44.7865 129.957 44.9219C129.615 45.0547 129.226 45.1211 128.789 45.1211ZM134.905 45.1172C134.42 45.1172 133.988 44.9935 133.608 44.7461C133.23 44.4961 132.933 44.1406 132.717 43.6797C132.504 43.2161 132.397 42.6602 132.397 42.0117C132.397 41.3633 132.505 40.8086 132.721 40.3477C132.94 39.8867 133.239 39.5339 133.62 39.2891C134 39.0443 134.431 38.9219 134.913 38.9219C135.285 38.9219 135.584 38.9844 135.811 39.1094C136.04 39.2318 136.217 39.375 136.342 39.5391C136.47 39.7031 136.569 39.8477 136.639 39.9727H136.709V37H137.877V45H136.737V44.0664H136.639C136.569 44.194 136.467 44.3398 136.334 44.5039C136.204 44.668 136.025 44.8112 135.795 44.9336C135.566 45.056 135.269 45.1172 134.905 45.1172ZM135.163 44.1211C135.499 44.1211 135.782 44.0326 136.014 43.8555C136.249 43.6758 136.426 43.4271 136.545 43.1094C136.668 42.7917 136.729 42.4219 136.729 42C136.729 41.5833 136.669 41.2187 136.549 40.9062C136.43 40.5937 136.254 40.3503 136.022 40.1758C135.79 40.0013 135.504 39.9141 135.163 39.9141C134.811 39.9141 134.518 40.0052 134.284 40.1875C134.049 40.3698 133.872 40.6185 133.752 40.9336C133.635 41.2487 133.577 41.6042 133.577 42C133.577 42.401 133.637 42.7617 133.756 43.082C133.876 43.4023 134.053 43.6562 134.288 43.8437C134.525 44.0286 134.816 44.1211 135.163 44.1211ZM139.544 45V39H140.712V45H139.544ZM140.134 38.0742C139.931 38.0742 139.757 38.0065 139.611 37.8711C139.468 37.7331 139.396 37.569 139.396 37.3789C139.396 37.1862 139.468 37.0221 139.611 36.8867C139.757 36.7487 139.931 36.6797 140.134 36.6797C140.337 36.6797 140.511 36.7487 140.654 36.8867C140.8 37.0221 140.873 37.1862 140.873 37.3789C140.873 37.569 140.8 37.7331 140.654 37.8711C140.511 38.0065 140.337 38.0742 140.134 38.0742ZM144.811 45.1211C144.23 45.1211 143.73 44.9896 143.311 44.7266C142.894 44.4609 142.574 44.0951 142.35 43.6289C142.126 43.1628 142.014 42.6289 142.014 42.0273C142.014 41.418 142.129 40.8802 142.358 40.4141C142.587 39.9453 142.91 39.5794 143.327 39.3164C143.743 39.0534 144.234 38.9219 144.799 38.9219C145.255 38.9219 145.661 39.0065 146.018 39.1758C146.375 39.3424 146.663 39.5768 146.881 39.8789C147.103 40.181 147.234 40.5339 147.276 40.9375H146.139C146.077 40.6562 145.933 40.4141 145.709 40.2109C145.488 40.0078 145.191 39.9062 144.819 39.9062C144.493 39.9062 144.208 39.9922 143.963 40.1641C143.721 40.3333 143.532 40.5755 143.397 40.8906C143.262 41.2031 143.194 41.5729 143.194 42C143.194 42.4375 143.26 42.8151 143.393 43.1328C143.526 43.4505 143.713 43.6966 143.956 43.8711C144.2 44.0456 144.488 44.1328 144.819 44.1328C145.04 44.1328 145.241 44.0924 145.42 44.0117C145.603 43.9284 145.755 43.8099 145.877 43.6562C146.002 43.5026 146.09 43.3177 146.139 43.1016H147.276C147.234 43.4896 147.108 43.8359 146.897 44.1406C146.686 44.4453 146.403 44.6849 146.049 44.8594C145.698 45.0339 145.285 45.1211 144.811 45.1211ZM151.326 39V39.9375H148.048V39H151.326ZM148.927 37.5625H150.095V43.2383C150.095 43.4648 150.129 43.6354 150.197 43.75C150.264 43.862 150.352 43.9388 150.458 43.9805C150.568 44.0195 150.686 44.0391 150.814 44.0391C150.908 44.0391 150.99 44.0326 151.06 44.0195C151.13 44.0065 151.185 43.9961 151.224 43.9883L151.435 44.9531C151.367 44.9792 151.271 45.0052 151.146 45.0313C151.021 45.0599 150.865 45.0755 150.677 45.0781C150.37 45.0833 150.083 45.0286 149.818 44.9141C149.552 44.7995 149.337 44.6224 149.173 44.3828C149.009 44.1432 148.927 43.8424 148.927 43.4805V37.5625Z" fill="white"/>
<defs>
<clipPath id="clip0_15342_185956">
<rect width="169.513" height="30" fill="white" transform="translate(5.64844)"/>
</clipPath>
</defs>
</svg>
