<svg width="238" height="36" viewBox="0 0 238 36" fill="none" xmlns="http://www.w3.org/2000/svg">
<g clip-path="url(#clip0_5262_871)">
<path d="M50.98 11.38V16.99H58.51V20.55H50.98V26.48H59.47V30.13H46.49V7.73001H59.47V11.38H50.98Z" fill="#FDF4DE"/>
<path d="M67.83 29.63C66.68 29.11 65.76 28.4 65.09 27.5C64.42 26.6 64.05 25.61 63.98 24.52H68.5C68.59 25.2 68.92 25.77 69.51 26.22C70.1 26.67 70.83 26.89 71.7 26.89C72.57 26.89 73.22 26.72 73.7 26.38C74.18 26.04 74.42 25.6 74.42 25.07C74.42 24.49 74.13 24.06 73.54 23.77C72.95 23.48 72.02 23.17 70.74 22.82C69.42 22.5 68.33 22.17 67.49 21.83C66.65 21.49 65.92 20.96 65.31 20.26C64.7 19.56 64.4 18.6 64.4 17.41C64.4 16.43 64.68 15.53 65.25 14.72C65.82 13.91 66.63 13.27 67.69 12.8C68.75 12.33 69.99 12.09 71.42 12.09C73.53 12.09 75.22 12.62 76.48 13.68C77.74 14.74 78.43 16.16 78.56 17.96H74.27C74.21 17.26 73.91 16.69 73.39 16.28C72.87 15.86 72.17 15.66 71.29 15.66C70.48 15.66 69.85 15.81 69.42 16.11C68.98 16.41 68.76 16.83 68.76 17.36C68.76 17.96 69.06 18.41 69.66 18.72C70.26 19.03 71.19 19.34 72.45 19.67C73.73 19.99 74.79 20.32 75.62 20.66C76.45 21 77.17 21.53 77.78 22.25C78.39 22.97 78.7 23.91 78.73 25.09C78.73 26.12 78.45 27.03 77.88 27.85C77.31 28.66 76.5 29.3 75.44 29.76C74.38 30.22 73.15 30.45 71.74 30.45C70.33 30.45 68.98 30.19 67.83 29.66V29.63Z" fill="#FDF4DE"/>
<path d="M89.05 16.06V24.65C89.05 25.25 89.19 25.68 89.48 25.95C89.77 26.22 90.25 26.35 90.94 26.35H93.02V30.13H90.2C86.42 30.13 84.53 28.29 84.53 24.62V16.06H82.42V12.38H84.53V7.98001H89.05V12.37H93.02V16.05H89.05V16.06Z" fill="#FDF4DE"/>
<path d="M114.04 22.6H101.06C101.17 23.88 101.62 24.89 102.41 25.61C103.2 26.34 104.17 26.7 105.33 26.7C107 26.7 108.18 25.98 108.89 24.55H113.73C113.22 26.26 112.23 27.66 110.78 28.76C109.33 29.86 107.54 30.41 105.43 30.41C103.72 30.41 102.19 30.03 100.83 29.27C99.47 28.51 98.42 27.44 97.66 26.05C96.9 24.66 96.52 23.06 96.52 21.24C96.52 19.42 96.89 17.79 97.64 16.4C98.39 15.01 99.43 13.94 100.78 13.2C102.13 12.45 103.67 12.08 105.43 12.08C107.19 12.08 108.63 12.44 109.96 13.17C111.29 13.9 112.33 14.93 113.07 16.26C113.81 17.6 114.18 19.13 114.18 20.86C114.18 21.5 114.14 22.08 114.05 22.59L114.04 22.6ZM109.52 19.59C109.5 18.44 109.08 17.51 108.27 16.82C107.46 16.13 106.46 15.78 105.29 15.78C104.18 15.78 103.24 16.12 102.49 16.79C101.73 17.46 101.27 18.4 101.1 19.59H109.53H109.52Z" fill="#FDF4DE"/>
<path d="M123.33 6.41V30.13H118.84V6.41H123.33Z" fill="#FDF4DE"/>
<path d="M133.65 6.41V30.13H129.16V6.41H133.65Z" fill="#FDF4DE"/>
<path d="M143.97 6.41V30.13H139.48V6.41H143.97Z" fill="#FDF4DE"/>
<path d="M149.72 16.41C150.44 15.02 151.41 13.95 152.64 13.21C153.87 12.46 155.24 12.09 156.76 12.09C158.08 12.09 159.24 12.36 160.24 12.89C161.23 13.42 162.03 14.1 162.63 14.91V12.38H167.15V30.13H162.63V27.53C162.05 28.36 161.26 29.05 160.24 29.6C159.22 30.15 158.06 30.42 156.73 30.42C155.23 30.42 153.87 30.04 152.64 29.27C151.41 28.5 150.44 27.42 149.72 26.02C149 24.62 148.65 23.01 148.65 21.2C148.65 19.39 149.01 17.81 149.72 16.43V16.41ZM161.98 18.44C161.55 17.66 160.98 17.06 160.25 16.65C159.52 16.24 158.74 16.03 157.91 16.03C157.08 16.03 156.31 16.23 155.6 16.64C154.9 17.05 154.32 17.64 153.89 18.42C153.45 19.2 153.23 20.12 153.23 21.19C153.23 22.26 153.45 23.19 153.89 23.99C154.33 24.79 154.9 25.41 155.62 25.83C156.34 26.26 157.1 26.47 157.91 26.47C158.72 26.47 159.52 26.26 160.25 25.85C160.98 25.44 161.55 24.84 161.98 24.06C162.41 23.28 162.62 22.35 162.62 21.26C162.62 20.17 162.41 19.24 161.98 18.46V18.44Z" fill="#FDF4DE"/>
<path d="M179.68 12.92C180.61 12.39 181.67 12.12 182.87 12.12V16.83H181.68C180.27 16.83 179.21 17.16 178.49 17.82C177.77 18.48 177.42 19.64 177.42 21.28V30.12H172.93V12.37H177.42V15.13C178 14.19 178.75 13.45 179.68 12.92V12.92Z" fill="#FDF4DE"/>
<path d="M29.22 28.84C26.49 31.67 22.66 33.43 18.41 33.43C10.12 33.43 3.38995 26.71 3.38995 18.41C3.38995 10.11 10.12 3.39999 18.41 3.39999C22.45 3.39999 26.13 4.99999 28.83 7.59999" stroke="#FDF4DE" stroke-width="4" stroke-miterlimit="10"/>
<path d="M34.41 2.41L2.40997 34.41" stroke="#FDF4DE" stroke-width="4" stroke-miterlimit="10"/>
<path d="M190.77 17.92C191.29 17.01 191.99 16.29 192.88 15.77C193.77 15.25 194.76 15 195.85 15C197.13 15 198.25 15.31 199.2 15.93C200.15 16.55 200.85 17.42 201.29 18.56H199.46C199.13 17.85 198.67 17.31 198.05 16.93C197.44 16.55 196.71 16.36 195.85 16.36C194.99 16.36 194.3 16.55 193.65 16.93C193 17.31 192.49 17.85 192.12 18.55C191.75 19.25 191.56 20.07 191.56 21.02C191.56 21.97 191.74 22.77 192.12 23.47C192.49 24.17 193 24.71 193.65 25.09C194.3 25.47 195.04 25.66 195.85 25.66C196.66 25.66 197.43 25.47 198.05 25.1C198.66 24.72 199.13 24.18 199.46 23.48H201.29C200.85 24.6 200.16 25.47 199.2 26.08C198.25 26.69 197.13 27 195.85 27C194.76 27 193.77 26.74 192.88 26.23C191.99 25.72 191.28 25.01 190.77 24.1C190.25 23.19 190 22.16 190 21.02C190 19.88 190.26 18.85 190.77 17.93V17.92Z" fill="#FDF4DE" fill-opacity="0.32"/>
<path d="M206.64 26.24C205.74 25.73 205.03 25.02 204.51 24.1C203.99 23.19 203.73 22.16 203.73 21.01C203.73 19.86 203.99 18.84 204.51 17.92C205.03 17 205.74 16.29 206.64 15.78C207.54 15.27 208.53 15.01 209.62 15.01C210.71 15.01 211.72 15.27 212.62 15.78C213.52 16.29 214.22 17 214.74 17.91C215.26 18.82 215.51 19.85 215.51 21.01C215.51 22.17 215.25 23.2 214.74 24.11C214.23 25.02 213.52 25.73 212.62 26.24C211.72 26.75 210.72 27.01 209.62 27.01C208.52 27.01 207.54 26.75 206.64 26.24ZM211.83 25.1C212.49 24.72 213 24.17 213.38 23.47C213.76 22.76 213.94 21.94 213.94 21.01C213.94 20.08 213.75 19.25 213.38 18.54C213 17.84 212.49 17.3 211.84 16.92C211.19 16.54 210.45 16.35 209.62 16.35C208.79 16.35 208.05 16.54 207.4 16.92C206.75 17.3 206.24 17.84 205.86 18.54C205.48 19.24 205.3 20.06 205.3 21.01C205.3 21.96 205.49 22.76 205.86 23.47C206.24 24.18 206.75 24.72 207.41 25.1C208.07 25.48 208.8 25.67 209.62 25.67C210.44 25.67 211.18 25.48 211.83 25.1V25.1Z" fill="#FDF4DE" fill-opacity="0.32"/>
<path d="M227.5 26.88H225.97L219.81 17.54V26.88H218.28V15.13H219.81L225.97 24.45V15.13H227.5V26.88Z" fill="#FDF4DE" fill-opacity="0.32"/>
<path d="M237.48 15.15V16.4H232.38V20.36H236.52V21.61H232.38V26.89H230.85V15.16H237.48V15.15Z" fill="#FDF4DE" fill-opacity="0.32"/>
</g>
<defs>
<clipPath id="clip0_5262_871">
<rect width="238" height="36" fill="white"/>
</clipPath>
</defs>
</svg>
