<svg width="182" height="50" viewBox="0 0 182 50" fill="none" xmlns="http://www.w3.org/2000/svg">
<g clip-path="url(#clip0_1_3)">
<path d="M135.16 40.48C135.68 39.57 136.38 38.85 137.27 38.33C138.16 37.81 139.15 37.56 140.24 37.56C141.52 37.56 142.64 37.87 143.59 38.49C144.54 39.11 145.24 39.98 145.68 41.12H143.85C143.52 40.41 143.06 39.87 142.44 39.49C141.83 39.11 141.1 38.92 140.24 38.92C139.38 38.92 138.69 39.11 138.04 39.49C137.39 39.87 136.88 40.41 136.51 41.11C136.14 41.81 135.95 42.63 135.95 43.58C135.95 44.53 136.13 45.33 136.51 46.03C136.88 46.73 137.39 47.27 138.04 47.65C138.69 48.03 139.43 48.22 140.24 48.22C141.05 48.22 141.82 48.03 142.44 47.66C143.05 47.28 143.52 46.74 143.85 46.04H145.68C145.24 47.16 144.55 48.03 143.59 48.64C142.64 49.25 141.52 49.56 140.24 49.56C139.15 49.56 138.16 49.3 137.27 48.79C136.38 48.28 135.67 47.57 135.16 46.66C134.64 45.75 134.39 44.72 134.39 43.58C134.39 42.44 134.65 41.41 135.16 40.49V40.48Z" fill="#FDF4DE"/>
<path d="M151.03 48.8C150.13 48.29 149.42 47.58 148.9 46.66C148.38 45.75 148.12 44.72 148.12 43.57C148.12 42.42 148.38 41.4 148.9 40.48C149.42 39.56 150.13 38.85 151.03 38.34C151.93 37.83 152.92 37.57 154.01 37.57C155.1 37.57 156.11 37.83 157.01 38.34C157.91 38.85 158.61 39.56 159.13 40.47C159.65 41.38 159.9 42.41 159.9 43.57C159.9 44.73 159.64 45.76 159.13 46.67C158.62 47.58 157.91 48.29 157.01 48.8C156.11 49.31 155.11 49.57 154.01 49.57C152.91 49.57 151.93 49.31 151.03 48.8ZM156.22 47.66C156.88 47.28 157.39 46.73 157.77 46.03C158.15 45.32 158.33 44.5 158.33 43.57C158.33 42.64 158.14 41.81 157.77 41.1C157.39 40.4 156.88 39.86 156.23 39.48C155.58 39.1 154.84 38.91 154.01 38.91C153.18 38.91 152.44 39.1 151.79 39.48C151.14 39.86 150.63 40.4 150.25 41.1C149.87 41.8 149.69 42.62 149.69 43.57C149.69 44.52 149.88 45.32 150.25 46.03C150.63 46.74 151.14 47.28 151.8 47.66C152.46 48.04 153.19 48.23 154.01 48.23C154.83 48.23 155.57 48.04 156.22 47.66Z" fill="#FDF4DE"/>
<path d="M171.89 49.44H170.36L164.2 40.1V49.44H162.67V37.69H164.2L170.36 47.01V37.69H171.89V49.44Z" fill="#FDF4DE"/>
<path d="M181.87 37.71V38.96H176.77V42.92H180.91V44.17H176.77V49.45H175.24V37.72H181.87V37.71Z" fill="#FDF4DE"/>
<path d="M49.98 10.82V16.43H57.51V19.99H49.98V25.92H58.47V29.57H45.49V7.17001H58.47V10.82H49.98Z" fill="#FDF4DE"/>
<path d="M66.83 29.07C65.68 28.55 64.76 27.84 64.09 26.94C63.42 26.04 63.05 25.05 62.98 23.96H67.5C67.59 24.64 67.92 25.21 68.51 25.66C69.1 26.11 69.83 26.33 70.7 26.33C71.57 26.33 72.22 26.16 72.7 25.82C73.18 25.48 73.42 25.04 73.42 24.51C73.42 23.93 73.13 23.5 72.54 23.21C71.95 22.92 71.02 22.61 69.74 22.26C68.42 21.94 67.33 21.61 66.49 21.27C65.65 20.93 64.92 20.4 64.31 19.7C63.7 19 63.4 18.04 63.4 16.85C63.4 15.87 63.68 14.97 64.25 14.16C64.82 13.35 65.63 12.71 66.69 12.24C67.75 11.77 68.99 11.53 70.42 11.53C72.53 11.53 74.22 12.06 75.48 13.12C76.74 14.18 77.43 15.6 77.56 17.4H73.27C73.21 16.7 72.91 16.13 72.39 15.72C71.87 15.3 71.17 15.1 70.29 15.1C69.48 15.1 68.85 15.25 68.42 15.55C67.98 15.85 67.76 16.27 67.76 16.8C67.76 17.4 68.06 17.85 68.66 18.16C69.26 18.47 70.19 18.78 71.45 19.11C72.73 19.43 73.79 19.76 74.62 20.1C75.45 20.44 76.17 20.97 76.78 21.69C77.39 22.41 77.7 23.35 77.73 24.53C77.73 25.56 77.45 26.47 76.88 27.29C76.31 28.1 75.5 28.74 74.44 29.2C73.38 29.66 72.15 29.89 70.74 29.89C69.33 29.89 67.98 29.63 66.83 29.1V29.07Z" fill="#FDF4DE"/>
<path d="M88.05 15.5V24.09C88.05 24.69 88.19 25.12 88.48 25.39C88.77 25.66 89.25 25.79 89.94 25.79H92.02V29.57H89.2C85.42 29.57 83.53 27.73 83.53 24.06V15.5H81.42V11.82H83.53V7.42001H88.05V11.81H92.02V15.49H88.05V15.5Z" fill="#FDF4DE"/>
<path d="M113.04 22.04H100.06C100.17 23.32 100.62 24.33 101.41 25.05C102.2 25.78 103.17 26.14 104.33 26.14C106 26.14 107.18 25.42 107.89 23.99H112.73C112.22 25.7 111.23 27.1 109.78 28.2C108.33 29.3 106.54 29.85 104.43 29.85C102.72 29.85 101.19 29.47 99.83 28.71C98.47 27.95 97.42 26.88 96.66 25.49C95.9 24.1 95.52 22.5 95.52 20.68C95.52 18.86 95.89 17.23 96.64 15.84C97.39 14.45 98.43 13.38 99.78 12.64C101.13 11.89 102.67 11.52 104.43 11.52C106.19 11.52 107.63 11.88 108.96 12.61C110.29 13.34 111.33 14.37 112.07 15.7C112.81 17.04 113.18 18.57 113.18 20.3C113.18 20.94 113.14 21.52 113.05 22.03L113.04 22.04ZM108.52 19.03C108.5 17.88 108.08 16.95 107.27 16.26C106.46 15.57 105.46 15.22 104.29 15.22C103.18 15.22 102.24 15.56 101.49 16.23C100.73 16.9 100.27 17.84 100.1 19.03H108.53H108.52Z" fill="#FDF4DE"/>
<path d="M122.33 5.85001V29.57H117.84V5.85001H122.33Z" fill="#FDF4DE"/>
<path d="M132.65 5.85001V29.57H128.16V5.85001H132.65Z" fill="#FDF4DE"/>
<path d="M142.97 5.85001V29.57H138.48V5.85001H142.97Z" fill="#FDF4DE"/>
<path d="M148.72 15.85C149.44 14.46 150.41 13.39 151.64 12.65C152.87 11.9 154.24 11.53 155.76 11.53C157.08 11.53 158.24 11.8 159.24 12.33C160.23 12.86 161.03 13.54 161.63 14.35V11.82H166.15V29.57H161.63V26.97C161.05 27.8 160.26 28.49 159.24 29.04C158.22 29.59 157.06 29.86 155.73 29.86C154.23 29.86 152.87 29.48 151.64 28.71C150.41 27.94 149.44 26.86 148.72 25.46C148 24.06 147.65 22.45 147.65 20.64C147.65 18.83 148.01 17.25 148.72 15.87V15.85ZM160.98 17.88C160.55 17.1 159.98 16.5 159.25 16.09C158.52 15.68 157.74 15.47 156.91 15.47C156.08 15.47 155.31 15.67 154.6 16.08C153.9 16.49 153.32 17.08 152.89 17.86C152.45 18.64 152.23 19.56 152.23 20.63C152.23 21.7 152.45 22.63 152.89 23.43C153.33 24.23 153.9 24.85 154.62 25.27C155.34 25.7 156.1 25.91 156.91 25.91C157.72 25.91 158.52 25.7 159.25 25.29C159.98 24.88 160.55 24.28 160.98 23.5C161.41 22.72 161.62 21.79 161.62 20.7C161.62 19.61 161.41 18.68 160.98 17.9V17.88Z" fill="#FDF4DE"/>
<path d="M178.68 12.36C179.61 11.83 180.67 11.56 181.87 11.56V16.27H180.68C179.27 16.27 178.21 16.6 177.49 17.26C176.77 17.92 176.42 19.08 176.42 20.72V29.56H171.93V11.81H176.42V14.57C177 13.63 177.75 12.89 178.68 12.36Z" fill="#FDF4DE"/>
<path d="M28.22 28.28C25.49 31.11 21.66 32.87 17.41 32.87C9.11995 32.87 2.38995 26.15 2.38995 17.85C2.38995 9.55 9.11995 2.84 17.41 2.84C21.45 2.84 25.13 4.44 27.83 7.04" stroke="#FDF4DE" stroke-width="4" stroke-miterlimit="10"/>
<path d="M33.41 1.85001L1.40997 33.85" stroke="#FDF4DE" stroke-width="4" stroke-miterlimit="10"/>
</g>
<defs>
<clipPath id="clip0_1_3">
<rect width="181.87" height="49.12" fill="white" transform="translate(0 0.440002)"/>
</clipPath>
</defs>
</svg>
