<?xml version="1.0" encoding="UTF-8" standalone="no"?>
<!-- Generator: Adobe Illustrator 13.0.0, SVG Export Plug-In . SVG Version: 6.00 Build 14948)  -->

<svg
   xmlns:dc="http://purl.org/dc/elements/1.1/"
   xmlns:cc="http://creativecommons.org/ns#"
   xmlns:rdf="http://www.w3.org/1999/02/22-rdf-syntax-ns#"
   xmlns:svg="http://www.w3.org/2000/svg"
   xmlns="http://www.w3.org/2000/svg"
   xmlns:sodipodi="http://sodipodi.sourceforge.net/DTD/sodipodi-0.dtd"
   xmlns:inkscape="http://www.inkscape.org/namespaces/inkscape"
   version="1.1"
   id="Layer_1"
   x="0px"
   y="0px"
   width="1024"
   height="550"
   viewBox="0 0 1024 550"
   enable-background="new 0 0 179 71"
   xml:space="preserve"
   inkscape:version="0.47 r22583"
   sodipodi:docname="Logo_of_the_Church_of_Jesus_Christ_of_Latter-day_Saints.svg"><metadata
   id="metadata87"><rdf:RDF><cc:Work
       rdf:about=""><dc:format>image/svg+xml</dc:format><dc:type
         rdf:resource="http://purl.org/dc/dcmitype/StillImage" /></cc:Work></rdf:RDF></metadata><defs
   id="defs85"><inkscape:perspective
   sodipodi:type="inkscape:persp3d"
   inkscape:vp_x="0 : 35.5 : 1"
   inkscape:vp_y="0 : 1000 : 0"
   inkscape:vp_z="179 : 35.5 : 1"
   inkscape:persp3d-origin="89.5 : 23.666667 : 1"
   id="perspective89" /><inkscape:perspective
   id="perspective2903"
   inkscape:persp3d-origin="0.5 : 0.33333333 : 1"
   inkscape:vp_z="1 : 0.5 : 1"
   inkscape:vp_y="0 : 1000 : 0"
   inkscape:vp_x="0 : 0.5 : 1"
   sodipodi:type="inkscape:persp3d" />
	
	
	
	
	
	
	
	
	
	
	
	
	
	
	
	
	
	
	
	
	
	
	
	
	
	
	
	
	
	
	
	
	
	
	
	
	
	
	
<inkscape:perspective
   id="perspective2956"
   inkscape:persp3d-origin="0.5 : 0.33333333 : 1"
   inkscape:vp_z="1 : 0.5 : 1"
   inkscape:vp_y="0 : 1000 : 0"
   inkscape:vp_x="0 : 0.5 : 1"
   sodipodi:type="inkscape:persp3d" /><inkscape:perspective
   id="perspective2978"
   inkscape:persp3d-origin="0.5 : 0.33333333 : 1"
   inkscape:vp_z="1 : 0.5 : 1"
   inkscape:vp_y="0 : 1000 : 0"
   inkscape:vp_x="0 : 0.5 : 1"
   sodipodi:type="inkscape:persp3d" /><inkscape:perspective
   id="perspective3000"
   inkscape:persp3d-origin="0.5 : 0.33333333 : 1"
   inkscape:vp_z="1 : 0.5 : 1"
   inkscape:vp_y="0 : 1000 : 0"
   inkscape:vp_x="0 : 0.5 : 1"
   sodipodi:type="inkscape:persp3d" /><inkscape:perspective
   id="perspective3031"
   inkscape:persp3d-origin="0.5 : 0.33333333 : 1"
   inkscape:vp_z="1 : 0.5 : 1"
   inkscape:vp_y="0 : 1000 : 0"
   inkscape:vp_x="0 : 0.5 : 1"
   sodipodi:type="inkscape:persp3d" /><inkscape:perspective
   id="perspective3061"
   inkscape:persp3d-origin="0.5 : 0.33333333 : 1"
   inkscape:vp_z="1 : 0.5 : 1"
   inkscape:vp_y="0 : 1000 : 0"
   inkscape:vp_x="0 : 0.5 : 1"
   sodipodi:type="inkscape:persp3d" /><inkscape:perspective
   id="perspective3083"
   inkscape:persp3d-origin="0.5 : 0.33333333 : 1"
   inkscape:vp_z="1 : 0.5 : 1"
   inkscape:vp_y="0 : 1000 : 0"
   inkscape:vp_x="0 : 0.5 : 1"
   sodipodi:type="inkscape:persp3d" /><inkscape:perspective
   id="perspective2876"
   inkscape:persp3d-origin="0.5 : 0.33333333 : 1"
   inkscape:vp_z="1 : 0.5 : 1"
   inkscape:vp_y="0 : 1000 : 0"
   inkscape:vp_x="0 : 0.5 : 1"
   sodipodi:type="inkscape:persp3d" /><inkscape:perspective
   id="perspective2915"
   inkscape:persp3d-origin="0.5 : 0.33333333 : 1"
   inkscape:vp_z="1 : 0.5 : 1"
   inkscape:vp_y="0 : 1000 : 0"
   inkscape:vp_x="0 : 0.5 : 1"
   sodipodi:type="inkscape:persp3d" /><inkscape:perspective
   id="perspective2942"
   inkscape:persp3d-origin="0.5 : 0.33333333 : 1"
   inkscape:vp_z="1 : 0.5 : 1"
   inkscape:vp_y="0 : 1000 : 0"
   inkscape:vp_x="0 : 0.5 : 1"
   sodipodi:type="inkscape:persp3d" /><inkscape:perspective
   id="perspective2964"
   inkscape:persp3d-origin="0.5 : 0.33333333 : 1"
   inkscape:vp_z="1 : 0.5 : 1"
   inkscape:vp_y="0 : 1000 : 0"
   inkscape:vp_x="0 : 0.5 : 1"
   sodipodi:type="inkscape:persp3d" /><inkscape:perspective
   id="perspective2986"
   inkscape:persp3d-origin="0.5 : 0.33333333 : 1"
   inkscape:vp_z="1 : 0.5 : 1"
   inkscape:vp_y="0 : 1000 : 0"
   inkscape:vp_x="0 : 0.5 : 1"
   sodipodi:type="inkscape:persp3d" /><inkscape:perspective
   id="perspective3008"
   inkscape:persp3d-origin="0.5 : 0.33333333 : 1"
   inkscape:vp_z="1 : 0.5 : 1"
   inkscape:vp_y="0 : 1000 : 0"
   inkscape:vp_x="0 : 0.5 : 1"
   sodipodi:type="inkscape:persp3d" /><inkscape:perspective
   id="perspective3030"
   inkscape:persp3d-origin="0.5 : 0.33333333 : 1"
   inkscape:vp_z="1 : 0.5 : 1"
   inkscape:vp_y="0 : 1000 : 0"
   inkscape:vp_x="0 : 0.5 : 1"
   sodipodi:type="inkscape:persp3d" /><inkscape:perspective
   id="perspective3061-4"
   inkscape:persp3d-origin="0.5 : 0.33333333 : 1"
   inkscape:vp_z="1 : 0.5 : 1"
   inkscape:vp_y="0 : 1000 : 0"
   inkscape:vp_x="0 : 0.5 : 1"
   sodipodi:type="inkscape:persp3d" /><inkscape:perspective
   id="perspective3083-5"
   inkscape:persp3d-origin="0.5 : 0.33333333 : 1"
   inkscape:vp_z="1 : 0.5 : 1"
   inkscape:vp_y="0 : 1000 : 0"
   inkscape:vp_x="0 : 0.5 : 1"
   sodipodi:type="inkscape:persp3d" /><inkscape:perspective
   id="perspective3083-7"
   inkscape:persp3d-origin="0.5 : 0.33333333 : 1"
   inkscape:vp_z="1 : 0.5 : 1"
   inkscape:vp_y="0 : 1000 : 0"
   inkscape:vp_x="0 : 0.5 : 1"
   sodipodi:type="inkscape:persp3d" /><inkscape:perspective
   id="perspective3083-52"
   inkscape:persp3d-origin="0.5 : 0.33333333 : 1"
   inkscape:vp_z="1 : 0.5 : 1"
   inkscape:vp_y="0 : 1000 : 0"
   inkscape:vp_x="0 : 0.5 : 1"
   sodipodi:type="inkscape:persp3d" /><inkscape:perspective
   id="perspective3083-6"
   inkscape:persp3d-origin="0.5 : 0.33333333 : 1"
   inkscape:vp_z="1 : 0.5 : 1"
   inkscape:vp_y="0 : 1000 : 0"
   inkscape:vp_x="0 : 0.5 : 1"
   sodipodi:type="inkscape:persp3d" /><inkscape:perspective
   id="perspective3134"
   inkscape:persp3d-origin="0.5 : 0.33333333 : 1"
   inkscape:vp_z="1 : 0.5 : 1"
   inkscape:vp_y="0 : 1000 : 0"
   inkscape:vp_x="0 : 0.5 : 1"
   sodipodi:type="inkscape:persp3d" /><inkscape:perspective
   id="perspective3158"
   inkscape:persp3d-origin="0.5 : 0.33333333 : 1"
   inkscape:vp_z="1 : 0.5 : 1"
   inkscape:vp_y="0 : 1000 : 0"
   inkscape:vp_x="0 : 0.5 : 1"
   sodipodi:type="inkscape:persp3d" /><inkscape:perspective
   id="perspective3158-2"
   inkscape:persp3d-origin="0.5 : 0.33333333 : 1"
   inkscape:vp_z="1 : 0.5 : 1"
   inkscape:vp_y="0 : 1000 : 0"
   inkscape:vp_x="0 : 0.5 : 1"
   sodipodi:type="inkscape:persp3d" /><inkscape:perspective
   id="perspective3189"
   inkscape:persp3d-origin="0.5 : 0.33333333 : 1"
   inkscape:vp_z="1 : 0.5 : 1"
   inkscape:vp_y="0 : 1000 : 0"
   inkscape:vp_x="0 : 0.5 : 1"
   sodipodi:type="inkscape:persp3d" /><inkscape:perspective
   id="perspective3213"
   inkscape:persp3d-origin="0.5 : 0.33333333 : 1"
   inkscape:vp_z="1 : 0.5 : 1"
   inkscape:vp_y="0 : 1000 : 0"
   inkscape:vp_x="0 : 0.5 : 1"
   sodipodi:type="inkscape:persp3d" /><inkscape:perspective
   id="perspective3235"
   inkscape:persp3d-origin="0.5 : 0.33333333 : 1"
   inkscape:vp_z="1 : 0.5 : 1"
   inkscape:vp_y="0 : 1000 : 0"
   inkscape:vp_x="0 : 0.5 : 1"
   sodipodi:type="inkscape:persp3d" /><inkscape:perspective
   id="perspective3235-5"
   inkscape:persp3d-origin="0.5 : 0.33333333 : 1"
   inkscape:vp_z="1 : 0.5 : 1"
   inkscape:vp_y="0 : 1000 : 0"
   inkscape:vp_x="0 : 0.5 : 1"
   sodipodi:type="inkscape:persp3d" /><inkscape:perspective
   id="perspective3266"
   inkscape:persp3d-origin="0.5 : 0.33333333 : 1"
   inkscape:vp_z="1 : 0.5 : 1"
   inkscape:vp_y="0 : 1000 : 0"
   inkscape:vp_x="0 : 0.5 : 1"
   sodipodi:type="inkscape:persp3d" /><inkscape:perspective
   id="perspective3288"
   inkscape:persp3d-origin="0.5 : 0.33333333 : 1"
   inkscape:vp_z="1 : 0.5 : 1"
   inkscape:vp_y="0 : 1000 : 0"
   inkscape:vp_x="0 : 0.5 : 1"
   sodipodi:type="inkscape:persp3d" /><inkscape:perspective
   id="perspective3310"
   inkscape:persp3d-origin="0.5 : 0.33333333 : 1"
   inkscape:vp_z="1 : 0.5 : 1"
   inkscape:vp_y="0 : 1000 : 0"
   inkscape:vp_x="0 : 0.5 : 1"
   sodipodi:type="inkscape:persp3d" /><inkscape:perspective
   id="perspective3310-9"
   inkscape:persp3d-origin="0.5 : 0.33333333 : 1"
   inkscape:vp_z="1 : 0.5 : 1"
   inkscape:vp_y="0 : 1000 : 0"
   inkscape:vp_x="0 : 0.5 : 1"
   sodipodi:type="inkscape:persp3d" /><inkscape:perspective
   id="perspective3341"
   inkscape:persp3d-origin="0.5 : 0.33333333 : 1"
   inkscape:vp_z="1 : 0.5 : 1"
   inkscape:vp_y="0 : 1000 : 0"
   inkscape:vp_x="0 : 0.5 : 1"
   sodipodi:type="inkscape:persp3d" /><inkscape:perspective
   id="perspective3363"
   inkscape:persp3d-origin="0.5 : 0.33333333 : 1"
   inkscape:vp_z="1 : 0.5 : 1"
   inkscape:vp_y="0 : 1000 : 0"
   inkscape:vp_x="0 : 0.5 : 1"
   sodipodi:type="inkscape:persp3d" /><inkscape:perspective
   id="perspective3385"
   inkscape:persp3d-origin="0.5 : 0.33333333 : 1"
   inkscape:vp_z="1 : 0.5 : 1"
   inkscape:vp_y="0 : 1000 : 0"
   inkscape:vp_x="0 : 0.5 : 1"
   sodipodi:type="inkscape:persp3d" /><inkscape:perspective
   id="perspective3407"
   inkscape:persp3d-origin="0.5 : 0.33333333 : 1"
   inkscape:vp_z="1 : 0.5 : 1"
   inkscape:vp_y="0 : 1000 : 0"
   inkscape:vp_x="0 : 0.5 : 1"
   sodipodi:type="inkscape:persp3d" /><inkscape:perspective
   id="perspective3429"
   inkscape:persp3d-origin="0.5 : 0.33333333 : 1"
   inkscape:vp_z="1 : 0.5 : 1"
   inkscape:vp_y="0 : 1000 : 0"
   inkscape:vp_x="0 : 0.5 : 1"
   sodipodi:type="inkscape:persp3d" /><inkscape:perspective
   id="perspective3451"
   inkscape:persp3d-origin="0.5 : 0.33333333 : 1"
   inkscape:vp_z="1 : 0.5 : 1"
   inkscape:vp_y="0 : 1000 : 0"
   inkscape:vp_x="0 : 0.5 : 1"
   sodipodi:type="inkscape:persp3d" /><inkscape:perspective
   id="perspective3475"
   inkscape:persp3d-origin="0.5 : 0.33333333 : 1"
   inkscape:vp_z="1 : 0.5 : 1"
   inkscape:vp_y="0 : 1000 : 0"
   inkscape:vp_x="0 : 0.5 : 1"
   sodipodi:type="inkscape:persp3d" /><inkscape:perspective
   id="perspective3499"
   inkscape:persp3d-origin="0.5 : 0.33333333 : 1"
   inkscape:vp_z="1 : 0.5 : 1"
   inkscape:vp_y="0 : 1000 : 0"
   inkscape:vp_x="0 : 0.5 : 1"
   sodipodi:type="inkscape:persp3d" /><inkscape:perspective
   id="perspective3521"
   inkscape:persp3d-origin="0.5 : 0.33333333 : 1"
   inkscape:vp_z="1 : 0.5 : 1"
   inkscape:vp_y="0 : 1000 : 0"
   inkscape:vp_x="0 : 0.5 : 1"
   sodipodi:type="inkscape:persp3d" /><inkscape:perspective
   id="perspective3543"
   inkscape:persp3d-origin="0.5 : 0.33333333 : 1"
   inkscape:vp_z="1 : 0.5 : 1"
   inkscape:vp_y="0 : 1000 : 0"
   inkscape:vp_x="0 : 0.5 : 1"
   sodipodi:type="inkscape:persp3d" /><inkscape:perspective
   id="perspective3543-1"
   inkscape:persp3d-origin="0.5 : 0.33333333 : 1"
   inkscape:vp_z="1 : 0.5 : 1"
   inkscape:vp_y="0 : 1000 : 0"
   inkscape:vp_x="0 : 0.5 : 1"
   sodipodi:type="inkscape:persp3d" /><inkscape:perspective
   id="perspective3543-3"
   inkscape:persp3d-origin="0.5 : 0.33333333 : 1"
   inkscape:vp_z="1 : 0.5 : 1"
   inkscape:vp_y="0 : 1000 : 0"
   inkscape:vp_x="0 : 0.5 : 1"
   sodipodi:type="inkscape:persp3d" /><inkscape:perspective
   id="perspective3596"
   inkscape:persp3d-origin="0.5 : 0.33333333 : 1"
   inkscape:vp_z="1 : 0.5 : 1"
   inkscape:vp_y="0 : 1000 : 0"
   inkscape:vp_x="0 : 0.5 : 1"
   sodipodi:type="inkscape:persp3d" /><inkscape:perspective
   id="perspective3596-4"
   inkscape:persp3d-origin="0.5 : 0.33333333 : 1"
   inkscape:vp_z="1 : 0.5 : 1"
   inkscape:vp_y="0 : 1000 : 0"
   inkscape:vp_x="0 : 0.5 : 1"
   sodipodi:type="inkscape:persp3d" /><inkscape:perspective
   id="perspective3627"
   inkscape:persp3d-origin="0.5 : 0.33333333 : 1"
   inkscape:vp_z="1 : 0.5 : 1"
   inkscape:vp_y="0 : 1000 : 0"
   inkscape:vp_x="0 : 0.5 : 1"
   sodipodi:type="inkscape:persp3d" /><inkscape:perspective
   id="perspective3627-7"
   inkscape:persp3d-origin="0.5 : 0.33333333 : 1"
   inkscape:vp_z="1 : 0.5 : 1"
   inkscape:vp_y="0 : 1000 : 0"
   inkscape:vp_x="0 : 0.5 : 1"
   sodipodi:type="inkscape:persp3d" /><inkscape:perspective
   id="perspective3660"
   inkscape:persp3d-origin="0.5 : 0.33333333 : 1"
   inkscape:vp_z="1 : 0.5 : 1"
   inkscape:vp_y="0 : 1000 : 0"
   inkscape:vp_x="0 : 0.5 : 1"
   sodipodi:type="inkscape:persp3d" /><inkscape:perspective
   id="perspective3684"
   inkscape:persp3d-origin="0.5 : 0.33333333 : 1"
   inkscape:vp_z="1 : 0.5 : 1"
   inkscape:vp_y="0 : 1000 : 0"
   inkscape:vp_x="0 : 0.5 : 1"
   sodipodi:type="inkscape:persp3d" /><inkscape:perspective
   id="perspective3706"
   inkscape:persp3d-origin="0.5 : 0.33333333 : 1"
   inkscape:vp_z="1 : 0.5 : 1"
   inkscape:vp_y="0 : 1000 : 0"
   inkscape:vp_x="0 : 0.5 : 1"
   sodipodi:type="inkscape:persp3d" /><inkscape:perspective
   id="perspective3728"
   inkscape:persp3d-origin="0.5 : 0.33333333 : 1"
   inkscape:vp_z="1 : 0.5 : 1"
   inkscape:vp_y="0 : 1000 : 0"
   inkscape:vp_x="0 : 0.5 : 1"
   sodipodi:type="inkscape:persp3d" /><inkscape:perspective
   id="perspective3750"
   inkscape:persp3d-origin="0.5 : 0.33333333 : 1"
   inkscape:vp_z="1 : 0.5 : 1"
   inkscape:vp_y="0 : 1000 : 0"
   inkscape:vp_x="0 : 0.5 : 1"
   sodipodi:type="inkscape:persp3d" /><inkscape:perspective
   id="perspective3785"
   inkscape:persp3d-origin="0.5 : 0.33333333 : 1"
   inkscape:vp_z="1 : 0.5 : 1"
   inkscape:vp_y="0 : 1000 : 0"
   inkscape:vp_x="0 : 0.5 : 1"
   sodipodi:type="inkscape:persp3d" /><inkscape:perspective
   id="perspective3828"
   inkscape:persp3d-origin="0.5 : 0.33333333 : 1"
   inkscape:vp_z="1 : 0.5 : 1"
   inkscape:vp_y="0 : 1000 : 0"
   inkscape:vp_x="0 : 0.5 : 1"
   sodipodi:type="inkscape:persp3d" /><inkscape:perspective
   id="perspective3864"
   inkscape:persp3d-origin="0.5 : 0.33333333 : 1"
   inkscape:vp_z="1 : 0.5 : 1"
   inkscape:vp_y="0 : 1000 : 0"
   inkscape:vp_x="0 : 0.5 : 1"
   sodipodi:type="inkscape:persp3d" /><inkscape:perspective
   id="perspective3891"
   inkscape:persp3d-origin="0.5 : 0.33333333 : 1"
   inkscape:vp_z="1 : 0.5 : 1"
   inkscape:vp_y="0 : 1000 : 0"
   inkscape:vp_x="0 : 0.5 : 1"
   sodipodi:type="inkscape:persp3d" /><inkscape:perspective
   id="perspective3917"
   inkscape:persp3d-origin="0.5 : 0.33333333 : 1"
   inkscape:vp_z="1 : 0.5 : 1"
   inkscape:vp_y="0 : 1000 : 0"
   inkscape:vp_x="0 : 0.5 : 1"
   sodipodi:type="inkscape:persp3d" /><inkscape:perspective
   id="perspective3941"
   inkscape:persp3d-origin="0.5 : 0.33333333 : 1"
   inkscape:vp_z="1 : 0.5 : 1"
   inkscape:vp_y="0 : 1000 : 0"
   inkscape:vp_x="0 : 0.5 : 1"
   sodipodi:type="inkscape:persp3d" /><inkscape:perspective
   id="perspective3963"
   inkscape:persp3d-origin="0.5 : 0.33333333 : 1"
   inkscape:vp_z="1 : 0.5 : 1"
   inkscape:vp_y="0 : 1000 : 0"
   inkscape:vp_x="0 : 0.5 : 1"
   sodipodi:type="inkscape:persp3d" /></defs><sodipodi:namedview
   pagecolor="#ffffff"
   bordercolor="#666666"
   borderopacity="1"
   objecttolerance="10"
   gridtolerance="10"
   guidetolerance="10"
   inkscape:pageopacity="0"
   inkscape:pageshadow="2"
   inkscape:window-width="1024"
   inkscape:window-height="712"
   id="namedview83"
   showgrid="false"
   inkscape:zoom="0.44999302"
   inkscape:cx="693.18339"
   inkscape:cy="209.14875"
   inkscape:window-x="-4"
   inkscape:window-y="-4"
   inkscape:window-maximized="1"
   inkscape:current-layer="Layer_1"
   showguides="true"
   inkscape:guide-bbox="true"
   inkscape:snap-bbox="true"
   inkscape:bbox-nodes="true"
   inkscape:bbox-paths="true"
   inkscape:snap-bbox-edge-midpoints="true"
   inkscape:snap-bbox-midpoints="true"
   inkscape:object-paths="true"
   inkscape:snap-intersection-paths="true"
   inkscape:object-nodes="true"
   inkscape:snap-smooth-nodes="true"
   inkscape:snap-midpoints="true"
   inkscape:snap-global="true" />

<g
   id="g3025"><rect
     y="0"
     x="0"
     height="550"
     width="1024"
     id="rect3981"
     style="opacity:0.3;fill:none;stroke:none" /><path
     d="m 97.838606,173.58771 c -6.29,0.6421 -10.2933,1.12041 -12.2327,2.25391 -2.077,1.12696 -3.8461,5.46443 -3.3809,34.70633 l 0.4914,43.54505 c 0.3211,28.12804 -6.2638,40.4918 -34.2214,53.51732 -0.4914,0.3276 -1.9198,-1.7625 -1.2843,-2.25392 14.1394,-10.26709 21.5302,-17.19918 21.5302,-51.2634 v -43.54505 c 0,-29.2419 -1.4546,-33.57937 -3.3744,-34.70633 -1.9328,-1.1335 -6.113,-1.61181 -12.3965,-2.25391 -0.6421,-0.15725 -0.6421,-3.37431 -0.1441,-3.37431 7.548,0 37.5892,0 45.1634,0 0.4849,0 0.6487,3.21051 -0.1507,3.37431"
     id="path27-4"
     style="fill:#000000" /><path
     d="m 184.74531,272.56984 c -0.8125,0.95661 -5.6348,1.93286 -12.3703,1.93286 -9.6512,0 -14.6308,-0.4914 -27.9643,-0.4914 -10.444,0 -18.1558,0.15725 -29.5695,0.3276 -0.4848,0 -0.4848,-3.19741 0.1573,-3.35466 6.2703,-0.65521 9.9591,-1.14661 11.8985,-2.26701 1.9133,-1.13351 3.3613,-5.47098 3.3613,-34.70631 v -23.46953 c 0,-29.24189 -1.448,-33.57936 -3.3613,-34.70632 -1.9394,-1.13351 -5.6282,-1.61181 -11.8985,-2.25391 -0.6421,-0.15725 -0.6421,-3.37432 -0.1573,-3.37432 12.5341,0.1507 33.5794,0.32105 44.0234,0.32105 13.5104,0 18.8044,-0.15725 23.6333,-0.8059 0.7928,0 0.9566,0.3276 0.9566,0.64865 -0.321,5.61513 -0.8059,13.67418 -1.7625,22.33602 -0.1769,0.6552 -3.5447,0.47175 -3.5447,-0.4783 0,-3.85917 -1.2711,-8.19009 -3.6888,-10.92886 -3.3808,-3.38087 -7.24,-4.83543 -16.3933,-4.83543 -6.2768,0 -12.213,0 -13.6479,0.34726 -0.4914,1.59871 -0.6421,7.54799 -0.6421,17.65783 v 22.80776 h 13.1762 c 15.2532,0 15.5743,-4.32436 16.5374,-10.11639 0.1638,-0.629 3.5381,-0.47175 3.5381,0 -0.1441,4.34402 -0.6355,24.43267 -0.7928,28.92084 0,0.48485 -3.5381,0.48485 -3.5381,-0.15725 0,-2.86981 -0.7928,-8.33424 -2.2539,-9.95915 -1.4414,-1.46111 -2.2539,-2.41771 -13.6611,-2.41771 h -12.9993 v 10.78471 c 0,20.72419 0.9501,30.21814 2.3981,31.65304 1.448,1.42835 6.4276,2.07701 15.915,2.07701 9.9591,0 13.661,-2.39151 16.5505,-5.45133 1.9132,-2.09011 3.8526,-6.76173 5.3006,-12.84859 0.1704,-0.81246 3.5381,-0.16381 3.5381,0.63555 -0.819,10.12293 -2.5946,21.85769 -2.7387,22.17219"
     id="path29-0"
     style="fill:#000000" /><path
     d="m 237.44361,276.44212 c -13.3466,0 -24.2558,-5.95584 -25.7038,-8.03939 -0.1507,-0.34071 -1.7756,-17.05505 -0.9697,-25.24512 0,-0.78625 3.5447,-0.95661 3.6888,0 0.3407,6.11308 3.3743,14.31626 5.6283,17.68402 4.0033,6.09998 10.9288,10.13606 20.7307,10.13606 11.0927,0 17.1992,-7.39729 17.1992,-18.98135 0,-25.36306 -42.274,-26.66037 -42.274,-55.90881 0,-15.27944 12.39,-28.44255 29.255,-28.44255 12.2262,0 13.9887,3.85917 20.888,3.05982 0.6487,-0.15725 0.9697,0.1507 0.9697,0.47175 0,5.64133 0.3342,15.10908 0,23.78402 -0.1507,0.48485 -3.5381,0.48485 -3.7019,-0.32105 -0.4914,-6.42758 -1.9132,-12.05581 -4.9795,-15.58083 -3.5251,-3.86572 -8.0263,-6.27033 -14.9453,-6.27033 -8.675,0 -15.2598,7.55454 -15.2598,17.52024 0,21.70701 42.8964,26.98798 42.8964,54.78842 -0.01,20.08864 -17.1926,31.3451 -33.4221,31.3451"
     id="path31-9"
     style="fill:#000000" /><path
     d="m 386.91311,176.31993 c -1.2777,1.12695 -2.7257,4.98612 -2.7257,34.22802 v 27.00108 c 0,19.27619 -14.8011,37.75958 -42.2674,37.75958 -25.0682,0 -40.3477,-16.55053 -40.3477,-37.43852 v -27.32214 c 0,-29.2419 -1.4349,-33.57937 -3.3612,-34.70633 -2.0966,-1.1335 -4.8157,-1.61181 -11.0926,-2.25391 -0.6356,-0.15725 -0.6356,-3.37431 -0.1704,-3.37431 7.5545,0 35.8464,0 43.3878,0 0.4849,0 0.4849,3.21051 -0.1507,3.37431 -6.2506,0.6421 -9.6446,1.12041 -11.7282,2.25391 -1.9394,1.12696 -3.3808,5.46443 -3.3808,34.70633 v 24.43267 c 0,17.68403 11.0861,32.29515 32.2886,32.29515 19.7741,0 29.5826,-14.93872 29.5826,-30.53264 V 210.5545 c 0,-29.2419 -1.625,-33.10107 -2.8961,-34.22802 -1.7625,-1.61181 -5.4578,-2.09011 -11.8854,-2.73222 -0.6356,-0.15725 -0.4849,-3.37431 0,-3.37431 7.5611,0 28.4425,0 35.9905,0 0.4783,0 0.819,3.21051 0,3.37431 -6.2638,0.63555 -9.4874,1.11386 -11.2433,2.72567"
     id="path33-4"
     style="fill:#000000" /><path
     d="m 626.85111,274.4962 c -13.8472,0 -21.3464,-1.59349 -27.5642,-5.73659 -8.1366,-5.59349 -16.735,-16.44878 -29.6781,-38.29593 -7.7984,0.16911 -11.0114,0.16911 -17.0601,-0.14959 v 4.15609 c 0,29.02114 1.4308,33.32683 3.3626,34.45204 2.0813,1.11219 6.8292,1.43089 13.8601,2.2504 0.6309,0.1496 0.6309,3.33008 0.1756,3.33008 -7.5057,0 -37.652,0 -45.1707,0 -0.4748,0 -0.6309,-3.17398 0.1561,-3.33008 6.2439,-0.6504 8.9626,-1.13821 10.8618,-2.2504 2.0488,-1.12521 3.3496,-5.4309 3.3496,-34.45204 v -23.29756 c 0,-29.02764 -1.2943,-33.33333 -3.3496,-34.45203 -1.8992,-1.1252 -4.6179,-1.6 -10.8618,-2.2374 -0.787,-0.1561 -0.6374,-3.34959 -0.1561,-3.34959 7.0439,0 15.1805,0.3187 21.0537,0.3187 5.9121,0 12.2861,-0.3187 19.4861,-0.3187 23.7399,0 35.7008,13.24227 35.7008,25.36585 0,12.75447 -7.9544,22.96586 -19.1349,29.81464 22.6471,33.82113 35.4081,44.66992 46.1073,44.66992 6.2244,0 10.0423,-0.9561 11.961,-2.0683 1.9447,-1.1317 3.3561,-5.43089 3.3561,-34.45203 v -23.30407 c 0,-29.02764 -1.4114,-33.33333 -3.3561,-34.45203 -1.9122,-1.1252 -6.0553,-1.6 -12.2667,-2.2374 -0.6699,-0.15609 -0.6699,-3.34959 -0.1561,-3.34959 7.4862,0 37.3138,0 44.826,0 0.6114,0 0.6114,3.18699 -0.1496,3.34959 -6.2374,0.6374 -10.2309,1.1122 -12.1496,2.2374 -2.0552,1.1187 -3.3561,5.42439 -3.3561,34.45203 v 23.30407 c 0,29.02114 1.2944,33.32033 3.3561,34.45203 1.9187,1.1122 5.9122,1.5935 12.1496,2.24391 0.761,0.14959 0.761,3.32357 0.1496,3.32357 -7.5187,0.013 -37.8081,0.013 -45.5024,0.013 m -61.8602,-97.95122 c -5.4244,0 -10.2244,0.7935 -10.7057,1.45691 -0.7805,0.9496 -1.7496,10.05529 -1.7496,33.17073 0,9.56749 0.2992,11.33009 0.9626,11.96748 1.0992,1.1122 5.5545,1.76261 13.2228,1.76261 13.0732,0 19.161,-9.89269 19.161,-22.36098 0.01,-15.29756 -5.574,-25.99675 -20.8911,-25.99675 z"
     id="path41-8"
     style="fill:#000000" /><path
     d="m 717.60231,276.58401 c -13.2293,0 -24.065,-5.9122 -25.5219,-7.98049 -0.1431,-0.33821 -1.7301,-16.93008 -0.9431,-25.06016 0,-0.78049 3.5057,-0.9496 3.6683,0 0.3056,6.06829 3.3691,14.21138 5.5739,17.55447 3.9805,6.05528 10.8423,10.06179 20.5919,10.06179 10.9854,0 17.0407,-7.34309 17.0407,-18.84228 0,-25.17724 -41.9513,-26.46504 -41.9513,-55.49919 0,-15.16748 12.3122,-28.23414 29.0537,-28.23414 12.1236,0 13.8927,3.83089 20.735,3.03739 0.6374,-0.15609 0.9561,0.1496 0.9561,0.4683 0,5.6 0.3187,14.99837 0,23.60975 -0.1561,0.4813 -3.5057,0.4813 -3.6683,-0.3187 -0.5073,-6.38048 -1.9252,-11.96748 -4.9561,-15.46666 -3.5252,-3.8374 -7.987,-6.22439 -14.8423,-6.22439 -8.6114,0 -15.122,7.49918 -15.122,17.39187 0,21.54796 42.5692,26.79024 42.5692,54.38699 0.01,19.94146 -17.0537,31.11545 -33.1838,31.11545"
     id="path43-8"
     style="fill:#000000" /><path
     d="m 857.23081,196.81165 c -0.1626,0.78699 -3.5057,0.78699 -3.5057,-0.3122 0,-3.99349 -0.4813,-11.64227 -3.187,-14.51057 -3.1935,-3.3626 -9.7366,-6.0813 -23.7464,-6.0813 -3.6878,0 -5.587,0 -7.2,0.32521 -0.5008,1.6065 -0.6439,9.26178 -0.6439,19.30406 v 38.93984 c 0,29.01463 1.4374,33.32032 3.3366,34.44553 1.9577,1.11219 5.9382,1.59349 12.3122,2.2439 0.6309,0.14959 0.6309,3.33008 0.1561,3.33008 -7.6813,0 -37.3203,0 -44.9951,0 -0.4813,0 -0.4813,-3.17398 0.3122,-3.33008 6.2179,-0.65041 10.2309,-1.13171 12.1366,-2.2439 2.0748,-1.12521 3.3366,-5.4309 3.3366,-34.44553 v -38.93984 c 0,-10.04228 -0.1431,-17.69756 -0.6309,-19.30406 -1.5805,-0.32521 -4.2992,-0.32521 -7.961,-0.32521 -15.0309,0 -20.1106,1.60651 -23.8114,6.0813 -2.5301,3.0309 -4.1366,8.59187 -5.2423,14.82277 -0.1496,1.1187 -3.5122,0.6504 -3.5122,-0.3122 0.9496,-8.29918 1.9317,-20.42927 2.4065,-25.86016 0,-0.4748 0.8,-0.78699 1.9057,-0.63089 5.574,0.94959 15.8179,1.75609 43.5578,1.75609 38.1203,0 41.613,-1.1252 44.5073,-2.06829 0.9496,-0.3252 1.7301,0.14959 1.7301,0.63089 -0.01,6.0683 -0.2927,18.04228 -1.2618,26.48456"
     id="path45-2"
     style="fill:#000000" /><path
     d="m 500.47371,269.33498 c -0.482,0.79465 -11.1966,7.52307 -31.7857,7.52307 -34.033,0 -55.6121,-23.80025 -55.6121,-52.74615 0,-27.30451 19.6511,-55.25385 55.2668,-55.25385 18.0554,0 27.018,6.07056 32.7498,4.79392 0.6318,-0.16935 0.977,0.32568 0.977,0.63832 0.1368,5.58206 0.6318,17.09137 0.4755,25.70871 -0.1563,0.65786 -3.5173,0.65786 -3.6996,-0.31265 -0.6318,-6.56559 -2.6901,-11.99132 -6.5461,-16.1404 -4.8069,-4.95025 -14.8572,-9.10585 -25.5459,-9.10585 -27.819,0 -38.6705,22.3738 -38.6705,45.06025 0,26.02135 16.4531,51.11779 40.9047,51.11779 11.8219,0 19.4753,-3.36747 24.9205,-10.06984 3.3545,-4.14257 5.289,-8.94301 6.6959,-13.7239 0.1563,-0.97051 3.5108,-0.16284 3.5108,0.47548 -0.4495,6.70237 -3.3219,21.56613 -3.6411,22.0351"
     id="path37-4"
     style="fill:#000000" /><path
     d="m 920.67601,276.87053 c -30.1649,0 -52.6562,-23.54465 -52.6562,-52.7797 0,-27.77329 22.4913,-55.2203 54.6393,-55.2203 30.2019,0 52.6932,23.54465 52.6932,52.79275 0,27.74719 -22.4913,55.20725 -54.6763,55.20725 m -1.1208,-101.34381 c -27.9233,0 -35.8802,24.11892 -35.8802,44.02224 0,26.23323 14.793,50.69148 40.1419,50.69148 27.874,0 35.8802,-24.15807 35.8802,-44.03529 0.012,-26.25933 -14.83,-50.67843 -40.1419,-50.67843 z"
     id="path47-5"
     style="fill:#000000" /><path
     d="m 267.37011,112.8973 c -0.6085,0.89977 -1.5147,1.4953 -3.5991,1.4953 -5.0944,0 -11.082,-0.29129 -17.9565,-0.29129 -5.3857,0 -9.2826,0 -15.2508,0.12946 -0.1489,0 -0.1489,-1.78012 0.1424,-1.94195 3.2948,-0.29129 4.6283,-0.73147 5.6705,-1.33994 1.0616,-0.4596 1.6701,-2.24619 1.6701,-16.894969 v -11.65816 c 0,-14.66818 -0.6085,-16.47419 -1.6701,-16.92732 -1.0357,-0.602 -2.3821,-1.04218 -5.6705,-1.48235 -0.2913,0 -0.2913,-1.80601 -0.1424,-1.80601 3.8904,0 18.5456,0 22.4295,0 0.1554,0 0.1554,1.80601 -0.1489,1.80601 -3.2883,0.43371 -4.6412,0.88035 -5.6769,1.48235 -1.0487,0.45313 -1.6701,2.26562 -1.6701,16.92732 v 11.65816 c 0,9.716229 0.7638,14.202129 1.8125,15.412609 0.8933,0.88683 2.0973,1.48236 6.8809,1.48236 4.6284,0 7.7678,-1.20401 9.7292,-3.42431 1.7866,-2.11025 3.1395,-5.53455 3.7285,-8.091459 0.1489,-0.44017 2.1038,-0.15535 2.1038,0.29777 -0.4402,4.194619 -1.6442,11.975359 -2.3821,13.166419"
     id="path51-1"
     style="fill:#000000" /><path
     d="m 307.01961,114.12416 c -0.1489,0 -0.2978,-1.78012 0,-1.93547 2.5439,-0.13594 4.1816,-0.73794 4.1816,-1.94842 0,-1.33348 -1.0422,-4.03926 -5.8323,-15.406139 0.1618,0 -16.3059,0 -16.4548,0 -3.8968,10.175819 -4.7707,13.179369 -4.7707,14.965959 0,1.35289 1.1911,2.0973 4.6218,2.3886 0.4467,0.14888 0.2913,1.93547 0,1.93547 -2.395,0 -13.4641,0 -17.3351,0 -0.3042,0 -0.3042,-1.78012 0,-1.93547 2.531,-0.13594 4.0263,-0.58906 5.2239,-1.4953 1.6571,-1.19754 3.5861,-4.18167 8.2273,-16.746079 l 4.4859,-11.66464 c 2.5505,-6.74503 5.2368,-13.77489 7.3277,-20.06032 0.1618,-0.59553 3.4437,-0.59553 3.7415,0 2.4015,7.02338 4.6218,12.71329 7.4829,20.06032 l 4.6413,11.66464 c 6.2984,15.108369 7.1787,16.014609 8.6805,16.894959 1.5018,0.8933 2.6734,1.21695 5.0879,1.34642 0.2913,0.14888 0.1424,1.93547 0,1.93547 -3.9033,0 -15.445,0 -19.3094,0 m -9.8781,-41.285819 -6.7256,18.24784 h 13.6066 l -6.881,-18.24784 z"
     id="path53-7"
     style="fill:#000000" /><path
     d="m 531.84871,383.85532 c -7.7594,0 -13.1238,-3.88616 -13.2788,-4.77055 -0.6068,-2.679 -0.6068,-7.314 -0.1549,-11.49064 0,-0.29697 1.9302,-0.45189 1.9302,0 0.3227,3.13087 1.517,5.95189 2.6983,7.76585 2.3756,3.12443 5.513,5.35801 10.3158,5.35801 5.9584,0 8.9408,-3.87972 8.9408,-9.39264 0,-11.79408 -21.9485,-13.88563 -21.9485,-27.15152 0,-8.2113 7.7724,-14.04054 15.3898,-14.04054 6.2811,0 7.9014,2.24003 10.8838,1.4912 0.3163,-0.14202 0.6068,0.14201 0.6068,0.30341 -0.1614,2.84038 0,6.86857 -0.1614,11.20015 0,0.27759 -1.9301,0.27759 -2.0593,0 -0.1549,-2.54989 -1.362,-5.69367 -2.6983,-7.01704 -1.7882,-1.80752 -4.79,-2.84685 -7.3269,-2.84685 -4.5963,0 -8.0499,3.12443 -8.0499,8.06282 0,10.01883 22.6714,13.87916 22.6714,27.01597 -0.01,9.99298 -9.4056,15.51237 -17.7589,15.51237"
     id="path71-4"
     style="fill:#000000" /><path
     d="m 587.68061,383.10795 c -0.1484,0 -0.3163,-1.77524 0,-1.93016 2.537,-0.13561 4.1832,-0.73593 4.1832,-1.94308 0,-1.32982 -1.0394,-4.02819 -5.8357,-15.3639 0.1356,0 -16.2677,0 -16.3968,0 -3.8991,10.14792 -4.777,13.14323 -4.777,14.92493 0,1.34917 1.1942,2.09155 4.6156,2.38205 0.4454,0.14846 0.2969,1.93016 0,1.93016 -2.3756,0 -13.4337,0 -17.2876,0 -0.3228,0 -0.3228,-1.77524 0,-1.93016 2.5241,-0.13561 4.0024,-0.58745 5.2095,-1.49121 1.6526,-1.19425 3.5763,-4.1702 8.2113,-16.70019 l 4.4801,-11.63266 c 2.5047,-6.72656 5.203,-13.73714 7.2946,-20.00535 0.1549,-0.5939 3.4149,-0.5939 3.7377,0 2.3756,7.00412 4.6285,12.67843 7.4495,20.00535 l 4.6092,11.63266 c 6.2747,15.06697 7.1655,15.97073 8.689,16.84866 1.4783,0.89086 2.6984,1.21363 5.0352,1.34274 0.3228,0.14846 0.155,1.93016 0,1.93016 -3.8668,0 -15.3639,0 -19.2178,0 m -9.8574,-41.17269 -6.6942,18.19782 h 13.5822 l -6.888,-18.19782 z"
     id="path73-0"
     style="fill:#000000" /><path
     sodipodi:nodetypes="csssccsscc"
     d="m 758.25011,383.85532 c -15.0879,0 -28.0169,-11.77654 -28.0169,-26.3993 0,-13.89163 12.929,-27.62004 29.0088,-27.62004 15.1064,0 27.7703,11.77654 27.7703,26.40583 0,13.87857 -12.6639,27.61351 -28.7622,27.61351 m -0.5606,-50.69005 c -13.9666,0 -18.8304,12.06378 -18.8304,22.019 0,13.12131 8.283,25.35482 20.962,25.35482 13.942,0 19.0956,-12.08337 19.0956,-22.02553 0.01,-13.13437 -8.5667,-25.34829 -21.2272,-25.34829 z"
     id="path47-5-4"
     style="fill:#000000" /><path
     d="m 243.79021,375.13778 c -5.6968,5.55375 -12.0179,7.95994 -22.5401,7.95994 -3.7589,0 -9.6183,-0.13657 -12.7528,-0.13657 -3.0305,0 -7.5308,0.13657 -11.1465,0.13657 -0.3252,0 -0.3252,-1.78839 0,-1.94447 3.2906,-0.29914 4.6693,-0.74136 5.7228,-1.35267 1.047,-0.45522 1.7884,-2.25011 1.7884,-16.9734 v -11.7188 c 0,-14.72978 -0.7414,-16.55068 -1.7884,-16.9994 -1.0535,-0.5983 -2.4257,-1.05352 -5.7228,-1.48924 -0.3252,0 -0.3252,-1.81439 0,-1.81439 3.6157,0 8.1225,0.15608 11.1465,0.15608 3.1345,0 10.8083,-0.15608 14.3916,-0.15608 16.8368,0 29.4596,10.98392 29.4596,25.55764 0,6.89991 -3.4532,13.81284 -8.5583,18.77479 m -23.301,-41.34745 c -5.079,0 -6.4447,0.76737 -7.0625,1.52825 -0.4487,0.57879 -1.1901,4.34415 -1.1901,15.45815 v 12.04396 c 0,9.75483 0.7349,13.96891 1.8014,15.172 1.4893,1.50225 2.6793,1.95097 7.056,1.95097 16.232,0 23.171,-7.05599 23.171,-22.2345 0,-12.3301 -7.9795,-23.91883 -23.7758,-23.91883 z"
     id="path65-8"
     style="fill:#000000" /><path
     d="m 386.67358,88.431561 c 0.15667,-15.254046 12.9736,-27.45424 30.43298,-27.409405 6.61463,0.01707 13.48234,2.091186 16.59355,3.259789 0.084,1.922379 0.84387,4.863619 1.26518,11.606395 -0.012,0.821657 -1.77139,0.709997 -1.76856,0.08838 -1.05971,-7.687382 -10.53603,-11.62358 -16.41837,-11.825493 -12.39881,-0.425593 -22.02392,7.505209 -21.79867,23.742039 0.22437,16.174344 12.83063,24.089224 24.25728,24.264864 10.07933,0.15409 9.36302,-3.0946 9.40293,-4.72811 0.0365,-1.55566 0.19182,-7.932023 -0.25,-10.658162 -0.34868,-3.360055 0.14877,-4.857494 -7.47267,-4.777801 l -0.13259,-1.972397 21.10394,0 0.13259,1.972397 c -6.5694,-0.03964 -6.11442,2.341487 -6.03779,5.076506 l -0.007,10.162827 c -0.005,6.04855 -6.65717,7.73896 -19.0742,7.67997 -16.1896,-0.0772 -30.38591,-11.16525 -30.22861,-26.481803 z"
     id="path3049"
     sodipodi:nodetypes="cscccszssccccccssz"
     style="font-size:91.78327179px;font-style:normal;font-weight:normal;fill:#000000;fill-opacity:1;stroke:none;font-family:Cambria Math;-inkscape-font-specification:Cambria Math" /><path
     d="m 487.32901,112.8973 c -0.6085,0.89977 -1.5147,1.4953 -3.5991,1.4953 -5.0943,0 -11.082,-0.2913 -17.9565,-0.2913 -5.3857,0 -9.2825,0 -15.2508,0.12947 -0.1489,0 -0.1489,-1.78012 0.1424,-1.94195 3.2949,-0.2913 4.6283,-0.73147 5.6705,-1.33995 1.0616,-0.45959 1.6701,-2.24619 1.6701,-16.894959 v -11.65816 c 0,-14.66818 -0.6085,-16.47419 -1.6701,-16.92732 -1.0357,-0.602 -2.3821,-1.04218 -5.6705,-1.48235 -0.2913,0 -0.2913,-1.80601 -0.1424,-1.80601 3.8904,0 18.5456,0 22.4295,0 0.1554,0 0.1554,1.80601 -0.1489,1.80601 -3.2883,0.43371 -4.6412,0.88035 -5.6769,1.48235 -1.0487,0.45313 -1.6701,2.26562 -1.6701,16.92732 v 11.65816 c 0,9.716219 0.7638,14.202129 1.8125,15.412609 0.8933,0.88682 2.0973,1.48235 6.881,1.48235 4.6283,0 7.7678,-1.20401 9.7291,-3.4243 1.7866,-2.11025 3.1395,-5.53456 3.7286,-8.091459 0.1488,-0.44017 2.1037,-0.15535 2.1037,0.29777 -0.4401,4.194609 -1.6441,11.975349 -2.3821,13.166409"
     id="path51-1-1"
     style="fill:#000000" /><path
     d="m 372.03871,381.86546 c -0.6085,0.89977 -1.5147,1.4953 -3.5991,1.4953 -5.0943,0 -11.082,-0.29129 -17.9565,-0.29129 -5.3857,0 -9.2825,0 -15.2508,0.12946 -0.1489,0 -0.1489,-1.78012 0.1424,-1.94195 3.2949,-0.29129 4.6283,-0.73146 5.6705,-1.33994 1.0616,-0.45959 1.6701,-2.24619 1.6701,-16.89497 v -11.65816 c 0,-14.66818 -0.6085,-16.47419 -1.6701,-16.92732 -1.0357,-0.602 -2.3821,-1.04218 -5.6705,-1.48235 -0.2913,0 -0.2913,-1.80601 -0.1424,-1.80601 3.8904,0 18.5456,0 22.4295,0 0.1554,0 0.1554,1.80601 -0.1489,1.80601 -3.2883,0.43371 -4.6412,0.88035 -5.6769,1.48235 -1.0487,0.45313 -1.6701,2.26562 -1.6701,16.92732 v 11.65816 c 0,9.71623 0.7638,14.20213 1.8125,15.41261 0.8933,0.88683 2.0973,1.48236 6.881,1.48236 4.6283,0 7.7678,-1.20401 9.7291,-3.4243 1.7866,-2.11025 3.1395,-5.53456 3.7286,-8.09147 0.1488,-0.44017 2.1037,-0.15535 2.1037,0.29777 -0.4401,4.19462 -1.6441,11.97536 -2.3821,13.16642"
     id="path51-1-11"
     style="fill:#000000" /><path
     d="m 476.71411,482.87097 c -0.6084,0.89977 -1.5147,1.4953 -3.599,1.4953 -5.0944,0 -11.0821,-0.29129 -17.9566,-0.29129 -5.3857,0 -9.2825,0 -15.2508,0.12946 -0.1488,0 -0.1488,-1.78012 0.1425,-1.94195 3.2948,-0.29129 4.6283,-0.73146 5.6704,-1.33994 1.0616,-0.45959 1.6701,-2.24619 1.6701,-16.89497 v -11.65816 c 0,-14.66818 -0.6085,-16.47419 -1.6701,-16.92732 -1.0357,-0.602 -2.3821,-1.04218 -5.6704,-1.48235 -0.2913,0 -0.2913,-1.80601 -0.1425,-1.80601 3.8904,0 18.5457,0 22.4295,0 0.1554,0 0.1554,1.80601 -0.1488,1.80601 -3.2884,0.43371 -4.6413,0.88035 -5.677,1.48235 -1.0487,0.45313 -1.6701,2.26562 -1.6701,16.92732 v 11.65816 c 0,9.71623 0.7639,14.20213 1.8125,15.41261 0.8933,0.88683 2.0973,1.48236 6.881,1.48236 4.6283,0 7.7678,-1.20401 9.7292,-3.4243 1.7865,-2.11025 3.1394,-5.53456 3.7285,-8.09147 0.1489,-0.44017 2.1038,-0.15535 2.1038,0.29777 -0.4402,4.19462 -1.6442,11.97536 -2.3822,13.16642"
     id="path51-1-7"
     style="fill:#000000" /><path
     d="m 229.53021,482.87097 c -0.6085,0.89977 -1.5148,1.4953 -3.5991,1.4953 -5.0944,0 -11.0821,-0.29129 -17.9566,-0.29129 -5.3856,0 -9.2825,0 -15.2507,0.12946 -0.1489,0 -0.1489,-1.78012 0.1424,-1.94195 3.2948,-0.29129 4.6283,-0.73146 5.6705,-1.33994 1.0616,-0.45959 1.67,-2.24619 1.67,-16.89497 v -11.65816 c 0,-14.66818 -0.6084,-16.47419 -1.67,-16.92732 -1.0358,-0.602 -2.3822,-1.04218 -5.6705,-1.48235 -0.2913,0 -0.2913,-1.80601 -0.1424,-1.80601 3.8903,0 18.5456,0 22.4295,0 0.1553,0 0.1553,1.80601 -0.1489,1.80601 -3.2884,0.43371 -4.6413,0.88035 -5.677,1.48235 -1.0486,0.45313 -1.6701,2.26562 -1.6701,16.92732 v 11.65816 c 0,9.71623 0.7639,14.20213 1.8125,15.41261 0.8933,0.88683 2.0973,1.48236 6.881,1.48236 4.6283,0 7.7678,-1.20401 9.7292,-3.4243 1.7866,-2.11025 3.1394,-5.53456 3.7285,-8.09147 0.1489,-0.44017 2.1038,-0.15535 2.1038,0.29777 -0.4402,4.19462 -1.6442,11.97536 -2.3821,13.16642"
     id="path51-1-14"
     style="fill:#000000" /><path
     d="m 589.46261,114.10935 c -0.1815,0 -0.1815,-1.78273 0.1296,-1.93832 3.3127,-0.2982 5.3871,-0.73902 6.3142,-1.34839 1.0501,-0.45378 1.7827,-2.243 1.7827,-16.919729 v -11.68174 c 0,-14.68322 -0.7326,-16.49836 -1.7827,-16.94566 -0.9271,-0.59641 -3.0015,-1.0502 -6.3142,-1.48454 -0.3176,0 -0.3176,-1.80866 -0.1296,-1.80866 3.8637,0 19.9018,0 23.8043,0 0.1556,0 0.1556,1.80866 -0.1491,1.80866 -3.2867,0.43434 -5.3806,0.89461 -6.2882,1.48454 -1.0372,0.4473 -1.8151,2.26892 -1.8151,16.94566 v 11.68174 c 0,14.683219 0.7779,16.465949 1.8151,16.919729 0.9076,0.60937 3.0015,1.05019 6.2882,1.34839 0.3177,0.14911 0.3177,1.93832 0.1491,1.93832 -3.9025,0 -19.9406,0 -23.8043,0"
     id="path75-2"
     style="fill:#000000" /><path
     d="m 354.00821,114.10935 c -0.1815,0 -0.1815,-1.78273 0.1296,-1.93831 3.3127,-0.2982 5.3871,-0.73903 6.3142,-1.34839 1.0501,-0.45379 1.7827,-2.243 1.7827,-16.919739 v -11.68174 c 0,-14.68322 -0.7326,-16.49836 -1.7827,-16.94566 -0.9271,-0.59641 -3.0015,-1.0502 -6.3142,-1.48454 -0.3176,0 -0.3176,-1.80866 -0.1296,-1.80866 3.8637,0 19.9018,0 23.8043,0 0.1556,0 0.1556,1.80866 -0.1491,1.80866 -3.2867,0.43434 -5.3806,0.89461 -6.2882,1.48454 -1.0372,0.4473 -1.8151,2.26892 -1.8151,16.94566 v 11.68174 c 0,14.683219 0.7779,16.465949 1.8151,16.919739 0.9076,0.60936 3.0015,1.05019 6.2882,1.34839 0.3177,0.1491 0.3177,1.93831 0.1491,1.93831 -3.9025,0 -19.9406,0 -23.8043,0"
     id="path75-2-3"
     style="fill:#000000" /><path
     d="m 535.11011,484.50552 c -0.1828,0 -0.1828,-1.79555 0.1306,-1.95226 3.3365,-0.30035 5.4258,-0.74434 6.3595,-1.35809 1.0578,-0.45705 1.7956,-2.25914 1.7956,-17.04145 v -11.76578 c 0,-14.78885 -0.7378,-16.61705 -1.7956,-17.06757 -0.9337,-0.6007 -3.023,-1.05775 -6.3595,-1.49522 -0.3199,0 -0.3199,-1.82167 -0.1306,-1.82167 3.8915,0 20.045,0 23.9756,0 0.1567,0 0.1567,1.82167 -0.1502,1.82167 -3.3103,0.43747 -5.4193,0.90105 -6.3334,1.49522 -1.0447,0.45052 -1.8282,2.28524 -1.8282,17.06757 v 11.76578 c 0,14.78885 0.7835,16.5844 1.8282,17.04145 0.9141,0.61375 3.0231,1.05774 6.3334,1.35809 0.3199,0.15018 0.3199,1.95226 0.1502,1.95226 -3.9306,0 -20.0841,0 -23.9756,0"
     id="path75-2-2"
     style="fill:#000000" /><path
     d="m 847.12231,484.50552 c -0.1828,0 -0.1828,-1.79555 0.1306,-1.95226 3.3364,-0.30035 5.4258,-0.74434 6.3595,-1.35809 1.0577,-0.45705 1.7955,-2.25914 1.7955,-17.04145 v -11.76578 c 0,-14.78885 -0.7378,-16.61705 -1.7955,-17.06757 -0.9337,-0.6007 -3.0231,-1.05775 -6.3595,-1.49522 -0.32,0 -0.32,-1.82167 -0.1306,-1.82167 3.8914,0 20.0449,0 23.9755,0 0.1567,0 0.1567,1.82167 -0.1501,1.82167 -3.3104,0.43747 -5.4194,0.90105 -6.3335,1.49522 -1.0446,0.45052 -1.8282,2.28524 -1.8282,17.06757 v 11.76578 c 0,14.78885 0.7836,16.5844 1.8282,17.04145 0.9141,0.61375 3.0231,1.05774 6.3335,1.35809 0.3199,0.15018 0.3199,1.95226 0.1501,1.95226 -3.9306,0 -20.0841,0 -23.9755,0"
     id="path75-2-2-1"
     style="fill:#000000" /><path
     d="m 650.50911,114.10935 c -0.1485,0 -0.3163,-1.77524 0,-1.93016 2.537,-0.13561 4.1831,-0.73593 4.1831,-1.94308 0,-1.32982 -1.0393,-4.02819 -5.8357,-15.363899 0.1356,0 -16.2677,0 -16.3968,0 -3.899,10.147919 -4.777,13.143229 -4.777,14.924929 0,1.34917 1.1943,2.09155 4.6157,2.38205 0.4454,0.14846 0.2969,1.93016 0,1.93016 -2.3756,0 -13.4338,0 -17.2877,0 -0.3227,0 -0.3227,-1.77524 0,-1.93016 2.5241,-0.13561 4.0024,-0.58745 5.2096,-1.49121 1.6526,-1.19425 3.5763,-4.1702 8.2113,-16.700189 l 4.48,-11.63266 c 2.5047,-6.72656 5.2031,-13.73714 7.2946,-20.00535 0.155,-0.5939 3.415,-0.5939 3.7377,0 2.3756,7.00412 4.6286,12.67843 7.4496,20.00535 l 4.6092,11.63266 c 6.2746,15.066969 7.1655,15.970729 8.689,16.848659 1.4782,0.89086 2.6983,1.21363 5.0352,1.34274 0.3227,0.14846 0.1549,1.93016 0,1.93016 -3.8668,0 -15.3639,0 -19.2178,0 m -9.8574,-41.172689 -6.6943,18.19782 h 13.5822 l -6.8879,-18.19782 z"
     id="path73-0-8"
     style="fill:#000000" /><path
     d="m 908.27701,484.50552 c -0.1484,0 -0.3163,-1.77524 0,-1.93016 2.537,-0.13561 4.1831,-0.73593 4.1831,-1.94308 0,-1.32982 -1.0393,-4.02819 -5.8357,-15.3639 0.1357,0 -16.2676,0 -16.3967,0 -3.8991,10.14792 -4.777,13.14323 -4.777,14.92493 0,1.34917 1.1942,2.09155 4.6156,2.38205 0.4454,0.14846 0.2969,1.93016 0,1.93016 -2.3756,0 -13.4337,0 -17.2876,0 -0.3228,0 -0.3228,-1.77524 0,-1.93016 2.524,-0.13561 4.0023,-0.58745 5.2095,-1.49121 1.6526,-1.19425 3.5763,-4.1702 8.2113,-16.70019 l 4.48,-11.63266 c 2.5048,-6.72656 5.2031,-13.73714 7.2947,-20.00535 0.1549,-0.5939 3.4149,-0.5939 3.7377,0 2.3756,7.00412 4.6285,12.67843 7.4495,20.00535 l 4.6092,11.63266 c 6.2747,15.06697 7.1655,15.97073 8.689,16.84866 1.4783,0.89086 2.6983,1.21363 5.0352,1.34274 0.3228,0.14846 0.155,1.93016 0,1.93016 -3.8668,0 -15.3639,0 -19.2178,0 m -9.8574,-41.17269 -6.6943,18.19782 h 13.5822 l -6.8879,-18.19782 z"
     id="path73-0-7"
     style="fill:#000000" /><path
     d="m 797.97751,113.3832 c -0.4287,0.4819 -2.9732,0.97369 -6.5271,0.97369 -5.0925,0 -7.7199,-0.24754 -14.7552,-0.24754 -5.5108,0 -9.5798,0.0792 -15.6022,0.16503 -0.2559,0 -0.2559,-1.61072 0.083,-1.68993 3.3085,-0.33006 5.2549,-0.57761 6.2782,-1.14202 1.0095,-0.57101 1.7735,-2.75603 1.7735,-17.483459 l 0,-11.82288 c 0,-14.73075 -0.764,-16.91577 -1.7735,-17.48347 -1.0233,-0.57102 -2.9697,-0.81196 -6.2782,-1.13543 -0.3388,-0.0792 -0.3388,-1.69983 -0.083,-1.69983 6.6135,0.0759 17.7179,0.16173 23.2287,0.16173 7.1287,0 9.9221,-0.0792 12.47,-0.40597 0.4183,0 0.5047,0.16503 0.5047,0.32676 -0.1694,2.82865 -0.4252,6.88843 -0.9299,11.25187 -0.093,0.33007 -1.8704,0.23765 -1.8704,-0.24094 0,-1.94408 -0.6707,-4.1258 -1.9464,-5.50547 -1.7839,-1.70313 -3.8201,-2.43587 -8.6498,-2.43587 -3.312,0 -6.4441,0 -7.2013,0.17494 -0.2593,0.80535 -0.3388,3.80233 -0.3388,8.89521 l 0,11.48953 6.9524,0 c 8.0483,0 8.2177,-2.17842 8.7259,-5.0962 0.086,-0.31685 1.8668,-0.23763 1.8668,0 -0.076,2.18833 -0.3353,12.30809 -0.4183,14.56902 0,0.24425 -1.8668,0.24425 -1.8668,-0.0792 0,-1.44568 -0.4184,-4.19841 -1.1893,-5.01697 -0.7606,-0.73604 -1.1893,-1.21794 -7.2082,-1.21794 l -6.859,0 0,5.43285 c 0,10.439909 0.5013,15.222529 1.2653,15.945369 0.764,0.71953 3.3915,1.0463 8.3975,1.0463 5.2549,0 7.2082,-1.20473 8.7328,-2.74612 1.0095,-1.05291 2.0328,-3.40627 2.7968,-6.47255 0.09,-0.40928 1.8669,-0.0825 1.8669,0.32016 -0.4321,5.09948 -1.369,11.01092 -1.4451,11.16934"
     id="path29-0-1"
     style="fill:#000000" /><path
     d="m 532.71351,113.3832 c -0.4287,0.4819 -2.9732,0.97369 -6.5271,0.97369 -5.0925,0 -7.7199,-0.24754 -14.7552,-0.24754 -5.5108,0 -9.5798,0.0792 -15.6022,0.16503 -0.2559,0 -0.2559,-1.61072 0.083,-1.68993 3.3085,-0.33006 5.2549,-0.57761 6.2782,-1.14202 1.0095,-0.57101 1.7735,-2.75603 1.7735,-17.483469 l 0,-11.82288 c 0,-14.73075 -0.764,-16.91577 -1.7735,-17.48347 -1.0233,-0.57102 -2.9697,-0.81196 -6.2782,-1.13543 -0.3388,-0.0792 -0.3388,-1.69983 -0.083,-1.69983 6.6135,0.0759 17.7179,0.16173 23.2287,0.16173 7.1287,0 9.9221,-0.0792 12.47,-0.40597 0.4183,0 0.5047,0.16503 0.5047,0.32676 -0.1694,2.82865 -0.4252,6.88843 -0.9299,11.25187 -0.093,0.33007 -1.8704,0.23765 -1.8704,-0.24094 0,-1.94408 -0.6707,-4.1258 -1.9464,-5.50547 -1.7839,-1.70313 -3.8201,-2.43587 -8.6498,-2.43587 -3.312,0 -6.4441,0 -7.2013,0.17494 -0.2593,0.80535 -0.3388,3.80233 -0.3388,8.89521 l 0,11.48953 6.9524,0 c 8.0483,0 8.2177,-2.17842 8.7259,-5.0962 0.086,-0.31685 1.8668,-0.23763 1.8668,0 -0.076,2.18833 -0.3353,12.30809 -0.4183,14.56902 0,0.24425 -1.8668,0.24425 -1.8668,-0.0792 0,-1.44568 -0.4184,-4.19841 -1.1893,-5.01697 -0.7606,-0.73604 -1.1893,-1.21794 -7.2082,-1.21794 l -6.859,0 0,5.43285 c 0,10.439919 0.5013,15.222539 1.2653,15.945379 0.764,0.71953 3.3915,1.0463 8.3975,1.0463 5.2549,0 7.2082,-1.20473 8.7328,-2.74613 1.0095,-1.0529 2.0328,-3.40626 2.7968,-6.47254 0.09,-0.40929 1.8669,-0.0825 1.8669,0.32015 -0.4321,5.09949 -1.369,11.01093 -1.4451,11.16935"
     id="path29-0-1-8"
     style="fill:#000000" /><path
     d="m 155.90101,483.7311 c -0.4304,0.48392 -2.9856,0.97777 -6.5544,0.97777 -5.1138,0 -7.7522,-0.24858 -14.817,-0.24858 -5.5338,0 -9.6199,0.0795 -15.6675,0.16571 -0.2569,0 -0.2569,-1.61745 0.083,-1.697 3.3224,-0.33143 5.2769,-0.58003 6.3045,-1.14679 1.0137,-0.5734 1.7809,-2.76757 1.7809,-17.55666 l 0,-11.87238 c 0,-14.79242 -0.7672,-16.98658 -1.7809,-17.55666 -1.0276,-0.57341 -2.9821,-0.81536 -6.3045,-1.14018 -0.3402,-0.0795 -0.3402,-1.70695 -0.083,-1.70695 6.6413,0.0762 17.7922,0.16241 23.326,0.16241 7.1585,0 9.9636,-0.0795 12.5222,-0.40767 0.42,0 0.5068,0.16572 0.5068,0.32813 -0.1701,2.84049 -0.427,6.91726 -0.9338,11.29897 -0.094,0.33145 -1.8782,0.23865 -1.8782,-0.24195 0,-1.95222 -0.6735,-4.14307 -1.9545,-5.52852 -1.7914,-1.71026 -3.8362,-2.44606 -8.6861,-2.44606 -3.3258,0 -6.4711,0 -7.2314,0.17567 -0.2604,0.80872 -0.3402,3.81825 -0.3402,8.93245 l 0,11.53763 6.9814,0 c 8.082,0 8.2521,-2.18754 8.7625,-5.11754 0.087,-0.31817 1.8746,-0.23862 1.8746,0 -0.076,2.19749 -0.3367,12.35962 -0.42,14.63001 0,0.24528 -1.8747,0.24528 -1.8747,-0.0795 0,-1.45173 -0.4201,-4.21598 -1.1942,-5.03797 -0.7638,-0.73912 -1.1943,-1.22304 -7.2384,-1.22304 l -6.8878,0 0,5.45559 c 0,10.48363 0.5034,15.28626 1.2707,16.01213 0.7672,0.72255 3.4056,1.05069 8.4326,1.05069 5.2769,0 7.2383,-1.20978 8.7693,-2.75763 1.0137,-1.05732 2.0414,-3.42052 2.8086,-6.49964 0.09,-0.411 1.8747,-0.0828 1.8747,0.3215 -0.434,5.12082 -1.3748,11.05702 -1.4512,11.2161"
     id="path29-0-1-2"
     style="fill:#000000" /><path
     d="m 298.32151,382.30724 c -0.4287,0.4819 -2.9732,0.97369 -6.5271,0.97369 -5.0925,0 -7.7199,-0.24754 -14.7552,-0.24754 -5.5108,0 -9.5798,0.0792 -15.6022,0.16502 -0.2559,0 -0.2559,-1.61071 0.083,-1.68993 3.3085,-0.33006 5.2549,-0.57761 6.2782,-1.14201 1.0095,-0.57101 1.7735,-2.75603 1.7735,-17.48347 l 0,-11.82288 c 0,-14.73075 -0.764,-16.91577 -1.7735,-17.48347 -1.0233,-0.57102 -2.9697,-0.81197 -6.2782,-1.13544 -0.3388,-0.0792 -0.3388,-1.69983 -0.083,-1.69983 6.6135,0.0759 17.7179,0.16173 23.2287,0.16173 7.1287,0 9.9221,-0.0792 12.47,-0.40597 0.4183,0 0.5047,0.16503 0.5047,0.32676 -0.1694,2.82866 -0.4252,6.88844 -0.9299,11.25188 -0.093,0.33007 -1.8704,0.23765 -1.8704,-0.24094 0,-1.94408 -0.6707,-4.1258 -1.9464,-5.50547 -1.7839,-1.70313 -3.8201,-2.43587 -8.6498,-2.43587 -3.312,0 -6.4441,0 -7.2013,0.17494 -0.2593,0.80535 -0.3388,3.80233 -0.3388,8.89521 l 0,11.48953 6.9524,0 c 8.0483,0 8.2177,-2.17842 8.7259,-5.0962 0.086,-0.31685 1.8668,-0.23763 1.8668,0 -0.076,2.18833 -0.3353,12.30809 -0.4183,14.56902 0,0.24425 -1.8668,0.24425 -1.8668,-0.0792 0,-1.44568 -0.4184,-4.19841 -1.1893,-5.01697 -0.7606,-0.73604 -1.1893,-1.21794 -7.2082,-1.21794 l -6.859,0 0,5.43285 c 0,10.43992 0.5013,15.22253 1.2653,15.94537 0.764,0.71954 3.3915,1.04631 8.3975,1.04631 5.2549,0 7.2082,-1.20473 8.7328,-2.74613 1.0095,-1.05291 2.0328,-3.40626 2.7968,-6.47255 0.09,-0.40928 1.8669,-0.0825 1.8669,0.32016 -0.4321,5.09948 -1.369,11.01092 -1.4451,11.16935"
     id="path29-0-1-8-7"
     style="fill:#000000" /><path
     d="m 101.53591,476.61488 c -5.745004,5.60068 -12.119504,8.02721 -22.730704,8.02721 -3.7906,0 -9.6995,-0.13772 -12.8606,-0.13772 -3.0561,0 -7.5943,0.13772 -11.2407,0.13772 -0.3279,0 -0.3279,-1.8035 0,-1.9609 3.3185,-0.30167 4.7088,-0.74763 5.7712,-1.36411 1.0559,-0.45906 1.8035,-2.26912 1.8035,-17.11684 V 452.3824 c 0,-14.85427 -0.7476,-16.69056 -1.8035,-17.14307 -1.0624,-0.60336 -2.4462,-1.06243 -5.7712,-1.50183 -0.3279,0 -0.3279,-1.82972 0,-1.82972 3.6464,0 8.1912,0.1574 11.2407,0.1574 3.1611,0 10.8997,-0.1574 14.5133,-0.1574 16.9791,0 29.708604,11.07675 29.708604,25.77364 0,6.95822 -3.4824,13.92957 -8.6306,18.93346 M 78.037906,434.91799 c -5.1219,0 -6.4991,0.77385 -7.1222,1.54116 -0.4525,0.58368 -1.2001,4.38087 -1.2001,15.58879 v 12.14575 c 0,9.83727 0.7411,14.08697 1.8166,15.30023 1.5018,1.51494 2.702,1.96745 7.1156,1.96745 16.3692,0 23.366804,-7.11562 23.366804,-22.42241 0,-12.4343 -8.046904,-24.12097 -23.976704,-24.12097 z"
     id="path65-8-9"
     style="fill:#000000" /><path
     d="m 831.49771,476.61603 c -5.745,5.60068 -12.1195,8.02721 -22.7307,8.02721 -3.7906,0 -9.6995,-0.13772 -12.8606,-0.13772 -3.0561,0 -7.5943,0.13772 -11.2407,0.13772 -0.3279,0 -0.3279,-1.8035 0,-1.9609 3.3185,-0.30167 4.7088,-0.74763 5.7712,-1.36411 1.0559,-0.45906 1.8035,-2.26912 1.8035,-17.11684 v -11.81784 c 0,-14.85427 -0.7476,-16.69056 -1.8035,-17.14307 -1.0624,-0.60336 -2.4462,-1.06243 -5.7712,-1.50183 -0.3279,0 -0.3279,-1.82972 0,-1.82972 3.6464,0 8.1912,0.1574 11.2407,0.1574 3.1611,0 10.8997,-0.1574 14.5133,-0.1574 16.9791,0 29.7086,11.07675 29.7086,25.77364 0,6.95822 -3.4824,13.92957 -8.6306,18.93346 m -23.498,-41.69689 c -5.1219,0 -6.4991,0.77385 -7.1222,1.54116 -0.4525,0.58368 -1.2001,4.38087 -1.2001,15.58879 v 12.14575 c 0,9.83727 0.7411,14.08697 1.8166,15.30023 1.5018,1.51494 2.702,1.96745 7.1156,1.96745 16.3692,0 23.3668,-7.11562 23.3668,-22.42241 0,-12.4343 -8.0469,-24.12097 -23.9767,-24.12097 z"
     id="path65-8-9-5"
     style="fill:#000000" /><path
     d="m 743.32921,106.28598 c -5.6968,5.55375 -12.0179,7.95994 -22.5401,7.95994 -3.7589,0 -9.6183,-0.13657 -12.7528,-0.13657 -3.0305,0 -7.5307,0.13657 -11.1465,0.13657 -0.3252,0 -0.3252,-1.78839 0,-1.94447 3.2906,-0.29914 4.6693,-0.74136 5.7228,-1.35267 1.047,-0.45522 1.7884,-2.25011 1.7884,-16.973389 v -11.7188 c 0,-14.72978 -0.7414,-16.55068 -1.7884,-16.9994 -1.0535,-0.5983 -2.4257,-1.05352 -5.7228,-1.48924 -0.3252,0 -0.3252,-1.81439 0,-1.81439 3.6158,0 8.1225,0.15608 11.1465,0.15608 3.1345,0 10.8083,-0.15608 14.3916,-0.15608 16.8368,0 29.4596,10.98392 29.4596,25.55764 0,6.89991 -3.4532,13.812829 -8.5583,18.774779 m -23.301,-41.347439 c -5.079,0 -6.4447,0.76737 -7.0625,1.52825 -0.4487,0.57879 -1.1901,4.34415 -1.1901,15.45815 v 12.04396 c 0,9.754819 0.7349,13.968899 1.8014,15.171989 1.4893,1.50225 2.6793,1.95097 7.056,1.95097 16.232,0 23.171,-7.05599 23.171,-22.234489 0,-12.3301 -7.9795,-23.91883 -23.7758,-23.91883 z"
     id="path65-8-4"
     style="fill:#000000" /><path
     sodipodi:nodetypes="csssccsscc"
     d="m 674.39351,485.20167 c -15.1126,0 -28.0628,-11.79581 -28.0628,-26.4425 0,-13.91436 12.9502,-27.66523 29.0563,-27.66523 15.1311,0 27.8157,11.79581 27.8157,26.44904 0,13.90128 -12.6846,27.65869 -28.8092,27.65869 m -0.5615,-50.77299 c -13.9895,0 -18.8612,12.08352 -18.8612,22.05503 0,13.14278 8.2966,25.3963 20.9963,25.3963 13.9648,0 19.1268,-12.10314 19.1268,-22.06157 0.01,-13.15586 -8.5807,-25.38976 -21.2619,-25.38976 z"
     id="path47-5-4-1"
     style="fill:#000000" /><path
     sodipodi:nodetypes="csssccsscc"
     d="m 265.74501,485.20167 c -15.1126,0 -28.0628,-11.79581 -28.0628,-26.4425 0,-13.91436 12.9502,-27.66523 29.0563,-27.66523 15.1311,0 27.8157,11.79581 27.8157,26.44904 0,13.90128 -12.6846,27.65869 -28.8092,27.65869 m -0.5615,-50.77299 c -13.9895,0 -18.8612,12.08352 -18.8612,22.05503 0,13.14278 8.2966,25.3963 20.9963,25.3963 13.9648,0 19.1268,-12.10314 19.1268,-22.06157 0.01,-13.15586 -8.5807,-25.38976 -21.2619,-25.38976 z"
     id="path47-5-4-1-2"
     style="fill:#000000" /><path
     sodipodi:nodetypes="csssccsscc"
     d="m 408.20341,383.85532 c -15.0879,0 -28.017,-11.77654 -28.017,-26.3993 0,-13.89163 12.9291,-27.62004 29.0089,-27.62004 15.1063,0 27.7702,11.77654 27.7702,26.40583 0,13.87857 -12.6639,27.61351 -28.7621,27.61351 m -0.5606,-50.69005 c -13.9667,0 -18.8304,12.06378 -18.8304,22.019 0,13.12131 8.283,25.35482 20.962,25.35482 13.942,0 19.0956,-12.08337 19.0956,-22.02553 0.01,-13.13437 -8.5667,-25.34829 -21.2272,-25.34829 z"
     id="path47-5-4-3"
     style="fill:#000000" /><path
     d="m 810.51771,383.85532 c -7.7595,0 -13.1239,-3.88615 -13.2788,-4.77055 -0.6068,-2.679 -0.6068,-7.314 -0.155,-11.49064 0,-0.29697 1.9302,-0.45189 1.9302,0 0.3228,3.13087 1.517,5.95189 2.6984,7.76585 2.3756,3.12443 5.5129,5.35801 10.3157,5.35801 5.9584,0 8.9408,-3.87972 8.9408,-9.39264 0,-11.79408 -21.9484,-13.88563 -21.9484,-27.15152 0,-8.2113 7.7723,-14.04054 15.3897,-14.04054 6.2811,0 7.9014,2.24003 10.8838,1.4912 0.3163,-0.14202 0.6068,0.14201 0.6068,0.30341 -0.1614,2.84038 0,6.86857 -0.1614,11.20015 0,0.27759 -1.9301,0.27759 -2.0592,0 -0.155,-2.54989 -1.3621,-5.69367 -2.6984,-7.01704 -1.7882,-1.80752 -4.7899,-2.84685 -7.3269,-2.84685 -4.5963,0 -8.0499,3.12443 -8.0499,8.06282 0,10.01883 22.6714,13.87916 22.6714,27.01597 -0.01,9.99298 -9.4055,15.51237 -17.7588,15.51237"
     id="path71-4-4"
     style="fill:#000000" /><path
     d="m 460.58821,383.85532 c -7.7594,0 -13.1239,-3.88616 -13.2788,-4.77055 -0.6068,-2.679 -0.6068,-7.314 -0.1549,-11.49064 0,-0.29697 1.9302,-0.45189 1.9302,0 0.3227,3.13087 1.517,5.95189 2.6983,7.76585 2.3756,3.12443 5.5129,5.35801 10.3158,5.35801 5.9583,0 8.9407,-3.87972 8.9407,-9.39264 0,-11.79408 -21.9484,-13.88563 -21.9484,-27.15152 0,-8.2113 7.7723,-14.04054 15.3897,-14.04054 6.2812,0 7.9015,2.24003 10.8839,1.4912 0.3163,-0.14202 0.6068,0.14201 0.6068,0.30341 -0.1614,2.84038 0,6.86857 -0.1614,11.20015 0,0.27759 -1.9302,0.27759 -2.0593,0 -0.1549,-2.54989 -1.3621,-5.69367 -2.6983,-7.01704 -1.7882,-1.80752 -4.79,-2.84685 -7.3269,-2.84685 -4.5963,0 -8.05,3.12443 -8.05,8.06282 0,10.01883 22.6715,13.87916 22.6715,27.01597 -0.01,9.99298 -9.4056,15.51237 -17.7589,15.51237"
     id="path71-4-1"
     style="fill:#000000" /><path
     d="m 317.76851,485.20167 c -7.8232,0 -13.2318,-3.91813 -13.388,-4.80979 -0.6118,-2.70104 -0.6118,-7.37417 -0.1562,-11.58517 0,-0.29941 1.946,-0.45561 1.946,0 0.3255,3.15662 1.5295,6.00085 2.7206,7.82973 2.3951,3.15014 5.5583,5.40209 10.4006,5.40209 6.0074,0 9.0143,-3.91164 9.0143,-9.46991 0,-11.8911 -22.129,-13.99986 -22.129,-27.37488 0,-8.27885 7.8363,-14.15604 15.5164,-14.15604 6.3328,0 7.9664,2.25846 10.9733,1.50347 0.319,-0.14319 0.6118,0.14317 0.6118,0.3059 -0.1627,2.86375 0,6.92508 -0.1627,11.29229 0,0.27987 -1.946,0.27987 -2.0762,0 -0.1562,-2.57087 -1.3733,-5.74051 -2.7205,-7.07477 -1.8029,-1.82239 -4.8294,-2.87027 -7.3872,-2.87027 -4.6341,0 -8.1162,3.15014 -8.1162,8.12915 0,10.10125 22.858,13.99334 22.858,27.23822 -0.01,10.07518 -9.4829,15.63998 -17.905,15.63998"
     id="path71-4-8"
     style="fill:#000000" /><path
     d="m 726.53431,485.20167 c -7.8232,0 -13.2318,-3.91813 -13.388,-4.80979 -0.6118,-2.70104 -0.6118,-7.37417 -0.1562,-11.58517 0,-0.29941 1.946,-0.45561 1.946,0 0.3254,3.15662 1.5295,6.00085 2.7206,7.82973 2.3951,3.15014 5.5582,5.40209 10.4006,5.40209 6.0074,0 9.0143,-3.91164 9.0143,-9.46991 0,-11.8911 -22.129,-13.99986 -22.129,-27.37488 0,-8.27885 7.8363,-14.15604 15.5163,-14.15604 6.3328,0 7.9665,2.25846 10.9734,1.50347 0.3189,-0.14319 0.6118,0.14317 0.6118,0.3059 -0.1627,2.86375 0,6.92508 -0.1627,11.29229 0,0.27987 -1.946,0.27987 -2.0762,0 -0.1562,-2.57087 -1.3733,-5.74051 -2.7206,-7.07477 -1.8028,-1.82239 -4.8293,-2.87027 -7.3872,-2.87027 -4.634,0 -8.1161,3.15014 -8.1161,8.12915 0,10.10125 22.858,13.99334 22.858,27.23822 -0.01,10.07518 -9.483,15.63998 -17.905,15.63998"
     id="path71-4-8-7"
     style="fill:#000000" /><path
     d="m 943.63421,485.20167 c -7.8232,0 -13.2318,-3.91813 -13.388,-4.80979 -0.6118,-2.70104 -0.6118,-7.37417 -0.1562,-11.58517 0,-0.29941 1.9461,-0.45561 1.9461,0 0.3254,3.15662 1.5294,6.00085 2.7205,7.82973 2.3952,3.15014 5.5583,5.40209 10.4006,5.40209 6.0074,0 9.0143,-3.91164 9.0143,-9.46991 0,-11.8911 -22.1289,-13.99986 -22.1289,-27.37488 0,-8.27885 7.8362,-14.15604 15.5163,-14.15604 6.3328,0 7.9664,2.25846 10.9734,1.50347 0.3189,-0.14319 0.6118,0.14317 0.6118,0.3059 -0.1628,2.86375 0,6.92508 -0.1628,11.29229 0,0.27987 -1.946,0.27987 -2.0762,0 -0.1562,-2.57087 -1.3733,-5.74051 -2.7205,-7.07477 -1.8029,-1.82239 -4.8294,-2.87027 -7.3872,-2.87027 -4.6341,0 -8.1161,3.15014 -8.1161,8.12915 0,10.10125 22.8579,13.99334 22.8579,27.23822 -0.01,10.07518 -9.4829,15.63998 -17.905,15.63998"
     id="path71-4-8-2"
     style="fill:#000000" /><path
     d="m 724.42371,343.7133 c -0.086,0.39909 -1.8518,0.39909 -1.8518,-0.15833 0,-2.02513 -0.2542,-5.90391 -1.6834,-7.35845 -1.6869,-1.70521 -5.1431,-3.08389 -12.5433,-3.08389 -1.9479,0 -2.9511,0 -3.8031,0.16491 -0.2646,0.81468 -0.3401,4.69675 -0.3401,9.78931 l 0,19.74679 c 0,14.71362 0.7592,16.89708 1.7624,17.46768 1.0341,0.56401 3.1367,0.80808 6.5035,1.1379 0.3333,0.0759 0.3333,1.68873 0.082,1.68873 -4.0574,0 -19.7132,0 -23.7672,0 -0.2542,0 -0.2542,-1.60956 0.1649,-1.68873 3.2844,-0.32982 5.4041,-0.57389 6.4108,-1.1379 1.0959,-0.5706 1.7624,-2.75406 1.7624,-17.46768 l 0,-19.74679 c 0,-5.09256 -0.076,-8.97463 -0.3332,-9.78931 -0.8349,-0.16491 -2.271,-0.16491 -4.2052,-0.16491 -7.9396,0 -10.6227,0.81467 -12.5776,3.08389 -1.3364,1.537 -2.185,4.35703 -2.769,7.51678 -0.079,0.5673 -1.8552,0.32982 -1.8552,-0.15833 0.5015,-4.2086 1.0203,-10.35989 1.2711,-13.11395 0,-0.24076 0.4226,-0.39909 1.0066,-0.31992 2.9443,0.48153 8.3553,0.89053 23.008,0.89053 20.1358,0 21.9807,-0.57061 23.5096,-1.04885 0.5016,-0.16492 0.9138,0.0759 0.9138,0.31993 0,3.07729 -0.1546,9.14942 -0.6665,13.43059"
     id="path45-2-1"
     style="fill:#000000" /><path
     d="m 528.00231,444.90618 c -0.086,0.39975 -1.8548,0.39975 -1.8548,-0.1586 0,-2.02849 -0.2547,-5.91371 -1.6863,-7.37067 -1.6896,-1.70804 -5.1516,-3.08901 -12.5641,-3.08901 -1.9512,0 -2.956,0 -3.8095,0.16518 -0.2649,0.81603 -0.3406,4.70455 -0.3406,9.80557 l 0,19.77959 c 0,14.73807 0.7605,16.92516 1.7653,17.4967 1.0359,0.56495 3.1419,0.80943 6.5144,1.13979 0.3338,0.076 0.3338,1.69154 0.083,1.69154 -4.0642,0 -19.746,0 -23.8067,0 -0.2547,0 -0.2547,-1.61223 0.1651,-1.69154 3.2899,-0.33036 5.4132,-0.57484 6.4214,-1.13979 1.0978,-0.57154 1.7654,-2.75863 1.7654,-17.4967 l 0,-19.77959 c 0,-5.10102 -0.076,-8.98954 -0.3338,-9.80557 -0.8362,-0.16518 -2.2747,-0.16518 -4.2121,-0.16518 -7.9528,0 -10.6404,0.81602 -12.5985,3.08901 -1.3386,1.53955 -2.1886,4.36427 -2.7737,7.52927 -0.079,0.56824 -1.8582,0.33037 -1.8582,-0.1586 0.5024,-4.21559 1.022,-10.3771 1.2732,-13.13573 0,-0.24116 0.4233,-0.39976 1.0083,-0.32046 2.9492,0.48233 8.3692,0.89201 23.0462,0.89201 20.1693,0 22.0173,-0.57155 23.5486,-1.05059 0.5025,-0.16519 0.9154,0.076 0.9154,0.32046 0,3.08241 -0.1548,9.16462 -0.6676,13.45291"
     id="path45-2-1-9"
     style="fill:#000000" /><path
     d="m 664.87971,334.40499 c -0.7316,0.57619 -1.625,2.10408 -1.489,16.77438 v 11.65983 c 0,6.73307 0,13.91282 0.4337,20.18623 0,0.4726 -2.5119,0.61503 -2.9521,0.15537 l -39.6798,-40.10699 0.2914,19.76539 c 0.1554,13.47259 1.2106,16.01044 2.4148,16.89739 0.7381,0.60856 3.5996,1.34012 5.8138,1.34012 0.4596,0 0.3237,1.94224 0,1.94224 -4.1888,0 -16.1529,0 -20.0438,0 -0.2849,0 -0.2849,-1.78038 0,-1.94224 3.2888,-0.29132 5.231,-0.73156 6.1374,-1.48255 0.751,-0.58915 1.638,-2.09761 1.3401,-16.75496 l -0.1489,-11.65983 c 0,-6.75247 0,-13.9452 -0.4402,-20.22506 0,-0.44024 2.8486,-0.58915 3.0234,-0.14244 l 39.7768,40.4048 -0.2913,-20.0373 c -0.1619,-14.6703 -1.3466,-16.32119 -2.24,-16.92975 -1.0683,-0.73157 -2.9976,-1.20418 -6.4482,-1.48258 -0.4403,0 -0.2914,-1.80626 0,-1.80626 3.8844,0 16.3406,0 20.1991,0 0.3237,0 0.4791,1.80626 0,1.80626 -3.2888,0.43377 -4.7779,0.88049 -5.6972,1.63795"
     id="path77-6"
     style="fill:#000000" /><path
     sodipodi:nodetypes="cccccccscssscsscsccccccssccc"
     id="path77-6-5"
     d="m 580.33991,432.03575 c -0.652,0.1001 -1.2673,0.64794 -1.2812,1.28125 -0.4047,5.06068 -0.6646,9.97707 -1.375,15.34375 -1.0441,12.83271 -1.6657,27.56692 -4.5,32.34375 -0.9064,0.75099 -2.8362,1.17743 -6.125,1.46875 -0.2849,0.16186 -0.2849,1.96875 0,1.96875 l 20.0312,0 c 0.3237,0 0.4597,-1.96875 0,-1.96875 -2.2141,0 -5.0744,-0.70394 -5.8125,-1.3125 -1.9533,-0.0442 -1.837,-9.56035 0.7954,-32.19984 0.025,-0.2118 0.4512,-0.19183 0.571,0.0318 6.2095,11.59641 11.598,21.87623 18.6336,34.79308 0.3921,0.71977 2.4321,0.58169 2.5938,0.25 2.1974,-3.22406 12.0171,-23.83207 17.375,-35.31254 0.1519,-0.32559 0.5219,-0.57157 0.6974,0.32964 2.0705,10.62957 3.5737,29.33859 2.0838,32.57661 -0.7649,0.60858 -2.5487,0.6875 -4.8437,0.6875 -0.4764,0 -0.3355,1.96875 0,1.96875 l 20.7812,0 c 0.2953,0 0.2953,-1.80689 0,-1.96875 -3.4089,-0.29132 -5.4355,-0.71776 -6.375,-1.46875 -2.0461,-10.47603 -3.7635,-28.96933 -5.5937,-44.84375 0,-6.08572 -2.7947,-3.65236 -3.1563,-2.71875 -6.6424,13.71409 -13.384,26.59063 -19.9375,41.15625 -0.2987,0.664 -0.7172,0.46748 -1,-0.0312 -4.2713,-7.53406 -14.5874,-28.1222 -21.7348,-40.96875 -0.3985,-1.20292 -1.1756,-1.50635 -1.8277,-1.40625 l 0,-5e-5 z"
     style="fill:#000000" /><path
     d="m 561.23441,114.64168 c -7.7595,0 -13.1239,-3.88616 -13.2788,-4.77055 -0.6068,-2.679 -0.6068,-7.314 -0.155,-11.490639 0,-0.29697 1.9302,-0.45189 1.9302,0 0.3228,3.130869 1.517,5.951889 2.6984,7.765849 2.3756,3.12443 5.5129,5.35801 10.3157,5.35801 5.9584,0 8.9408,-3.87972 8.9408,-9.39264 0,-11.794079 -21.9484,-13.885629 -21.9484,-27.151519 0,-8.2113 7.7723,-14.04054 15.3897,-14.04054 6.2811,0 7.9014,2.24003 10.8838,1.4912 0.3163,-0.14202 0.6068,0.14201 0.6068,0.30341 -0.1614,2.84038 0,6.86857 -0.1614,11.20015 0,0.27759 -1.9301,0.27759 -2.0592,0 -0.155,-2.54989 -1.3621,-5.69367 -2.6984,-7.01704 -1.7882,-1.80752 -4.7899,-2.84685 -7.3269,-2.84685 -4.5963,0 -8.0499,3.12443 -8.0499,8.06282 0,10.01883 22.6714,13.87916 22.6714,27.01597 -0.01,9.992979 -9.4055,15.512369 -17.7588,15.512369"
     id="path71-4-6"
     style="fill:#000000" /><path
     sodipodi:nodetypes="ccsssscc"
     id="path3931"
     d="m 396.38911,421.64153 c -0.529,0.89777 -0.7245,1.62695 1.5196,1.28431 3.5166,-1.46652 7.452,-2.83473 10.1541,-3.24938 1.5363,-0.23575 2.52,-0.30898 3.8581,-0.51202 1.6852,-0.25572 0.6611,-1.02926 0.5094,-1.30665 -0.9546,-1.74543 -1.1511,-2.35832 -1.5138,-3.23065 -0.3729,-0.89702 -2.1293,-0.05 -3.1003,0.49371 -3.7186,2.64027 -7.3727,3.27605 -11.4271,6.52068 z"
     style="fill:#000000;stroke:none" /><path
     sodipodi:nodetypes="ccsssscc"
     id="path3931-0"
     d="m 851.61051,421.64153 c -0.529,0.89777 -0.7245,1.62695 1.5196,1.28431 3.5166,-1.46652 7.452,-2.83473 10.1542,-3.24938 1.5362,-0.23575 2.5199,-0.30898 3.858,-0.51202 1.6852,-0.25572 0.6612,-1.02926 0.5095,-1.30665 -0.9547,-1.74543 -1.1512,-2.35832 -1.5139,-3.23065 -0.3729,-0.89702 -2.1293,-0.05 -3.1002,0.49371 -3.7187,2.64027 -7.3728,3.27605 -11.4272,6.52068 z"
     style="fill:#000000;stroke:none" /><path
     d="m 424.20301,435.01494 c -0.6563,0.57136 -1.4002,2.52794 -1.4002,17.35342 l 0,13.68941 c 0,9.77292 -7.6032,19.1439 -21.7123,19.1439 -12.8773,0 -20.7261,-8.39104 -20.7261,-18.98113 l 0,-13.85218 c 0,-14.82548 -0.7371,-17.02456 -1.7267,-17.59591 -1.077,-0.57469 -2.4738,-0.81719 -5.6981,-1.14273 -0.3265,-0.0797 -0.3265,-1.71076 -0.087,-1.71076 3.8806,0 18.4138,0 22.2878,0 0.2491,0 0.2491,1.62772 -0.077,1.71076 -3.2109,0.32554 -4.9543,0.56804 -6.0246,1.14273 -0.9963,0.57135 -1.7368,2.77043 -1.7368,17.59591 l 0,12.38724 c 0,8.9657 5.6949,16.37346 16.5863,16.37346 10.1578,0 15.1963,-7.57384 15.1963,-15.47988 l 0,-13.2775 c 0,-14.82548 -0.8347,-16.78205 -1.4876,-17.35342 -0.9054,-0.81718 -2.8037,-1.05967 -6.1055,-1.38522 -0.3264,-0.0797 -0.249,-1.71076 0,-1.71076 3.8841,0 14.6107,0 18.488,0 0.2457,0 0.4207,1.62771 0,1.71076 -3.2177,0.32222 -4.8736,0.56472 -5.7756,1.3819"
     id="path33-4-2"
     style="fill:#000000" /></g></svg>