<svg width="238" height="37" viewBox="0 0 238 37" fill="none" xmlns="http://www.w3.org/2000/svg">
<path d="M50.98 11.5001V17.1101H58.51V20.6701H50.98V26.6001H59.47V30.2501H46.49V7.8501H59.47V11.5001H50.98Z" fill="#C1BDFF"/>
<path d="M67.83 29.7504C66.68 29.2304 65.76 28.5204 65.09 27.6204C64.42 26.7204 64.05 25.7304 63.98 24.6404H68.5C68.59 25.3204 68.92 25.8904 69.51 26.3404C70.1 26.7904 70.83 27.0104 71.7 27.0104C72.57 27.0104 73.22 26.8404 73.7 26.5004C74.18 26.1604 74.42 25.7204 74.42 25.1904C74.42 24.6104 74.13 24.1804 73.54 23.8904C72.95 23.6004 72.02 23.2904 70.74 22.9404C69.42 22.6204 68.33 22.2904 67.49 21.9504C66.65 21.6104 65.92 21.0804 65.31 20.3804C64.7 19.6804 64.4 18.7204 64.4 17.5304C64.4 16.5504 64.68 15.6504 65.25 14.8404C65.82 14.0304 66.63 13.3904 67.69 12.9204C68.75 12.4504 69.99 12.2104 71.42 12.2104C73.53 12.2104 75.22 12.7404 76.48 13.8004C77.74 14.8604 78.43 16.2804 78.56 18.0804H74.27C74.21 17.3804 73.91 16.8104 73.39 16.4004C72.87 15.9804 72.17 15.7804 71.29 15.7804C70.48 15.7804 69.85 15.9304 69.42 16.2304C68.98 16.5304 68.76 16.9504 68.76 17.4804C68.76 18.0804 69.06 18.5304 69.66 18.8404C70.26 19.1504 71.19 19.4604 72.45 19.7904C73.73 20.1104 74.79 20.4404 75.62 20.7804C76.45 21.1204 77.17 21.6504 77.78 22.3704C78.39 23.0904 78.7 24.0304 78.73 25.2104C78.73 26.2404 78.45 27.1504 77.88 27.9704C77.31 28.7804 76.5 29.4204 75.44 29.8804C74.38 30.3404 73.15 30.5704 71.74 30.5704C70.33 30.5704 68.98 30.3104 67.83 29.7804V29.7504Z" fill="#C1BDFF"/>
<path d="M89.05 16.1801V24.7701C89.05 25.3701 89.19 25.8001 89.48 26.0701C89.77 26.3401 90.25 26.4701 90.94 26.4701H93.02V30.2501H90.2C86.42 30.2501 84.53 28.4101 84.53 24.7401V16.1801H82.42V12.5001H84.53V8.1001H89.05V12.4901H93.02V16.1701H89.05V16.1801Z" fill="#C1BDFF"/>
<path d="M114.04 22.7202H101.06C101.17 24.0002 101.62 25.0102 102.41 25.7302C103.2 26.4602 104.17 26.8202 105.33 26.8202C107 26.8202 108.18 26.1002 108.89 24.6702H113.73C113.22 26.3802 112.23 27.7802 110.78 28.8802C109.33 29.9802 107.54 30.5302 105.43 30.5302C103.72 30.5302 102.19 30.1502 100.83 29.3902C99.47 28.6302 98.42 27.5602 97.66 26.1702C96.9 24.7802 96.52 23.1802 96.52 21.3602C96.52 19.5402 96.89 17.9102 97.64 16.5202C98.39 15.1302 99.43 14.0602 100.78 13.3202C102.13 12.5702 103.67 12.2002 105.43 12.2002C107.19 12.2002 108.63 12.5602 109.96 13.2902C111.29 14.0202 112.33 15.0502 113.07 16.3802C113.81 17.7202 114.18 19.2502 114.18 20.9802C114.18 21.6202 114.14 22.2002 114.05 22.7102L114.04 22.7202ZM109.52 19.7102C109.5 18.5602 109.08 17.6302 108.27 16.9402C107.46 16.2502 106.46 15.9002 105.29 15.9002C104.18 15.9002 103.24 16.2402 102.49 16.9102C101.73 17.5802 101.27 18.5202 101.1 19.7102H109.53H109.52Z" fill="#C1BDFF"/>
<path d="M123.33 6.53027V30.2503H118.84V6.53027H123.33Z" fill="#C1BDFF"/>
<path d="M133.65 6.53027V30.2503H129.16V6.53027H133.65Z" fill="#C1BDFF"/>
<path d="M143.97 6.53027V30.2503H139.48V6.53027H143.97Z" fill="#C1BDFF"/>
<path d="M149.72 16.5304C150.44 15.1404 151.41 14.0704 152.64 13.3304C153.87 12.5804 155.24 12.2104 156.76 12.2104C158.08 12.2104 159.24 12.4804 160.24 13.0104C161.23 13.5404 162.03 14.2204 162.63 15.0304V12.5004H167.15V30.2504H162.63V27.6504C162.05 28.4804 161.26 29.1704 160.24 29.7204C159.22 30.2704 158.06 30.5404 156.73 30.5404C155.23 30.5404 153.87 30.1604 152.64 29.3904C151.41 28.6204 150.44 27.5404 149.72 26.1404C149 24.7404 148.65 23.1304 148.65 21.3204C148.65 19.5104 149.01 17.9304 149.72 16.5504V16.5304ZM161.98 18.5604C161.55 17.7804 160.98 17.1804 160.25 16.7704C159.52 16.3604 158.74 16.1504 157.91 16.1504C157.08 16.1504 156.31 16.3504 155.6 16.7604C154.9 17.1704 154.32 17.7604 153.89 18.5404C153.45 19.3204 153.23 20.2404 153.23 21.3104C153.23 22.3804 153.45 23.3104 153.89 24.1104C154.33 24.9104 154.9 25.5304 155.62 25.9504C156.34 26.3804 157.1 26.5904 157.91 26.5904C158.72 26.5904 159.52 26.3804 160.25 25.9704C160.98 25.5604 161.55 24.9604 161.98 24.1804C162.41 23.4004 162.62 22.4704 162.62 21.3804C162.62 20.2904 162.41 19.3604 161.98 18.5804V18.5604Z" fill="#C1BDFF"/>
<path d="M179.68 13.0402C180.61 12.5102 181.67 12.2402 182.87 12.2402V16.9502H181.68C180.27 16.9502 179.21 17.2802 178.49 17.9402C177.77 18.6002 177.42 19.7602 177.42 21.4002V30.2402H172.93V12.4902H177.42V15.2502C178 14.3102 178.75 13.5702 179.68 13.0402V13.0402Z" fill="#C1BDFF"/>
<path d="M29.22 28.9605C26.49 31.7905 22.66 33.5505 18.41 33.5505C10.12 33.5505 3.39001 26.8305 3.39001 18.5305C3.39001 10.2305 10.12 3.52051 18.41 3.52051C22.45 3.52051 26.13 5.12051 28.83 7.72051" stroke="#C1BDFF" stroke-width="4" stroke-miterlimit="10"/>
<path d="M34.41 2.53027L2.41003 34.5303" stroke="#C1BDFF" stroke-width="4" stroke-miterlimit="10"/>
<path d="M190.77 18.0401C191.29 17.1301 191.99 16.4101 192.88 15.8901C193.77 15.3701 194.76 15.1201 195.85 15.1201C197.13 15.1201 198.25 15.4301 199.2 16.0501C200.15 16.6701 200.85 17.5401 201.29 18.6801H199.46C199.13 17.9701 198.67 17.4301 198.05 17.0501C197.44 16.6701 196.71 16.4801 195.85 16.4801C194.99 16.4801 194.3 16.6701 193.65 17.0501C193 17.4301 192.49 17.9701 192.12 18.6701C191.75 19.3701 191.56 20.1901 191.56 21.1401C191.56 22.0901 191.74 22.8901 192.12 23.5901C192.49 24.2901 193 24.8301 193.65 25.2101C194.3 25.5901 195.04 25.7801 195.85 25.7801C196.66 25.7801 197.43 25.5901 198.05 25.2201C198.66 24.8401 199.13 24.3001 199.46 23.6001H201.29C200.85 24.7201 200.16 25.5901 199.2 26.2001C198.25 26.8101 197.13 27.1201 195.85 27.1201C194.76 27.1201 193.77 26.8601 192.88 26.3501C191.99 25.8401 191.28 25.1301 190.77 24.2201C190.25 23.3101 190 22.2801 190 21.1401C190 20.0001 190.26 18.9701 190.77 18.0501V18.0401Z" fill="#C1BDFF" fill-opacity="0.32"/>
<path d="M206.64 26.3599C205.74 25.8499 205.03 25.1399 204.51 24.2199C203.99 23.3099 203.73 22.2799 203.73 21.1299C203.73 19.9799 203.99 18.9599 204.51 18.0399C205.03 17.1199 205.74 16.4099 206.64 15.8999C207.54 15.3899 208.53 15.1299 209.62 15.1299C210.71 15.1299 211.72 15.3899 212.62 15.8999C213.52 16.4099 214.22 17.1199 214.74 18.0299C215.26 18.9399 215.51 19.9699 215.51 21.1299C215.51 22.2899 215.25 23.3199 214.74 24.2299C214.23 25.1399 213.52 25.8499 212.62 26.3599C211.72 26.8699 210.72 27.1299 209.62 27.1299C208.52 27.1299 207.54 26.8699 206.64 26.3599ZM211.83 25.2199C212.49 24.8399 213 24.2899 213.38 23.5899C213.76 22.8799 213.94 22.0599 213.94 21.1299C213.94 20.1999 213.75 19.3699 213.38 18.6599C213 17.9599 212.49 17.4199 211.84 17.0399C211.19 16.6599 210.45 16.4699 209.62 16.4699C208.79 16.4699 208.05 16.6599 207.4 17.0399C206.75 17.4199 206.24 17.9599 205.86 18.6599C205.48 19.3599 205.3 20.1799 205.3 21.1299C205.3 22.0799 205.49 22.8799 205.86 23.5899C206.24 24.2999 206.75 24.8399 207.41 25.2199C208.07 25.5999 208.8 25.7899 209.62 25.7899C210.44 25.7899 211.18 25.5999 211.83 25.2199V25.2199Z" fill="#C1BDFF" fill-opacity="0.32"/>
<path d="M227.5 27H225.97L219.81 17.66V27H218.28V15.25H219.81L225.97 24.57V15.25H227.5V27Z" fill="#C1BDFF" fill-opacity="0.32"/>
<path d="M237.48 15.27V16.52H232.38V20.48H236.52V21.73H232.38V27.01H230.85V15.28H237.48V15.27Z" fill="#C1BDFF" fill-opacity="0.32"/>
</svg>
