<svg width="182" height="50" viewBox="0 0 182 50" fill="none" xmlns="http://www.w3.org/2000/svg">
<g clip-path="url(#clip0_77_414)">
<path d="M135.225 40.0401C135.745 39.1301 136.445 38.4101 137.335 37.8901C138.225 37.3701 139.215 37.1201 140.305 37.1201C141.585 37.1201 142.705 37.4301 143.655 38.0501C144.605 38.6701 145.305 39.5401 145.745 40.6801H143.915C143.585 39.9701 143.125 39.4301 142.505 39.0501C141.895 38.6701 141.165 38.4801 140.305 38.4801C139.445 38.4801 138.755 38.6701 138.105 39.0501C137.455 39.4301 136.945 39.9701 136.575 40.6701C136.205 41.3701 136.015 42.1901 136.015 43.1401C136.015 44.0901 136.195 44.8901 136.575 45.5901C136.945 46.2901 137.455 46.8301 138.105 47.2101C138.755 47.5901 139.495 47.7801 140.305 47.7801C141.115 47.7801 141.885 47.5901 142.505 47.2201C143.115 46.8401 143.585 46.3001 143.915 45.6001H145.745C145.305 46.7201 144.615 47.5901 143.655 48.2001C142.705 48.8101 141.585 49.1201 140.305 49.1201C139.215 49.1201 138.225 48.8601 137.335 48.3501C136.445 47.8401 135.735 47.1301 135.225 46.2201C134.705 45.3101 134.455 44.2801 134.455 43.1401C134.455 42.0001 134.715 40.9701 135.225 40.0501V40.0401Z" fill="#FDF4DE"/>
<path d="M151.095 48.3601C150.195 47.8501 149.485 47.1401 148.965 46.2201C148.445 45.3101 148.185 44.2801 148.185 43.1301C148.185 41.9801 148.445 40.9601 148.965 40.0401C149.485 39.1201 150.195 38.4101 151.095 37.9001C151.995 37.3901 152.985 37.1301 154.075 37.1301C155.165 37.1301 156.175 37.3901 157.075 37.9001C157.975 38.4101 158.675 39.1201 159.195 40.0301C159.715 40.9401 159.965 41.9701 159.965 43.1301C159.965 44.2901 159.705 45.3201 159.195 46.2301C158.685 47.1401 157.975 47.8501 157.075 48.3601C156.175 48.8701 155.175 49.1301 154.075 49.1301C152.975 49.1301 151.995 48.8701 151.095 48.3601ZM156.285 47.2201C156.945 46.8401 157.455 46.2901 157.835 45.5901C158.215 44.8801 158.395 44.0601 158.395 43.1301C158.395 42.2001 158.205 41.3701 157.835 40.6601C157.455 39.9601 156.945 39.4201 156.295 39.0401C155.645 38.6601 154.905 38.4701 154.075 38.4701C153.245 38.4701 152.505 38.6601 151.855 39.0401C151.205 39.4201 150.695 39.9601 150.315 40.6601C149.935 41.3601 149.755 42.1801 149.755 43.1301C149.755 44.0801 149.945 44.8801 150.315 45.5901C150.695 46.3001 151.205 46.8401 151.865 47.2201C152.525 47.6001 153.255 47.7901 154.075 47.7901C154.895 47.7901 155.635 47.6001 156.285 47.2201Z" fill="#FDF4DE"/>
<path d="M171.955 49H170.425L164.265 39.66V49H162.735V37.25H164.265L170.425 46.57V37.25H171.955V49Z" fill="#FDF4DE"/>
<path d="M181.935 37.27V38.52H176.835V42.48H180.975V43.73H176.835V49.01H175.305V37.28H181.935V37.27Z" fill="#FDF4DE"/>
<path d="M50.045 10.38V15.99H57.575V19.55H50.045V25.48H58.535V29.13H45.555V6.72998H58.535V10.38H50.045Z" fill="#FDF4DE"/>
<path d="M66.895 28.6298C65.745 28.1098 64.825 27.3998 64.155 26.4998C63.485 25.5998 63.115 24.6098 63.045 23.5198H67.565C67.655 24.1998 67.985 24.7698 68.575 25.2198C69.165 25.6698 69.895 25.8898 70.765 25.8898C71.635 25.8898 72.285 25.7198 72.765 25.3798C73.245 25.0398 73.485 24.5998 73.485 24.0698C73.485 23.4898 73.195 23.0598 72.605 22.7698C72.015 22.4798 71.085 22.1698 69.805 21.8198C68.485 21.4998 67.395 21.1698 66.555 20.8298C65.715 20.4898 64.985 19.9598 64.375 19.2598C63.765 18.5598 63.465 17.5998 63.465 16.4098C63.465 15.4298 63.745 14.5298 64.315 13.7198C64.885 12.9098 65.695 12.2698 66.755 11.7998C67.815 11.3298 69.055 11.0898 70.485 11.0898C72.595 11.0898 74.285 11.6198 75.545 12.6798C76.805 13.7398 77.495 15.1598 77.625 16.9598H73.335C73.275 16.2598 72.975 15.6898 72.455 15.2798C71.935 14.8598 71.235 14.6598 70.355 14.6598C69.545 14.6598 68.915 14.8098 68.485 15.1098C68.045 15.4098 67.825 15.8298 67.825 16.3598C67.825 16.9598 68.125 17.4098 68.725 17.7198C69.325 18.0298 70.255 18.3398 71.515 18.6698C72.795 18.9898 73.855 19.3198 74.685 19.6598C75.515 19.9998 76.235 20.5298 76.845 21.2498C77.455 21.9698 77.765 22.9098 77.795 24.0898C77.795 25.1198 77.515 26.0298 76.945 26.8498C76.375 27.6598 75.565 28.2998 74.505 28.7598C73.445 29.2198 72.215 29.4498 70.805 29.4498C69.395 29.4498 68.045 29.1898 66.895 28.6598V28.6298Z" fill="#FDF4DE"/>
<path d="M88.115 15.06V23.65C88.115 24.25 88.255 24.68 88.545 24.95C88.835 25.22 89.315 25.35 90.005 25.35H92.085V29.13H89.265C85.485 29.13 83.595 27.29 83.595 23.62V15.06H81.485V11.38H83.595V6.97998H88.115V11.37H92.085V15.05H88.115V15.06Z" fill="#FDF4DE"/>
<path d="M113.105 21.5998H100.125C100.235 22.8798 100.685 23.8898 101.475 24.6098C102.265 25.3398 103.235 25.6998 104.395 25.6998C106.065 25.6998 107.245 24.9798 107.955 23.5498H112.795C112.285 25.2598 111.295 26.6598 109.845 27.7598C108.395 28.8598 106.605 29.4098 104.495 29.4098C102.785 29.4098 101.255 29.0298 99.895 28.2698C98.535 27.5098 97.485 26.4398 96.725 25.0498C95.965 23.6598 95.585 22.0598 95.585 20.2398C95.585 18.4198 95.955 16.7898 96.705 15.3998C97.455 14.0098 98.495 12.9398 99.845 12.1998C101.195 11.4498 102.735 11.0798 104.495 11.0798C106.255 11.0798 107.695 11.4398 109.025 12.1698C110.355 12.8998 111.395 13.9298 112.135 15.2598C112.875 16.5998 113.245 18.1298 113.245 19.8598C113.245 20.4998 113.205 21.0798 113.115 21.5898L113.105 21.5998ZM108.585 18.5898C108.565 17.4398 108.145 16.5098 107.335 15.8198C106.525 15.1298 105.525 14.7798 104.355 14.7798C103.245 14.7798 102.305 15.1198 101.555 15.7898C100.795 16.4598 100.335 17.3998 100.165 18.5898H108.595H108.585Z" fill="#FDF4DE"/>
<path d="M122.395 5.40991V29.1299H117.905V5.40991H122.395Z" fill="#FDF4DE"/>
<path d="M132.715 5.40991V29.1299H128.225V5.40991H132.715Z" fill="#FDF4DE"/>
<path d="M143.035 5.40991V29.1299H138.545V5.40991H143.035Z" fill="#FDF4DE"/>
<path d="M148.785 15.4098C149.505 14.0198 150.475 12.9498 151.705 12.2098C152.935 11.4598 154.305 11.0898 155.825 11.0898C157.145 11.0898 158.305 11.3598 159.305 11.8898C160.295 12.4198 161.095 13.0998 161.695 13.9098V11.3798H166.215V29.1298H161.695V26.5298C161.115 27.3598 160.325 28.0498 159.305 28.5998C158.285 29.1498 157.125 29.4198 155.795 29.4198C154.295 29.4198 152.935 29.0398 151.705 28.2698C150.475 27.4998 149.505 26.4198 148.785 25.0198C148.065 23.6198 147.715 22.0098 147.715 20.1998C147.715 18.3898 148.075 16.8098 148.785 15.4298V15.4098ZM161.045 17.4398C160.615 16.6598 160.045 16.0598 159.315 15.6498C158.585 15.2398 157.805 15.0298 156.975 15.0298C156.145 15.0298 155.375 15.2298 154.665 15.6398C153.965 16.0498 153.385 16.6398 152.955 17.4198C152.515 18.1998 152.295 19.1198 152.295 20.1898C152.295 21.2598 152.515 22.1898 152.955 22.9898C153.395 23.7898 153.965 24.4098 154.685 24.8298C155.405 25.2598 156.165 25.4698 156.975 25.4698C157.785 25.4698 158.585 25.2598 159.315 24.8498C160.045 24.4398 160.615 23.8398 161.045 23.0598C161.475 22.2798 161.685 21.3498 161.685 20.2598C161.685 19.1698 161.475 18.2398 161.045 17.4598V17.4398Z" fill="#FDF4DE"/>
<path d="M178.745 11.9199C179.675 11.3899 180.735 11.1199 181.935 11.1199V15.8299H180.745C179.335 15.8299 178.275 16.1599 177.555 16.8199C176.835 17.4799 176.485 18.6399 176.485 20.2799V29.1199H171.995V11.3699H176.485V14.1299C177.065 13.1899 177.815 12.4499 178.745 11.9199Z" fill="#FDF4DE"/>
<path d="M28.285 27.8399C25.555 30.6699 21.725 32.4299 17.475 32.4299C9.18502 32.4299 2.45502 25.7099 2.45502 17.4099C2.45502 9.1099 9.18502 2.3999 17.475 2.3999C21.515 2.3999 25.195 3.9999 27.895 6.5999" stroke="#FDF4DE" stroke-width="4" stroke-miterlimit="10"/>
<path d="M33.475 1.40991L1.47501 33.4099" stroke="#FDF4DE" stroke-width="4" stroke-miterlimit="10"/>
</g>
<defs>
<clipPath id="clip0_77_414">
<rect width="181.87" height="49.12" fill="white" transform="translate(0.0650024)"/>
</clipPath>
</defs>
</svg>
