<?xml version="1.0" encoding="UTF-8"?>
<svg id="Capa_2" data-name="Capa 2" xmlns="http://www.w3.org/2000/svg" xmlns:xlink="http://www.w3.org/1999/xlink" viewBox="0 0 447.22 575.63">
  <defs>
    <style>
      .cls-1 {
        fill: #fff;
      }

      .cls-2 {
        filter: url(#outer-glow-3);
      }

      .cls-3 {
        fill: #7acec6;
      }

      .cls-4 {
        filter: url(#outer-glow-1);
      }

      .cls-5 {
        fill: #333;
      }

      .cls-6 {
        fill: #101033;
      }

      .cls-7 {
        fill: #ff5269;
        fill-rule: evenodd;
      }

      .cls-8 {
        fill: #958dff;
      }

      .cls-9 {
        filter: url(#outer-glow-2);
      }

      .cls-10 {
        fill: #fefefe;
      }
    </style>
    <filter id="outer-glow-1" filterUnits="userSpaceOnUse">
      <feOffset dx="0" dy="0"/>
      <feGaussianBlur result="blur" stdDeviation="12"/>
      <feFlood flood-color="#631dfc" flood-opacity=".75"/>
      <feComposite in2="blur" operator="in"/>
      <feComposite in="SourceGraphic"/>
    </filter>
    <filter id="outer-glow-2" filterUnits="userSpaceOnUse">
      <feOffset dx="0" dy="0"/>
      <feGaussianBlur result="blur-2" stdDeviation="12"/>
      <feFlood flood-color="#631dfc" flood-opacity=".75"/>
      <feComposite in2="blur-2" operator="in"/>
      <feComposite in="SourceGraphic"/>
    </filter>
    <filter id="outer-glow-3" filterUnits="userSpaceOnUse">
      <feOffset dx="0" dy="0"/>
      <feGaussianBlur result="blur-3" stdDeviation="12"/>
      <feFlood flood-color="#631dfc" flood-opacity=".75"/>
      <feComposite in2="blur-3" operator="in"/>
      <feComposite in="SourceGraphic"/>
    </filter>
  </defs>
  <g id="Capa_116" data-name="Capa 116">
    <g>
      <path class="cls-6" d="M273.35,575.48h-69.94l-33.38-21.04,20.19-33.48,19.22,12.74,3.26-4.15-68.3-53.33s6.37-10.08,25.63-41.48c19.26-31.41,26.97-64.3,31.12-96.3,4.14-32-2.38-80.3-2.38-80.3l21.93-24.29,15.41,2.22,14.22,130.52s-15.7,1.48-23.11,2.96c-7.41,1.48-6.52,8.59-6.52,8.59l12.45,106.37,8.59,8.89h23.11l8.5,82.08Z"/>
      <path class="cls-6" d="M187.66,243.18h-40v58.22h-6.67v-58.22l-97.33-4-10.67,3.42,36.9,93.47-19.11,27.56,4.44,28.44,15.56-21.78,3.56,5.33-33.33,47.11,85.07,59.1s38.04-52.88,47.37-80.44c9.33-27.56,18.67-55.69,16.44-102.07-2.22-46.38-2.22-56.15-2.22-56.15Z"/>
      <g>
        <polygon class="cls-6" points="447.22 481.89 447.22 517.05 417.44 503.48 426.03 475.63 447.22 481.89"/>
        <polygon class="cls-6" points="447.22 525.64 447.22 567.75 398.76 545.85 413.29 512.21 447.22 525.64"/>
        <polygon class="cls-6" points="441.77 575.48 384.88 575.48 394.75 552.79 441.77 575.48"/>
        <path class="cls-6" d="M417.83,87.4s-13.28,18.74-33.28,24.81-44.89,14.3-44.89,14.3l24.22-64,53.94,24.89Z"/>
        <polygon class="cls-6" points="330.44 106.29 327.89 112.22 300.11 100.51 279.44 93.18 286.55 74.74 305.44 83.85 330.44 106.29"/>
        <polygon class="cls-6" points="326.33 119.23 323.07 136.63 293.17 148.07 276.06 154.07 257.15 145.85 263.52 134.74 276.55 100.51 326.33 119.23"/>
        <path class="cls-6" d="M253.29,136.85s-.07,14.11-16.96,22.78c-.44-11.33-1.7-23.11-1.7-23.11l18.67,.33Z"/>
        <polygon class="cls-6" points="227.89 136.51 228.77 162.14 194.77 176.07 194.77 132.07 227.89 136.51"/>
        <polygon class="cls-6" points="198.11 220.81 195.89 184.29 242.55 163.85 241.04 185.72 210.55 224.07 198.11 220.81"/>
        <polygon class="cls-6" points="204.33 230.74 197.89 239.18 197.89 228.29 204.33 230.74"/>
        <polygon class="cls-6" points="236.39 226.46 238.55 212.29 226.77 226.51 236.39 226.46"/>
        <polygon class="cls-6" points="194.75 0 192.55 8.96 210.33 14.29 211.41 0 194.75 0"/>
        <polygon class="cls-6" points="402.33 407.18 392.36 444.22 351.37 425.7 366.48 391.18 402.33 407.18"/>
        <polygon class="cls-6" points="361.07 388.22 344.26 422 300.4 400.96 315.22 368.07 361.07 388.22"/>
        <polygon class="cls-6" points="363.22 381.4 378.63 348.81 333 326.88 318.77 360.29 363.22 381.4"/>
        <polygon class="cls-6" points="381.59 342 397.29 308.51 351.37 286.59 337.44 319.48 381.59 342"/>
        <polygon class="cls-6" points="415.66 265.85 400.55 300.4 354.33 278.88 370.33 243.03 415.66 265.85"/>
        <polygon class="cls-6" points="433.82 222.29 419.22 259.92 373.29 239.18 390.18 201.55 433.82 222.29"/>
        <path class="cls-6" d="M121.44,488.37l-32,49.48s-16.28-3.22-25.31,2.95c-6.96,4.89-23.1,27.28-23.1,27.28l-18.85-13.64,59.11-94.07,40.15,28Z"/>
        <path class="cls-3" d="M87.07,543.33l-18.58,32.15h-16.92l-4.05-2.82s14-24.11,23.77-27.66c7.89-2.78,15.78-1.67,15.78-1.67Z"/>
        <polygon class="cls-6" points="404.7 400.96 414.39 366.96 384.55 352.66 370.33 384.07 404.7 400.96"/>
        <polygon class="cls-6" points="447.22 336.21 447.22 371.06 388.11 344.66 404.11 311.48 447.22 336.21"/>
        <path class="cls-3" d="M447.22,380.07v93.33c-12.28-2-33.27-9.33-40.45-12-10.37-3.85-7.7-12.44-7.7-12.44l20.55-76.32c.42-1.55,2.09-2.4,3.59-1.82l24.01,9.25Z"/>
        <polygon class="cls-6" points="447.22 283.3 447.22 326.02 407.37 304.37 422.48 267.63 447.22 283.3"/>
        <polygon class="cls-6" points="447.22 229.01 447.22 274.1 424.85 261.11 440.55 224.37 447.22 229.01"/>
        <polygon class="cls-6" points="447.22 208.65 447.22 218.43 444.11 216.37 447.22 208.65"/>
        <polygon class="cls-6" points="447.22 136.84 447.22 172.54 388.11 144.07 430.03 126.51 447.22 136.84"/>
        <polygon class="cls-6" points="447.22 181.84 447.22 192.23 438.12 214.59 392.55 195.33 405.29 162.14 447.22 181.84"/>
        <polygon class="cls-6" points="382.48 199.18 366.77 233.85 323.81 213.4 340.4 179.63 382.48 199.18"/>
        <polygon class="cls-6" points="190.22 109.7 199.66 96.07 210.33 22.2 190.22 16.66 185.15 63.18 190.22 109.7"/>
        <polygon class="cls-6" points="363.22 241.55 347.81 276.22 305.15 256.66 321.44 220.81 363.22 241.55"/>
        <polygon class="cls-6" points="344.26 283.63 328.85 317.4 286.18 297.26 302.48 263.18 344.26 283.63"/>
        <polygon class="cls-6" points="326.07 325.11 310.77 358.29 267.81 337.85 283.81 303.77 326.07 325.11"/>
        <polygon class="cls-6" points="307.81 364.51 293 397.11 260.11 380.81 254.18 339.03 307.81 364.51"/>
        <polygon class="cls-6" points="289.74 407.18 277 436.51 263.96 431.33 259.81 391.18 289.74 407.18"/>
        <polygon class="cls-6" points="66.63 85.7 59.81 92.7 62.18 105.26 84.11 150 64.85 156.81 34.92 148.07 13.89 136.51 0 125.73 0 84.76 79.37 14.29 90.63 25.55 87.66 37.7 89.44 85.7 66.63 85.7"/>
        <polygon class="cls-6" points="24.52 0 0 19.3 0 0 24.52 0"/>
        <polygon class="cls-6" points="0 74.97 82.92 1.26 83.33 0 27.29 0 30.18 2.74 0 28.54 0 74.97"/>
        <polygon class="cls-6" points="275.1 444.22 267.81 459.03 263.96 438 275.1 444.22"/>
        <polygon class="cls-6" points="261.66 334.59 295.89 259.92 243.44 237.4 251.89 329.63 261.66 334.59"/>
        <polygon class="cls-6" points="299.22 253.55 315.22 218.29 291.44 207.48 273 228.29 267.81 239.18 299.22 253.55"/>
        <path class="cls-6" d="M286.55,204.85l-16.89,18.56-7,13.22-19.22-7.22,3-22.67,9.06-7.19c2.73-2.17,6.38-2.82,9.69-1.73l21.35,7.03Z"/>
        <path class="cls-6" d="M335.22,178.29l-16,34s-26.22-9.78-32.67-16.22c-6.44-6.44,3.73-18.22,3.73-18.22l22.49-10.22,22.44,10.67Z"/>
        <polygon class="cls-6" points="385.89 191.85 400.77 159.63 377 148.74 321.89 164.51 385.89 191.85"/>
        <path class="cls-6" d="M374.33,142.74l-5.04-13.93-48.89,15.56s-31.55,12.78-33.85,25.93c32.67-11.33,87.78-27.56,87.78-27.56Z"/>
        <path class="cls-6" d="M447.22,99.92v8.75c-12.6,5.87-32.87,15.25-33.78,15.4-1.33,.22-32.89,15.56-32.89,15.56l-3.13-14.37,21.95-5.04,24.96-17.93s8.22-5.11,21.33-2.89c.54,.17,1.06,.35,1.56,.52Z"/>
        <polygon class="cls-6" points="447.22 56.79 447.22 91.41 435.89 85.63 446.33 56.51 447.22 56.79"/>
        <polygon class="cls-6" points="432.55 51.63 423.07 80.96 366.18 56.51 376.55 31.77 432.55 51.63"/>
        <polygon class="cls-6" points="444.11 21.4 435.39 45.27 378.55 25.55 388.84 0 391.34 0 444.11 21.4"/>
        <polygon class="cls-6" points="447.22 0 447.22 10.78 446.44 12.85 412.73 0 447.22 0"/>
        <path class="cls-6" d="M45,372.29l4.44,27.56-11.11-8.22s-4.89-4-2.44-7.56c2.44-3.56,9.11-11.78,9.11-11.78Z"/>
        <polygon class="cls-6" points="175.07 573.11 173.52 575.48 131.44 575.48 144.4 554.44 175.07 573.11"/>
        <polygon class="cls-6" points="139.22 550 123.07 575.48 77.58 575.48 107.07 529.55 139.22 550"/>
        <polygon class="cls-6" points="165.59 549.4 186.33 517.11 139.54 482.16 115.52 518.88 165.59 549.4"/>
        <path class="cls-6" d="M250.92,374.29l13.04,112.3-18.67,1.78-5.33-6.96-12.74-100.3s-.3-4.74,4.15-5.33,19.56-1.48,19.56-1.48Z"/>
        <polygon class="cls-6" points="277.29 545.85 279.37 565.26 285.59 549.4 277.29 545.85"/>
        <path class="cls-6" d="M339.53,575.48h-56.9c.89-8.3,8.89-21.04,8.89-21.04l48.01,21.04Z"/>
        <polygon class="cls-6" points="388.11 549.4 375.19 575.48 356.24 575.48 295.07 545.85 310.77 512.07 388.11 549.4"/>
        <polygon class="cls-6" points="389.59 540.81 406.77 508.22 330.03 471.18 315.37 506 389.59 540.81"/>
        <polygon class="cls-6" points="308.11 501.4 323.52 468.22 281.44 447.48 269.29 468.51 269.29 484.22 308.11 501.4"/>
        <polygon class="cls-6" points="303.96 508.81 289.74 543.48 277.29 538.44 271.66 492.81 303.96 508.81"/>
        <path class="cls-6" d="M409.74,499.92l10.67-26.96s-22.52-5.93-26.07-9.48c-3.56-3.56-3.26-11.26-3.26-11.26l-43.56-20.74-14.52,32,76.74,36.44Z"/>
        <polygon class="cls-6" points="325.32 461.4 341.59 429.11 296.4 407.18 282.39 438.88 325.32 461.4"/>
        <path class="cls-6" d="M27.89,245.18l35.11,91.33-13.33,19.11s-3.78-17.56-8-25.11c-4.22-7.56-28-61.78-28-61.78,0,0-6.22-7.56,2.44-14.89,8.67-7.33,11.78-8.67,11.78-8.67Z"/>
        <path class="cls-6" d="M44.11,364.29l-12.67,15.11L0,317.16v-84.28c4.73-5.02,8.33-8.81,8.33-8.81l4.67-5.11,11.11,18.89-18.22,16.66s-4.45,6.23,0,16c4.44,9.78,30.66,59.78,34.44,75.34,3.78,15.55,3.78,18.44,3.78,18.44Z"/>
        <polygon class="cls-6" points="45 404.96 35 418.29 0 393.72 0 330.82 10.04 350.96 30.55 394.96 45 404.96"/>
        <polygon class="cls-6" points="0 403.61 75.52 456.07 16.55 551.33 0 540.37 0 526.34 12.4 510.88 11.81 501.4 0 493.29 0 403.61"/>
        <path class="cls-6" d="M10.04,211.92L0,221.47v-84.77l10.04,9.15,30.51,12.15-8,16.59h8.89l7.71-13.63,16.59,2.96,21.63-5.92v26.66l-48.6,10.37,1.19,6.23,48.3-8.89,1.18,40.89-46.52-.6-12.44,3.41s-6.82-15.85-10.08-21.48c-3.25-5.63-10.36-2.67-10.36-2.67Z"/>
        <polygon class="cls-6" points="6.77 506.14 0 514.43 0 501.5 6.77 506.14"/>
        <polygon class="cls-6" points="40.57 575.48 0 575.63 0 551.01 40.57 575.48"/>
        <path class="cls-6" d="M253.3,0l-15.71,36.22-10.07,47.41v46.81l-34.97-6.52,15.41-26.07s7.7-56.3,8.89-65.19c.6-4.51,1.66-19.24,2.56-32.66h33.89Z"/>
        <polygon class="cls-6" points="254.85 14.29 245.59 39.77 242.63 59.33 256.85 61.11 256.85 39.48 261.29 16.96 254.85 14.29"/>
        <polygon class="cls-6" points="267.52 19.92 296.85 32.66 273.44 88.96 258.92 84.81 267.52 19.92"/>
        <polygon class="cls-6" points="253.29 68.22 250.33 106.74 250.33 130.44 234.63 130.44 236.11 92.22 241.44 66.44 253.29 68.22"/>
        <polygon class="cls-6" points="269.89 95.18 257.15 133.7 257.15 90.74 269.89 95.18"/>
        <polygon class="cls-6" points="308.11 4.51 299.22 25.55 257.15 8.07 260.85 0 294.85 0 308.11 4.51"/>
        <polygon class="cls-6" points="414.94 0 400.19 21.4 380.64 16.58 368.91 13.69 318.48 1.26 319.27 0 414.94 0"/>
        <polygon class="cls-6" points="362.33 27.03 352.55 50.44 305.44 29.4 313.74 7.77 362.33 27.03"/>
        <polygon class="cls-6" points="349 56.66 333.89 100.51 309.89 78.59 289.44 68.51 302.77 34.74 349 56.66"/>
        <path class="cls-6" d="M177.44,236.07l-81.33-3.11-2.22-48.89,31.56-9.78v-8l-31.56,9.78v-20.89l30.22-11.11,58.67,2.22v34.67s-7.11,5.33-6.67,20.44,1.33,34.67,1.33,34.67Z"/>
        <polygon class="cls-6" points="182.77 139.18 150.77 139.18 148.11 98.44 180.11 98.44 182.77 139.18"/>
        <path class="cls-6" d="M143.25,139.36l-1.4-41.98-14.19-2.65-48.89-2s-11.56-.81-10.67,5.7c3.11,9.63,8.89,20.37,8.89,20.37l14.67,29.93,31.33-12,20.26,2.62Z"/>
        <polygon class="cls-6" points="180.11 10.29 176.11 56.51 177.89 88.96 148.11 88.96 141.89 52.81 144.19 0 183.71 0 180.11 10.29"/>
        <path class="cls-6" d="M138.33,88.96l-20-2.67h-20.89s-1.78-40-1.78-51.11,2.67-13.78,2.67-13.78l37.78,4.15s-2.67,24.74-.44,42.07c2.22,17.33,2.67,21.33,2.67,21.33Z"/>
        <path class="cls-6" d="M138.33,0V18.29l-35.56-4-8.88,4-7.56-12.44,3.56-3.11c.58-.51,1.2-1.48,1.83-2.74h46.61Z"/>
        <path class="cls-7" d="M126.04,259.92c-5.59,0-10.74,1.91-14.83,5.13-2.78,2.18-5.07,4.96-6.66,8.16-1.62,3.23-2.53,6.87-2.53,10.73,0,11.84,13,26.36,19.76,37.17l4.26,6.82,4.26-6.82c6.76-10.81,19.75-25.33,19.75-37.17,0-13.27-10.75-24.02-24.01-24.02Zm0,37.54c-7.47,0-13.53-6.05-13.53-13.52s6.06-13.53,13.53-13.53,13.52,6.06,13.52,13.53-6.06,13.52-13.52,13.52Z"/>
        <g id="g3025">
          <path id="path27-4" class="cls-1" d="M100.39,346.02c-.39,.04-.64,.07-.76,.14-.13,.07-.24,.34-.21,2.15l.03,2.7c.02,1.74-.39,2.51-2.12,3.32-.03,.02-.12-.11-.08-.14,.88-.64,1.34-1.07,1.34-3.18v-2.7c0-1.81-.09-2.08-.21-2.15-.12-.07-.38-.1-.77-.14-.04,0-.04-.21,0-.21h2.8s.04,.2,0,.21"/>
          <path id="path29-0" class="cls-1" d="M105.78,352.16c-.05,.06-.35,.12-.77,.12-.6,0-.91-.03-1.73-.03-.65,0-1.13,0-1.83,.02-.03,0-.03-.2,0-.21,.39-.04,.62-.07,.74-.14,.12-.07,.21-.34,.21-2.15v-1.46c0-1.81-.09-2.08-.21-2.15-.12-.07-.35-.1-.74-.14-.04,0-.04-.21,0-.21,.78,0,2.08,.02,2.73,.02,.84,0,1.17,0,1.47-.05,.05,0,.06,.02,.06,.04-.02,.35-.05,.85-.11,1.39-.01,.04-.22,.03-.22-.03,0-.24-.08-.51-.23-.68-.21-.21-.45-.3-1.02-.3-.39,0-.76,0-.85,.02-.03,.1-.04,.47-.04,1.1v1.41h.82c.95,0,.97-.27,1.03-.63,.01-.04,.22-.03,.22,0,0,.27-.04,1.52-.05,1.79,0,.03-.22,.03-.22,0,0-.18-.05-.52-.14-.62-.09-.09-.14-.15-.85-.15h-.81v.67c0,1.29,.06,1.87,.15,1.96,.09,.09,.4,.13,.99,.13,.62,0,.85-.15,1.03-.34,.12-.13,.24-.42,.33-.8,.01-.05,.22-.01,.22,.04-.05,.63-.16,1.36-.17,1.38"/>
          <path id="path31-9" class="cls-1" d="M109.05,352.4c-.83,0-1.5-.37-1.59-.5,0-.02-.11-1.06-.06-1.57,0-.05,.22-.06,.23,0,.02,.38,.21,.89,.35,1.1,.25,.38,.68,.63,1.29,.63,.69,0,1.07-.46,1.07-1.18,0-1.57-2.62-1.65-2.62-3.47,0-.95,.77-1.76,1.81-1.76,.76,0,.87,.24,1.3,.19,.04,0,.06,0,.06,.03,0,.35,.02,.94,0,1.48,0,.03-.22,.03-.23-.02-.03-.4-.12-.75-.31-.97-.22-.24-.5-.39-.93-.39-.54,0-.95,.47-.95,1.09,0,1.35,2.66,1.67,2.66,3.4,0,1.25-1.07,1.94-2.07,1.94"/>
          <path id="path33-4" class="cls-1" d="M118.32,346.19c-.08,.07-.17,.31-.17,2.12v1.67c0,1.2-.92,2.34-2.62,2.34-1.55,0-2.5-1.03-2.5-2.32v-1.69c0-1.81-.09-2.08-.21-2.15-.13-.07-.3-.1-.69-.14-.04,0-.04-.21-.01-.21h2.69s.03,.2,0,.21c-.39,.04-.6,.07-.73,.14-.12,.07-.21,.34-.21,2.15v1.52c0,1.1,.69,2,2,2,1.23,0,1.83-.93,1.83-1.89v-1.62c0-1.81-.1-2.05-.18-2.12-.11-.1-.34-.13-.74-.17-.04,0-.03-.21,0-.21h2.23s.05,.2,0,.21c-.39,.04-.59,.07-.7,.17"/>
          <path id="path41-8" class="cls-1" d="M133.21,352.28c-.86,0-1.32-.1-1.71-.36-.5-.35-1.04-1.02-1.84-2.38-.48,.01-.68,.01-1.06,0v.26c0,1.8,.09,2.07,.21,2.14,.13,.07,.42,.09,.86,.14,.04,0,.04,.21,.01,.21h-2.8s-.04-.2,0-.21c.39-.04,.56-.07,.67-.14,.13-.07,.21-.34,.21-2.14v-1.45c0-1.8-.08-2.07-.21-2.14-.12-.07-.29-.1-.67-.14-.05,0-.04-.21,0-.21,.44,0,.94,.02,1.31,.02s.76-.02,1.21-.02c1.47,0,2.21,.82,2.21,1.57,0,.79-.49,1.42-1.19,1.85,1.4,2.1,2.2,2.77,2.86,2.77,.39,0,.62-.06,.74-.13,.12-.07,.21-.34,.21-2.14v-1.45c0-1.8-.09-2.07-.21-2.14-.12-.07-.38-.1-.76-.14-.04,0-.04-.21,0-.21h2.78s.04,.2,0,.21c-.39,.04-.63,.07-.75,.14-.13,.07-.21,.34-.21,2.14v1.45c0,1.8,.08,2.07,.21,2.14,.12,.07,.37,.1,.75,.14,.05,0,.05,.21,0,.21-.47,0-2.35,0-2.82,0m-3.84-6.08c-.34,0-.63,.05-.66,.09-.05,.06-.11,.62-.11,2.06,0,.59,.02,.7,.06,.74,.07,.07,.34,.11,.82,.11,.81,0,1.19-.61,1.19-1.39,0-.95-.35-1.61-1.3-1.61Z"/>
          <path id="path43-8" class="cls-1" d="M138.83,352.41c-.82,0-1.49-.37-1.58-.5,0-.02-.11-1.05-.06-1.55,0-.05,.22-.06,.23,0,.02,.38,.21,.88,.35,1.09,.25,.38,.67,.62,1.28,.62,.68,0,1.06-.46,1.06-1.17,0-1.56-2.6-1.64-2.6-3.44,0-.94,.76-1.75,1.8-1.75,.75,0,.86,.24,1.29,.19,.04,0,.06,0,.06,.03,0,.35,.02,.93,0,1.46,0,.03-.22,.03-.23-.02-.03-.4-.12-.74-.31-.96-.22-.24-.5-.39-.92-.39-.53,0-.94,.47-.94,1.08,0,1.34,2.64,1.66,2.64,3.37,0,1.24-1.06,1.93-2.06,1.93"/>
          <path id="path45-2" class="cls-1" d="M147.5,347.46s-.22,.05-.22-.02c0-.25-.03-.72-.2-.9-.2-.21-.6-.38-1.47-.38-.23,0-.35,0-.45,.02-.03,.1-.04,.57-.04,1.2v2.42c0,1.8,.09,2.07,.21,2.14,.12,.07,.37,.1,.76,.14,.04,0,.04,.21,0,.21h-2.79s-.03-.2,.02-.21c.39-.04,.63-.07,.75-.14,.13-.07,.21-.34,.21-2.14v-2.42c0-.62,0-1.1-.04-1.2-.1-.02-.27-.02-.49-.02-.93,0-1.25,.1-1.48,.38-.16,.19-.26,.53-.33,.92,0,.07-.22,.04-.22-.02,.06-.51,.12-1.27,.15-1.6,0-.03,.05-.05,.12-.04,.35,.06,.98,.11,2.7,.11,2.36,0,2.58-.07,2.76-.13,.06-.02,.11,0,.11,.04,0,.38-.02,1.12-.08,1.64"/>
          <path id="path37-4" class="cls-1" d="M125.37,351.96s-.69,.47-1.97,.47c-2.11,0-3.45-1.48-3.45-3.27,0-1.69,1.22-3.43,3.43-3.43,1.12,0,1.68,.38,2.03,.3,.04-.01,.06,.02,.06,.04,0,.35,.04,1.06,.03,1.59,0,.04-.22,.04-.23-.02-.04-.41-.17-.74-.41-1-.3-.31-.92-.56-1.58-.56-1.73,0-2.4,1.39-2.4,2.79,0,1.61,1.02,3.17,2.54,3.17,.73,0,1.21-.21,1.55-.62,.21-.26,.33-.55,.42-.85,0-.06,.22-.01,.22,.03-.03,.42-.21,1.34-.23,1.37"/>
          <path id="path47-5" class="cls-1" d="M151.43,352.43c-1.87,0-3.27-1.46-3.27-3.27s1.4-3.43,3.39-3.43c1.87,0,3.27,1.46,3.27,3.27s-1.4,3.42-3.39,3.42m-.07-6.29c-1.73,0-2.23,1.5-2.23,2.73,0,1.63,.92,3.14,2.49,3.14,1.73,0,2.23-1.5,2.23-2.73,0-1.63-.92-3.14-2.49-3.14Z"/>
          <path id="path51-1" class="cls-1" d="M110.91,342.26c-.04,.06-.09,.09-.22,.09-.32,0-.69-.02-1.11-.02-.33,0-.58,0-.95,0,0,0,0-.11,0-.12,.2-.02,.29-.05,.35-.08,.07-.03,.1-.14,.1-1.05v-.72c0-.91-.04-1.02-.1-1.05-.06-.04-.15-.06-.35-.09-.02,0-.02-.11,0-.11h1.39s0,.11,0,.11c-.2,.03-.29,.05-.35,.09-.07,.03-.1,.14-.1,1.05v.72c0,.6,.05,.88,.11,.96,.06,.06,.13,.09,.43,.09s.48-.07,.6-.21c.11-.13,.19-.34,.23-.5,0-.03,.13,0,.13,.02-.03,.26-.1,.74-.15,.82"/>
          <path id="path53-7" class="cls-1" d="M113.37,342.33s-.02-.11,0-.12c.16,0,.26-.05,.26-.12,0-.08-.06-.25-.36-.96,.01,0-1.01,0-1.02,0-.24,.63-.3,.82-.3,.93,0,.08,.07,.13,.29,.15,.03,0,.02,.12,0,.12h-1.08s-.02-.11,0-.12c.16,0,.25-.04,.32-.09,.1-.07,.22-.26,.51-1.04l.28-.72c.16-.42,.32-.85,.45-1.24,.01-.04,.21-.04,.23,0,.15,.44,.29,.79,.46,1.24l.29,.72c.39,.94,.45,.99,.54,1.05,.09,.06,.17,.08,.32,.08,.02,0,0,.12,0,.12h-1.2m-.61-2.56l-.42,1.13h.84l-.43-1.13Z"/>
          <path id="path71-4" class="cls-1" d="M127.31,359.06c-.48,0-.81-.24-.82-.3-.04-.17-.04-.45,0-.71,0-.02,.12-.03,.12,0,.02,.19,.09,.37,.17,.48,.15,.19,.34,.33,.64,.33,.37,0,.55-.24,.55-.58,0-.73-1.36-.86-1.36-1.68,0-.51,.48-.87,.95-.87,.39,0,.49,.14,.68,.09,.02,0,.04,0,.04,.02-.01,.18,0,.43-.01,.69,0,.02-.12,.02-.13,0,0-.16-.08-.35-.17-.44-.11-.11-.3-.18-.45-.18-.29,0-.5,.19-.5,.5,0,.62,1.41,.86,1.41,1.68,0,.62-.58,.96-1.1,.96"/>
          <path id="path73-0" class="cls-1" d="M130.78,359.02s-.02-.11,0-.12c.16,0,.26-.05,.26-.12,0-.08-.06-.25-.36-.95,0,0-1.01,0-1.02,0-.24,.63-.3,.82-.3,.93,0,.08,.07,.13,.29,.15,.03,0,.02,.12,0,.12h-1.07s-.02-.11,0-.12c.16,0,.25-.04,.32-.09,.1-.07,.22-.26,.51-1.04l.28-.72c.16-.42,.32-.85,.45-1.24,0-.04,.21-.04,.23,0,.15,.43,.29,.79,.46,1.24l.29,.72c.39,.93,.44,.99,.54,1.05,.09,.06,.17,.08,.31,.08,.02,0,0,.12,0,.12h-1.19m-.61-2.55l-.42,1.13h.84l-.43-1.13Z"/>
          <path id="path47-5-4" class="cls-1" d="M141.36,359.06c-.94,0-1.74-.73-1.74-1.64s.8-1.71,1.8-1.71c.94,0,1.72,.73,1.72,1.64s-.79,1.71-1.78,1.71m-.03-3.14c-.87,0-1.17,.75-1.17,1.37,0,.81,.51,1.57,1.3,1.57,.86,0,1.18-.75,1.18-1.37,0-.81-.53-1.57-1.32-1.57Z"/>
          <path id="path65-8" class="cls-1" d="M109.45,358.52c-.35,.34-.75,.49-1.4,.49-.23,0-.6,0-.79,0s-.47,0-.69,0c-.02,0-.02-.11,0-.12,.2-.02,.29-.05,.35-.08,.06-.03,.11-.14,.11-1.05v-.73c0-.91-.05-1.03-.11-1.05-.07-.04-.15-.07-.35-.09-.02,0-.02-.11,0-.11,.22,0,.5,0,.69,0s.67,0,.89,0c1.04,0,1.83,.68,1.83,1.59,0,.43-.21,.86-.53,1.16m-1.45-2.56c-.32,0-.4,.05-.44,.09-.03,.04-.07,.27-.07,.96v.75c0,.61,.05,.87,.11,.94,.09,.09,.17,.12,.44,.12,1.01,0,1.44-.44,1.44-1.38,0-.76-.49-1.48-1.47-1.48h0Z"/>
          <path id="path3049" class="cls-1" d="M118.31,340.74c0-.95,.8-1.7,1.89-1.7,.41,0,.84,.13,1.03,.2,0,.12,.05,.3,.08,.72,0,.05-.11,.04-.11,0-.07-.48-.65-.72-1.02-.73-.77-.03-1.37,.47-1.35,1.47,.01,1,.8,1.49,1.5,1.51,.63,0,.58-.19,.58-.29,0-.1,.01-.49-.02-.66-.02-.21,0-.3-.46-.3v-.12s1.3,0,1.3,0v.12c-.4,0-.37,.15-.37,.31v.63c0,.38-.41,.48-1.18,.48-1,0-1.88-.69-1.87-1.64h0Z"/>
          <path id="path51-1-1" class="cls-1" d="M124.55,342.26c-.04,.06-.09,.09-.22,.09-.32,0-.69-.02-1.11-.02-.33,0-.58,0-.95,0,0,0,0-.11,0-.12,.2-.02,.29-.05,.35-.08,.07-.03,.1-.14,.1-1.05v-.72c0-.91-.04-1.02-.1-1.05-.06-.04-.15-.06-.35-.09-.02,0-.02-.11,0-.11h1.39s0,.11,0,.11c-.2,.03-.29,.05-.35,.09-.07,.03-.1,.14-.1,1.05v.72c0,.6,.05,.88,.11,.96,.06,.06,.13,.09,.43,.09s.48-.07,.6-.21c.11-.13,.19-.34,.23-.5,0-.03,.13,0,.13,.02-.03,.26-.1,.74-.15,.82"/>
          <path id="path51-1-11" class="cls-1" d="M117.4,358.94c-.04,.06-.09,.09-.22,.09-.32,0-.69-.02-1.11-.02-.33,0-.58,0-.95,0,0,0,0-.11,0-.12,.2-.02,.29-.05,.35-.08,.07-.03,.1-.14,.1-1.05v-.72c0-.91-.04-1.02-.1-1.05-.06-.04-.15-.06-.35-.09-.02,0-.02-.11,0-.11h1.39s0,.11,0,.11c-.2,.03-.29,.05-.35,.09-.07,.03-.1,.14-.1,1.05v.72c0,.6,.05,.88,.11,.96,.06,.06,.13,.09,.43,.09s.48-.07,.6-.21c.11-.13,.19-.34,.23-.5,0-.03,.13,0,.13,.02-.03,.26-.1,.74-.15,.82"/>
          <path id="path51-1-7" class="cls-1" d="M123.89,365.21c-.04,.06-.09,.09-.22,.09-.32,0-.69-.02-1.11-.02-.33,0-.58,0-.95,0,0,0,0-.11,0-.12,.2-.02,.29-.05,.35-.08,.07-.03,.1-.14,.1-1.05v-.72c0-.91-.04-1.02-.1-1.05-.06-.04-.15-.06-.35-.09-.02,0-.02-.11,0-.11h1.39s0,.11,0,.11c-.2,.03-.29,.05-.35,.09-.07,.03-.1,.14-.1,1.05v.72c0,.6,.05,.88,.11,.96,.06,.06,.13,.09,.43,.09s.48-.07,.6-.21c.11-.13,.19-.34,.23-.5,0-.03,.13,0,.13,.02-.03,.26-.1,.74-.15,.82"/>
          <path id="path51-1-14" class="cls-1" d="M108.56,365.21c-.04,.06-.09,.09-.22,.09-.32,0-.69-.02-1.11-.02-.33,0-.58,0-.95,0,0,0,0-.11,0-.12,.2-.02,.29-.05,.35-.08,.07-.03,.1-.14,.1-1.05v-.72c0-.91-.04-1.02-.1-1.05-.06-.04-.15-.06-.35-.09-.02,0-.02-.11,0-.11h1.39s0,.11,0,.11c-.2,.03-.29,.05-.35,.09-.07,.03-.1,.14-.1,1.05v.72c0,.6,.05,.88,.11,.96,.06,.06,.13,.09,.43,.09s.48-.07,.6-.21c.11-.13,.19-.34,.23-.5,0-.03,.13,0,.13,.02-.03,.26-.1,.74-.15,.82"/>
          <path id="path75-2" class="cls-1" d="M130.89,342.33s-.01-.11,0-.12c.21-.02,.33-.05,.39-.08,.07-.03,.11-.14,.11-1.05v-.72c0-.91-.05-1.02-.11-1.05-.06-.04-.19-.07-.39-.09-.02,0-.02-.11,0-.11h1.48s0,.11,0,.11c-.2,.03-.33,.06-.39,.09-.06,.03-.11,.14-.11,1.05v.72c0,.91,.05,1.02,.11,1.05,.06,.04,.19,.07,.39,.08,.02,0,.02,.12,0,.12h-1.48"/>
          <path id="path75-2-3" class="cls-1" d="M116.28,342.33s-.01-.11,0-.12c.21-.02,.33-.05,.39-.08,.07-.03,.11-.14,.11-1.05v-.72c0-.91-.05-1.02-.11-1.05-.06-.04-.19-.07-.39-.09-.02,0-.02-.11,0-.11h1.48s0,.11,0,.11c-.2,.03-.33,.06-.39,.09-.06,.03-.11,.14-.11,1.05v.72c0,.91,.05,1.02,.11,1.05,.06,.04,.19,.07,.39,.08,.02,0,.02,.12,0,.12h-1.48"/>
          <path id="path75-2-2" class="cls-1" d="M127.52,365.31s-.01-.11,0-.12c.21-.02,.34-.05,.39-.08,.07-.03,.11-.14,.11-1.06v-.73c0-.92-.05-1.03-.11-1.06-.06-.04-.19-.07-.39-.09-.02,0-.02-.11,0-.11h1.49s0,.11,0,.11c-.21,.03-.34,.06-.39,.09-.06,.03-.11,.14-.11,1.06v.73c0,.92,.05,1.03,.11,1.06,.06,.04,.19,.07,.39,.08,.02,0,.02,.12,0,.12h-1.49"/>
          <path id="path75-2-2-1" class="cls-1" d="M146.87,365.31s-.01-.11,0-.12c.21-.02,.34-.05,.39-.08,.07-.03,.11-.14,.11-1.06v-.73c0-.92-.05-1.03-.11-1.06-.06-.04-.19-.07-.39-.09-.02,0-.02-.11,0-.11h1.49s0,.11,0,.11c-.21,.03-.34,.06-.39,.09-.06,.03-.11,.14-.11,1.06v.73c0,.92,.05,1.03,.11,1.06,.06,.04,.19,.07,.39,.08,.02,0,.02,.12,0,.12h-1.49"/>
          <path id="path73-0-8" class="cls-1" d="M134.67,342.33s-.02-.11,0-.12c.16,0,.26-.05,.26-.12,0-.08-.06-.25-.36-.95,0,0-1.01,0-1.02,0-.24,.63-.3,.82-.3,.93,0,.08,.07,.13,.29,.15,.03,0,.02,.12,0,.12h-1.07s-.02-.11,0-.12c.16,0,.25-.04,.32-.09,.1-.07,.22-.26,.51-1.04l.28-.72c.16-.42,.32-.85,.45-1.24,0-.04,.21-.04,.23,0,.15,.43,.29,.79,.46,1.24l.29,.72c.39,.93,.44,.99,.54,1.05,.09,.06,.17,.08,.31,.08,.02,0,0,.12,0,.12h-1.19m-.61-2.55l-.42,1.13h.84l-.43-1.13h0Z"/>
          <path id="path73-0-7" class="cls-1" d="M150.66,365.31s-.02-.11,0-.12c.16,0,.26-.05,.26-.12,0-.08-.06-.25-.36-.95,0,0-1.01,0-1.02,0-.24,.63-.3,.82-.3,.93,0,.08,.07,.13,.29,.15,.03,0,.02,.12,0,.12h-1.07s-.02-.11,0-.12c.16,0,.25-.04,.32-.09,.1-.07,.22-.26,.51-1.04l.28-.72c.16-.42,.32-.85,.45-1.24,0-.04,.21-.04,.23,0,.15,.43,.29,.79,.46,1.24l.29,.72c.39,.93,.44,.99,.54,1.05,.09,.06,.17,.08,.31,.08,.02,0,0,.12,0,.12h-1.19m-.61-2.55l-.42,1.13h.84l-.43-1.13h0Z"/>
          <path id="path29-0-1" class="cls-1" d="M143.82,342.29s-.18,.06-.4,.06c-.32,0-.48-.02-.92-.02-.34,0-.59,0-.97,.01-.02,0-.02-.1,0-.1,.21-.02,.33-.04,.39-.07,.06-.04,.11-.17,.11-1.08v-.73c0-.91-.05-1.05-.11-1.08-.06-.04-.18-.05-.39-.07-.02,0-.02-.11,0-.11,.41,0,1.1,.01,1.44,.01,.44,0,.62,0,.77-.03,.03,0,.03,.01,.03,.02-.01,.18-.03,.43-.06,.7,0,.02-.12,.01-.12-.01,0-.12-.04-.26-.12-.34-.11-.11-.24-.15-.54-.15-.21,0-.4,0-.45,.01-.02,.05-.02,.24-.02,.55v.71h.43c.5,0,.51-.14,.54-.32,0-.02,.12-.01,.12,0,0,.14-.02,.76-.03,.9,0,.02-.12,.02-.12,0,0-.09-.03-.26-.07-.31-.05-.05-.07-.08-.45-.08h-.43v.34c0,.65,.03,.94,.08,.99,.05,.04,.21,.06,.52,.06,.33,0,.45-.07,.54-.17,.06-.07,.13-.21,.17-.4,0-.03,.12,0,.12,.02-.03,.32-.08,.68-.09,.69"/>
          <path id="path29-0-1-8" class="cls-1" d="M127.37,342.29s-.18,.06-.4,.06c-.32,0-.48-.02-.92-.02-.34,0-.59,0-.97,.01-.02,0-.02-.1,0-.1,.21-.02,.33-.04,.39-.07,.06-.04,.11-.17,.11-1.08v-.73c0-.91-.05-1.05-.11-1.08-.06-.04-.18-.05-.39-.07-.02,0-.02-.11,0-.11,.41,0,1.1,.01,1.44,.01,.44,0,.62,0,.77-.03,.03,0,.03,.01,.03,.02-.01,.18-.03,.43-.06,.7,0,.02-.12,.01-.12-.01,0-.12-.04-.26-.12-.34-.11-.11-.24-.15-.54-.15-.21,0-.4,0-.45,.01-.02,.05-.02,.24-.02,.55v.71h.43c.5,0,.51-.14,.54-.32,0-.02,.12-.01,.12,0,0,.14-.02,.76-.03,.9,0,.02-.12,.02-.12,0,0-.09-.03-.26-.07-.31-.05-.05-.07-.08-.45-.08h-.43v.34c0,.65,.03,.94,.08,.99,.05,.04,.21,.06,.52,.06,.33,0,.45-.07,.54-.17,.06-.07,.13-.21,.17-.4,0-.03,.12,0,.12,.02-.03,.32-.08,.68-.09,.69"/>
          <path id="path29-0-1-2" class="cls-1" d="M103.99,365.26s-.19,.06-.41,.06c-.32,0-.48-.02-.92-.02-.34,0-.6,0-.97,.01-.02,0-.02-.1,0-.11,.21-.02,.33-.04,.39-.07,.06-.04,.11-.17,.11-1.09v-.74c0-.92-.05-1.05-.11-1.09-.06-.04-.18-.05-.39-.07-.02,0-.02-.11,0-.11,.41,0,1.1,.01,1.45,.01,.44,0,.62,0,.78-.03,.03,0,.03,.01,.03,.02-.01,.18-.03,.43-.06,.7,0,.02-.12,.01-.12-.02,0-.12-.04-.26-.12-.34-.11-.11-.24-.15-.54-.15-.21,0-.4,0-.45,.01-.02,.05-.02,.24-.02,.55v.72h.43c.5,0,.51-.14,.54-.32,0-.02,.12-.01,.12,0,0,.14-.02,.77-.03,.91,0,.02-.12,.02-.12,0,0-.09-.03-.26-.07-.31-.05-.05-.07-.08-.45-.08h-.43v.34c0,.65,.03,.95,.08,.99,.05,.04,.21,.07,.52,.07,.33,0,.45-.08,.54-.17,.06-.07,.13-.21,.17-.4,0-.03,.12,0,.12,.02-.03,.32-.09,.69-.09,.7"/>
          <path id="path29-0-1-8-7" class="cls-1" d="M112.83,358.97s-.18,.06-.4,.06c-.32,0-.48-.02-.92-.02-.34,0-.59,0-.97,.01-.02,0-.02-.1,0-.1,.21-.02,.33-.04,.39-.07,.06-.04,.11-.17,.11-1.08v-.73c0-.91-.05-1.05-.11-1.08-.06-.04-.18-.05-.39-.07-.02,0-.02-.11,0-.11,.41,0,1.1,.01,1.44,.01,.44,0,.62,0,.77-.03,.03,0,.03,.01,.03,.02-.01,.18-.03,.43-.06,.7,0,.02-.12,.01-.12-.01,0-.12-.04-.26-.12-.34-.11-.11-.24-.15-.54-.15-.21,0-.4,0-.45,.01-.02,.05-.02,.24-.02,.55v.71h.43c.5,0,.51-.14,.54-.32,0-.02,.12-.01,.12,0,0,.14-.02,.76-.03,.9,0,.02-.12,.02-.12,0,0-.09-.03-.26-.07-.31-.05-.05-.07-.08-.45-.08h-.43v.34c0,.65,.03,.94,.08,.99,.05,.04,.21,.06,.52,.06,.33,0,.45-.07,.54-.17,.06-.07,.13-.21,.17-.4,0-.03,.12,0,.12,.02-.03,.32-.08,.68-.09,.69"/>
          <path id="path65-8-9" class="cls-1" d="M100.62,364.82c-.36,.35-.75,.5-1.41,.5-.24,0-.6,0-.8,0s-.47,0-.7,0c-.02,0-.02-.11,0-.12,.21-.02,.29-.05,.36-.08,.07-.03,.11-.14,.11-1.06v-.73c0-.92-.05-1.04-.11-1.06-.07-.04-.15-.07-.36-.09-.02,0-.02-.11,0-.11,.23,0,.51,0,.7,0s.68,0,.9,0c1.05,0,1.84,.69,1.84,1.6,0,.43-.22,.86-.54,1.17m-1.46-2.59c-.32,0-.4,.05-.44,.1-.03,.04-.07,.27-.07,.97v.75c0,.61,.05,.87,.11,.95,.09,.09,.17,.12,.44,.12,1.02,0,1.45-.44,1.45-1.39,0-.77-.5-1.5-1.49-1.5h0Z"/>
          <path id="path65-8-9-5" class="cls-1" d="M145.9,364.82c-.36,.35-.75,.5-1.41,.5-.24,0-.6,0-.8,0s-.47,0-.7,0c-.02,0-.02-.11,0-.12,.21-.02,.29-.05,.36-.08,.07-.03,.11-.14,.11-1.06v-.73c0-.92-.05-1.04-.11-1.06-.07-.04-.15-.07-.36-.09-.02,0-.02-.11,0-.11,.23,0,.51,0,.7,0s.68,0,.9,0c1.05,0,1.84,.69,1.84,1.6,0,.43-.22,.86-.54,1.17m-1.46-2.59c-.32,0-.4,.05-.44,.1-.03,.04-.07,.27-.07,.97v.75c0,.61,.05,.87,.11,.95,.09,.09,.17,.12,.44,.12,1.02,0,1.45-.44,1.45-1.39,0-.77-.5-1.5-1.49-1.5h0Z"/>
          <path id="path65-8-4" class="cls-1" d="M140.43,341.85c-.35,.34-.75,.49-1.4,.49-.23,0-.6,0-.79,0s-.47,0-.69,0c-.02,0-.02-.11,0-.12,.2-.02,.29-.05,.35-.08,.06-.03,.11-.14,.11-1.05v-.73c0-.91-.05-1.03-.11-1.05-.07-.04-.15-.07-.35-.09-.02,0-.02-.11,0-.11,.22,0,.5,0,.69,0s.67,0,.89,0c1.04,0,1.83,.68,1.83,1.59,0,.43-.21,.86-.53,1.16m-1.45-2.56c-.32,0-.4,.05-.44,.09-.03,.04-.07,.27-.07,.96v.75c0,.61,.05,.87,.11,.94,.09,.09,.17,.12,.44,.12,1.01,0,1.44-.44,1.44-1.38,0-.76-.49-1.48-1.47-1.48Z"/>
          <path id="path47-5-4-1" class="cls-1" d="M136.15,365.35c-.94,0-1.74-.73-1.74-1.64s.8-1.72,1.8-1.72c.94,0,1.73,.73,1.73,1.64s-.79,1.72-1.79,1.72m-.03-3.15c-.87,0-1.17,.75-1.17,1.37,0,.82,.51,1.58,1.3,1.58,.87,0,1.19-.75,1.19-1.37,0-.82-.53-1.57-1.32-1.57h0Z"/>
          <path id="path47-5-4-1-2" class="cls-1" d="M110.81,365.35c-.94,0-1.74-.73-1.74-1.64s.8-1.72,1.8-1.72c.94,0,1.73,.73,1.73,1.64s-.79,1.72-1.79,1.72m-.03-3.15c-.87,0-1.17,.75-1.17,1.37,0,.82,.51,1.58,1.3,1.58,.87,0,1.19-.75,1.19-1.37,0-.82-.53-1.57-1.32-1.57h0Z"/>
          <path id="path47-5-4-3" class="cls-1" d="M119.64,359.06c-.94,0-1.74-.73-1.74-1.64s.8-1.71,1.8-1.71c.94,0,1.72,.73,1.72,1.64s-.79,1.71-1.78,1.71m-.03-3.14c-.87,0-1.17,.75-1.17,1.37,0,.81,.51,1.57,1.3,1.57,.86,0,1.18-.75,1.18-1.37,0-.81-.53-1.57-1.32-1.57Z"/>
          <path id="path71-4-4" class="cls-1" d="M144.6,359.06c-.48,0-.81-.24-.82-.3-.04-.17-.04-.45,0-.71,0-.02,.12-.03,.12,0,.02,.19,.09,.37,.17,.48,.15,.19,.34,.33,.64,.33,.37,0,.55-.24,.55-.58,0-.73-1.36-.86-1.36-1.68,0-.51,.48-.87,.95-.87,.39,0,.49,.14,.68,.09,.02,0,.04,0,.04,.02-.01,.18,0,.43-.01,.69,0,.02-.12,.02-.13,0,0-.16-.08-.35-.17-.44-.11-.11-.3-.18-.45-.18-.29,0-.5,.19-.5,.5,0,.62,1.41,.86,1.41,1.68,0,.62-.58,.96-1.1,.96"/>
          <path id="path71-4-1" class="cls-1" d="M122.89,359.06c-.48,0-.81-.24-.82-.3-.04-.17-.04-.45,0-.71,0-.02,.12-.03,.12,0,.02,.19,.09,.37,.17,.48,.15,.19,.34,.33,.64,.33,.37,0,.55-.24,.55-.58,0-.73-1.36-.86-1.36-1.68,0-.51,.48-.87,.95-.87,.39,0,.49,.14,.68,.09,.02,0,.04,0,.04,.02-.01,.18,0,.43-.01,.69,0,.02-.12,.02-.13,0,0-.16-.08-.35-.17-.44-.11-.11-.3-.18-.45-.18-.29,0-.5,.19-.5,.5,0,.62,1.41,.86,1.41,1.68,0,.62-.58,.96-1.1,.96"/>
          <path id="path71-4-8" class="cls-1" d="M114.03,365.35c-.49,0-.82-.24-.83-.3-.04-.17-.04-.46,0-.72,0-.02,.12-.03,.12,0,.02,.2,.09,.37,.17,.49,.15,.2,.34,.34,.65,.34,.37,0,.56-.24,.56-.59,0-.74-1.37-.87-1.37-1.7,0-.51,.49-.88,.96-.88,.39,0,.49,.14,.68,.09,.02,0,.04,0,.04,.02-.01,.18,0,.43-.01,.7,0,.02-.12,.02-.13,0,0-.16-.09-.36-.17-.44-.11-.11-.3-.18-.46-.18-.29,0-.5,.2-.5,.5,0,.63,1.42,.87,1.42,1.69,0,.62-.59,.97-1.11,.97"/>
          <path id="path71-4-8-7" class="cls-1" d="M139.39,365.35c-.49,0-.82-.24-.83-.3-.04-.17-.04-.46,0-.72,0-.02,.12-.03,.12,0,.02,.2,.09,.37,.17,.49,.15,.2,.34,.34,.65,.34,.37,0,.56-.24,.56-.59,0-.74-1.37-.87-1.37-1.7,0-.51,.49-.88,.96-.88,.39,0,.49,.14,.68,.09,.02,0,.04,0,.04,.02-.01,.18,0,.43-.01,.7,0,.02-.12,.02-.13,0,0-.16-.09-.36-.17-.44-.11-.11-.3-.18-.46-.18-.29,0-.5,.2-.5,.5,0,.63,1.42,.87,1.42,1.69,0,.62-.59,.97-1.11,.97"/>
          <path id="path71-4-8-2" class="cls-1" d="M152.85,365.35c-.49,0-.82-.24-.83-.3-.04-.17-.04-.46,0-.72,0-.02,.12-.03,.12,0,.02,.2,.09,.37,.17,.49,.15,.2,.34,.34,.65,.34,.37,0,.56-.24,.56-.59,0-.74-1.37-.87-1.37-1.7,0-.51,.49-.88,.96-.88,.39,0,.49,.14,.68,.09,.02,0,.04,0,.04,.02-.01,.18,0,.43-.01,.7,0,.02-.12,.02-.13,0,0-.16-.09-.36-.17-.44-.11-.11-.3-.18-.46-.18-.29,0-.5,.2-.5,.5,0,.63,1.42,.87,1.42,1.69,0,.62-.59,.97-1.11,.97"/>
          <path id="path45-2-1" class="cls-1" d="M139.26,356.57s-.11,.02-.11,0c0-.13-.02-.37-.1-.46-.1-.11-.32-.19-.78-.19-.12,0-.18,0-.24,.01-.02,.05-.02,.29-.02,.61v1.22c0,.91,.05,1.05,.11,1.08,.06,.03,.19,.05,.4,.07,.02,0,.02,.1,0,.1h-1.47s-.02-.1,.01-.1c.2-.02,.34-.04,.4-.07,.07-.04,.11-.17,.11-1.08v-1.22c0-.32,0-.56-.02-.61-.05-.01-.14-.01-.26-.01-.49,0-.66,.05-.78,.19-.08,.1-.14,.27-.17,.47,0,.04-.12,.02-.12,0,.03-.26,.06-.64,.08-.81,0-.01,.03-.02,.06-.02,.18,.03,.52,.06,1.43,.06,1.25,0,1.36-.04,1.46-.07,.03-.01,.06,0,.06,.02,0,.19,0,.57-.04,.83"/>
          <path id="path45-2-1-9" class="cls-1" d="M127.07,362.85s-.12,.02-.12,0c0-.13-.02-.37-.1-.46-.1-.11-.32-.19-.78-.19-.12,0-.18,0-.24,.01-.02,.05-.02,.29-.02,.61v1.23c0,.91,.05,1.05,.11,1.09,.06,.04,.19,.05,.4,.07,.02,0,.02,.1,0,.1h-1.48s-.02-.1,.01-.1c.2-.02,.34-.04,.4-.07,.07-.04,.11-.17,.11-1.09v-1.23c0-.32,0-.56-.02-.61-.05-.01-.14-.01-.26-.01-.49,0-.66,.05-.78,.19-.08,.1-.14,.27-.17,.47,0,.04-.12,.02-.12,0,.03-.26,.06-.64,.08-.81,0-.01,.03-.02,.06-.02,.18,.03,.52,.06,1.43,.06,1.25,0,1.37-.04,1.46-.07,.03-.01,.06,0,.06,.02,0,.19,0,.57-.04,.83"/>
          <path id="path77-6" class="cls-1" d="M135.56,356s-.1,.13-.09,1.04v.72c0,.42,0,.86,.03,1.25,0,.03-.16,.04-.18,0l-2.46-2.49,.02,1.23c0,.84,.08,.99,.15,1.05,.05,.04,.22,.08,.36,.08,.03,0,.02,.12,0,.12h-1.24s-.02-.11,0-.12c.2-.02,.32-.05,.38-.09,.05-.04,.1-.13,.08-1.04v-.72c0-.42,0-.86-.04-1.25,0-.03,.18-.04,.19,0l2.47,2.51-.02-1.24c-.01-.91-.08-1.01-.14-1.05-.07-.05-.19-.07-.4-.09-.03,0-.02-.11,0-.11h1.25s.03,.11,0,.11c-.2,.03-.3,.05-.35,.1"/>
          <path id="path77-6-5" class="cls-1" d="M130.32,362.05s-.08,.04-.08,.08c-.03,.31-.04,.62-.09,.95-.06,.8-.1,1.71-.28,2.01-.06,.05-.18,.07-.38,.09-.02,.01-.02,.12,0,.12h1.24s.03-.12,0-.12c-.14,0-.31-.04-.36-.08-.12,0-.11-.59,.05-2,0-.01,.03-.01,.04,0,.39,.72,.72,1.36,1.16,2.16,.02,.04,.15,.04,.16,.02,.14-.2,.75-1.48,1.08-2.19,0-.02,.03-.04,.04,.02,.13,.66,.22,1.82,.13,2.02-.05,.04-.16,.04-.3,.04-.03,0-.02,.12,0,.12h1.29s.02-.11,0-.12c-.21-.02-.34-.04-.4-.09-.13-.65-.23-1.8-.35-2.78,0-.38-.17-.23-.2-.17-.41,.85-.83,1.65-1.24,2.55-.02,.04-.04,.03-.06,0-.26-.47-.9-1.74-1.35-2.54-.02-.07-.07-.09-.11-.09h0Z"/>
          <path id="path71-4-6" class="cls-1" d="M129.14,342.37c-.48,0-.81-.24-.82-.3-.04-.17-.04-.45,0-.71,0-.02,.12-.03,.12,0,.02,.19,.09,.37,.17,.48,.15,.19,.34,.33,.64,.33,.37,0,.55-.24,.55-.58,0-.73-1.36-.86-1.36-1.68,0-.51,.48-.87,.95-.87,.39,0,.49,.14,.68,.09,.02,0,.04,0,.04,.02-.01,.18,0,.43-.01,.69,0,.02-.12,.02-.13,0,0-.16-.08-.35-.17-.44-.11-.11-.3-.18-.45-.18-.29,0-.5,.19-.5,.5,0,.62,1.41,.86,1.41,1.68,0,.62-.58,.96-1.1,.96"/>
          <path id="path3931" class="cls-1" d="M118.91,361.41c-.03,.06-.04,.1,.09,.08,.22-.09,.46-.18,.63-.2,.1-.01,.16-.02,.24-.03,.1-.02,.04-.06,.03-.08-.06-.11-.07-.15-.09-.2-.02-.06-.13,0-.19,.03-.23,.16-.46,.2-.71,.4Z"/>
          <path id="path3931-0" class="cls-1" d="M147.15,361.41c-.03,.06-.04,.1,.09,.08,.22-.09,.46-.18,.63-.2,.1-.01,.16-.02,.24-.03,.1-.02,.04-.06,.03-.08-.06-.11-.07-.15-.09-.2-.02-.06-.13,0-.19,.03-.23,.16-.46,.2-.71,.4h0Z"/>
          <path id="path33-4-2" class="cls-1" d="M120.64,362.24s-.09,.16-.09,1.08v.85c0,.61-.47,1.19-1.35,1.19-.8,0-1.29-.52-1.29-1.18v-.86c0-.92-.05-1.06-.11-1.09-.07-.04-.15-.05-.35-.07-.02,0-.02-.11,0-.11h1.38s.02,.1,0,.11c-.2,.02-.31,.04-.37,.07-.06,.04-.11,.17-.11,1.09v.77c0,.56,.35,1.02,1.03,1.02,.63,0,.94-.47,.94-.96v-.82c0-.92-.05-1.04-.09-1.08-.06-.05-.17-.07-.38-.09-.02,0-.02-.11,0-.11h1.15s.03,.1,0,.11c-.2,.02-.3,.04-.36,.09"/>
        </g>
        <path class="cls-1" d="M113.91,207.23h.96v-1.1s-3.39-.64-4.73,.15c0,0-.61,.36-.61,1.14,0,0-.12,.77,1.18,1.09,0,0,.23,.04,.5,.05l1.6,.14s.41,.04,.42,.26c0,0,0,.21-.31,.28,0,0-.83,.15-1.78,0,0,0-.48-.08-.54-.6h-.97v1.16s1.71,.64,3.75,.28c0,0,1.53-.18,1.8-1.14,0,0,.22-.79-.29-1.22,0,0-.24-.25-.78-.31,0,0-.84-.13-2.12-.17,0,0-.32,.02-.36-.21,0,0,.07-.24,.24-.26,0,0,.27-.1,.8-.11,0,0,1.2-.06,1.22,.57Z"/>
        <path class="cls-1" d="M115.11,205.95h2.68v2.49s.15,.62,.82,.57c0,0,1.23,.07,1.35-1.12v-.94s0-.17-.17-.17h-.54v-.83h2.55v2.92s.04,.52,.71,.48v.84h-2.52v-.6s-1.07,.73-2.2,.7c0,0-1.53,.09-1.95-1.37v-1.65s.08-.37-.34-.48h-.4v-.82Z"/>
        <path class="cls-1" d="M127.66,205.95c1.25,.06,1.26,1.29,1.26,1.29-.06,1.33-1.32,1.34-1.32,1.34h-2.26v.51c.1,.19,.56,.25,.56,.25h.17v.84h-3.4v-.82c.72,.04,.87-.66,.87-.66v-1.46c0-.36-.48-.48-.48-.48h-.39v-.81h4.98Zm-2.34,.79v1.01h1.21s.44-.01,.46-.51c0,0,.05-.39-.46-.51h-1.21Z"/>
        <path class="cls-1" d="M128.89,205.95v.85h.51s.3,0,.31,.45v1.71s-.01,.37-.41,.4h-.41v.82h5.94v-1.55h-.84v.32s.01,.34-.4,.42h-2.05v-.86h2.34v-.84h-2.33v-.86h2s.4,0,.45,.43v.27h.84v-1.56h-5.94Z"/>
        <path class="cls-1" d="M138.98,206.74c.51,.12,.46,.51,.46,.51-.03,.49-.46,.51-.46,.51h-1.21v-1.01h1.21Zm-3.9-.79v.81h.39s.46,.1,.48,.46v1.46s-.07,.68-.87,.71v.79h3.03v-.84s-.34,.07-.48-.3v-.45s.21-.05,.87,.66l.95,.94h1.93v-.84s-.39,.04-.67-.22l-.49-.53s1.29-.01,1.34-1.35c0,0,.02-1.16-1.24-1.29h-5.23Z"/>
        <path class="cls-1" d="M141.51,205.95v.86h.4s.33-.07,.35,.34v1.88s-.06,.36-.38,.33h-.38v.82h2.31v-.68h-.16s-.29-.04-.34-.39v-1.34l1.26,2.4h1.03l1.26-2.37v1.3s.07,.32-.28,.37h-.33v.71h3.16v-.82h-.51s-.31,.04-.35-.28v-1.85s.01-.32,.31-.31h.42v-.97h-2.93l-.91,1.95-.89-1.95h-3.07Z"/>
        <path class="cls-1" d="M154.07,205.95l1.67,2.92c.4,.61,.76,.49,.76,.49v.82h-3.15v-.82h.34c.17-.06,.14-.2,.14-.2-.02-.16-.18-.17-.18-.17h-1.72c-.15,0-.16,.19-.16,.19,0,.16,.17,.2,.17,.2h.29v.81h-2.64v-.69c.45-.06,.69-.36,.69-.36l1.34-1.72c.2-.21,.16-.34,.16-.34,.01-.22-.25-.27-.25-.27h-.49v-.86h3.05Zm-1.74,2.31h1.17l-.59-.86-.59,.86Z"/>
        <path class="cls-1" d="M156.72,205.95v.83h.37s.26-.07,.54,.19l1.28,1.17-1.69,1.08s-.13,.16-.26,.14h-.24v.82h3.02v-.81h-.36s-.3-.19-.03-.36l.34-.16,1.25,1.32h2.47v-.81h-.19s-.14,0-.26-.11l-1.63-1.34,1.47-.92s.25-.19,.61-.17v-.87h-3.14v.8h.24s.19,.03,.21,.19c0,0,.02,.11-.09,.15l-.21,.13-1.27-1.27h-2.42Z"/>
        <path class="cls-1" d="M163.69,205.95v.82s.77-.01,.77,.65v1.47s-.03,.5-.77,.49v.81h3.44v-.8s-.76,.02-.82-.57v-1.46s0-.56,.82-.56v-.84h-3.44Z"/>
        <g>
          <path class="cls-1" d="M147.67,212.14h-.57c0,.15,.04,.26,.11,.35,.05,.07,.11,.1,.18,.1,.04,0,.08-.01,.12-.04,.04-.03,.08-.07,.12-.14l.04,.03c-.06,.12-.12,.21-.19,.26-.07,.05-.15,.08-.24,.08-.15,0-.27-.06-.35-.19-.06-.1-.1-.23-.1-.38,0-.19,.05-.33,.14-.44,.09-.11,.2-.16,.33-.16,.11,0,.2,.05,.27,.14,.08,.09,.12,.23,.12,.41Zm-.27-.08c0-.13,0-.22-.02-.26-.01-.05-.03-.08-.06-.11-.02-.01-.04-.02-.06-.02-.04,0-.07,.02-.09,.06-.04,.07-.07,.17-.07,.29v.04h.3Z"/>
          <path class="cls-1" d="M148.2,211.12v1.38c0,.08,0,.13,.03,.15,.02,.02,.05,.03,.1,.04v.04h-.56v-.04s.08-.02,.1-.04c.01-.02,.02-.07,.02-.15v-1.15c0-.08,0-.13-.03-.15-.02-.02-.05-.03-.1-.04v-.04h.44Z"/>
          <path class="cls-1" d="M149.4,212.62v.41c0,.06,0,.1,.01,.12,0,.02,.02,.04,.04,.05,.02,0,.05,.01,.1,.01v.04h-.59v-.04s.08-.02,.1-.04c.01-.02,.02-.07,.02-.14v-1.18c0-.08,0-.13-.03-.15-.02-.02-.05-.03-.1-.04v-.04h.44v.15c.04-.06,.07-.1,.11-.12,.05-.04,.11-.06,.18-.06,.08,0,.15,.03,.21,.08,.06,.05,.11,.12,.14,.21,.03,.09,.05,.19,.05,.29,0,.11-.02,.22-.05,.31-.03,.09-.08,.16-.15,.21-.06,.05-.14,.07-.21,.07-.06,0-.11-.01-.16-.04-.04-.02-.08-.06-.12-.11Zm0-.12c.06,.1,.13,.15,.2,.15,.04,0,.07-.02,.1-.07,.04-.07,.06-.19,.06-.38s-.02-.32-.06-.39c-.03-.05-.07-.07-.11-.07-.07,0-.14,.06-.18,.17v.59Z"/>
          <path class="cls-1" d="M150.67,211.12v1.38c0,.08,0,.13,.03,.15,.02,.02,.05,.03,.1,.04v.04h-.56v-.04s.08-.02,.1-.04c.01-.02,.02-.07,.02-.15v-1.15c0-.08,0-.13-.03-.15-.02-.02-.05-.03-.1-.04v-.04h.44Z"/>
          <path class="cls-1" d="M151.47,212.57c-.13,.12-.24,.18-.34,.18-.06,0-.11-.02-.15-.06-.04-.04-.06-.09-.06-.16,0-.08,.03-.16,.1-.23,.07-.07,.22-.16,.45-.27v-.11c0-.08,0-.14-.01-.16,0-.02-.02-.04-.05-.06-.02-.02-.05-.02-.08-.02-.05,0-.09,.01-.12,.03-.02,.01-.03,.03-.03,.05,0,.02,.01,.04,.03,.06,.03,.03,.04,.07,.04,.1,0,.04-.01,.07-.04,.1-.03,.03-.06,.04-.11,.04-.05,0-.09-.02-.12-.05-.03-.03-.05-.07-.05-.11,0-.06,.02-.11,.06-.16,.04-.05,.1-.09,.18-.12,.08-.03,.15-.04,.24-.04,.1,0,.18,.02,.23,.07,.06,.04,.09,.09,.11,.15,.01,.03,.02,.11,.02,.23v.43c0,.05,0,.08,0,.1,0,.01,0,.02,.02,.03,0,0,.02,0,.03,0,.02,0,.04-.01,.06-.04l.03,.03c-.04,.06-.08,.1-.12,.13-.04,.03-.08,.04-.13,.04-.06,0-.11-.01-.14-.04-.03-.03-.05-.07-.06-.14Zm0-.09v-.37c-.09,.06-.16,.12-.2,.18-.03,.04-.04,.09-.04,.13,0,.04,.01,.07,.04,.1,.02,.02,.04,.03,.08,.03,.04,0,.08-.02,.13-.07Z"/>
          <path class="cls-1" d="M152.88,212.45l.03,.03c-.05,.1-.11,.17-.18,.22-.07,.05-.15,.07-.23,.07-.14,0-.25-.06-.33-.17-.08-.11-.12-.25-.12-.4s.04-.29,.11-.4c.09-.14,.22-.21,.38-.21,.11,0,.19,.03,.26,.09,.06,.06,.09,.12,.09,.19,0,.05-.01,.08-.04,.11-.03,.03-.06,.04-.1,.04-.04,0-.08-.02-.11-.05-.03-.03-.05-.09-.05-.17,0-.05-.02-.08-.03-.1-.02-.02-.04-.03-.06-.03-.04,0-.07,.02-.09,.06-.04,.06-.06,.15-.06,.28,0,.1,.02,.21,.05,.3,.03,.1,.07,.17,.13,.21,.04,.03,.09,.05,.14,.05,.04,0,.07,0,.1-.03,.03-.02,.07-.05,.12-.1Z"/>
          <path class="cls-1" d="M153.92,212.14h-.57c0,.15,.04,.26,.11,.35,.05,.07,.11,.1,.18,.1,.04,0,.08-.01,.12-.04,.04-.03,.08-.07,.12-.14l.04,.03c-.06,.12-.12,.21-.19,.26-.07,.05-.15,.08-.24,.08-.15,0-.27-.06-.35-.19-.06-.1-.1-.23-.1-.38,0-.19,.05-.33,.14-.44,.09-.11,.2-.16,.33-.16,.11,0,.2,.05,.27,.14,.08,.09,.12,.23,.13,.41Zm-.27-.08c0-.13,0-.22-.02-.26-.01-.05-.03-.08-.06-.11-.02-.01-.04-.02-.06-.02-.04,0-.07,.02-.09,.06-.04,.07-.07,.17-.07,.29v.04h.3Z"/>
          <path class="cls-1" d="M154.48,211.62v.25c.07-.12,.13-.19,.18-.23,.05-.04,.1-.06,.15-.06,.04,0,.07,.01,.1,.04,.02,.03,.04,.07,.04,.12,0,.05-.01,.09-.04,.12-.02,.03-.05,.04-.09,.04-.04,0-.07-.01-.1-.04-.03-.03-.05-.04-.05-.05,0,0-.02,0-.03,0-.02,0-.04,0-.06,.03-.03,.03-.05,.07-.07,.12-.02,.08-.04,.16-.04,.26v.32s0,.07,0,.09c0,.02,.02,.04,.04,.05,.02,0,.05,.02,.09,.02v.04h-.56v-.04s.08-.02,.09-.04c.02-.02,.02-.08,.02-.18v-.62c0-.06,0-.1,0-.12,0-.02-.02-.04-.03-.05-.01-.01-.04-.02-.07-.02v-.04h.42Z"/>
          <path class="cls-1" d="M156.6,211.12v1.28c0,.09,0,.14,0,.15,0,.03,.02,.05,.03,.06,.02,.01,.05,.02,.09,.02v.04l-.44,.09v-.18c-.05,.07-.1,.11-.14,.14-.04,.02-.09,.04-.14,.04-.13,0-.24-.06-.31-.19-.06-.1-.09-.23-.09-.38,0-.12,.02-.23,.06-.32,.04-.09,.09-.17,.16-.22,.07-.05,.14-.07,.22-.07,.05,0,.09,.01,.13,.03,.04,.02,.08,.06,.12,.11v-.34c0-.08,0-.14,0-.15,0-.02-.02-.04-.04-.05-.02-.01-.05-.02-.1-.02v-.05h.46Zm-.31,.76c-.05-.11-.12-.17-.2-.17-.03,0-.05,0-.07,.02-.03,.02-.05,.07-.07,.13-.02,.06-.03,.16-.03,.28,0,.14,0,.24,.03,.31,.02,.07,.05,.12,.08,.15,.02,.02,.04,.02,.07,.02,.07,0,.13-.05,.18-.16v-.59Z"/>
          <path class="cls-1" d="M157.74,212.14h-.57c0,.15,.04,.26,.11,.35,.05,.07,.11,.1,.18,.1,.04,0,.08-.01,.12-.04,.04-.03,.08-.07,.12-.14l.04,.03c-.06,.12-.12,.21-.19,.26-.07,.05-.15,.08-.24,.08-.15,0-.27-.06-.35-.19-.06-.1-.1-.23-.1-.38,0-.19,.05-.33,.14-.44,.09-.11,.2-.16,.33-.16,.11,0,.2,.05,.27,.14,.08,.09,.12,.23,.13,.41Zm-.27-.08c0-.13,0-.22-.02-.26-.01-.05-.03-.08-.06-.11-.02-.01-.04-.02-.06-.02-.04,0-.07,.02-.09,.06-.04,.07-.07,.17-.07,.29v.04h.3Z"/>
          <path class="cls-1" d="M159.28,212.45l.03,.03c-.05,.1-.11,.17-.18,.22-.07,.05-.15,.07-.23,.07-.14,0-.25-.06-.33-.17-.08-.11-.12-.25-.12-.4s.04-.29,.11-.4c.09-.14,.22-.21,.38-.21,.11,0,.19,.03,.26,.09,.06,.06,.1,.12,.1,.19,0,.05-.01,.08-.04,.11-.03,.03-.06,.04-.1,.04-.04,0-.08-.02-.11-.05-.03-.03-.05-.09-.05-.17,0-.05-.02-.08-.03-.1-.02-.02-.04-.03-.06-.03-.04,0-.07,.02-.09,.06-.04,.06-.06,.15-.06,.28,0,.1,.02,.21,.05,.3,.03,.1,.07,.17,.13,.21,.04,.03,.09,.05,.14,.05,.04,0,.07,0,.1-.03,.03-.02,.07-.05,.12-.1Z"/>
          <path class="cls-1" d="M159.93,211.59c.09,0,.17,.03,.25,.08,.08,.05,.14,.12,.18,.21,.04,.09,.06,.19,.06,.3,0,.16-.04,.29-.11,.4-.09,.13-.22,.19-.37,.19s-.28-.06-.36-.18c-.08-.12-.13-.25-.13-.41s.04-.3,.13-.42c.09-.12,.2-.18,.36-.18Zm0,.08s-.07,.02-.1,.05c-.03,.03-.04,.09-.05,.18,0,.09-.01,.22-.01,.38,0,.08,0,.16,.02,.24,0,.06,.03,.1,.05,.13,.03,.03,.06,.04,.09,.04s.06,0,.08-.03c.03-.03,.05-.06,.06-.11,.01-.08,.02-.23,.02-.46,0-.13,0-.23-.02-.28-.01-.05-.03-.09-.06-.11-.02-.02-.04-.03-.08-.03Z"/>
          <path class="cls-1" d="M161.01,211.62v.15c.06-.07,.11-.11,.16-.14,.05-.03,.1-.04,.16-.04,.07,0,.12,.02,.17,.05,.05,.03,.08,.08,.1,.15,.06-.07,.12-.12,.17-.15,.05-.03,.11-.05,.17-.05,.07,0,.13,.02,.17,.05,.04,.04,.07,.08,.09,.13,.02,.05,.03,.14,.03,.26v.46c0,.09,0,.14,.02,.16,.01,.02,.04,.03,.09,.04v.04h-.54v-.04s.07-.02,.09-.05c.01-.02,.02-.07,.02-.15v-.48c0-.1,0-.16-.01-.19,0-.03-.02-.05-.03-.06-.02-.01-.03-.02-.06-.02-.03,0-.06,.01-.1,.04-.03,.03-.07,.06-.1,.11v.6c0,.08,0,.13,.02,.15,.02,.03,.05,.05,.1,.05v.04h-.54v-.04s.05,0,.07-.02c.02-.01,.03-.03,.03-.05,0-.02,0-.06,0-.13v-.48c0-.1,0-.16-.01-.19,0-.03-.02-.05-.04-.06-.02-.01-.04-.02-.06-.02-.03,0-.06,0-.08,.03-.03,.02-.07,.07-.11,.13v.6c0,.08,0,.13,.02,.16,.01,.03,.04,.04,.09,.04v.04h-.54v-.04s.07-.02,.09-.05c.01-.02,.02-.07,.02-.15v-.63c0-.08,0-.14-.02-.16-.01-.02-.04-.03-.09-.04v-.04h.42Z"/>
          <path class="cls-1" d="M162.88,212.62v.41c0,.06,0,.1,.01,.12,0,.02,.02,.04,.04,.05,.02,0,.05,.01,.1,.01v.04h-.59v-.04s.08-.02,.1-.04c.01-.02,.02-.07,.02-.14v-1.18c0-.08,0-.13-.03-.15-.02-.02-.05-.03-.1-.04v-.04h.44v.15c.04-.06,.07-.1,.11-.12,.05-.04,.11-.06,.18-.06,.08,0,.15,.03,.21,.08,.06,.05,.11,.12,.14,.21,.03,.09,.05,.19,.05,.29,0,.11-.02,.22-.05,.31-.03,.09-.08,.16-.15,.21-.06,.05-.14,.07-.21,.07-.06,0-.11-.01-.16-.04-.04-.02-.08-.06-.12-.11Zm0-.12c.06,.1,.13,.15,.2,.15,.04,0,.07-.02,.1-.07,.04-.07,.06-.19,.06-.38s-.02-.32-.06-.39c-.03-.05-.07-.07-.11-.07-.07,0-.14,.06-.18,.17v.59Z"/>
          <path class="cls-1" d="M164.17,211.62v.25c.07-.12,.13-.19,.18-.23,.05-.04,.1-.06,.15-.06,.04,0,.07,.01,.1,.04,.02,.03,.04,.07,.04,.12,0,.05-.01,.09-.04,.12-.02,.03-.05,.04-.09,.04-.04,0-.07-.01-.1-.04-.03-.03-.05-.04-.05-.05,0,0-.02,0-.03,0-.02,0-.04,0-.06,.03-.03,.03-.05,.07-.07,.12-.02,.08-.04,.16-.04,.26v.32s0,.07,0,.09c0,.02,.02,.04,.04,.05,.02,0,.05,.02,.09,.02v.04h-.56v-.04s.08-.02,.09-.04c.02-.02,.02-.08,.02-.18v-.62c0-.06,0-.1,0-.12,0-.02-.02-.04-.03-.05-.01-.01-.04-.02-.07-.02v-.04h.42Z"/>
          <path class="cls-1" d="M165.33,212.57c-.13,.12-.24,.18-.34,.18-.06,0-.11-.02-.15-.06-.04-.04-.06-.09-.06-.16,0-.08,.03-.16,.1-.23,.07-.07,.22-.16,.45-.27v-.11c0-.08,0-.14-.01-.16,0-.02-.02-.04-.05-.06-.02-.02-.05-.02-.08-.02-.05,0-.09,.01-.12,.03-.02,.01-.03,.03-.03,.05,0,.02,.01,.04,.03,.06,.03,.03,.04,.07,.04,.1,0,.04-.01,.07-.04,.1-.03,.03-.06,.04-.11,.04-.05,0-.09-.02-.12-.05-.03-.03-.05-.07-.05-.11,0-.06,.02-.11,.06-.16,.04-.05,.1-.09,.18-.12,.08-.03,.15-.04,.24-.04,.1,0,.18,.02,.23,.07,.06,.04,.09,.09,.11,.15,.01,.03,.02,.11,.02,.23v.43c0,.05,0,.08,0,.1,0,.01,0,.02,.02,.03,0,0,.02,0,.03,0,.02,0,.04-.01,.06-.04l.03,.03c-.04,.06-.08,.1-.12,.13-.04,.03-.08,.04-.13,.04-.06,0-.11-.01-.14-.04-.03-.03-.05-.07-.06-.14Zm0-.09v-.37c-.09,.06-.16,.12-.2,.18-.03,.04-.04,.09-.04,.13,0,.04,.01,.07,.04,.1,.02,.02,.04,.03,.08,.03,.04,0,.08-.02,.13-.07Z"/>
          <path class="cls-1" d="M166.32,211.62v.25c.07-.12,.13-.19,.18-.23,.05-.04,.1-.06,.15-.06,.04,0,.07,.01,.1,.04,.02,.03,.04,.07,.04,.12,0,.05-.01,.09-.04,.12-.02,.03-.05,.04-.09,.04-.04,0-.07-.01-.1-.04-.03-.03-.05-.04-.05-.05,0,0-.02,0-.03,0-.02,0-.04,0-.06,.03-.03,.03-.05,.07-.07,.12-.02,.08-.04,.16-.04,.26v.32s0,.07,0,.09c0,.02,.02,.04,.04,.05,.02,0,.05,.02,.09,.02v.04h-.56v-.04s.08-.02,.09-.04c.02-.02,.02-.08,.02-.18v-.62c0-.06,0-.1,0-.12,0-.02-.02-.04-.03-.05-.01-.01-.04-.02-.07-.02v-.04h.42Z"/>
        </g>
      </g>
      <g class="cls-4">
        <path class="cls-8" d="M447.22,13.93V50c-1.2,3.23-2.33,6.2-3.3,8.7-9.84,25.17-22.09,56.49-50.14,64.05-55.6,14.99-92.15,28.34-115.04,42.03-17.77,10.63-63.19,67.41-79.19,88.4l-9.55-7.28c2.41-3.15,59.2-77.44,82.59-91.42,23.85-14.27,61.37-28.03,118.07-43.31,20.56-5.55,30.82-28.03,42.08-56.84,4-10.23,10.53-28.48,14.48-40.4Z"/>
      </g>
      <g class="cls-9">
        <path class="cls-8" d="M201.89,317.37c.21,49.12-11.71,76.34-16.8,87.96-.29,.67-.56,1.28-.81,1.86-2.81,6.53-59.96,100.98-101.71,168.44h-14.11c43.93-70.78,102.12-167.23,104.81-173.21,.25-.58,.53-1.21,.83-1.9,5.19-11.85,15.99-36.52,15.79-83.09-.21-46.34-6.93-147.35-11.84-221.1l-1.27-19.08c-1.93-29.19,.23-55.16,6.43-77.25h12.49c-.17,.55-.33,1.11-.5,1.68-6.16,21.1-8.33,46.26-6.44,74.77l1.27,19.09c4.91,73.9,11.65,175.13,11.86,221.83Z"/>
      </g>
      <g class="cls-2">
        <polygon class="cls-8" points="386.91 0 380.64 16.58 334.61 138.24 323.39 133.99 368.91 13.69 374.09 0 386.91 0"/>
      </g>
      <circle class="cls-3" cx="265.15" cy="174.29" r="17.48"/>
      <g>
        <path class="cls-10" d="M436.05,399.32h-28.64c-1.59,0-2.88,1.29-2.88,2.88v23.63c0,1.59,1.29,2.88,2.88,2.88h8.43c1.06,0,2.04,.59,2.54,1.53l1.16,2.18,1.83,3.44c.15,.29,.57,.29,.73,0l1.83-3.44,1.16-2.18c.5-.94,1.48-1.53,2.54-1.53h8.43c1.59,0,2.88-1.29,2.88-2.88v-23.63c0-1.59-1.29-2.88-2.88-2.88Z"/>
        <path class="cls-5" d="M434.37,422.78c-.12,0-.23-.01-.35-.01-8.2,0-16.39,0-24.59,0-.11,0-.23,0-.36,0v-17.98h.34c8.2,0,16.41,0,24.61,0,.12,0,.23,0,.35-.01v18Zm-13.07-.85c0-.09,.01-.17,.01-.25,0-1.74,0-3.48,0-5.22,0-.2-.05-.28-.25-.33-1.06-.28-1.81-1.27-1.8-2.35,.01-1.1,.75-2.06,1.81-2.34,.2-.05,.23-.14,.23-.32,0-1.74,0-3.48,0-5.22,0-.09,0-.17,0-.26h-11.41v2.85h4.06c0,.12,0,.21,0,.3,0,.83,0,1.66,0,2.5,0,.14,.03,.22,.17,.28,.94,.44,1.45,1.19,1.45,2.22,0,1.03-.51,1.78-1.45,2.22-.15,.07-.18,.15-.18,.3,0,.83,0,1.66,0,2.5,0,.09,0,.18,0,.29h-4.06v2.84h11.41Zm.83,0h11.41v-2.85h-4.06c0-.95,0-1.86,0-2.78,0-.17-.05-.24-.2-.31-.92-.45-1.43-1.19-1.42-2.22,0-1.02,.51-1.77,1.43-2.21,.15-.07,.2-.16,.19-.32,0-.83,0-1.66,0-2.5,0-.09,0-.17,0-.29h4.06v-2.83h-11.41c0,.06,0,.1,0,.14,0,1.8,0,3.61,0,5.41,0,.19,.1,.21,.24,.24,1.07,.29,1.8,1.24,1.81,2.34,.01,1.09-.74,2.08-1.82,2.36-.18,.05-.23,.12-.23,.3,0,1.76,0,3.51,0,5.27,0,.07,0,.14,.01,.23Zm-10.64-11.42v6.54h-1.6v1.2h3.24v-8.96h-3.23v1.22h1.59Zm20.45,6.54v-6.55h1.6v-1.21h-3.23v8.96h3.23v-1.21h-1.6Zm-22.04-5.71v4.88h.77v-4.88h-.77Zm23.65,4.88c0-.1,0-.19,0-.28,0-.68,0-1.37,0-2.05,0-.77,0-1.55,0-2.32,0-.1,.05-.23-.13-.23-.22,0-.44,0-.66,0v4.89h.8Zm-12.25-3.98c-.7,.11-1.24,.84-1.22,1.6,.02,.72,.6,1.42,1.22,1.48v-3.07Zm.83,0v3.09c.67-.12,1.2-.8,1.21-1.53,0-.74-.52-1.43-1.21-1.56Zm-8.16,.14v2.8c.53-.35,.8-.81,.8-1.4,0-.59-.27-1.05-.8-1.4Zm15.49,0c-.56,.37-.83,.85-.8,1.48,.02,.57,.29,1,.8,1.33v-2.81Z"/>
      </g>
      <g>
        <path class="cls-10" d="M279.47,124.75h-28.64c-1.59,0-2.88,1.29-2.88,2.88v23.63c0,1.59,1.29,2.88,2.88,2.88h8.43c1.06,0,2.04,.59,2.54,1.53l1.16,2.18,1.83,3.44c.15,.29,.57,.29,.73,0l1.83-3.44,1.16-2.18c.5-.94,1.48-1.53,2.54-1.53h8.43c1.59,0,2.88-1.29,2.88-2.88v-23.63c0-1.59-1.29-2.88-2.88-2.88Z"/>
        <g>
          <path d="M255.13,145.45c.12-.2,.31-.24,.53-.24,2.39,0,4.79,0,7.18,0,.09,0,.19,0,.29,0v-2.27c-1.93-.67-3.64-1.62-4.4-3.74-.03,0-.1,0-.16-.02-.19-.05-.31-.23-.3-.42,.01-.2,.17-.35,.38-.37,.06,0,.12,0,.18,0,4.19,0,8.37,0,12.56,0,.07,0,.13,0,.2,0,.2,.02,.35,.16,.37,.35,.02,.2-.07,.37-.26,.41-.17,.04-.2,.13-.24,.26-.25,.85-.82,1.48-1.48,2.03-.78,.66-1.67,1.11-2.63,1.41-.06,.02-.13,.04-.19,.06v2.28h.29c2.36,0,4.71,0,7.07,0,.06,0,.12,0,.18,0,.28,0,.44,.12,.47,.34,.03,.22-.08,.36-.35,.46-.06,.02-.11,.1-.14,.16-.4,1.25-1.19,2.14-2.39,2.66-.51,.22-1.04,.33-1.59,.33-3.7,0-7.4,0-11.1,0-1.79,0-3.37-1.17-3.93-2.85-.06-.17-.08-.33-.32-.35-.08,0-.15-.11-.22-.16,0-.12,0-.24,0-.35Zm18.75,.58h-17.46s.01,.06,.02,.08c.42,1.3,1.72,2.25,3.16,2.26,3.69,0,7.38,.01,11.07,0,.42,0,.85-.1,1.25-.25,.97-.37,1.61-1.08,1.96-2.08Zm-14.19-6.83c.04,.1,.07,.19,.1,.28,.2,.46,.49,.87,.87,1.19,2.12,1.8,4.49,2.21,7.08,1.19,1.01-.4,1.89-1,2.5-1.93,.14-.22,.25-.47,.38-.73h-10.94Zm4.27,5.99h2.38v-2.04h-2.38v2.04Z"/>
          <path d="M264.73,135.17c.06-1.12-.88-2.21-2.01-2.35-1.49-.19-2.66,.77-2.77,2.27,0,.04,0,.07,0,.11-.03,.25-.19,.41-.41,.4-.23,0-.4-.19-.38-.45,.02-.29,.05-.59,.13-.87,.66-2.23,3.39-3.02,5.15-1.51,.07,.06,.14,.12,.26,.22-.03-.13-.04-.21-.06-.28-.43-1.66-1.95-2.8-3.66-2.72-1.68,.08-3.12,1.36-3.38,3.04-.03,.18-.03,.37-.05,.55-.02,.26-.18,.43-.42,.42-.23-.01-.39-.19-.38-.46,.02-.98,.32-1.87,.93-2.65,1.98-2.54,5.88-2.19,7.38,.67,.03,.06,.06,.11,.09,.16,.21-.32,.4-.63,.63-.92,1.11-1.38,2.97-1.95,4.67-1.43,1.68,.51,2.93,2.01,3.1,3.75,.01,.12,.03,.25,.03,.38,0,.3-.14,.49-.39,.5-.25,0-.4-.17-.41-.47-.08-1.43-.73-2.51-2.01-3.16-2.05-1.05-4.57,.14-5.1,2.38-.01,.06-.02,.12-.03,.23,.13-.11,.22-.2,.32-.27,1.04-.8,2.18-.96,3.37-.41,1.18,.55,1.78,1.53,1.85,2.83,.01,.27-.15,.46-.39,.47-.23,0-.4-.16-.41-.43-.04-.87-.39-1.57-1.15-2.03-1.52-.94-3.5,.06-3.66,1.84,0,.06,0,.11,0,.21,.44-.31,.91-.42,1.42-.37,.97,.09,1.79,1,1.77,1.98,0,.23-.16,.4-.37,.42-.21,.01-.39-.14-.42-.37-.02-.1-.01-.21-.04-.31-.14-.61-.69-.98-1.33-.92-.57,.06-1.03,.57-1.04,1.17,0,.4,0,.8,0,1.21h-.8c0-.41,0-.81,0-1.22-.01-.51-.34-.95-.81-1.11-.47-.16-.98-.02-1.31,.36-.18,.22-.27,.47-.29,.75-.02,.35-.33,.54-.6,.38-.16-.09-.2-.24-.2-.41,.03-1.48,1.67-2.42,2.97-1.69,.06,.04,.13,.07,.21,.12Z"/>
        </g>
      </g>
      <g>
        <path class="cls-10" d="M89.84,519.08h-28.64c-1.59,0-2.88,1.29-2.88,2.88v23.63c0,1.59,1.29,2.88,2.88,2.88h8.43c1.06,0,2.04,.59,2.54,1.53l1.16,2.18,1.83,3.44c.15,.29,.57,.29,.73,0l1.83-3.44,1.16-2.18c.5-.94,1.48-1.53,2.54-1.53h8.43c1.59,0,2.88-1.29,2.88-2.88v-23.63c0-1.59-1.29-2.88-2.88-2.88Z"/>
        <g>
          <path class="cls-5" d="M64.68,533.11c.1-.25,.29-.34,.55-.34,.49,0,.97,0,1.46,0,.1,0,.22,.02,.31,.06,.17,.09,.25,.25,.21,.44-.04,.2-.19,.33-.41,.33-.34,0-.68,0-1.02,0-.08,0-.15,0-.24,0v1.85h9.54v-1.85h-.23c-1.48,0-2.96,0-4.45,0-.06,0-.11,0-.17,0-.28,0-.47-.17-.47-.41,0-.24,.19-.43,.47-.43,.63,0,1.26,0,1.88,0,.06,0,.11,0,.18,0-.08-.22-.16-.43-.22-.64-.57-1.88,.49-3.93,2.35-4.56,.17-.06,.21-.13,.2-.3-.13-2.27,1.44-4.31,3.69-4.81,2.34-.52,4.84,.98,5.47,3.3,.18,.66,.23,1.32,.12,1.99-.01,.07-.01,.14-.02,.22,.99,.2,1.74,.73,2.18,1.64,.34,.7,.38,1.42,.14,2.16-.46,1.43-2.16,2.55-4.06,1.74-.52,.99-1.33,1.58-2.44,1.77v4.14c.84-.54,1.71-.67,2.6-.19,.88,.47,1.28,1.25,1.29,2.24,.01,0,.02,.02,.03,.03,.29,.07,.44,.24,.42,.47-.03,.24-.21,.38-.52,.38-6.11,0-12.22,0-18.33,0-.25,0-.42-.1-.54-.3v-.25c.12-.2,.29-.31,.54-.3,.16,.01,.32,0,.49,0,.22,0,.44,0,.66,0v-1.1c-.37,0-.73-.01-1.08,0-.26,.01-.47-.06-.6-.3v-1.95c.12-.2,.29-.31,.54-.3,.16,.01,.32,0,.49,0,.22,0,.44,0,.66,0v-1.52c-.37,0-.73-.01-1.09,0-.26,.01-.47-.06-.59-.3v-2.92Zm14.19,1.29c0-.37,0-.72,0-1.07,0-.14-.04-.23-.14-.33-.68-.67-1.35-1.34-2.02-2.02-.1-.1-.19-.28-.18-.42,.01-.12,.14-.27,.26-.34,.17-.09,.34,0,.47,.13,.47,.47,.95,.95,1.42,1.42,.05,.05,.1,.09,.17,.16,0-.11,0-.18,0-.25,0-.93,0-1.86,0-2.79,0-.08,0-.17,.02-.25,.05-.21,.21-.33,.42-.32,.2,0,.36,.15,.39,.35,.01,.09,.01,.18,.01,.27,0,.48,0,.95,0,1.47,.08-.08,.14-.12,.18-.17,.4-.4,.81-.81,1.21-1.21,.05-.05,.1-.1,.16-.14,.19-.13,.41-.11,.56,.05,.14,.15,.15,.37,.02,.54-.05,.06-.1,.12-.16,.17-.61,.61-1.23,1.22-1.84,1.85-.07,.07-.13,.2-.13,.31-.01,.8,0,1.61,0,2.41,0,.06,0,.12,.01,.2,.88-.22,1.47-.72,1.77-1.56,.16-.44,.39-.53,.79-.27,.58,.37,1.19,.44,1.84,.23,1.31-.43,1.81-2.15,.94-3.22-.43-.52-.97-.8-1.65-.81-.41,0-.57-.24-.47-.63,.01-.05,.03-.09,.04-.14,.16-.61,.17-1.23,.03-1.84-.48-1.98-2.27-3.19-4.29-2.93-2.04,.27-3.56,2.3-3.23,4.32,.07,.45-.03,.59-.48,.7-1.96,.46-2.86,2.64-1.81,4.36,.07,.12,.15,.16,.29,.16,.55,0,1.1,0,1.65,0,.73,0,.79,.06,.79,.78v.41c.4-.02,.74-.14,1.07-.31,.23-.12,.43-.1,.61,.09,.06,.06,.12,.12,.19,.17,.3,.25,.64,.42,1.05,.48Zm-4.61,3.46c.39,0,.77,0,1.15,0,.38,0,.53,.15,.54,.54,0,.48,0,.96,0,1.44,0,.41-.15,.56-.56,.56-.37,0-.74,0-1.12,0v1.09h2.69c.26-.99,.9-1.58,1.9-1.76v-4.44c-.24-.07-.47-.12-.68-.2-.22-.08-.45-.17-.62-.31-.25-.22-.47-.24-.77-.12-.26,.11-.55,.13-.84,.2,0,.29,0,.58,0,.87,0,.49-.12,.62-.61,.62-.36,0-.71,0-1.07,0v1.52Zm-7.03-.01h6.16v-1.5h-6.16v1.5Zm7.86,.88h-9.54v.82h9.54v-.82Zm-1.69,1.69h-6.16v1.08h6.16v-1.08Zm9.36,1.08c.06-.68-.32-1.31-.94-1.58-.6-.26-1.34-.13-1.76,.38-.23,.28-.47,.35-.81,.29-.6-.1-1.27,.37-1.36,.91h4.88Z"/>
          <path class="cls-5" d="M68.49,532.78c.22,0,.42,.2,.42,.42,0,.22-.19,.42-.42,.42-.22,0-.42-.19-.42-.42,0-.22,.2-.42,.42-.42Z"/>
          <path class="cls-5" d="M79.27,527.44c-.23-.01-.41-.21-.4-.44,.02-.23,.21-.4,.44-.39,.23,.01,.41,.21,.4,.44-.01,.23-.21,.4-.44,.39Z"/>
        </g>
      </g>
    </g>
  </g>
</svg>