<svg width="461" height="642" viewBox="0 0 461 642" fill="none" xmlns="http://www.w3.org/2000/svg">
<g clip-path="url(#clip0_62_619)">
<path d="M24.52 33.4048H27.29H24.52ZM391.34 33.4048H0V608.885H447.22V33.4048H391.34Z" fill="#000019"/>
<path d="M447.22 515.295V550.455L417.44 536.885L426.03 509.035L447.22 515.295Z" fill="#101033"/>
<path d="M447.22 559.045V601.155L398.76 579.255L413.29 545.615L447.22 559.045Z" fill="#101033"/>
<path d="M441.77 608.885H384.88L394.75 586.195L441.77 608.885Z" fill="#101033"/>
<path d="M417.83 120.805C417.83 120.805 404.55 139.545 384.55 145.615C364.55 151.685 339.66 159.915 339.66 159.915L363.88 95.9148L417.82 120.805H417.83Z" fill="#101033"/>
<path d="M330.44 139.695L327.89 145.615L300.11 133.915L279.44 126.585L286.55 108.135L305.44 117.245L330.44 139.695Z" fill="#101033"/>
<path d="M326.33 152.635L323.07 170.025L290.63 177.585L266.18 194.245L257.15 179.245L263.52 168.135L276.55 133.915L326.33 152.635Z" fill="#101033"/>
<path d="M253.29 170.245C253.29 170.245 253.22 184.355 236.33 193.025C235.89 181.695 234.63 169.915 234.63 169.915L253.3 170.245H253.29Z" fill="#101033"/>
<path d="M227.89 169.915L228.77 195.545L194.77 209.475V165.475L227.89 169.915Z" fill="#101033"/>
<path d="M198.11 254.215L195.89 217.695L242.55 197.245L247.66 203.695L245.89 213.025L210.55 257.475L198.11 254.215Z" fill="#101033"/>
<path d="M204.33 264.135L197.89 272.585V261.695L204.33 264.135Z" fill="#101033"/>
<path d="M236.39 259.855L238.55 245.695L226.77 259.915L236.39 259.855Z" fill="#101033"/>
<path d="M194.75 33.4048L192.55 42.3648L210.33 47.6948L211.41 33.4048H194.75Z" fill="#101033"/>
<path d="M402.33 440.585L392.36 477.615L351.37 459.105L366.48 424.585L402.33 440.585Z" fill="#101033"/>
<path d="M361.07 421.615L344.26 455.395L300.4 434.355L315.22 401.475L361.07 421.615Z" fill="#101033"/>
<path d="M363.22 414.805L378.63 382.215L333 360.285L318.77 393.695L363.22 414.805Z" fill="#101033"/>
<path d="M381.59 375.395L397.29 341.915L351.37 319.985L337.44 352.875L381.59 375.395Z" fill="#101033"/>
<path d="M415.66 299.245L400.55 333.805L354.33 312.285L370.33 276.435L415.66 299.245Z" fill="#101033"/>
<path d="M433.82 255.695L419.22 293.325L373.29 272.585L390.18 234.955L433.82 255.695Z" fill="#101033"/>
<path d="M121.44 521.765L89.44 571.245C89.44 571.245 73.16 568.025 64.13 574.195C57.17 579.085 41.03 601.475 41.03 601.475L22.18 587.835L81.29 493.765L121.44 521.765Z" fill="#101033"/>
<path d="M36.96 608.575L36.75 608.885H4.95001L15.81 593.175L36.96 608.575Z" fill="#101033"/>
<path d="M87.07 576.735L68.49 608.885H51.57L47.52 606.065C47.52 606.065 61.52 581.955 71.29 578.405C79.18 575.625 87.07 576.735 87.07 576.735Z" fill="#7ACEC6"/>
<path d="M404.7 434.355L414.39 400.355L384.55 386.065L370.33 417.475L404.7 434.355Z" fill="#101033"/>
<path d="M447.22 369.615V404.465L388.11 378.065L404.11 344.885L447.22 369.615Z" fill="#101033"/>
<path d="M447.22 413.475V506.805C434.94 504.805 413.95 497.475 406.77 494.805C396.4 490.955 399.07 482.365 399.07 482.365L420.4 403.145L447.22 413.475Z" fill="#7ACEC6"/>
<path d="M447.22 316.705V359.425L407.37 337.775L422.48 301.035L447.22 316.705Z" fill="#101033"/>
<path d="M447.22 262.415V307.505L424.85 294.515L440.55 257.775L447.22 262.415Z" fill="#101033"/>
<path d="M447.22 242.055V251.835L444.11 249.775L447.22 242.055Z" fill="#101033"/>
<path d="M447.22 170.245V205.945L388.11 177.475L430.03 159.915L447.22 170.245Z" fill="#101033"/>
<path d="M447.22 215.245V225.635L438.12 247.995L392.55 228.735L405.29 195.545L447.22 215.245Z" fill="#101033"/>
<path d="M382.48 232.585L366.77 267.245L323.81 246.805L340.4 213.025L382.48 232.585Z" fill="#101033"/>
<path d="M190.22 143.105L199.66 129.475L210.33 55.6049L190.22 50.0649L185.15 96.5849L190.22 143.105Z" fill="#101033"/>
<path d="M363.22 274.955L347.81 309.615L305.15 290.065L321.44 254.215L363.22 274.955Z" fill="#101033"/>
<path d="M344.26 317.025L328.85 350.805L286.18 330.655L302.48 296.585L344.26 317.025Z" fill="#101033"/>
<path d="M326.07 358.505L310.77 391.695L267.81 371.245L283.81 337.175L326.07 358.505Z" fill="#101033"/>
<path d="M307.81 397.915L293 430.505L260.11 414.215L254.18 372.435L307.81 397.915Z" fill="#101033"/>
<path d="M289.74 440.585L277 469.915L263.96 464.725L259.81 424.585L289.74 440.585Z" fill="#101033"/>
<path d="M66.63 119.105L59.81 126.105L62.18 138.665L84.11 183.405L64.85 190.215L34.92 181.475L13.89 169.915L0 159.135V118.165L79.37 47.6948L90.63 58.9548L87.66 71.1048L89.44 119.105H66.63Z" fill="#101033"/>
<path d="M24.52 33.4048L0 52.7048V33.4048H24.52Z" fill="#101033"/>
<path d="M0 108.375L82.92 34.6648L83.33 33.4048H27.29L30.18 36.1448L0 61.9448V108.375Z" fill="#101033"/>
<path d="M275.1 477.615L267.81 492.435L263.96 471.395L275.1 477.615Z" fill="#101033"/>
<path d="M261.66 367.985L295.89 293.325L243.44 270.805L251.89 363.025L261.66 367.985Z" fill="#101033"/>
<path d="M299.22 286.955L315.22 251.695L291.44 240.875L273 261.695L267.81 272.585L299.22 286.955Z" fill="#101033"/>
<path d="M286.55 238.245L269.66 256.805L262.66 270.025L243.44 262.805L246.44 240.135L259.89 229.475L286.55 238.245Z" fill="#101033"/>
<path d="M335.22 211.695L319.22 245.695C319.22 245.695 293 235.915 286.55 229.475C280.1 223.035 286.18 211.695 286.18 211.695L312.77 201.025L335.21 211.695H335.22Z" fill="#101033"/>
<path d="M385.89 225.245L400.77 193.025L377 182.135L321.89 197.915L385.89 225.245Z" fill="#101033"/>
<path d="M374.33 176.135L369.29 162.205L320.4 177.765C320.4 177.765 288.85 190.545 286.55 203.695C319.22 192.365 374.33 176.135 374.33 176.135Z" fill="#101033"/>
<path d="M447.22 133.325V142.075C434.62 147.945 414.35 157.325 413.44 157.475C412.11 157.695 380.55 173.035 380.55 173.035L377.42 158.665L399.37 153.625L424.33 135.695C424.33 135.695 432.55 130.585 445.66 132.805C446.2 132.975 446.72 133.155 447.22 133.325Z" fill="#101033"/>
<path d="M447.22 90.1948V124.815L435.89 119.035L446.33 89.9148L447.22 90.1948Z" fill="#101033"/>
<path d="M432.55 85.0248L423.07 114.355L366.18 89.9148L376.55 65.1748L432.55 85.0248Z" fill="#101033"/>
<path d="M444.11 54.8048L435.39 78.6748L378.55 58.9548L388.84 33.4048H391.34L444.11 54.8048Z" fill="#101033"/>
<path d="M447.22 33.4048V44.1848L446.44 46.2548L412.73 33.4048H447.22Z" fill="#101033"/>
<path d="M45 405.695L49.44 433.255L38.33 425.035C38.33 425.035 33.44 421.035 35.89 417.475C38.34 413.915 45 405.695 45 405.695Z" fill="#101033"/>
<path d="M175.07 606.515L173.52 608.885H131.44L144.4 587.845L175.07 606.515Z" fill="#101033"/>
<path d="M139.22 583.405L123.07 608.885H77.58L107.07 562.955L139.22 583.405Z" fill="#101033"/>
<path d="M165.59 582.805L186.33 550.505L139.54 515.565L115.52 552.285L165.59 582.805Z" fill="#101033"/>
<path d="M250.92 407.695L263.96 519.995L245.29 521.775L239.96 514.815L227.22 414.515C227.22 414.515 226.92 409.775 231.37 409.185C235.82 408.595 250.93 407.705 250.93 407.705L250.92 407.695Z" fill="#101033"/>
<path d="M277.29 579.245L279.37 598.655L285.59 582.805L277.29 579.245Z" fill="#101033"/>
<path d="M339.53 608.885H282.63C283.52 600.585 291.52 587.845 291.52 587.845L339.53 608.885Z" fill="#101033"/>
<path d="M388.11 582.805L375.19 608.885H356.24L295.07 579.255L310.77 545.475L388.11 582.805Z" fill="#101033"/>
<path d="M389.59 574.215L406.77 541.615L330.03 504.585L315.37 539.395L389.59 574.215Z" fill="#101033"/>
<path d="M308.11 534.805L323.52 501.615L281.44 480.875L269.29 501.915V517.615L308.11 534.805Z" fill="#101033"/>
<path d="M303.96 542.215L289.74 576.875L277.29 571.845L271.66 526.215L303.96 542.215Z" fill="#101033"/>
<path d="M409.74 533.325L420.41 506.365C420.41 506.365 397.89 500.435 394.34 496.885C390.79 493.335 391.08 485.625 391.08 485.625L347.52 464.885L333 496.885L409.74 533.325Z" fill="#101033"/>
<path d="M325.32 494.805L341.59 462.505L296.4 440.585L282.39 472.285L325.32 494.805Z" fill="#101033"/>
<path d="M273.35 608.885H203.41L170.03 587.845L190.22 554.365L209.44 567.105L212.7 562.955L144.4 509.625C144.4 509.625 150.77 499.545 170.03 468.145C189.29 436.735 197 403.845 201.15 371.845C205.29 339.845 198.77 291.545 198.77 291.545L220.7 267.255L236.11 269.475L250.33 399.995C250.33 399.995 234.63 401.475 227.22 402.955C219.81 404.435 220.7 411.545 220.7 411.545L233.15 517.915L241.74 526.805H264.85L273.35 608.885Z" fill="#101033"/>
<path d="M454.58 44.105C451.08 55.175 443 77.985 438.33 89.915C427.44 117.765 416.13 143.915 392.22 150.355C334.78 165.835 298.33 179.465 275.66 193.025C252.99 206.585 194.77 282.945 194.77 282.945" stroke="#89A5FF" stroke-width="12" stroke-miterlimit="10"/>
<path d="M27.89 278.585L63 369.915L49.67 389.025C49.67 389.025 45.89 371.465 41.67 363.915C37.45 356.365 13.67 302.135 13.67 302.135C13.67 302.135 7.44999 294.575 16.11 287.245C24.77 279.915 27.89 278.575 27.89 278.575V278.585Z" fill="#101033"/>
<path d="M44.11 397.695L31.44 412.805L0 350.565V266.285C4.73 261.265 8.33 257.475 8.33 257.475L13 252.365L24.11 271.255L5.89 287.915C5.89 287.915 1.44 294.145 5.89 303.915C10.33 313.695 36.55 363.695 40.33 379.255C44.11 394.805 44.11 397.695 44.11 397.695Z" fill="#101033"/>
<path d="M45 438.365L35 451.695L0 427.125V364.225L10.04 384.365L30.55 428.365L45 438.365Z" fill="#101033"/>
<path d="M0 437.015L75.52 489.475L16.55 579.255L0 568.295V559.745L12.4 544.285L11.81 534.805L0 526.695V437.015Z" fill="#101033"/>
<path d="M10.04 245.325L0 254.875V170.105L10.04 179.255L40.55 191.405L32.55 207.995H41.44L49.15 194.365L65.74 197.325L87.37 191.405V218.065L38.77 228.435L39.96 234.665L88.26 225.775L89.44 266.665L42.92 266.065L30.48 269.475C30.48 269.475 23.66 253.625 20.4 247.995C17.15 242.365 10.04 245.325 10.04 245.325Z" fill="#101033"/>
<path d="M6.77 539.545L0 547.835V534.905L6.77 539.545Z" fill="#101033"/>
<path d="M9.15 590.515L0 603.685V584.415L9.15 590.515Z" fill="#101033"/>
<path d="M253.3 33.4048L237.59 69.6248L227.52 117.035V163.845L192.55 157.325L207.96 131.255C207.96 131.255 215.66 74.9548 216.85 66.0648C217.45 61.5548 218.51 46.8248 219.41 33.4048H253.3Z" fill="#101033"/>
<path d="M254.85 47.6948L245.59 73.1748L242.63 92.7248L256.85 94.5048V72.8748L261.29 50.3548L254.85 47.6948Z" fill="#101033"/>
<path d="M267.52 53.325L296.85 66.0649L273.44 122.355L258.92 118.215L267.52 53.325Z" fill="#101033"/>
<path d="M253.29 101.615L250.33 140.135V163.845H234.63L236.11 125.615L241.44 99.845L253.29 101.615Z" fill="#101033"/>
<path d="M269.89 128.585L257.15 167.105V124.135L269.89 128.585Z" fill="#101033"/>
<path d="M308.11 37.9148L299.22 58.9548L257.15 41.4748L260.85 33.4048H294.85L308.11 37.9148Z" fill="#101033"/>
<path d="M374.45 33.4048L365.89 54.8048L318.48 34.6648L318.94 33.4048H374.45Z" fill="#101033"/>
<path d="M362.33 60.4348L352.55 83.8448L305.44 62.8048L313.74 41.1748L362.33 60.4348Z" fill="#101033"/>
<path d="M349 90.0648L333.89 133.915L309.89 111.985L289.44 101.915L302.77 68.1348L349 90.0648Z" fill="#101033"/>
<path d="M187.66 276.585H147.66V334.805H140.99V276.585L43.66 272.585L32.99 276.005L69.89 369.475L50.78 397.035L55.22 425.475L70.78 403.695L74.34 409.025L41.01 456.135L126.08 515.235C126.08 515.235 164.12 462.355 173.45 434.795C182.78 407.235 192.12 379.105 189.89 332.725C187.66 286.345 187.67 276.575 187.67 276.575L187.66 276.585Z" fill="#101033"/>
<path d="M177.44 269.475L96.11 266.365L93.89 217.475L125.45 207.695V199.695L93.89 209.475V188.585L124.11 177.475L182.78 179.695V214.365C182.78 214.365 175.67 219.695 176.11 234.805C176.55 249.915 177.44 269.475 177.44 269.475Z" fill="#101033"/>
<path d="M182.77 172.585H150.77L148.11 131.845H180.11L182.77 172.585Z" fill="#101033"/>
<path d="M143.25 172.755L141.85 130.775L127.66 128.125L78.77 126.125C78.77 126.125 67.21 125.315 68.1 131.825C71.21 141.455 76.99 152.195 76.99 152.195L91.66 182.125L122.99 170.125L143.25 172.745V172.755Z" fill="#101033"/>
<path d="M180.11 43.6948L176.11 89.9148L177.89 122.365H148.11L141.89 86.2148L144.19 33.4048H183.71L180.11 43.6948Z" fill="#101033"/>
<path d="M138.33 122.355L118.33 119.685H97.44C97.44 119.685 95.66 79.6849 95.66 68.5749C95.66 57.4649 98.33 54.7949 98.33 54.7949L136.11 58.9449C136.11 58.9449 133.44 83.6849 135.67 101.015C137.9 118.345 138.34 122.345 138.34 122.345L138.33 122.355Z" fill="#101033"/>
<path d="M138.33 33.4048V51.6948L102.77 47.6948L93.89 51.6948L86.33 39.2548L89.89 36.1448C90.47 35.6348 91.09 34.6648 91.72 33.4048H138.33Z" fill="#101033"/>
<path fill-rule="evenodd" clip-rule="evenodd" d="M165.44 214.515C159.6 214.515 154.87 219.245 154.87 225.085C154.87 230.295 160.59 236.675 163.57 241.435L165.44 244.435L167.32 241.435C170.29 236.675 176.01 230.295 176.01 225.085C176.01 219.245 171.28 214.515 165.44 214.515ZM165.44 231.035C162.15 231.035 159.49 228.365 159.49 225.085C159.49 221.805 162.15 219.125 165.44 219.125C168.73 219.125 171.39 221.795 171.39 225.085C171.39 228.375 168.73 231.035 165.44 231.035Z" fill="#FF5269"/>
<path fill-rule="evenodd" clip-rule="evenodd" d="M162.49 311.035C156.9 311.035 151.75 312.945 147.66 316.165C144.88 318.345 142.59 321.125 141 324.325C139.38 327.555 138.47 331.195 138.47 335.055C138.47 346.895 151.47 361.415 158.23 372.225L162.49 379.045L166.75 372.225C173.51 361.415 186.5 346.895 186.5 335.055C186.5 321.785 175.75 311.035 162.49 311.035ZM162.49 348.575C155.02 348.575 148.96 342.525 148.96 335.055C148.96 327.585 155.02 321.525 162.49 321.525C169.96 321.525 176.01 327.585 176.01 335.055C176.01 342.525 169.95 348.575 162.49 348.575Z" fill="#FF5269"/>
<path d="M56.95 638.805C99.78 570.645 175.84 445.035 178.77 438.215C183.37 427.545 196.11 401.405 195.89 350.805C195.66 300.205 187.81 186.365 182.77 110.255C180.48 75.655 184.44 50.525 189.44 33.405C195.43 12.855 202.92 3.84497 202.92 3.84497" stroke="#89A5FF" stroke-width="12" stroke-miterlimit="10"/>
<path d="M390.06 8.13477L329 169.515" stroke="#89A5FF" stroke-width="12" stroke-miterlimit="10"/>
<path fill-rule="evenodd" clip-rule="evenodd" d="M185.77 551.385C185.19 550.255 184.42 549.235 183.49 548.395C183.48 548.385 183.47 548.375 183.46 548.365C182.99 547.935 182.51 547.535 181.95 547.235C181.94 547.235 181.93 547.235 181.92 547.225C181.92 547.215 181.92 547.215 181.92 547.215C181.91 547.205 181.9 547.205 181.89 547.195C181.89 547.185 181.89 547.185 181.89 547.185C181.88 547.175 181.87 547.175 181.86 547.165C181.86 547.155 181.85 547.155 181.85 547.155C181.84 547.155 181.83 547.155 181.82 547.135C181.82 547.125 181.81 547.125 181.81 547.125C181.81 547.115 181.79 547.115 181.78 547.105C181.78 547.095 181.77 547.095 181.77 547.095C180.19 546.155 178.35 545.615 176.38 545.615C170.54 545.615 165.81 550.345 165.81 556.185C165.81 560.775 170.25 566.275 173.34 570.775C173.76 571.385 174.15 571.975 174.5 572.545L176.38 575.545L178.25 572.545C181.23 567.785 186.94 561.395 186.94 556.185C186.94 554.455 186.53 552.825 185.79 551.385H185.77ZM182.27 556.835C182.07 558.735 180.97 560.355 179.41 561.295H179.4C178.51 561.835 177.47 562.135 176.36 562.135C173.07 562.135 170.4 559.475 170.4 556.185C170.4 552.895 173.07 550.235 176.36 550.235C179.65 550.235 182.31 552.895 182.31 556.185C182.31 556.405 182.31 556.615 182.27 556.825V556.835Z" fill="#FF5269"/>
<path fill-rule="evenodd" clip-rule="evenodd" d="M432.41 455.535C431.83 454.405 431.06 453.385 430.13 452.545C430.12 452.535 430.11 452.525 430.1 452.515C429.63 452.085 429.15 451.685 428.59 451.385C428.58 451.385 428.57 451.385 428.56 451.375C428.56 451.365 428.56 451.365 428.56 451.365C428.55 451.355 428.54 451.355 428.53 451.345C428.53 451.335 428.53 451.335 428.53 451.335C428.52 451.325 428.51 451.325 428.5 451.315C428.5 451.305 428.49 451.305 428.49 451.305C428.48 451.305 428.47 451.305 428.46 451.285C428.46 451.275 428.45 451.275 428.45 451.275C428.45 451.265 428.43 451.265 428.42 451.255C428.42 451.245 428.41 451.245 428.41 451.245C426.83 450.305 424.99 449.765 423.02 449.765C417.18 449.765 412.45 454.495 412.45 460.335C412.45 464.925 416.89 470.425 419.98 474.925C420.4 475.535 420.79 476.125 421.14 476.695L423.02 479.695L424.89 476.695C427.87 471.935 433.58 465.545 433.58 460.335C433.58 458.605 433.17 456.975 432.43 455.535H432.41ZM428.91 460.985C428.71 462.885 427.61 464.505 426.05 465.445H426.04C425.15 465.985 424.11 466.285 423 466.285C419.71 466.285 417.04 463.625 417.04 460.335C417.04 457.045 419.71 454.385 423 454.385C426.29 454.385 428.95 457.045 428.95 460.335C428.95 460.555 428.95 460.765 428.91 460.975V460.985Z" fill="#FF5269"/>
</g>
<defs>
<clipPath id="clip0_62_619">
<rect width="461" height="642" fill="white"/>
</clipPath>
</defs>
</svg>
