<svg width="33" height="32" viewBox="0 0 33 32" fill="none" xmlns="http://www.w3.org/2000/svg">
<g clip-path="url(#clip0_8_17)">
<path d="M7.79538 8.54469C7.92882 4.22714 11.0516 0.704631 15.3131 0.0873039C19.8831 -0.57492 24.2437 2.604 25.0631 7.16162C25.3399 8.69995 25.0868 10.1504 24.5636 11.5883C23.569 14.3201 22.2065 16.8736 20.7836 19.3966C20.0902 20.6262 19.3226 21.8147 18.6466 23.0531C17.6938 24.7972 15.3536 24.7642 14.3634 23.0718C12.5388 19.9534 10.6906 16.8499 9.22459 13.5407C8.64031 12.2212 8.09843 10.883 7.87395 9.44386C7.8278 9.14767 7.82032 8.84524 7.79538 8.54531V8.54469ZM16.5215 4.61936C14.5935 4.61188 13.0202 6.1633 13.0115 8.08076C13.0028 10.0163 14.5716 11.6008 16.4997 11.602C18.4159 11.6039 19.9885 10.0356 19.9941 8.11755C19.9998 6.19261 18.4446 4.62684 16.5215 4.61936Z" fill="#E5204F"/>
<path d="M16.5078 32C13.1262 31.9164 9.78267 31.6146 6.52144 30.6824C5.02987 30.2559 3.57198 29.7284 2.31738 28.7855C1.87527 28.4532 1.46122 28.051 1.12887 27.6101C0.328834 26.5476 0.344423 25.2755 1.11016 24.1893C1.68134 23.3799 2.46267 22.8162 3.32879 22.3678C3.75531 22.1471 4.27848 22.331 4.5198 22.7407C4.76798 23.1622 4.65262 23.6941 4.2392 23.9822C3.89062 24.2254 3.51462 24.4331 3.18475 24.6987C2.16647 25.5187 2.1646 26.2582 3.1729 27.0919C4.11012 27.867 5.22318 28.3048 6.36056 28.6752C8.61411 29.4091 10.94 29.762 13.2964 29.9429C15.4764 30.11 17.657 30.1137 19.8351 29.9335C22.701 29.6959 25.5239 29.2507 28.184 28.0822C28.8712 27.7803 29.5253 27.4174 30.0641 26.8824C30.7668 26.1853 30.7787 25.5723 30.0503 24.9101C29.6774 24.5709 29.2347 24.3077 28.8176 24.0196C28.4808 23.7877 28.3031 23.4241 28.3705 23.0612C28.444 22.6646 28.7334 22.351 29.1343 22.3017C29.3195 22.2787 29.5403 22.303 29.7043 22.3859C30.4407 22.76 31.1098 23.2352 31.6491 23.8694C32.8146 25.2387 32.7317 26.8625 31.429 28.167C30.4519 29.1453 29.2341 29.7209 27.9626 30.1967C25.7902 31.0098 23.5304 31.4506 21.2313 31.6751C19.6612 31.8285 18.0829 31.8946 16.5078 32Z" fill="#E5204F"/>
<path d="M25.2452 24.483C24.5861 23.8962 23.8714 23.6524 23.1425 23.4566C22.4136 23.2608 21.6728 23.1099 20.8946 22.9297C21.2095 22.3959 21.5187 21.8627 21.8436 21.3389C21.876 21.2872 22.0095 21.2641 22.0862 21.2785C23.2703 21.5086 24.4414 21.7904 25.5052 22.3834C25.8456 22.5736 26.1768 22.8068 26.4542 23.0793C27.2823 23.8931 27.2705 24.9974 26.4542 25.8199C25.9149 26.363 25.242 26.6854 24.5374 26.9473C22.9978 27.5185 21.3915 27.7804 19.7672 27.9412C17.8403 28.132 15.9092 28.1532 13.9792 28.0017C11.9464 27.8421 9.92484 27.5864 8.03794 26.7552C7.49793 26.517 6.96977 26.1809 6.53889 25.78C5.71267 25.0105 5.74073 23.9062 6.52954 23.0924C7.1319 22.4707 7.8995 22.1196 8.70141 21.859C9.40042 21.632 10.1225 21.4768 10.8327 21.2866C11.0273 21.2342 11.1526 21.2735 11.2593 21.4693C11.5261 21.96 11.8205 22.4364 12.121 22.9484C10.6201 23.2601 9.10735 23.4591 7.78165 24.4268C7.9868 24.579 8.13584 24.7168 8.30794 24.8128C9.20649 25.3173 10.1936 25.5667 11.1944 25.7532C14.3665 26.3449 17.5535 26.3649 20.7449 25.9365C21.9184 25.7793 23.0801 25.543 24.1745 25.0691C24.5281 24.9163 24.8529 24.6987 25.2452 24.4811V24.483Z" fill="#E5204F"/>
</g>
<defs>
<clipPath id="clip0_8_17">
<rect width="31.9358" height="32" fill="white" transform="translate(0.532104)"/>
</clipPath>
</defs>
</svg>
